M48
INCH,TZ
T1C0.0079
T2C0.0118
T3C0.0354
T4C0.0394
T5C0.0402
T6C0.0630
%
G90
G05
T1
X15896Y-15515
X15896Y-15935
X15896Y-16355
X15896Y-16775
X16316Y-15515
X16316Y-15935
X16316Y-16355
X16316Y-16775
X16736Y-15515
X16736Y-15935
X16736Y-16355
X16736Y-16775
X17156Y-15515
X17156Y-15935
X17156Y-16355
X17156Y-16775
T2
X12000Y-30701
X12638Y-32047
X12677Y-31693
X12854Y-14721
X12864Y-14321
X12913Y-15236
X13150Y-15039
X13217Y-21535
X13395Y-13819
X13465Y-13031
X13522Y-20945
X13553Y-17411
X13622Y-13937
X13661Y-19252
X13816Y-19477
X13858Y-13228
X13925Y-19764
X14035Y-27808
X14055Y-18898
X14072Y-16486
X14102Y-22618
X14108Y-21639
X14115Y-23209
X14241Y-17036
X14252Y-17322
X14752Y-21102
X14764Y-20197
X14764Y-20630
X14791Y-27480
X14791Y-27795
X14791Y-28110
X14803Y-26299
X14882Y-19173
X14931Y-18307
X14990Y-16250
X15039Y-25669
X15079Y-13976
X15108Y-16998
X15146Y-27480
X15157Y-27798
X15165Y-28110
X15197Y-20197
X15197Y-20630
X15197Y-21102
X15384Y-17707
X15384Y-14528
X15500Y-27480
X15500Y-27795
X15500Y-28110
X15541Y-17313
X15591Y-13976
X15630Y-20630
X15630Y-21102
X15659Y-17667
X15768Y-26705
X15857Y-14549
X15906Y-13976
X16024Y-24961
X16219Y-14019
X16220Y-25866
X16220Y-26693
X16310Y-13780
X16339Y-19449
X16524Y-19961
X16524Y-23209
X16543Y-22618
X16642Y-21024
X16642Y-21339
X16722Y-14360
X16772Y-18177
X16978Y-14371
X17057Y-19104
X17067Y-14803
X17156Y-17707
X17323Y-14213
X17323Y-23661
X17480Y-28425
X17636Y-21250
X17828Y-17041
X17913Y-14213
X17987Y-21849
X18022Y-18730
X18140Y-15879
X18268Y-13268
X18465Y-20118
X18466Y-21919
X18533Y-16447
X18563Y-17480
X18687Y-14747
X18691Y-15955
X18773Y-15172
X18819Y-14528
X18868Y-19656
X18888Y-14943
X18898Y-24961
X18927Y-15738
X18927Y-16171
X18937Y-13937
X18937Y-29843
X19528Y-22677
X19528Y-23110
X19528Y-23819
X19567Y-13386
X19764Y-15945
X19764Y-19213
X19803Y-34685
X19917Y-20827
X19921Y-21850
X19961Y-25433
X20000Y-13819
X20000Y-27598
X20100Y-14585
X20276Y-31299
T3
X14232Y-30327
X14732Y-31327
X15232Y-30327
X15732Y-31327
X16232Y-30327
X16732Y-31327
X17232Y-30327
X17732Y-31327
X18232Y-30327
X18732Y-31327
T4
X11500Y-14965
X11500Y-16055
X11500Y-17055
X11500Y-18055
X11500Y-19055
X11500Y-20000
X11500Y-21000
X11500Y-22000
X11500Y-23000
X11500Y-24000
X11500Y-25000
X11500Y-26000
X11500Y-27000
X12000Y-14965
X12000Y-16055
X12000Y-17055
X12000Y-18055
X12000Y-19055
X12000Y-20000
X12000Y-21000
X12000Y-22000
X12000Y-23000
X12000Y-24000
X12000Y-25000
X12000Y-26000
X12000Y-27000
X21000Y-15000
X21000Y-16000
X21000Y-17000
X21000Y-18000
X21000Y-19000
X21000Y-20000
X21000Y-21000
X21000Y-22000
X21000Y-23000
X21000Y-24000
X21000Y-25000
X21000Y-26000
X21000Y-27000
X21000Y-29000
X21000Y-30024
X21500Y-15000
X21500Y-16000
X21500Y-17000
X21500Y-18000
X21500Y-19000
X21500Y-20000
X21500Y-21000
X21500Y-22000
X21500Y-23000
X21500Y-24000
X21500Y-25000
X21500Y-26000
X21500Y-27000
X21500Y-29000
X21500Y-30024
T5
X13872Y-35434
X14872Y-35434
X18093Y-35434
X19093Y-35434
T6
X13433Y-32626
X19531Y-32626
M30
