G04 #@! TF.GenerationSoftware,KiCad,Pcbnew,8.0.2*
G04 #@! TF.CreationDate,2024-06-13T23:11:37+12:00*
G04 #@! TF.ProjectId,LAN-Module-PoE-Castellated,4c414e2d-4d6f-4647-956c-652d506f452d,rev?*
G04 #@! TF.SameCoordinates,Original*
G04 #@! TF.FileFunction,Paste,Top*
G04 #@! TF.FilePolarity,Positive*
%FSLAX46Y46*%
G04 Gerber Fmt 4.6, Leading zero omitted, Abs format (unit mm)*
G04 Created by KiCad (PCBNEW 8.0.2) date 2024-06-13 23:11:37*
%MOMM*%
%LPD*%
G01*
G04 APERTURE LIST*
G04 Aperture macros list*
%AMRoundRect*
0 Rectangle with rounded corners*
0 $1 Rounding radius*
0 $2 $3 $4 $5 $6 $7 $8 $9 X,Y pos of 4 corners*
0 Add a 4 corners polygon primitive as box body*
4,1,4,$2,$3,$4,$5,$6,$7,$8,$9,$2,$3,0*
0 Add four circle primitives for the rounded corners*
1,1,$1+$1,$2,$3*
1,1,$1+$1,$4,$5*
1,1,$1+$1,$6,$7*
1,1,$1+$1,$8,$9*
0 Add four rect primitives between the rounded corners*
20,1,$1+$1,$2,$3,$4,$5,0*
20,1,$1+$1,$4,$5,$6,$7,0*
20,1,$1+$1,$6,$7,$8,$9,0*
20,1,$1+$1,$8,$9,$2,$3,0*%
%AMFreePoly0*
4,1,25,0.321488,0.458416,0.341677,0.442147,0.442147,0.341677,0.474896,0.281700,0.477668,0.255921,0.477668,-0.255921,0.458416,-0.321488,0.442147,-0.341677,0.341677,-0.442147,0.281700,-0.474896,0.255921,-0.477668,-0.255921,-0.477668,-0.321488,-0.458416,-0.341677,-0.442147,-0.442147,-0.341677,-0.474896,-0.281700,-0.477668,-0.255921,-0.477668,0.255921,-0.458416,0.321488,-0.442147,0.341677,
-0.341677,0.442147,-0.281700,0.474896,-0.255921,0.477668,0.255921,0.477668,0.321488,0.458416,0.321488,0.458416,$1*%
G04 Aperture macros list end*
%ADD10RoundRect,0.200000X0.200000X0.275000X-0.200000X0.275000X-0.200000X-0.275000X0.200000X-0.275000X0*%
%ADD11RoundRect,0.225000X0.225000X0.250000X-0.225000X0.250000X-0.225000X-0.250000X0.225000X-0.250000X0*%
%ADD12R,0.900000X1.200000*%
%ADD13RoundRect,0.150000X-0.512500X-0.150000X0.512500X-0.150000X0.512500X0.150000X-0.512500X0.150000X0*%
%ADD14RoundRect,0.200000X-0.200000X-0.275000X0.200000X-0.275000X0.200000X0.275000X-0.200000X0.275000X0*%
%ADD15RoundRect,0.250000X0.450000X-0.262500X0.450000X0.262500X-0.450000X0.262500X-0.450000X-0.262500X0*%
%ADD16RoundRect,0.200000X-0.275000X0.200000X-0.275000X-0.200000X0.275000X-0.200000X0.275000X0.200000X0*%
%ADD17RoundRect,0.225000X0.250000X-0.225000X0.250000X0.225000X-0.250000X0.225000X-0.250000X-0.225000X0*%
%ADD18RoundRect,0.225000X-0.225000X-0.250000X0.225000X-0.250000X0.225000X0.250000X-0.225000X0.250000X0*%
%ADD19RoundRect,0.200000X0.275000X-0.200000X0.275000X0.200000X-0.275000X0.200000X-0.275000X-0.200000X0*%
%ADD20R,1.200000X3.700000*%
%ADD21RoundRect,0.250000X0.475000X-0.250000X0.475000X0.250000X-0.475000X0.250000X-0.475000X-0.250000X0*%
%ADD22RoundRect,0.225000X-0.250000X0.225000X-0.250000X-0.225000X0.250000X-0.225000X0.250000X0.225000X0*%
%ADD23RoundRect,0.250000X-0.275000X0.275000X-0.275000X-0.275000X0.275000X-0.275000X0.275000X0.275000X0*%
%ADD24RoundRect,0.062500X-0.062500X0.362500X-0.062500X-0.362500X0.062500X-0.362500X0.062500X0.362500X0*%
%ADD25RoundRect,0.062500X-0.362500X0.062500X-0.362500X-0.062500X0.362500X-0.062500X0.362500X0.062500X0*%
%ADD26R,2.500000X1.800000*%
%ADD27RoundRect,0.207500X0.207500X-0.207500X0.207500X0.207500X-0.207500X0.207500X-0.207500X-0.207500X0*%
%ADD28RoundRect,0.062500X0.062500X-0.375000X0.062500X0.375000X-0.062500X0.375000X-0.062500X-0.375000X0*%
%ADD29RoundRect,0.062500X0.375000X-0.062500X0.375000X0.062500X-0.375000X0.062500X-0.375000X-0.062500X0*%
%ADD30RoundRect,0.200000X0.200000X0.800000X-0.200000X0.800000X-0.200000X-0.800000X0.200000X-0.800000X0*%
%ADD31C,1.000000*%
%ADD32RoundRect,0.218750X-0.256250X0.218750X-0.256250X-0.218750X0.256250X-0.218750X0.256250X0.218750X0*%
%ADD33RoundRect,0.250000X1.412500X0.550000X-1.412500X0.550000X-1.412500X-0.550000X1.412500X-0.550000X0*%
%ADD34FreePoly0,180.000000*%
%ADD35RoundRect,0.050000X0.350000X0.050000X-0.350000X0.050000X-0.350000X-0.050000X0.350000X-0.050000X0*%
%ADD36RoundRect,0.050000X0.050000X0.350000X-0.050000X0.350000X-0.050000X-0.350000X0.050000X-0.350000X0*%
%ADD37R,1.400000X1.200000*%
G04 APERTURE END LIST*
D10*
G04 #@! TO.C,R5*
X38825000Y-73800000D03*
X37175000Y-73800000D03*
G04 #@! TD*
G04 #@! TO.C,R14*
X38332500Y-58950000D03*
X36682500Y-58950000D03*
G04 #@! TD*
D11*
G04 #@! TO.C,C2*
X50850000Y-42200000D03*
X49300000Y-42200000D03*
G04 #@! TD*
D12*
G04 #@! TO.C,D2*
X48350000Y-57600000D03*
X51650000Y-57600000D03*
G04 #@! TD*
D13*
G04 #@! TO.C,U3*
X45562500Y-59550000D03*
X45562500Y-60500000D03*
X45562500Y-61450000D03*
X47837500Y-61450000D03*
X47837500Y-60500000D03*
X47837500Y-59550000D03*
G04 #@! TD*
D14*
G04 #@! TO.C,R8*
X32745000Y-55450000D03*
X34395000Y-55450000D03*
G04 #@! TD*
G04 #@! TO.C,R17*
X39682500Y-58950000D03*
X41332500Y-58950000D03*
G04 #@! TD*
D10*
G04 #@! TO.C,C22*
X34395000Y-56950000D03*
X32745000Y-56950000D03*
G04 #@! TD*
D15*
G04 #@! TO.C,R20*
X41200000Y-68512500D03*
X41200000Y-66687500D03*
G04 #@! TD*
D16*
G04 #@! TO.C,R32*
X34250000Y-37675000D03*
X34250000Y-39325000D03*
G04 #@! TD*
D17*
G04 #@! TO.C,C3*
X31100000Y-76975000D03*
X31100000Y-75425000D03*
G04 #@! TD*
D16*
G04 #@! TO.C,R2*
X36275000Y-36750000D03*
X36275000Y-38400000D03*
G04 #@! TD*
D18*
G04 #@! TO.C,C10*
X37525000Y-34000000D03*
X39075000Y-34000000D03*
G04 #@! TD*
D19*
G04 #@! TO.C,R11*
X52600000Y-81225000D03*
X52600000Y-79575000D03*
G04 #@! TD*
D16*
G04 #@! TO.C,R10*
X36100000Y-44875000D03*
X36100000Y-46525000D03*
G04 #@! TD*
D20*
G04 #@! TO.C,L2*
X48800000Y-54200000D03*
X51600000Y-54200000D03*
G04 #@! TD*
D21*
G04 #@! TO.C,C29*
X49500000Y-61650000D03*
X49500000Y-59750000D03*
G04 #@! TD*
D22*
G04 #@! TO.C,C13*
X48600000Y-47625000D03*
X48600000Y-49175000D03*
G04 #@! TD*
D11*
G04 #@! TO.C,C21*
X51675000Y-51200000D03*
X50125000Y-51200000D03*
G04 #@! TD*
D23*
G04 #@! TO.C,U2*
X38950000Y-69956233D03*
X37650000Y-69956233D03*
X38950000Y-71256233D03*
X37650000Y-71256233D03*
D24*
X39300000Y-68681233D03*
X38800000Y-68681233D03*
X38300000Y-68681233D03*
X37800000Y-68681233D03*
X37300000Y-68681233D03*
D25*
X36375000Y-69606233D03*
X36375000Y-70106233D03*
X36375000Y-70606233D03*
X36375000Y-71106233D03*
X36375000Y-71606233D03*
D24*
X37300000Y-72531233D03*
X37800000Y-72531233D03*
X38300000Y-72531233D03*
X38800000Y-72531233D03*
X39300000Y-72531233D03*
D25*
X40225000Y-71606233D03*
X40225000Y-71106233D03*
X40225000Y-70606233D03*
X40225000Y-70106233D03*
X40225000Y-69606233D03*
G04 #@! TD*
D14*
G04 #@! TO.C,R23*
X42350000Y-62200000D03*
X44000000Y-62200000D03*
G04 #@! TD*
D10*
G04 #@! TO.C,R13*
X38395000Y-57450000D03*
X36745000Y-57450000D03*
G04 #@! TD*
D26*
G04 #@! TO.C,D1*
X50230000Y-73031233D03*
X46230000Y-73031233D03*
G04 #@! TD*
D19*
G04 #@! TO.C,R6*
X32970000Y-72425000D03*
X32970000Y-70775000D03*
G04 #@! TD*
D14*
G04 #@! TO.C,R19*
X33825000Y-73831233D03*
X35475000Y-73831233D03*
G04 #@! TD*
D19*
G04 #@! TO.C,R29*
X45500000Y-36925000D03*
X45500000Y-35275000D03*
G04 #@! TD*
D14*
G04 #@! TO.C,R18*
X39682500Y-57450000D03*
X41332500Y-57450000D03*
G04 #@! TD*
D11*
G04 #@! TO.C,C20*
X34575000Y-69100000D03*
X33025000Y-69100000D03*
G04 #@! TD*
D19*
G04 #@! TO.C,C8*
X37925000Y-46550000D03*
X37925000Y-44900000D03*
G04 #@! TD*
D18*
G04 #@! TO.C,C24*
X43295000Y-56200000D03*
X44845000Y-56200000D03*
G04 #@! TD*
D10*
G04 #@! TO.C,R3*
X50925000Y-44200000D03*
X49275000Y-44200000D03*
G04 #@! TD*
D19*
G04 #@! TO.C,R12*
X31200000Y-81225000D03*
X31200000Y-79575000D03*
G04 #@! TD*
G04 #@! TO.C,R26*
X46900000Y-53525000D03*
X46900000Y-51875000D03*
G04 #@! TD*
D27*
G04 #@! TO.C,U4*
X37540000Y-53480000D03*
X38570000Y-53480000D03*
X39600000Y-53480000D03*
X37540000Y-52450000D03*
X38570000Y-52450000D03*
X39600000Y-52450000D03*
X37540000Y-51420000D03*
X38570000Y-51420000D03*
X39600000Y-51420000D03*
D28*
X36820000Y-54887500D03*
X37320000Y-54887500D03*
X37820000Y-54887500D03*
X38320000Y-54887500D03*
X38820000Y-54887500D03*
X39320000Y-54887500D03*
X39820000Y-54887500D03*
X40320000Y-54887500D03*
D29*
X41007500Y-54200000D03*
X41007500Y-53700000D03*
X41007500Y-53200000D03*
X41007500Y-52700000D03*
X41007500Y-52200000D03*
X41007500Y-51700000D03*
X41007500Y-51200000D03*
X41007500Y-50700000D03*
D28*
X40320000Y-50012500D03*
X39820000Y-50012500D03*
X39320000Y-50012500D03*
X38820000Y-50012500D03*
X38320000Y-50012500D03*
X37820000Y-50012500D03*
X37320000Y-50012500D03*
X36820000Y-50012500D03*
D29*
X36132500Y-50700000D03*
X36132500Y-51200000D03*
X36132500Y-51700000D03*
X36132500Y-52200000D03*
X36132500Y-52700000D03*
X36132500Y-53200000D03*
X36132500Y-53700000D03*
X36132500Y-54200000D03*
G04 #@! TD*
D11*
G04 #@! TO.C,C16*
X47850000Y-44300000D03*
X46300000Y-44300000D03*
G04 #@! TD*
D30*
G04 #@! TO.C,SW1*
X36000000Y-34400000D03*
X31800000Y-34400000D03*
G04 #@! TD*
D31*
G04 #@! TO.C,TP1*
X39900000Y-47600000D03*
G04 #@! TD*
D10*
G04 #@! TO.C,R4*
X48925000Y-35400000D03*
X47275000Y-35400000D03*
G04 #@! TD*
D16*
G04 #@! TO.C,R25*
X31100000Y-72175000D03*
X31100000Y-73825000D03*
G04 #@! TD*
D17*
G04 #@! TO.C,C6*
X32800000Y-66275000D03*
X32800000Y-64725000D03*
G04 #@! TD*
D32*
G04 #@! TO.C,D3*
X52500000Y-34312500D03*
X52500000Y-35887500D03*
G04 #@! TD*
D21*
G04 #@! TO.C,C4*
X43600000Y-74050000D03*
X43600000Y-72150000D03*
G04 #@! TD*
D10*
G04 #@! TO.C,L3*
X44795000Y-53200000D03*
X43145000Y-53200000D03*
G04 #@! TD*
D18*
G04 #@! TO.C,C26*
X43195000Y-51600000D03*
X44745000Y-51600000D03*
G04 #@! TD*
D19*
G04 #@! TO.C,R27*
X46900000Y-56525000D03*
X46900000Y-54875000D03*
G04 #@! TD*
G04 #@! TO.C,R28*
X50800000Y-35925000D03*
X50800000Y-34275000D03*
G04 #@! TD*
D18*
G04 #@! TO.C,C12*
X44725000Y-49855000D03*
X46275000Y-49855000D03*
G04 #@! TD*
D14*
G04 #@! TO.C,R21*
X32975000Y-67600000D03*
X34625000Y-67600000D03*
G04 #@! TD*
D18*
G04 #@! TO.C,C5*
X50125000Y-49700000D03*
X51675000Y-49700000D03*
G04 #@! TD*
D10*
G04 #@! TO.C,R24*
X44000000Y-60850000D03*
X42350000Y-60850000D03*
G04 #@! TD*
D11*
G04 #@! TO.C,C15*
X50875000Y-45800000D03*
X49325000Y-45800000D03*
G04 #@! TD*
G04 #@! TO.C,C25*
X34345000Y-53200000D03*
X32795000Y-53200000D03*
G04 #@! TD*
D18*
G04 #@! TO.C,C1*
X40225000Y-73800000D03*
X41775000Y-73800000D03*
G04 #@! TD*
D16*
G04 #@! TO.C,R15*
X31200000Y-82575000D03*
X31200000Y-84225000D03*
G04 #@! TD*
D33*
G04 #@! TO.C,C27*
X39600000Y-63400000D03*
X34525000Y-63400000D03*
G04 #@! TD*
D14*
G04 #@! TO.C,R1*
X40575000Y-34000000D03*
X42225000Y-34000000D03*
G04 #@! TD*
D10*
G04 #@! TO.C,R22*
X48925000Y-33900000D03*
X47275000Y-33900000D03*
G04 #@! TD*
D17*
G04 #@! TO.C,C9*
X42475000Y-48550000D03*
X42475000Y-47000000D03*
G04 #@! TD*
D10*
G04 #@! TO.C,R9*
X44795000Y-54700000D03*
X43145000Y-54700000D03*
G04 #@! TD*
D18*
G04 #@! TO.C,C19*
X44125000Y-33700000D03*
X45675000Y-33700000D03*
G04 #@! TD*
D16*
G04 #@! TO.C,R16*
X52600000Y-82575000D03*
X52600000Y-84225000D03*
G04 #@! TD*
D14*
G04 #@! TO.C,L1*
X46250000Y-42575000D03*
X47900000Y-42575000D03*
G04 #@! TD*
D22*
G04 #@! TO.C,C14*
X37675000Y-36800000D03*
X37675000Y-38350000D03*
G04 #@! TD*
D21*
G04 #@! TO.C,C18*
X51300000Y-61650000D03*
X51300000Y-59750000D03*
G04 #@! TD*
D34*
G04 #@! TO.C,U1*
X43041667Y-42075000D03*
X43041667Y-41008333D03*
X43041667Y-39941666D03*
X41975000Y-42075000D03*
X41975000Y-41008333D03*
X41975000Y-39941666D03*
X40908333Y-42075000D03*
X40908333Y-41008333D03*
X40908333Y-39941666D03*
D35*
X44425000Y-43283333D03*
X44425000Y-42933333D03*
X44425000Y-42583333D03*
X44425000Y-42233333D03*
X44425000Y-41883333D03*
X44425000Y-41533333D03*
X44425000Y-41183333D03*
X44425000Y-40833333D03*
X44425000Y-40483333D03*
X44425000Y-40133333D03*
X44425000Y-39783333D03*
X44425000Y-39433333D03*
X44425000Y-39083333D03*
X44425000Y-38733333D03*
D36*
X43550000Y-38558333D03*
X43200000Y-38558333D03*
X42850000Y-38558333D03*
X42500000Y-38558333D03*
X42150000Y-38558333D03*
X41800000Y-38558333D03*
X41450000Y-38558333D03*
X41100000Y-38558333D03*
X40750000Y-38558333D03*
X40400000Y-38558333D03*
D35*
X39525000Y-38733333D03*
X39525000Y-39083333D03*
X39525000Y-39433333D03*
X39525000Y-39783333D03*
X39525000Y-40133333D03*
X39525000Y-40483333D03*
X39525000Y-40833333D03*
X39525000Y-41183333D03*
X39525000Y-41533333D03*
X39525000Y-41883333D03*
X39525000Y-42233333D03*
X39525000Y-42583333D03*
X39525000Y-42933333D03*
X39525000Y-43283333D03*
D36*
X40400000Y-43458333D03*
X40750000Y-43458333D03*
X41100000Y-43458333D03*
X41450000Y-43458333D03*
X41800000Y-43458333D03*
X42150000Y-43458333D03*
X42500000Y-43458333D03*
X42850000Y-43458333D03*
X43200000Y-43458333D03*
X43550000Y-43458333D03*
G04 #@! TD*
D16*
G04 #@! TO.C,R7*
X34650000Y-70775000D03*
X34650000Y-72425000D03*
G04 #@! TD*
D11*
G04 #@! TO.C,C11*
X50875000Y-40500000D03*
X49325000Y-40500000D03*
G04 #@! TD*
G04 #@! TO.C,C23*
X34345000Y-51700000D03*
X32795000Y-51700000D03*
G04 #@! TD*
D14*
G04 #@! TO.C,R31*
X32745000Y-50200000D03*
X34395000Y-50200000D03*
G04 #@! TD*
D18*
G04 #@! TO.C,C17*
X45325000Y-58000000D03*
X46875000Y-58000000D03*
G04 #@! TD*
D19*
G04 #@! TO.C,R30*
X44000000Y-36925000D03*
X44000000Y-35275000D03*
G04 #@! TD*
D37*
G04 #@! TO.C,Y1*
X44625000Y-48325000D03*
X46825000Y-48325000D03*
X46825000Y-46625000D03*
X44625000Y-46625000D03*
G04 #@! TD*
M02*
