G04 #@! TF.GenerationSoftware,KiCad,Pcbnew,8.0.2*
G04 #@! TF.CreationDate,2024-06-13T23:11:37+12:00*
G04 #@! TF.ProjectId,LAN-Module-PoE-Castellated,4c414e2d-4d6f-4647-956c-652d506f452d,rev?*
G04 #@! TF.SameCoordinates,Original*
G04 #@! TF.FileFunction,Copper,L2,Bot*
G04 #@! TF.FilePolarity,Positive*
%FSLAX46Y46*%
G04 Gerber Fmt 4.6, Leading zero omitted, Abs format (unit mm)*
G04 Created by KiCad (PCBNEW 8.0.2) date 2024-06-13 23:11:37*
%MOMM*%
%LPD*%
G01*
G04 APERTURE LIST*
G04 Aperture macros list*
%AMRoundRect*
0 Rectangle with rounded corners*
0 $1 Rounding radius*
0 $2 $3 $4 $5 $6 $7 $8 $9 X,Y pos of 4 corners*
0 Add a 4 corners polygon primitive as box body*
4,1,4,$2,$3,$4,$5,$6,$7,$8,$9,$2,$3,0*
0 Add four circle primitives for the rounded corners*
1,1,$1+$1,$2,$3*
1,1,$1+$1,$4,$5*
1,1,$1+$1,$6,$7*
1,1,$1+$1,$8,$9*
0 Add four rect primitives between the rounded corners*
20,1,$1+$1,$2,$3,$4,$5,0*
20,1,$1+$1,$4,$5,$6,$7,0*
20,1,$1+$1,$6,$7,$8,$9,0*
20,1,$1+$1,$8,$9,$2,$3,0*%
G04 Aperture macros list end*
G04 #@! TA.AperFunction,ComponentPad*
%ADD10RoundRect,0.400000X0.400000X0.400000X-0.400000X0.400000X-0.400000X-0.400000X0.400000X-0.400000X0*%
G04 #@! TD*
G04 #@! TA.AperFunction,SMDPad,CuDef*
%ADD11R,1.295500X1.600000*%
G04 #@! TD*
G04 #@! TA.AperFunction,ComponentPad*
%ADD12C,1.600000*%
G04 #@! TD*
G04 #@! TA.AperFunction,ComponentPad*
%ADD13RoundRect,0.400000X-0.400000X-0.400000X0.400000X-0.400000X0.400000X0.400000X-0.400000X0.400000X0*%
G04 #@! TD*
G04 #@! TA.AperFunction,ComponentPad*
%ADD14R,1.500000X1.500000*%
G04 #@! TD*
G04 #@! TA.AperFunction,ComponentPad*
%ADD15C,1.500000*%
G04 #@! TD*
G04 #@! TA.AperFunction,ComponentPad*
%ADD16C,2.200000*%
G04 #@! TD*
G04 #@! TA.AperFunction,ComponentPad*
%ADD17C,0.500000*%
G04 #@! TD*
G04 #@! TA.AperFunction,SMDPad,CuDef*
%ADD18R,3.700000X3.700000*%
G04 #@! TD*
G04 #@! TA.AperFunction,ViaPad*
%ADD19C,0.500000*%
G04 #@! TD*
G04 #@! TA.AperFunction,Conductor*
%ADD20C,0.400000*%
G04 #@! TD*
G04 #@! TA.AperFunction,Conductor*
%ADD21C,0.800000*%
G04 #@! TD*
G04 #@! TA.AperFunction,Conductor*
%ADD22C,0.200000*%
G04 #@! TD*
G04 #@! TA.AperFunction,Conductor*
%ADD23C,0.250000*%
G04 #@! TD*
G04 APERTURE END LIST*
D10*
G04 #@! TO.P,J16,1,1*
G04 #@! TO.N,GND*
X30480000Y-68580000D03*
D11*
X29857750Y-68580000D03*
D12*
X29210000Y-68580000D03*
G04 #@! TD*
D10*
G04 #@! TO.P,J14,1,1*
G04 #@! TO.N,GND*
X30480000Y-66040000D03*
D11*
X29857750Y-66040000D03*
D12*
X29210000Y-66040000D03*
G04 #@! TD*
D13*
G04 #@! TO.P,J29,1,1*
G04 #@! TO.N,/VIN_NEG*
X53340000Y-76260000D03*
D11*
X53962250Y-76260000D03*
D12*
X54610000Y-76260000D03*
G04 #@! TD*
D13*
G04 #@! TO.P,J28,1,1*
G04 #@! TO.N,/12V*
X53340000Y-68580000D03*
D11*
X53962250Y-68580000D03*
D12*
X54610000Y-68580000D03*
G04 #@! TD*
D13*
G04 #@! TO.P,J27,1,1*
G04 #@! TO.N,GND*
X53340000Y-66040000D03*
D11*
X53962250Y-66040000D03*
D12*
X54610000Y-66040000D03*
G04 #@! TD*
D13*
G04 #@! TO.P,J26,1,1*
G04 #@! TO.N,/S_VP*
X53340000Y-60960000D03*
D11*
X53962250Y-60960000D03*
D12*
X54610000Y-60960000D03*
G04 #@! TD*
D13*
G04 #@! TO.P,J25,1,1*
G04 #@! TO.N,/IO37*
X53340000Y-58420000D03*
D11*
X53962250Y-58420000D03*
D12*
X54610000Y-58420000D03*
G04 #@! TD*
D13*
G04 #@! TO.P,J24,1,1*
G04 #@! TO.N,/IO38*
X53340000Y-55880000D03*
D11*
X53962250Y-55880000D03*
D12*
X54610000Y-55880000D03*
G04 #@! TD*
D13*
G04 #@! TO.P,J23,1,1*
G04 #@! TO.N,/S_VN*
X53340000Y-53340000D03*
D11*
X53962250Y-53340000D03*
D12*
X54610000Y-53340000D03*
G04 #@! TD*
D13*
G04 #@! TO.P,J22,1,1*
G04 #@! TO.N,/IO34*
X53340000Y-50800000D03*
D11*
X53962250Y-50800000D03*
D12*
X54610000Y-50800000D03*
G04 #@! TD*
D13*
G04 #@! TO.P,J21,1,1*
G04 #@! TO.N,/IO35*
X53340000Y-48260000D03*
D11*
X53962250Y-48260000D03*
D12*
X54610000Y-48260000D03*
G04 #@! TD*
D13*
G04 #@! TO.P,J20,1,1*
G04 #@! TO.N,/IO32*
X53340000Y-45720000D03*
D11*
X53962250Y-45720000D03*
D12*
X54610000Y-45720000D03*
G04 #@! TD*
D13*
G04 #@! TO.P,J19,1,1*
G04 #@! TO.N,/IO33*
X53340000Y-43180000D03*
D11*
X53962250Y-43180000D03*
D12*
X54610000Y-43180000D03*
G04 #@! TD*
D13*
G04 #@! TO.P,J18,1,1*
G04 #@! TO.N,/U0RXD*
X53340000Y-40640000D03*
D11*
X53962250Y-40640000D03*
D12*
X54610000Y-40640000D03*
G04 #@! TD*
D13*
G04 #@! TO.P,J17,1,1*
G04 #@! TO.N,/U0TXD*
X53340000Y-38100000D03*
D11*
X53962250Y-38100000D03*
D12*
X54610000Y-38100000D03*
G04 #@! TD*
D13*
G04 #@! TO.P,J15,1,1*
G04 #@! TO.N,+3V3*
X53340000Y-63500000D03*
D11*
X53962250Y-63500000D03*
D12*
X54610000Y-63500000D03*
G04 #@! TD*
D10*
G04 #@! TO.P,J13,1,1*
G04 #@! TO.N,/IO5*
X30480000Y-63500000D03*
D11*
X29857750Y-63500000D03*
D12*
X29210000Y-63500000D03*
G04 #@! TD*
D10*
G04 #@! TO.P,J12,1,1*
G04 #@! TO.N,/IO14*
X30480000Y-60960000D03*
D11*
X29857750Y-60960000D03*
D12*
X29210000Y-60960000D03*
G04 #@! TD*
D10*
G04 #@! TO.P,J11,1,1*
G04 #@! TO.N,/IO2*
X30480000Y-58420000D03*
D11*
X29857750Y-58420000D03*
D12*
X29210000Y-58420000D03*
G04 #@! TD*
D10*
G04 #@! TO.P,J10,1,1*
G04 #@! TO.N,/IO4*
X30480000Y-55880000D03*
D11*
X29857750Y-55880000D03*
D12*
X29210000Y-55880000D03*
G04 #@! TD*
D10*
G04 #@! TO.P,J9,1,1*
G04 #@! TO.N,/IO12*
X30480000Y-53340000D03*
D11*
X29857750Y-53340000D03*
D12*
X29210000Y-53340000D03*
G04 #@! TD*
D10*
G04 #@! TO.P,J8,1,1*
G04 #@! TO.N,/IO15*
X30480000Y-50800000D03*
D11*
X29857750Y-50800000D03*
D12*
X29210000Y-50800000D03*
G04 #@! TD*
D10*
G04 #@! TO.P,J7,1,1*
G04 #@! TO.N,/IO16*
X30480000Y-48400000D03*
D11*
X29857750Y-48400000D03*
D12*
X29210000Y-48400000D03*
G04 #@! TD*
D10*
G04 #@! TO.P,J6,1,1*
G04 #@! TO.N,/IO13*
X30480000Y-45860000D03*
D11*
X29857750Y-45860000D03*
D12*
X29210000Y-45860000D03*
G04 #@! TD*
D10*
G04 #@! TO.P,J5,1,1*
G04 #@! TO.N,/BOOT*
X30480000Y-43320000D03*
D11*
X29857750Y-43320000D03*
D12*
X29210000Y-43320000D03*
G04 #@! TD*
D10*
G04 #@! TO.P,J4,1,1*
G04 #@! TO.N,/EN*
X30480000Y-40780000D03*
D11*
X29857750Y-40780000D03*
D12*
X29210000Y-40780000D03*
G04 #@! TD*
D10*
G04 #@! TO.P,J3,1,1*
G04 #@! TO.N,GND*
X30480000Y-38010000D03*
D11*
X29857750Y-38010000D03*
D12*
X29210000Y-38010000D03*
G04 #@! TD*
D13*
G04 #@! TO.P,J2,1,1*
G04 #@! TO.N,/12V*
X53340000Y-73660000D03*
D11*
X53962250Y-73660000D03*
D12*
X54610000Y-73660000D03*
G04 #@! TD*
D14*
G04 #@! TO.P,J1,1,RD+*
G04 #@! TO.N,/MDI1_P*
X36150000Y-77031233D03*
D15*
G04 #@! TO.P,J1,2,RD-*
G04 #@! TO.N,/MDI1_N*
X37420000Y-79571233D03*
G04 #@! TO.P,J1,3,RCT*
G04 #@! TO.N,/MDI0_CT*
X38690000Y-77031233D03*
G04 #@! TO.P,J1,4,TCT*
X39960000Y-79571233D03*
G04 #@! TO.P,J1,5,TD+*
G04 #@! TO.N,/MDI0_P*
X41230000Y-77031233D03*
G04 #@! TO.P,J1,6,TD-*
G04 #@! TO.N,/MDI0_N*
X42500000Y-79571233D03*
G04 #@! TO.P,J1,7*
G04 #@! TO.N,N/C*
X43770000Y-77031233D03*
G04 #@! TO.P,J1,8*
X45040000Y-79571233D03*
G04 #@! TO.P,J1,9,V+*
G04 #@! TO.N,/12V*
X46310000Y-77031233D03*
G04 #@! TO.P,J1,10,V-*
G04 #@! TO.N,/POE_NEG*
X47580000Y-79571233D03*
D12*
G04 #@! TO.P,J1,11,LEDG_A*
G04 #@! TO.N,/ETH_LED0*
X35235000Y-90001233D03*
G04 #@! TO.P,J1,12,LEDG_K*
G04 #@! TO.N,GND*
X37775000Y-90001233D03*
G04 #@! TO.P,J1,13,LEDY_A*
G04 #@! TO.N,/ETH_LED1*
X45955000Y-90001233D03*
G04 #@! TO.P,J1,14,LEDY_K*
G04 #@! TO.N,GND*
X48495000Y-90001233D03*
D16*
G04 #@! TO.P,J1,SH,SHIELD*
X34120000Y-82871233D03*
X49610000Y-82871233D03*
G04 #@! TD*
D17*
G04 #@! TO.P,U1,49,GND*
G04 #@! TO.N,GND*
X43575000Y-42608333D03*
X43575000Y-41541666D03*
X43575000Y-40475000D03*
X43575000Y-39408333D03*
X42508333Y-42608333D03*
X42508333Y-41541666D03*
X42508333Y-40475000D03*
X42508333Y-39408333D03*
D18*
X41975000Y-41008333D03*
D17*
X41441667Y-42608333D03*
X41441667Y-41541666D03*
X41441667Y-40475000D03*
X41441667Y-39408333D03*
X40375000Y-42608333D03*
X40375000Y-41541666D03*
X40375000Y-40475000D03*
X40375000Y-39408333D03*
G04 #@! TD*
D19*
G04 #@! TO.N,GND*
X35200000Y-33597987D03*
X37500000Y-52400000D03*
X38600000Y-51300000D03*
X50700000Y-64600000D03*
X38600000Y-52400000D03*
X51500000Y-79500000D03*
X38600000Y-53600000D03*
X38075000Y-41275000D03*
X50800000Y-70100000D03*
X50800000Y-35100000D03*
X45775000Y-47575000D03*
X32675000Y-36375000D03*
X37500000Y-51300000D03*
X47925000Y-49925000D03*
X46400000Y-33700000D03*
X50200000Y-48800000D03*
X39700000Y-52400000D03*
X47149500Y-44400000D03*
X43325000Y-48525000D03*
X37925000Y-46500000D03*
X45686214Y-55497098D03*
X30480000Y-77980000D03*
X49600000Y-60500000D03*
X39700000Y-53600000D03*
X37470000Y-53600000D03*
X49600000Y-57600000D03*
X50200000Y-40500000D03*
X44000000Y-60100000D03*
X49600000Y-58700000D03*
X46903200Y-55674500D03*
G04 #@! TO.N,/EN*
X41427337Y-35000000D03*
X46075000Y-40333833D03*
G04 #@! TO.N,/ETH_MDC*
X36200000Y-43998043D03*
X37800000Y-48700000D03*
G04 #@! TO.N,/S_VP*
X47075000Y-41775000D03*
G04 #@! TO.N,/S_VN*
X48075000Y-39975000D03*
G04 #@! TO.N,/IO34*
X47683579Y-38536672D03*
G04 #@! TO.N,/ETH_TXD1*
X39775000Y-44875000D03*
X41500000Y-49400000D03*
G04 #@! TO.N,/IO35*
X47975450Y-37956444D03*
G04 #@! TO.N,/IO32*
X47465834Y-37456944D03*
G04 #@! TO.N,/ETH_CRS_DV*
X34700000Y-48900000D03*
X43349500Y-37600000D03*
G04 #@! TO.N,+3V3*
X42600000Y-46169609D03*
X50600000Y-55500000D03*
X43575000Y-44975000D03*
X50590000Y-52900000D03*
X39475000Y-43975000D03*
X46900000Y-51100000D03*
X38375000Y-43175000D03*
X45283333Y-43283333D03*
X44795000Y-53975000D03*
G04 #@! TO.N,/IO33*
X47800000Y-36900000D03*
G04 #@! TO.N,/U0RXD*
X49700000Y-34000000D03*
G04 #@! TO.N,Net-(U1-U0TXD)*
X34200000Y-33100000D03*
X34024500Y-35100000D03*
X48100000Y-35400000D03*
X32800000Y-38700000D03*
G04 #@! TO.N,/ETH_TXD0*
X39075000Y-44975000D03*
X41970000Y-50700000D03*
G04 #@! TO.N,/ETH_MDIO*
X36171800Y-43271800D03*
X35700000Y-48000000D03*
G04 #@! TO.N,/BOOT*
X39600000Y-35500000D03*
X32649500Y-37390450D03*
G04 #@! TO.N,/IO14*
X43123419Y-36502033D03*
G04 #@! TO.N,/IO12*
X42474500Y-36474500D03*
G04 #@! TO.N,/IO13*
X41197209Y-35607367D03*
G04 #@! TO.N,/U0TXD*
X51053200Y-37046800D03*
G04 #@! TO.N,/RTL_LED1*
X35370000Y-50200000D03*
X32200000Y-80500000D03*
G04 #@! TO.N,/RTL_LED0*
X35092708Y-49472249D03*
X32100000Y-81400000D03*
G04 #@! TO.N,/MDI0_P*
X35820000Y-57450000D03*
G04 #@! TO.N,/MDI0_N*
X35851222Y-58950000D03*
G04 #@! TO.N,/ETH_LED1*
X50300000Y-88100000D03*
G04 #@! TO.N,/MDI1_P*
X41970878Y-58950000D03*
G04 #@! TO.N,/MDI1_N*
X42020000Y-57450000D03*
G04 #@! TO.N,/IO15*
X40400000Y-35499500D03*
G04 #@! TO.N,/IO2*
X40276617Y-36953233D03*
G04 #@! TO.N,/IO4*
X39075500Y-36900000D03*
G04 #@! TO.N,/IO16*
X38300000Y-35500000D03*
G04 #@! TO.N,/IO5*
X34425000Y-44225000D03*
G04 #@! TO.N,/IO37*
X48075000Y-41074000D03*
G04 #@! TO.N,/IO38*
X47475000Y-40524500D03*
G04 #@! TO.N,Net-(U1-U0RXD)*
X34600446Y-35400233D03*
X33400000Y-38200000D03*
G04 #@! TO.N,/LAN_3P3V*
X34345000Y-53200000D03*
X33570000Y-54700000D03*
G04 #@! TO.N,/VIN_NEG*
X48100000Y-75800000D03*
X35650000Y-70631233D03*
X40050000Y-67831233D03*
X41200000Y-65700000D03*
G04 #@! TO.N,/VSS*
X37600000Y-66800000D03*
X44400000Y-72200000D03*
X38200000Y-65200000D03*
X41200000Y-67800000D03*
G04 #@! TO.N,/12V*
X40700000Y-63400000D03*
X48000000Y-63400000D03*
G04 #@! TO.N,/POE_NEG*
X39370000Y-69800000D03*
X39370000Y-71400000D03*
X38500000Y-70606233D03*
X38520000Y-71400000D03*
X37570000Y-70600000D03*
X37570000Y-69800000D03*
X37570000Y-71400000D03*
X39370000Y-70600000D03*
X38470000Y-69800000D03*
G04 #@! TO.N,/RXD0*
X45500000Y-36100000D03*
X42270000Y-54200000D03*
G04 #@! TO.N,/RXD1*
X42270000Y-53400000D03*
X44000000Y-36100000D03*
G04 #@! TO.N,/ETHCLK*
X35833556Y-54963556D03*
X35743491Y-41873672D03*
G04 #@! TD*
D20*
G04 #@! TO.N,/POE_NEG*
X45000000Y-75750000D02*
X40650000Y-71400000D01*
X45000000Y-77500000D02*
X45000000Y-75750000D01*
X47071233Y-79571233D02*
X45000000Y-77500000D01*
X40650000Y-71400000D02*
X39370000Y-71400000D01*
X47580000Y-79571233D02*
X47071233Y-79571233D01*
G04 #@! TO.N,GND*
X46675000Y-36225000D02*
X46675000Y-39275000D01*
D21*
X44000000Y-61400000D02*
X44000000Y-60100000D01*
X50800000Y-75900000D02*
X49610000Y-77090000D01*
D22*
X50800000Y-33700000D02*
X50400000Y-33300000D01*
D20*
X45775000Y-44925000D02*
X45975000Y-44725000D01*
X45775000Y-47575000D02*
X45775000Y-44925000D01*
X45975000Y-43975000D02*
X45975000Y-44725000D01*
D22*
X32675000Y-33925000D02*
X33000000Y-33600000D01*
D21*
X44631233Y-62031233D02*
X44000000Y-61400000D01*
D20*
X50200000Y-40500000D02*
X48975000Y-39275000D01*
D21*
X47000000Y-55500000D02*
X47700000Y-55500000D01*
D22*
X50400000Y-33300000D02*
X49000000Y-33300000D01*
D21*
X38600000Y-53600000D02*
X38600000Y-54600000D01*
D20*
X45750000Y-47600000D02*
X45775000Y-47575000D01*
X32675000Y-36375000D02*
X32115000Y-36375000D01*
X46675000Y-39275000D02*
X46675000Y-41275000D01*
D21*
X50700000Y-64600000D02*
X49580000Y-63480000D01*
D22*
X50800000Y-35100000D02*
X50800000Y-33700000D01*
D20*
X46400000Y-33700000D02*
X46675000Y-33975000D01*
X45975000Y-43975000D02*
X45975000Y-41975000D01*
X43325000Y-48525000D02*
X44250000Y-47600000D01*
D21*
X39500000Y-55500000D02*
X47000000Y-55500000D01*
D20*
X47925000Y-49725000D02*
X45775000Y-47575000D01*
D21*
X49580000Y-63480000D02*
X49580000Y-62031233D01*
X49610000Y-77090000D02*
X49610000Y-79410000D01*
X50800000Y-70100000D02*
X50800000Y-75900000D01*
D22*
X48375000Y-36225000D02*
X46675000Y-36225000D01*
D20*
X46675000Y-41275000D02*
X45975000Y-41975000D01*
D21*
X49610000Y-82871233D02*
X49610000Y-79410000D01*
X30480000Y-66040000D02*
X30480000Y-81822466D01*
D20*
X49600000Y-57600000D02*
X49600000Y-57400000D01*
D21*
X47700000Y-55500000D02*
X49560000Y-55500000D01*
D20*
X46675000Y-33975000D02*
X46675000Y-36225000D01*
X47000000Y-55577700D02*
X47000000Y-55500000D01*
X48975000Y-39275000D02*
X46675000Y-39275000D01*
D21*
X30480000Y-81822466D02*
X31528767Y-82871233D01*
D20*
X45975000Y-41975000D02*
X44675000Y-41975000D01*
D21*
X49560000Y-55500000D02*
X49580000Y-55520000D01*
X49600000Y-55500000D02*
X49580000Y-55520000D01*
D20*
X38075000Y-41975000D02*
X38075000Y-41275000D01*
X46903200Y-55674500D02*
X47000000Y-55577700D01*
X44250000Y-47600000D02*
X45750000Y-47600000D01*
X37775000Y-46350000D02*
X37775000Y-42275000D01*
D21*
X38600000Y-54600000D02*
X39500000Y-55500000D01*
X34120000Y-82871233D02*
X31528767Y-82871233D01*
D22*
X47149500Y-44400000D02*
X46400000Y-44400000D01*
X48800000Y-35800000D02*
X48375000Y-36225000D01*
X49700000Y-79500000D02*
X49610000Y-79410000D01*
D21*
X49610000Y-82871233D02*
X34120000Y-82871233D01*
D22*
X48800000Y-33500000D02*
X48800000Y-35800000D01*
X51500000Y-79500000D02*
X49700000Y-79500000D01*
D20*
X44675000Y-41975000D02*
X43075000Y-41975000D01*
X37775000Y-42275000D02*
X38075000Y-41975000D01*
D21*
X50700000Y-64600000D02*
X50800000Y-64700000D01*
D22*
X42375480Y-40874520D02*
X41424511Y-41825489D01*
D20*
X32115000Y-36375000D02*
X30480000Y-38010000D01*
X37925000Y-46500000D02*
X37775000Y-46350000D01*
X38075000Y-41975000D02*
X40875000Y-41975000D01*
D21*
X49580000Y-62031233D02*
X49580000Y-55520000D01*
X50800000Y-64700000D02*
X50800000Y-70100000D01*
D22*
X49000000Y-33300000D02*
X48800000Y-33500000D01*
X46400000Y-44400000D02*
X45975000Y-43975000D01*
D21*
X49580000Y-62031233D02*
X44631233Y-62031233D01*
D22*
X35197987Y-33600000D02*
X35200000Y-33597987D01*
D20*
X47925000Y-49925000D02*
X47925000Y-49725000D01*
D22*
X32675000Y-36375000D02*
X32675000Y-33925000D01*
X33000000Y-33600000D02*
X35197987Y-33600000D01*
X41824031Y-42025969D02*
X42575960Y-41274040D01*
G04 #@! TO.N,/EN*
X46000000Y-35400000D02*
X46000000Y-40258833D01*
X31229520Y-40750480D02*
X30729520Y-41250480D01*
X46000000Y-40258833D02*
X46075000Y-40333833D01*
X45600000Y-35000000D02*
X46000000Y-35400000D01*
X41427337Y-35000000D02*
X45600000Y-35000000D01*
G04 #@! TO.N,/ETH_MDC*
X37800000Y-48700000D02*
X37650000Y-48550000D01*
X37120807Y-48550000D02*
X36200000Y-47629193D01*
X37650000Y-48550000D02*
X37120807Y-48550000D01*
X36200000Y-47629193D02*
X36200000Y-43998043D01*
G04 #@! TO.N,/S_VP*
X51240000Y-49624824D02*
X51240000Y-54769948D01*
X51940000Y-57514974D02*
X52290000Y-57864974D01*
X52290000Y-59910000D02*
X53340000Y-60960000D01*
X51240000Y-54769948D02*
X51940000Y-55469948D01*
X48823511Y-41623511D02*
X49700000Y-42500000D01*
X49700000Y-47094873D02*
X50890000Y-48284871D01*
X50890000Y-49274825D02*
X51240000Y-49624824D01*
X49700000Y-42500000D02*
X49700000Y-47094873D01*
X47572022Y-41775000D02*
X47723511Y-41623511D01*
X47723511Y-41623511D02*
X48823511Y-41623511D01*
X52290000Y-57864974D02*
X52290000Y-59910000D01*
X51940000Y-55469948D02*
X51940000Y-57514974D01*
X47075000Y-41775000D02*
X47572022Y-41775000D01*
X50890000Y-48284871D02*
X50890000Y-49274825D01*
G04 #@! TO.N,/S_VN*
X51940000Y-47849948D02*
X51940000Y-48839900D01*
X50750000Y-46659949D02*
X51940000Y-47849948D01*
X52290000Y-52290000D02*
X53340000Y-53340000D01*
X50750000Y-42055026D02*
X50750000Y-46659949D01*
X51940000Y-48839900D02*
X52290000Y-49189899D01*
X52290000Y-49189899D02*
X52290000Y-52290000D01*
X48075000Y-39975000D02*
X48669974Y-39975000D01*
X48669974Y-39975000D02*
X50750000Y-42055026D01*
G04 #@! TO.N,/IO34*
X52290000Y-47704974D02*
X51100000Y-46514974D01*
X53340000Y-50800000D02*
X53340000Y-49744925D01*
X49246724Y-38536672D02*
X47683579Y-38536672D01*
X51100000Y-46514974D02*
X51100000Y-40389948D01*
X51100000Y-40389948D02*
X49246724Y-38536672D01*
X53340000Y-49744925D02*
X52290000Y-48694925D01*
X52290000Y-48694925D02*
X52290000Y-47704974D01*
G04 #@! TO.N,/ETH_TXD1*
X40800000Y-49300000D02*
X40900000Y-49400000D01*
X39775000Y-46175000D02*
X39775000Y-44875000D01*
X40800000Y-47200000D02*
X39775000Y-46175000D01*
X40900000Y-49400000D02*
X41500000Y-49400000D01*
X40800000Y-47200000D02*
X40800000Y-49300000D01*
G04 #@! TO.N,/IO35*
X49166496Y-37956444D02*
X47975450Y-37956444D01*
X51500000Y-40294974D02*
X49275489Y-38070463D01*
X51500000Y-46420000D02*
X51500000Y-40294974D01*
X49275489Y-38065437D02*
X49166496Y-37956444D01*
X49275489Y-38070463D02*
X49275489Y-38065437D01*
X53340000Y-48260000D02*
X51500000Y-46420000D01*
G04 #@! TO.N,/IO32*
X47465834Y-37456944D02*
X49161970Y-37456944D01*
X52620000Y-45720000D02*
X53340000Y-45720000D01*
X51850000Y-44950000D02*
X52620000Y-45720000D01*
X49625489Y-37925489D02*
X51850000Y-40150000D01*
X49625489Y-37920463D02*
X49625489Y-37925489D01*
X49161970Y-37456944D02*
X49625489Y-37920463D01*
X51850000Y-40150000D02*
X51850000Y-44950000D01*
G04 #@! TO.N,/ETH_CRS_DV*
X34700000Y-48900000D02*
X34700000Y-47700000D01*
X35000000Y-47400000D02*
X35000000Y-41300000D01*
X43049500Y-37900000D02*
X43349500Y-37600000D01*
X40582686Y-38200644D02*
X40883330Y-37900000D01*
X38099356Y-38200644D02*
X40582686Y-38200644D01*
X35000000Y-41300000D02*
X38099356Y-38200644D01*
X34700000Y-47700000D02*
X35000000Y-47400000D01*
X40883330Y-37900000D02*
X43049500Y-37900000D01*
D21*
G04 #@! TO.N,+3V3*
X50590000Y-55019187D02*
X50590000Y-52900000D01*
X50580000Y-62680000D02*
X51400000Y-63500000D01*
X46825000Y-53975000D02*
X50375000Y-53975000D01*
X50580000Y-59881733D02*
X50580000Y-60420000D01*
D20*
X43575000Y-45375000D02*
X43575000Y-44975000D01*
X43575000Y-44975000D02*
X43575000Y-43875000D01*
X42780391Y-46169609D02*
X43575000Y-45375000D01*
D22*
X45283333Y-43283333D02*
X44891666Y-43675000D01*
D20*
X38975000Y-43775000D02*
X38375000Y-43175000D01*
X44791666Y-43775000D02*
X43675000Y-43775000D01*
X45283333Y-43283333D02*
X44791666Y-43775000D01*
D21*
X50375000Y-53975000D02*
X50400000Y-54000000D01*
X50580000Y-60820000D02*
X50580000Y-62680000D01*
D22*
X44891666Y-43675000D02*
X44075000Y-43675000D01*
D20*
X42600000Y-46169609D02*
X42780391Y-46169609D01*
X43575000Y-43875000D02*
X43675000Y-43775000D01*
X46900000Y-51100000D02*
X46900000Y-53900000D01*
X43675000Y-43775000D02*
X39675000Y-43775000D01*
D22*
X44075000Y-43675000D02*
X42575000Y-43675000D01*
D21*
X50580000Y-55029187D02*
X50580000Y-60820000D01*
X50580000Y-60420000D02*
X50580000Y-60820000D01*
X44795000Y-53975000D02*
X46825000Y-53975000D01*
X51400000Y-63500000D02*
X53340000Y-63500000D01*
D20*
X39675000Y-43775000D02*
X38975000Y-43775000D01*
X39675000Y-43775000D02*
X39475000Y-43975000D01*
X46900000Y-53900000D02*
X46825000Y-53975000D01*
D21*
X50580000Y-55029187D02*
X50590000Y-55019187D01*
D22*
G04 #@! TO.N,/IO33*
X52200000Y-40000000D02*
X52200000Y-42900000D01*
X52200000Y-42900000D02*
X52480000Y-43180000D01*
X49100000Y-36900000D02*
X52200000Y-40000000D01*
X52480000Y-43180000D02*
X53340000Y-43180000D01*
X47800000Y-36900000D02*
X49100000Y-36900000D01*
G04 #@! TO.N,/U0RXD*
X49703200Y-36403200D02*
X49850000Y-36550000D01*
X49700000Y-36400000D02*
X49700000Y-34000000D01*
X51575000Y-38275000D02*
X51575000Y-38875000D01*
X49850000Y-36550000D02*
X49700000Y-36400000D01*
X49850000Y-36550000D02*
X51575000Y-38275000D01*
X51575000Y-38875000D02*
X53340000Y-40640000D01*
X52740000Y-40640000D02*
X53340000Y-40640000D01*
G04 #@! TO.N,Net-(U1-U0TXD)*
X47500000Y-33700000D02*
X46800000Y-33000000D01*
X33992590Y-36892590D02*
X32800000Y-38085180D01*
X48100000Y-34300000D02*
X48100000Y-35400000D01*
X32800000Y-38085180D02*
X32800000Y-38700000D01*
X47500000Y-33700000D02*
X48100000Y-34300000D01*
X46800000Y-33000000D02*
X34300000Y-33000000D01*
X34024500Y-35100000D02*
X33992590Y-35131910D01*
X34300000Y-33000000D02*
X34200000Y-33100000D01*
X33992590Y-35131910D02*
X33992590Y-36892590D01*
G04 #@! TO.N,/ETH_TXD0*
X39075000Y-46175000D02*
X40400000Y-47500000D01*
X41100000Y-50700000D02*
X41970000Y-50700000D01*
X39075000Y-44975000D02*
X39075000Y-46175000D01*
X40400000Y-50000000D02*
X41100000Y-50700000D01*
X40400000Y-47500000D02*
X40400000Y-50000000D01*
G04 #@! TO.N,/ETH_MDIO*
X35700000Y-48000000D02*
X35700000Y-43605150D01*
X35700000Y-43605150D02*
X36033350Y-43271800D01*
X36033350Y-43271800D02*
X36171800Y-43271800D01*
G04 #@! TO.N,/BOOT*
X32649500Y-37390450D02*
X32861631Y-37390450D01*
X38152513Y-34447487D02*
X38555026Y-34850000D01*
X33525000Y-36727081D02*
X33525000Y-34769974D01*
X38555026Y-34850000D02*
X38950000Y-34850000D01*
X33525000Y-34769974D02*
X33847487Y-34447487D01*
X38950000Y-34850000D02*
X39600000Y-35500000D01*
X33847487Y-34447487D02*
X38152513Y-34447487D01*
X32861631Y-37390450D02*
X33525000Y-36727081D01*
G04 #@! TO.N,/IO14*
X33825000Y-52175000D02*
X32250000Y-53750000D01*
X31540000Y-60960000D02*
X30480000Y-60960000D01*
X40186957Y-37750000D02*
X36600000Y-37750000D01*
X40636957Y-37300000D02*
X40186957Y-37750000D01*
X33886436Y-43986436D02*
X33825000Y-44047872D01*
X34086436Y-43786436D02*
X33886436Y-43986436D01*
X34375480Y-43497393D02*
X34086436Y-43786436D01*
X32250000Y-60250000D02*
X31540000Y-60960000D01*
X35775000Y-39072055D02*
X34375480Y-40471575D01*
X42356107Y-37300000D02*
X40636957Y-37300000D01*
X42974500Y-36650952D02*
X42974500Y-36681607D01*
X43123419Y-36502033D02*
X42974500Y-36650952D01*
X33825000Y-44047872D02*
X34086436Y-43786436D01*
X42974500Y-36681607D02*
X42356107Y-37300000D01*
X33825000Y-44047872D02*
X33825000Y-52175000D01*
X35775000Y-38575000D02*
X35775000Y-39072055D01*
X36600000Y-37750000D02*
X35775000Y-38575000D01*
X34375480Y-40471575D02*
X34375480Y-43497393D01*
X32250000Y-53750000D02*
X32250000Y-60250000D01*
G04 #@! TO.N,/IO12*
X36465577Y-36399500D02*
X42399500Y-36399500D01*
X31200000Y-53340000D02*
X30480000Y-53340000D01*
X34725000Y-38637133D02*
X34725000Y-38140077D01*
X32775000Y-43612950D02*
X33325480Y-43062470D01*
X31200000Y-53305026D02*
X31200000Y-53340000D01*
X34725000Y-38140077D02*
X36465577Y-36399500D01*
X32775000Y-50775000D02*
X32775000Y-43612950D01*
X32775000Y-51730026D02*
X31200000Y-53305026D01*
X32775000Y-50775000D02*
X32775000Y-51730026D01*
X33325480Y-40036653D02*
X34725000Y-38637133D01*
X42399500Y-36399500D02*
X42474500Y-36474500D01*
X33325480Y-43062470D02*
X33325480Y-40036653D01*
G04 #@! TO.N,/IO13*
X32275480Y-42627548D02*
X32275480Y-37723537D01*
X41197209Y-35607367D02*
X41197209Y-35497209D01*
X31725000Y-44615000D02*
X31725000Y-43178028D01*
X39797487Y-34097487D02*
X41000000Y-35300000D01*
X41197209Y-35497209D02*
X41000000Y-35300000D01*
X30480000Y-45860000D02*
X31725000Y-44615000D01*
X41000000Y-35300000D02*
X41300000Y-35600000D01*
X32149500Y-37597557D02*
X32149500Y-37050500D01*
X32275480Y-37723537D02*
X32149500Y-37597557D01*
X32149500Y-37050500D02*
X32325000Y-36875000D01*
X31725000Y-43178028D02*
X32275480Y-42627548D01*
X32325000Y-36875000D02*
X32882107Y-36875000D01*
X33175000Y-34625000D02*
X33702513Y-34097487D01*
X33175000Y-36582107D02*
X33175000Y-34625000D01*
X32882107Y-36875000D02*
X33175000Y-36582107D01*
X33702513Y-34097487D02*
X39797487Y-34097487D01*
G04 #@! TO.N,/U0TXD*
X51053200Y-37046800D02*
X52286800Y-37046800D01*
X52286800Y-37046800D02*
X53340000Y-38100000D01*
G04 #@! TO.N,/RTL_LED1*
X32200000Y-64100000D02*
X32200000Y-80500000D01*
X36318198Y-52018198D02*
X36318198Y-53518198D01*
X33500000Y-62800000D02*
X32200000Y-64100000D01*
X35370000Y-50200000D02*
X35370000Y-51070000D01*
X35370000Y-51070000D02*
X36318198Y-52018198D01*
X36318198Y-53518198D02*
X33500000Y-56336396D01*
X33500000Y-56336396D02*
X33500000Y-62800000D01*
G04 #@! TO.N,/RTL_LED0*
X34700000Y-51100000D02*
X34700000Y-49864957D01*
X31600000Y-80900000D02*
X31600000Y-64205026D01*
X35870000Y-52270000D02*
X34700000Y-51100000D01*
X32100000Y-81400000D02*
X31600000Y-80900000D01*
X34700000Y-49864957D02*
X35092708Y-49472249D01*
X31600000Y-64205026D02*
X33131951Y-62673075D01*
X33131951Y-62673075D02*
X33131951Y-56104445D01*
X35870000Y-53366396D02*
X35870000Y-52270000D01*
X33131951Y-56104445D02*
X35870000Y-53366396D01*
G04 #@! TO.N,/MDI0_P*
X40600000Y-81100000D02*
X35200000Y-81100000D01*
X33300000Y-79200000D02*
X33300000Y-64793851D01*
X34849439Y-63249439D02*
X34672891Y-63425986D01*
X38828877Y-58470000D02*
X37808877Y-57450000D01*
X34849439Y-63249439D02*
X38828877Y-59270000D01*
X38828877Y-59270000D02*
X38828877Y-58470000D01*
X34844412Y-63249439D02*
X34849439Y-63249439D01*
X41230000Y-80470000D02*
X40600000Y-81100000D01*
X35200000Y-81100000D02*
X33300000Y-79200000D01*
X37808877Y-57450000D02*
X35820000Y-57450000D01*
X41230000Y-77031233D02*
X41230000Y-80470000D01*
X33300000Y-64793851D02*
X34844412Y-63249439D01*
G04 #@! TO.N,/MDI0_N*
X37278877Y-60320000D02*
X37283903Y-60320000D01*
X36150909Y-61447967D02*
X36150908Y-61447965D01*
X36999438Y-60599438D02*
X37278877Y-60320000D01*
X38478877Y-58920000D02*
X38228877Y-58670000D01*
X37283903Y-60320000D02*
X38478877Y-59125026D01*
X32950000Y-64648876D02*
X34549438Y-63049438D01*
X42500000Y-79571233D02*
X42500000Y-79694974D01*
X37880000Y-58670000D02*
X37600000Y-58950000D01*
X38228877Y-58670000D02*
X37880000Y-58670000D01*
X36575173Y-60599438D02*
X36575172Y-60599438D01*
X35443801Y-61165124D02*
X35726644Y-61447967D01*
X42500000Y-79694974D02*
X40744974Y-81450000D01*
X36150908Y-61023701D02*
X35868066Y-60740859D01*
X36292330Y-60316595D02*
X36575173Y-60599438D01*
X38478877Y-59125026D02*
X38478877Y-58920000D01*
X34549438Y-63049438D02*
X34322891Y-63275986D01*
X35726644Y-61447967D02*
X35726643Y-61447967D01*
X40744974Y-81450000D02*
X35050000Y-81450000D01*
X37600000Y-58950000D02*
X35851222Y-58950000D01*
X35302379Y-61872230D02*
X35019537Y-61589388D01*
X35050000Y-81450000D02*
X32950000Y-79350000D01*
X32950000Y-79350000D02*
X32950000Y-64648876D01*
X34549438Y-63049438D02*
X35302379Y-62296494D01*
X36575172Y-60599438D02*
G75*
G03*
X36999438Y-60599438I212133J212134D01*
G01*
X35868066Y-60316595D02*
G75*
G02*
X36292330Y-60316595I212132J-212132D01*
G01*
X35019537Y-61165124D02*
G75*
G02*
X35443801Y-61165124I212132J-212132D01*
G01*
X35726643Y-61447967D02*
G75*
G03*
X36150909Y-61447967I212133J212134D01*
G01*
X36150908Y-61447965D02*
G75*
G03*
X36150941Y-61023668I-212108J212165D01*
G01*
X35302379Y-62296494D02*
G75*
G03*
X35302341Y-61872268I-212179J212094D01*
G01*
X35019537Y-61589388D02*
G75*
G02*
X35019581Y-61165168I212163J212088D01*
G01*
X35868066Y-60740859D02*
G75*
G02*
X35868039Y-60316568I212134J212159D01*
G01*
G04 #@! TO.N,/ETH_LED1*
X50300000Y-88100000D02*
X47856233Y-88100000D01*
X47856233Y-88100000D02*
X45955000Y-90001233D01*
G04 #@! TO.N,/MDI1_P*
X35100000Y-78800000D02*
X34500000Y-78200000D01*
X35949439Y-64649439D02*
X35878877Y-64720000D01*
X36150000Y-77031233D02*
X36150000Y-78350000D01*
X36150000Y-78350000D02*
X35700000Y-78800000D01*
X35949439Y-64649439D02*
X37626758Y-62972124D01*
X34500000Y-78200000D02*
X34500000Y-66098878D01*
X38323594Y-62972125D02*
X38399440Y-62896278D01*
X41650000Y-58950000D02*
X41970878Y-58950000D01*
X41500000Y-59100000D02*
X41650000Y-58950000D01*
X35700000Y-78800000D02*
X35100000Y-78800000D01*
X38399439Y-62547860D02*
X38399439Y-62547859D01*
X41498878Y-59100000D02*
X41500000Y-59100000D01*
X38399440Y-62896278D02*
X38399439Y-62896278D01*
X37975176Y-62972124D02*
X37975176Y-62972125D01*
X34500000Y-66098878D02*
X35949439Y-64649439D01*
X38399439Y-62199439D02*
X41498878Y-59100000D01*
X38399439Y-62547859D02*
G75*
G02*
X38399390Y-62199390I174161J174259D01*
G01*
X38399439Y-62896278D02*
G75*
G03*
X38399408Y-62547891I-174239J174178D01*
G01*
X37626758Y-62972124D02*
G75*
G02*
X37975176Y-62972124I174209J-174211D01*
G01*
X37975176Y-62972125D02*
G75*
G03*
X38323594Y-62972125I174209J174211D01*
G01*
G04 #@! TO.N,/MDI1_N*
X35000000Y-79200000D02*
X34150000Y-78350000D01*
X35599438Y-64499438D02*
X41500000Y-58598876D01*
X41500000Y-58598876D02*
X41500000Y-57900000D01*
X35900000Y-79200000D02*
X35000000Y-79200000D01*
X37420000Y-79571233D02*
X36271233Y-79571233D01*
X35599438Y-64499438D02*
X35528877Y-64570000D01*
X41950000Y-57450000D02*
X42020000Y-57450000D01*
X36271233Y-79571233D02*
X35900000Y-79200000D01*
X41500000Y-57900000D02*
X41950000Y-57450000D01*
X34150000Y-78350000D02*
X34150000Y-65948876D01*
X34150000Y-65948876D02*
X35599438Y-64499438D01*
G04 #@! TO.N,/IO15*
X38150000Y-36050000D02*
X38350000Y-36050000D01*
X30480000Y-50800000D02*
X31500000Y-50800000D01*
X31500000Y-50800000D02*
X32425000Y-49875000D01*
X32975480Y-42917496D02*
X32975480Y-39891679D01*
X32975480Y-39891679D02*
X34375000Y-38492159D01*
X32425000Y-43467976D02*
X32975480Y-42917496D01*
X32425000Y-49875000D02*
X32425000Y-43467976D01*
X39849500Y-36050000D02*
X40400000Y-35499500D01*
X36320103Y-36050000D02*
X38150000Y-36050000D01*
X34375000Y-37995103D02*
X36320103Y-36050000D01*
X38150000Y-36050000D02*
X39849500Y-36050000D01*
X34375000Y-38492159D02*
X34375000Y-37995103D01*
G04 #@! TO.N,/IO2*
X31900000Y-53605026D02*
X33475000Y-52030026D01*
X33475000Y-43902898D02*
X34025480Y-43352418D01*
X34025480Y-40326601D02*
X35425000Y-38927081D01*
X30480000Y-58420000D02*
X31180000Y-58420000D01*
X35425000Y-38430026D02*
X36455026Y-37400000D01*
X34025480Y-43352418D02*
X34025480Y-40326601D01*
X36455026Y-37400000D02*
X39829850Y-37400000D01*
X33475000Y-52030026D02*
X33475000Y-43902898D01*
X31180000Y-58420000D02*
X31900000Y-57700000D01*
X39829850Y-37400000D02*
X40276617Y-36953233D01*
X31900000Y-57700000D02*
X31900000Y-53605026D01*
X35425000Y-38927081D02*
X35425000Y-38430026D01*
G04 #@! TO.N,/IO4*
X33675480Y-43207444D02*
X33125000Y-43757924D01*
X35075000Y-38782107D02*
X33675480Y-40181627D01*
X33675480Y-40181627D02*
X33675480Y-43207444D01*
X31550000Y-54810000D02*
X30480000Y-55880000D01*
X36460052Y-36900000D02*
X35075000Y-38285052D01*
X31550000Y-53450000D02*
X31550000Y-54810000D01*
X33125000Y-51875000D02*
X31550000Y-53450000D01*
X39075500Y-36900000D02*
X36460052Y-36900000D01*
X33125000Y-43757924D02*
X33125000Y-51875000D01*
X35075000Y-38285052D02*
X35075000Y-38782107D01*
G04 #@! TO.N,/IO16*
X38300000Y-35500000D02*
X38100000Y-35700000D01*
X32075000Y-43323002D02*
X32075000Y-47625000D01*
X31300000Y-48400000D02*
X30480000Y-48400000D01*
X32075000Y-47625000D02*
X31300000Y-48400000D01*
X32625480Y-42772522D02*
X32075000Y-43323002D01*
X36175129Y-35700000D02*
X34025000Y-37850129D01*
X32625480Y-39746705D02*
X32625480Y-42772522D01*
X38100000Y-35700000D02*
X36175129Y-35700000D01*
X34025000Y-37850129D02*
X34025000Y-38347185D01*
X34025000Y-38347185D02*
X32625480Y-39746705D01*
G04 #@! TO.N,/IO5*
X34175000Y-44475000D02*
X34425000Y-44225000D01*
X30480000Y-63500000D02*
X32600000Y-61380000D01*
X32600000Y-53894974D02*
X34175000Y-52319974D01*
X34175000Y-52319974D02*
X34175000Y-44475000D01*
X32600000Y-61380000D02*
X32600000Y-53894974D01*
G04 #@! TO.N,/IO37*
X51590000Y-54624974D02*
X52290000Y-55324974D01*
X51240000Y-49129850D02*
X51590000Y-49479849D01*
X51590000Y-49479849D02*
X51590000Y-54624974D01*
X52290000Y-57370000D02*
X53340000Y-58420000D01*
X51240000Y-48139896D02*
X51240000Y-49129850D01*
X48075000Y-41074000D02*
X48779026Y-41074000D01*
X52290000Y-55324974D02*
X52290000Y-57370000D01*
X50050000Y-46949898D02*
X51240000Y-48139896D01*
X50050000Y-42344974D02*
X50050000Y-46949898D01*
X48779026Y-41074000D02*
X50050000Y-42344974D01*
G04 #@! TO.N,/IO38*
X51940000Y-54480000D02*
X51940000Y-49334874D01*
X51940000Y-49334874D02*
X51590000Y-48984875D01*
X50400000Y-42200000D02*
X48724500Y-40524500D01*
X51590000Y-47994922D02*
X50400000Y-46804923D01*
X50400000Y-46804923D02*
X50400000Y-42200000D01*
X51590000Y-48984875D02*
X51590000Y-47994922D01*
X53340000Y-55880000D02*
X51940000Y-54480000D01*
X48724500Y-40524500D02*
X47475000Y-40524500D01*
G04 #@! TO.N,Net-(U1-U0RXD)*
X33400000Y-37980154D02*
X34390077Y-36990077D01*
X34390077Y-36990077D02*
X34600446Y-36779708D01*
X34600446Y-36779708D02*
X34600446Y-35400233D01*
X33400000Y-38200000D02*
X33400000Y-37980154D01*
D20*
G04 #@! TO.N,/LAN_3P3V*
X34345000Y-53905000D02*
X34345000Y-53200000D01*
X33600000Y-54650000D02*
X34345000Y-53905000D01*
D21*
G04 #@! TO.N,/VIN_NEG*
X36080000Y-67831233D02*
X35680000Y-68231233D01*
X40080000Y-67831233D02*
X36080000Y-67831233D01*
X44000000Y-65700000D02*
X46500000Y-65700000D01*
X35680000Y-68231233D02*
X35680000Y-70631233D01*
D23*
X43900000Y-65600000D02*
X44000000Y-65700000D01*
D21*
X48100000Y-67300000D02*
X48100000Y-75800000D01*
X44000000Y-65700000D02*
X41200000Y-65700000D01*
X46500000Y-65700000D02*
X48100000Y-67300000D01*
D22*
X40080000Y-67831233D02*
X40031233Y-67831233D01*
X40031233Y-67831233D02*
X40000000Y-67800000D01*
D21*
G04 #@! TO.N,/VSS*
X37918767Y-66781233D02*
X40030000Y-66781233D01*
X43043534Y-66781233D02*
X43580000Y-67317699D01*
X40030000Y-66781233D02*
X41181233Y-66781233D01*
X41200000Y-67800000D02*
X41200000Y-66800000D01*
X37080000Y-66781233D02*
X37918767Y-66781233D01*
X41181233Y-66781233D02*
X43043534Y-66781233D01*
D23*
X43880000Y-69481233D02*
X43880000Y-73031233D01*
D21*
X43580000Y-67317699D02*
X43580000Y-67331233D01*
X38200000Y-66500000D02*
X37918767Y-66781233D01*
X43580000Y-67331233D02*
X43880000Y-67631233D01*
X43880000Y-67631233D02*
X43880000Y-73031233D01*
D22*
X38200000Y-65200000D02*
X38200000Y-65661233D01*
D23*
X43880000Y-67631233D02*
X43880000Y-69481233D01*
D21*
X41200000Y-66800000D02*
X41181233Y-66781233D01*
X38200000Y-65200000D02*
X38200000Y-66500000D01*
G04 #@! TO.N,/12V*
X40700000Y-63400000D02*
X48000000Y-63400000D01*
D22*
G04 #@! TO.N,/RXD0*
X40700000Y-51400000D02*
X41600000Y-51400000D01*
X39800000Y-50500000D02*
X40700000Y-51400000D01*
X40872636Y-38900644D02*
X39749356Y-38900644D01*
X45500000Y-36100000D02*
X45500000Y-36650000D01*
X44070967Y-38636640D02*
X41136640Y-38636640D01*
X45500000Y-36650000D02*
X44475000Y-37675000D01*
X42900000Y-53570000D02*
X42270000Y-54200000D01*
X44475000Y-37675000D02*
X44475000Y-38232607D01*
X44475000Y-38232607D02*
X44070967Y-38636640D01*
X37968862Y-40674031D02*
X37100000Y-41542893D01*
X41600000Y-51400000D02*
X42900000Y-52700000D01*
X37100000Y-46900000D02*
X37600000Y-47400000D01*
X37100000Y-41542893D02*
X37100000Y-46900000D01*
X37600000Y-47400000D02*
X39200000Y-47400000D01*
X41136640Y-38636640D02*
X40864948Y-38908333D01*
X39800000Y-48000000D02*
X39800000Y-50500000D01*
X37975969Y-40674031D02*
X37968862Y-40674031D01*
X39200000Y-47400000D02*
X39800000Y-48000000D01*
X41136640Y-38636640D02*
X40872636Y-38900644D01*
X39749356Y-38900644D02*
X37975969Y-40674031D01*
X42900000Y-52700000D02*
X42900000Y-53570000D01*
G04 #@! TO.N,/RXD1*
X42270000Y-52767487D02*
X42270000Y-53400000D01*
X37400000Y-48200000D02*
X38913507Y-48200000D01*
X44000000Y-38000500D02*
X43713860Y-38286640D01*
X39597275Y-38550644D02*
X36750000Y-41397919D01*
X41302513Y-51800000D02*
X42270000Y-52767487D01*
X40991665Y-38286640D02*
X40727662Y-38550644D01*
X44000000Y-36100000D02*
X44000000Y-38000500D01*
X38913507Y-48200000D02*
X39400000Y-48686493D01*
X39400000Y-48686493D02*
X39400000Y-50600000D01*
X39400000Y-50600000D02*
X40600000Y-51800000D01*
X43713860Y-38286640D02*
X40991665Y-38286640D01*
X40727662Y-38550644D02*
X39597275Y-38550644D01*
X36750000Y-47550001D02*
X37400000Y-48200000D01*
X40600000Y-51800000D02*
X41302513Y-51800000D01*
X36750000Y-41397919D02*
X36750000Y-47550001D01*
G04 #@! TO.N,/ETHCLK*
X35350000Y-42267163D02*
X35350000Y-42400000D01*
X35743491Y-41873672D02*
X35350000Y-42267163D01*
X35350000Y-47642893D02*
X35350000Y-42400000D01*
X36100000Y-48800000D02*
X35400000Y-48800000D01*
X36800000Y-54200000D02*
X36800000Y-49500000D01*
X36800000Y-49500000D02*
X36100000Y-48800000D01*
X35200000Y-47792893D02*
X35350000Y-47642893D01*
X36036444Y-54963556D02*
X36800000Y-54200000D01*
X35200000Y-48600000D02*
X35200000Y-47792893D01*
X35833556Y-54963556D02*
X36036444Y-54963556D01*
X35400000Y-48800000D02*
X35200000Y-48600000D01*
G04 #@! TD*
G04 #@! TA.AperFunction,Conductor*
G04 #@! TO.N,GND*
G36*
X39214592Y-50920002D02*
G01*
X39235566Y-50936905D01*
X40163095Y-51864434D01*
X40197121Y-51926746D01*
X40200000Y-51953529D01*
X40200000Y-53874000D01*
X40179998Y-53942121D01*
X40126342Y-53988614D01*
X40074000Y-54000000D01*
X37280500Y-54000000D01*
X37212379Y-53979998D01*
X37165886Y-53926342D01*
X37154500Y-53874000D01*
X37154500Y-51026000D01*
X37174502Y-50957879D01*
X37228158Y-50911386D01*
X37280500Y-50900000D01*
X39146471Y-50900000D01*
X39214592Y-50920002D01*
G37*
G04 #@! TD.AperFunction*
G04 #@! TD*
G04 #@! TA.AperFunction,Conductor*
G04 #@! TO.N,/POE_NEG*
G36*
X43142121Y-68551235D02*
G01*
X43188614Y-68604891D01*
X43200000Y-68657233D01*
X43200000Y-73374000D01*
X43179998Y-73442121D01*
X43126342Y-73488614D01*
X43074000Y-73500000D01*
X36525494Y-73500000D01*
X36457373Y-73479998D01*
X36410880Y-73426342D01*
X36399495Y-73374507D01*
X36380509Y-68657740D01*
X36400237Y-68589539D01*
X36453705Y-68542831D01*
X36506508Y-68531233D01*
X43074000Y-68531233D01*
X43142121Y-68551235D01*
G37*
G04 #@! TD.AperFunction*
G04 #@! TD*
M02*
