G04 #@! TF.GenerationSoftware,KiCad,Pcbnew,(6.0.9)*
G04 #@! TF.CreationDate,2022-11-21T00:29:48+13:00*
G04 #@! TF.ProjectId,LAN-Module-PoE,4c414e2d-4d6f-4647-956c-652d506f452e,rev?*
G04 #@! TF.SameCoordinates,Original*
G04 #@! TF.FileFunction,Soldermask,Bot*
G04 #@! TF.FilePolarity,Negative*
%FSLAX46Y46*%
G04 Gerber Fmt 4.6, Leading zero omitted, Abs format (unit mm)*
G04 Created by KiCad (PCBNEW (6.0.9)) date 2022-11-21 00:29:48*
%MOMM*%
%LPD*%
G01*
G04 APERTURE LIST*
%ADD10C,0.150000*%
%ADD11C,1.600000*%
%ADD12C,3.250000*%
%ADD13R,1.500000X1.500000*%
%ADD14C,1.500000*%
%ADD15C,2.200000*%
G04 APERTURE END LIST*
D10*
X40250000Y-39250000D02*
X43700000Y-39250000D01*
X43700000Y-39250000D02*
X43700000Y-42750000D01*
X43700000Y-42750000D02*
X40250000Y-42750000D01*
X40250000Y-42750000D02*
X40250000Y-39250000D01*
G36*
X40250000Y-39250000D02*
G01*
X43700000Y-39250000D01*
X43700000Y-42750000D01*
X40250000Y-42750000D01*
X40250000Y-39250000D01*
G37*
X36550000Y-68700000D02*
X43000000Y-68700000D01*
X43000000Y-68700000D02*
X43000000Y-73300000D01*
X43000000Y-73300000D02*
X36550000Y-73300000D01*
X36550000Y-73300000D02*
X36550000Y-68700000D01*
G36*
X36550000Y-68700000D02*
G01*
X43000000Y-68700000D01*
X43000000Y-73300000D01*
X36550000Y-73300000D01*
X36550000Y-68700000D01*
G37*
D11*
G04 #@! TO.C,J20*
X53340000Y-45720000D03*
G04 #@! TD*
G04 #@! TO.C,J10*
X30480000Y-55880000D03*
G04 #@! TD*
G04 #@! TO.C,J23*
X53340000Y-53340000D03*
G04 #@! TD*
G04 #@! TO.C,J4*
X30480000Y-40780000D03*
G04 #@! TD*
G04 #@! TO.C,J7*
X30480000Y-48400000D03*
G04 #@! TD*
G04 #@! TO.C,J25*
X53340000Y-58420000D03*
G04 #@! TD*
G04 #@! TO.C,J27*
X53340000Y-66040000D03*
G04 #@! TD*
G04 #@! TO.C,J8*
X30480000Y-50800000D03*
G04 #@! TD*
G04 #@! TO.C,J17*
X53340000Y-38100000D03*
G04 #@! TD*
G04 #@! TO.C,J26*
X53340000Y-60960000D03*
G04 #@! TD*
G04 #@! TO.C,J14*
X30480000Y-66040000D03*
G04 #@! TD*
G04 #@! TO.C,J19*
X53340000Y-43180000D03*
G04 #@! TD*
G04 #@! TO.C,J12*
X30480000Y-60960000D03*
G04 #@! TD*
G04 #@! TO.C,J22*
X53340000Y-50800000D03*
G04 #@! TD*
G04 #@! TO.C,J29*
X53340000Y-76260000D03*
G04 #@! TD*
G04 #@! TO.C,J3*
X30480000Y-38010000D03*
G04 #@! TD*
G04 #@! TO.C,J16*
X30480000Y-68580000D03*
G04 #@! TD*
G04 #@! TO.C,J24*
X53340000Y-55880000D03*
G04 #@! TD*
G04 #@! TO.C,J13*
X30480000Y-63500000D03*
G04 #@! TD*
G04 #@! TO.C,J5*
X30480000Y-43320000D03*
G04 #@! TD*
D12*
G04 #@! TO.C,J1*
X36150000Y-85921233D03*
X47580000Y-85921233D03*
D13*
X36150000Y-77031233D03*
D14*
X37420000Y-79571233D03*
X38690000Y-77031233D03*
X39960000Y-79571233D03*
X41230000Y-77031233D03*
X42500000Y-79571233D03*
X43770000Y-77031233D03*
X45040000Y-79571233D03*
X46310000Y-77031233D03*
X47580000Y-79571233D03*
D11*
X35235000Y-90001233D03*
X37775000Y-90001233D03*
X45955000Y-90001233D03*
X48495000Y-90001233D03*
D15*
X34120000Y-82871233D03*
X49610000Y-82871233D03*
G04 #@! TD*
D11*
G04 #@! TO.C,J28*
X53340000Y-68580000D03*
G04 #@! TD*
G04 #@! TO.C,J21*
X53340000Y-48260000D03*
G04 #@! TD*
G04 #@! TO.C,J15*
X53340000Y-63500000D03*
G04 #@! TD*
G04 #@! TO.C,J6*
X30480000Y-45860000D03*
G04 #@! TD*
G04 #@! TO.C,J2*
X53340000Y-73660000D03*
G04 #@! TD*
G04 #@! TO.C,J18*
X53340000Y-40640000D03*
G04 #@! TD*
G04 #@! TO.C,J9*
X30480000Y-53340000D03*
G04 #@! TD*
G04 #@! TO.C,J11*
X30480000Y-58420000D03*
G04 #@! TD*
M02*
