%TF.GenerationSoftware,KiCad,Pcbnew,(6.0.9)*%
%TF.CreationDate,2022-11-21T00:30:00+13:00*%
%TF.ProjectId,LAN-Module-PoE,4c414e2d-4d6f-4647-956c-652d506f452e,rev?*%
%TF.SameCoordinates,Original*%
%TF.FileFunction,Drillmap*%
%TF.FilePolarity,Positive*%
%FSLAX45Y45*%
G04 Gerber Fmt 4.5, Leading zero omitted, Abs format (unit mm)*
G04 Created by KiCad (PCBNEW (6.0.9)) date 2022-11-21 00:30:00*
%MOMM*%
%LPD*%
G01*
G04 APERTURE LIST*
%ADD10C,0.100000*%
%ADD11C,0.200000*%
%ADD12C,0.020000*%
%ADD13C,0.030000*%
%ADD14C,0.090000*%
%ADD15C,0.102000*%
%ADD16C,0.160000*%
G04 APERTURE END LIST*
D10*
X5200000Y-3250000D02*
X3179000Y-3250000D01*
X3179000Y-3250000D02*
G75*
G03*
X2925000Y-3504000I0J-254000D01*
G01*
X5450000Y-3500000D02*
G75*
G03*
X5200000Y-3250000I-250000J0D01*
G01*
X5196000Y-9354000D02*
G75*
G03*
X5450000Y-9100000I0J254000D01*
G01*
X2921000Y-9100000D02*
G75*
G03*
X3175000Y-9354000I254000J0D01*
G01*
X2925000Y-3504000D02*
X2921000Y-9100000D01*
X3175000Y-9354000D02*
X5196000Y-9354000D01*
X5450000Y-9100000D02*
X5450000Y-3500000D01*
D11*
D12*
X4027500Y-3930833D02*
X4047500Y-3950833D01*
X4047500Y-3930833D02*
X4027500Y-3950833D01*
X4027500Y-4037500D02*
X4047500Y-4057500D01*
X4047500Y-4037500D02*
X4027500Y-4057500D01*
X4027500Y-4144167D02*
X4047500Y-4164167D01*
X4047500Y-4144167D02*
X4027500Y-4164167D01*
X4027500Y-4250833D02*
X4047500Y-4270833D01*
X4047500Y-4250833D02*
X4027500Y-4270833D01*
X4134167Y-3930833D02*
X4154167Y-3950833D01*
X4154167Y-3930833D02*
X4134167Y-3950833D01*
X4134167Y-4037500D02*
X4154167Y-4057500D01*
X4154167Y-4037500D02*
X4134167Y-4057500D01*
X4134167Y-4144167D02*
X4154167Y-4164167D01*
X4154167Y-4144167D02*
X4134167Y-4164167D01*
X4134167Y-4250833D02*
X4154167Y-4270833D01*
X4154167Y-4250833D02*
X4134167Y-4270833D01*
X4240833Y-3930833D02*
X4260833Y-3950833D01*
X4260833Y-3930833D02*
X4240833Y-3950833D01*
X4240833Y-4037500D02*
X4260833Y-4057500D01*
X4260833Y-4037500D02*
X4240833Y-4057500D01*
X4240833Y-4144167D02*
X4260833Y-4164167D01*
X4260833Y-4144167D02*
X4240833Y-4164167D01*
X4240833Y-4250833D02*
X4260833Y-4270833D01*
X4260833Y-4250833D02*
X4240833Y-4270833D01*
X4347500Y-3930833D02*
X4367500Y-3950833D01*
X4367500Y-3930833D02*
X4347500Y-3950833D01*
X4347500Y-4037500D02*
X4367500Y-4057500D01*
X4367500Y-4037500D02*
X4347500Y-4057500D01*
X4347500Y-4144167D02*
X4367500Y-4164167D01*
X4367500Y-4144167D02*
X4347500Y-4164167D01*
X4347500Y-4250833D02*
X4367500Y-4270833D01*
X4367500Y-4250833D02*
X4347500Y-4270833D01*
D13*
X3063000Y-7798000D02*
G75*
G03*
X3063000Y-7798000I-15000J0D01*
G01*
X3205000Y-5130000D02*
G75*
G03*
X3205000Y-5130000I-15000J0D01*
G01*
X3225000Y-8140000D02*
G75*
G03*
X3225000Y-8140000I-15000J0D01*
G01*
X3235000Y-8050000D02*
G75*
G03*
X3235000Y-8050000I-15000J0D01*
G01*
X3279950Y-3739045D02*
G75*
G03*
X3279950Y-3739045I-15000J0D01*
G01*
X3282500Y-3637500D02*
G75*
G03*
X3282500Y-3637500I-15000J0D01*
G01*
X3295000Y-3870000D02*
G75*
G03*
X3295000Y-3870000I-15000J0D01*
G01*
X3355000Y-3820000D02*
G75*
G03*
X3355000Y-3820000I-15000J0D01*
G01*
X3372000Y-5470000D02*
G75*
G03*
X3372000Y-5470000I-15000J0D01*
G01*
X3417450Y-3510000D02*
G75*
G03*
X3417450Y-3510000I-15000J0D01*
G01*
X3435000Y-3310000D02*
G75*
G03*
X3435000Y-3310000I-15000J0D01*
G01*
X3449500Y-5320000D02*
G75*
G03*
X3449500Y-5320000I-15000J0D01*
G01*
X3457500Y-4422500D02*
G75*
G03*
X3457500Y-4422500I-15000J0D01*
G01*
X3475045Y-3540023D02*
G75*
G03*
X3475045Y-3540023I-15000J0D01*
G01*
X3485000Y-4890000D02*
G75*
G03*
X3485000Y-4890000I-15000J0D01*
G01*
X3524271Y-4947225D02*
G75*
G03*
X3524271Y-4947225I-15000J0D01*
G01*
X3535000Y-3359799D02*
G75*
G03*
X3535000Y-3359799I-15000J0D01*
G01*
X3552000Y-5020000D02*
G75*
G03*
X3552000Y-5020000I-15000J0D01*
G01*
X3580000Y-7063123D02*
G75*
G03*
X3580000Y-7063123I-15000J0D01*
G01*
X3585000Y-4800000D02*
G75*
G03*
X3585000Y-4800000I-15000J0D01*
G01*
X3597000Y-5745000D02*
G75*
G03*
X3597000Y-5745000I-15000J0D01*
G01*
X3598356Y-5496356D02*
G75*
G03*
X3598356Y-5496356I-15000J0D01*
G01*
X3600122Y-5895000D02*
G75*
G03*
X3600122Y-5895000I-15000J0D01*
G01*
X3632180Y-4327180D02*
G75*
G03*
X3632180Y-4327180I-15000J0D01*
G01*
X3635000Y-4399804D02*
G75*
G03*
X3635000Y-4399804I-15000J0D01*
G01*
X3709400Y-7487500D02*
G75*
G03*
X3709400Y-7487500I-15000J0D01*
G01*
X3735000Y-4000000D02*
G75*
G03*
X3735000Y-4000000I-15000J0D01*
G01*
X3762000Y-5360000D02*
G75*
G03*
X3762000Y-5360000I-15000J0D01*
G01*
X3765000Y-5130000D02*
G75*
G03*
X3765000Y-5130000I-15000J0D01*
G01*
X3765000Y-5240000D02*
G75*
G03*
X3765000Y-5240000I-15000J0D01*
G01*
X3772000Y-6980000D02*
G75*
G03*
X3772000Y-6980000I-15000J0D01*
G01*
X3772000Y-7060000D02*
G75*
G03*
X3772000Y-7060000I-15000J0D01*
G01*
X3772000Y-7140000D02*
G75*
G03*
X3772000Y-7140000I-15000J0D01*
G01*
X3775000Y-6680000D02*
G75*
G03*
X3775000Y-6680000I-15000J0D01*
G01*
X3795000Y-4870000D02*
G75*
G03*
X3795000Y-4870000I-15000J0D01*
G01*
X3807500Y-4650000D02*
G75*
G03*
X3807500Y-4650000I-15000J0D01*
G01*
X3822500Y-4127500D02*
G75*
G03*
X3822500Y-4127500I-15000J0D01*
G01*
X3835000Y-6520000D02*
G75*
G03*
X3835000Y-6520000I-15000J0D01*
G01*
X3845000Y-3550000D02*
G75*
G03*
X3845000Y-3550000I-15000J0D01*
G01*
X3852500Y-4317500D02*
G75*
G03*
X3852500Y-4317500I-15000J0D01*
G01*
X3862000Y-6980000D02*
G75*
G03*
X3862000Y-6980000I-15000J0D01*
G01*
X3865000Y-7060623D02*
G75*
G03*
X3865000Y-7060623I-15000J0D01*
G01*
X3867000Y-7140000D02*
G75*
G03*
X3867000Y-7140000I-15000J0D01*
G01*
X3875000Y-5130000D02*
G75*
G03*
X3875000Y-5130000I-15000J0D01*
G01*
X3875000Y-5240000D02*
G75*
G03*
X3875000Y-5240000I-15000J0D01*
G01*
X3875000Y-5360000D02*
G75*
G03*
X3875000Y-5360000I-15000J0D01*
G01*
X3922500Y-4497500D02*
G75*
G03*
X3922500Y-4497500I-15000J0D01*
G01*
X3922550Y-3690000D02*
G75*
G03*
X3922550Y-3690000I-15000J0D01*
G01*
X3952000Y-6980000D02*
G75*
G03*
X3952000Y-6980000I-15000J0D01*
G01*
X3952000Y-7060000D02*
G75*
G03*
X3952000Y-7060000I-15000J0D01*
G01*
X3952000Y-7140000D02*
G75*
G03*
X3952000Y-7140000I-15000J0D01*
G01*
X3962500Y-4397500D02*
G75*
G03*
X3962500Y-4397500I-15000J0D01*
G01*
X3975000Y-3550000D02*
G75*
G03*
X3975000Y-3550000I-15000J0D01*
G01*
X3985000Y-5240000D02*
G75*
G03*
X3985000Y-5240000I-15000J0D01*
G01*
X3985000Y-5360000D02*
G75*
G03*
X3985000Y-5360000I-15000J0D01*
G01*
X3992500Y-4487500D02*
G75*
G03*
X3992500Y-4487500I-15000J0D01*
G01*
X4020000Y-6783123D02*
G75*
G03*
X4020000Y-6783123I-15000J0D01*
G01*
X4042662Y-3695323D02*
G75*
G03*
X4042662Y-3695323I-15000J0D01*
G01*
X4055000Y-3549950D02*
G75*
G03*
X4055000Y-3549950I-15000J0D01*
G01*
X4075000Y-7400000D02*
G75*
G03*
X4075000Y-7400000I-15000J0D01*
G01*
X4085000Y-6340000D02*
G75*
G03*
X4085000Y-6340000I-15000J0D01*
G01*
X4134721Y-3560737D02*
G75*
G03*
X4134721Y-3560737I-15000J0D01*
G01*
X4135000Y-6570000D02*
G75*
G03*
X4135000Y-6570000I-15000J0D01*
G01*
X4135000Y-6780000D02*
G75*
G03*
X4135000Y-6780000I-15000J0D01*
G01*
X4157734Y-3500000D02*
G75*
G03*
X4157734Y-3500000I-15000J0D01*
G01*
X4165000Y-4940000D02*
G75*
G03*
X4165000Y-4940000I-15000J0D01*
G01*
X4212000Y-5070000D02*
G75*
G03*
X4212000Y-5070000I-15000J0D01*
G01*
X4212088Y-5895000D02*
G75*
G03*
X4212088Y-5895000I-15000J0D01*
G01*
X4217000Y-5745000D02*
G75*
G03*
X4217000Y-5745000I-15000J0D01*
G01*
X4242000Y-5340000D02*
G75*
G03*
X4242000Y-5340000I-15000J0D01*
G01*
X4242000Y-5420000D02*
G75*
G03*
X4242000Y-5420000I-15000J0D01*
G01*
X4262450Y-3647450D02*
G75*
G03*
X4262450Y-3647450I-15000J0D01*
G01*
X4275000Y-4616961D02*
G75*
G03*
X4275000Y-4616961I-15000J0D01*
G01*
X4327342Y-3650203D02*
G75*
G03*
X4327342Y-3650203I-15000J0D01*
G01*
X4347500Y-4852500D02*
G75*
G03*
X4347500Y-4852500I-15000J0D01*
G01*
X4349950Y-3760000D02*
G75*
G03*
X4349950Y-3760000I-15000J0D01*
G01*
X4372500Y-4497500D02*
G75*
G03*
X4372500Y-4497500I-15000J0D01*
G01*
X4405000Y-7220000D02*
G75*
G03*
X4405000Y-7220000I-15000J0D01*
G01*
X4415000Y-3610000D02*
G75*
G03*
X4415000Y-3610000I-15000J0D01*
G01*
X4415000Y-6010000D02*
G75*
G03*
X4415000Y-6010000I-15000J0D01*
G01*
X4494500Y-5397500D02*
G75*
G03*
X4494500Y-5397500I-15000J0D01*
G01*
X4543333Y-4328333D02*
G75*
G03*
X4543333Y-4328333I-15000J0D01*
G01*
X4565000Y-3610000D02*
G75*
G03*
X4565000Y-3610000I-15000J0D01*
G01*
X4583621Y-5549710D02*
G75*
G03*
X4583621Y-5549710I-15000J0D01*
G01*
X4592500Y-4757500D02*
G75*
G03*
X4592500Y-4757500I-15000J0D01*
G01*
X4622500Y-4033383D02*
G75*
G03*
X4622500Y-4033383I-15000J0D01*
G01*
X4655000Y-3370000D02*
G75*
G03*
X4655000Y-3370000I-15000J0D01*
G01*
X4705000Y-5110000D02*
G75*
G03*
X4705000Y-5110000I-15000J0D01*
G01*
X4705320Y-5567450D02*
G75*
G03*
X4705320Y-5567450I-15000J0D01*
G01*
X4722500Y-4177500D02*
G75*
G03*
X4722500Y-4177500I-15000J0D01*
G01*
X4729950Y-4440000D02*
G75*
G03*
X4729950Y-4440000I-15000J0D01*
G01*
X4761583Y-3745694D02*
G75*
G03*
X4761583Y-3745694I-15000J0D01*
G01*
X4762500Y-4052450D02*
G75*
G03*
X4762500Y-4052450I-15000J0D01*
G01*
X4783358Y-3853667D02*
G75*
G03*
X4783358Y-3853667I-15000J0D01*
G01*
X4795000Y-3690000D02*
G75*
G03*
X4795000Y-3690000I-15000J0D01*
G01*
X4807500Y-4992500D02*
G75*
G03*
X4807500Y-4992500I-15000J0D01*
G01*
X4812545Y-3795644D02*
G75*
G03*
X4812545Y-3795644I-15000J0D01*
G01*
X4815000Y-6340000D02*
G75*
G03*
X4815000Y-6340000I-15000J0D01*
G01*
X4822500Y-3997500D02*
G75*
G03*
X4822500Y-3997500I-15000J0D01*
G01*
X4822500Y-4107400D02*
G75*
G03*
X4822500Y-4107400I-15000J0D01*
G01*
X4825000Y-3540000D02*
G75*
G03*
X4825000Y-3540000I-15000J0D01*
G01*
X4825000Y-7580000D02*
G75*
G03*
X4825000Y-7580000I-15000J0D01*
G01*
X4975000Y-5760000D02*
G75*
G03*
X4975000Y-5760000I-15000J0D01*
G01*
X4975000Y-5870000D02*
G75*
G03*
X4975000Y-5870000I-15000J0D01*
G01*
X4975000Y-6050000D02*
G75*
G03*
X4975000Y-6050000I-15000J0D01*
G01*
X4985000Y-3400000D02*
G75*
G03*
X4985000Y-3400000I-15000J0D01*
G01*
X5035000Y-4050000D02*
G75*
G03*
X5035000Y-4050000I-15000J0D01*
G01*
X5035000Y-4880000D02*
G75*
G03*
X5035000Y-4880000I-15000J0D01*
G01*
X5045000Y-8810000D02*
G75*
G03*
X5045000Y-8810000I-15000J0D01*
G01*
X5074000Y-5290000D02*
G75*
G03*
X5074000Y-5290000I-15000J0D01*
G01*
X5075000Y-5550000D02*
G75*
G03*
X5075000Y-5550000I-15000J0D01*
G01*
X5085000Y-6460000D02*
G75*
G03*
X5085000Y-6460000I-15000J0D01*
G01*
X5095000Y-3510000D02*
G75*
G03*
X5095000Y-3510000I-15000J0D01*
G01*
X5095000Y-7010000D02*
G75*
G03*
X5095000Y-7010000I-15000J0D01*
G01*
X5120320Y-3704680D02*
G75*
G03*
X5120320Y-3704680I-15000J0D01*
G01*
X5165000Y-7950000D02*
G75*
G03*
X5165000Y-7950000I-15000J0D01*
G01*
D14*
X3615000Y-7658123D02*
X3615000Y-7748123D01*
X3570000Y-7703123D02*
X3660000Y-7703123D01*
X3742000Y-7912123D02*
X3742000Y-8002123D01*
X3697000Y-7957123D02*
X3787000Y-7957123D01*
X3869000Y-7658123D02*
X3869000Y-7748123D01*
X3824000Y-7703123D02*
X3914000Y-7703123D01*
X3996000Y-7912123D02*
X3996000Y-8002123D01*
X3951000Y-7957123D02*
X4041000Y-7957123D01*
X4123000Y-7658123D02*
X4123000Y-7748123D01*
X4078000Y-7703123D02*
X4168000Y-7703123D01*
X4250000Y-7912123D02*
X4250000Y-8002123D01*
X4205000Y-7957123D02*
X4295000Y-7957123D01*
X4377000Y-7658123D02*
X4377000Y-7748123D01*
X4332000Y-7703123D02*
X4422000Y-7703123D01*
X4504000Y-7912123D02*
X4504000Y-8002123D01*
X4459000Y-7957123D02*
X4549000Y-7957123D01*
X4631000Y-7658123D02*
X4631000Y-7748123D01*
X4586000Y-7703123D02*
X4676000Y-7703123D01*
X4758000Y-7912123D02*
X4758000Y-8002123D01*
X4713000Y-7957123D02*
X4803000Y-7957123D01*
D10*
X3083356Y-3836356D02*
X3083356Y-3765644D01*
X3012644Y-3765644D01*
X3012644Y-3836356D01*
X3083356Y-3836356D01*
X3083356Y-4113356D02*
X3083356Y-4042644D01*
X3012644Y-4042644D01*
X3012644Y-4113356D01*
X3083356Y-4113356D01*
X3083356Y-4367356D02*
X3083356Y-4296644D01*
X3012644Y-4296644D01*
X3012644Y-4367356D01*
X3083356Y-4367356D01*
X3083356Y-4621356D02*
X3083356Y-4550644D01*
X3012644Y-4550644D01*
X3012644Y-4621356D01*
X3083356Y-4621356D01*
X3083356Y-4875356D02*
X3083356Y-4804644D01*
X3012644Y-4804644D01*
X3012644Y-4875356D01*
X3083356Y-4875356D01*
X3083356Y-5115356D02*
X3083356Y-5044644D01*
X3012644Y-5044644D01*
X3012644Y-5115356D01*
X3083356Y-5115356D01*
X3083356Y-5369356D02*
X3083356Y-5298644D01*
X3012644Y-5298644D01*
X3012644Y-5369356D01*
X3083356Y-5369356D01*
X3083356Y-5623356D02*
X3083356Y-5552644D01*
X3012644Y-5552644D01*
X3012644Y-5623356D01*
X3083356Y-5623356D01*
X3083356Y-5877356D02*
X3083356Y-5806644D01*
X3012644Y-5806644D01*
X3012644Y-5877356D01*
X3083356Y-5877356D01*
X3083356Y-6131356D02*
X3083356Y-6060644D01*
X3012644Y-6060644D01*
X3012644Y-6131356D01*
X3083356Y-6131356D01*
X3083356Y-6385356D02*
X3083356Y-6314644D01*
X3012644Y-6314644D01*
X3012644Y-6385356D01*
X3083356Y-6385356D01*
X3083356Y-6639356D02*
X3083356Y-6568644D01*
X3012644Y-6568644D01*
X3012644Y-6639356D01*
X3083356Y-6639356D01*
X3083356Y-6893356D02*
X3083356Y-6822644D01*
X3012644Y-6822644D01*
X3012644Y-6893356D01*
X3083356Y-6893356D01*
X5369356Y-3845356D02*
X5369356Y-3774644D01*
X5298644Y-3774644D01*
X5298644Y-3845356D01*
X5369356Y-3845356D01*
X5369356Y-4099356D02*
X5369356Y-4028644D01*
X5298644Y-4028644D01*
X5298644Y-4099356D01*
X5369356Y-4099356D01*
X5369356Y-4353356D02*
X5369356Y-4282644D01*
X5298644Y-4282644D01*
X5298644Y-4353356D01*
X5369356Y-4353356D01*
X5369356Y-4607356D02*
X5369356Y-4536644D01*
X5298644Y-4536644D01*
X5298644Y-4607356D01*
X5369356Y-4607356D01*
X5369356Y-4861356D02*
X5369356Y-4790644D01*
X5298644Y-4790644D01*
X5298644Y-4861356D01*
X5369356Y-4861356D01*
X5369356Y-5115356D02*
X5369356Y-5044644D01*
X5298644Y-5044644D01*
X5298644Y-5115356D01*
X5369356Y-5115356D01*
X5369356Y-5369356D02*
X5369356Y-5298644D01*
X5298644Y-5298644D01*
X5298644Y-5369356D01*
X5369356Y-5369356D01*
X5369356Y-5623356D02*
X5369356Y-5552644D01*
X5298644Y-5552644D01*
X5298644Y-5623356D01*
X5369356Y-5623356D01*
X5369356Y-5877356D02*
X5369356Y-5806644D01*
X5298644Y-5806644D01*
X5298644Y-5877356D01*
X5369356Y-5877356D01*
X5369356Y-6131356D02*
X5369356Y-6060644D01*
X5298644Y-6060644D01*
X5298644Y-6131356D01*
X5369356Y-6131356D01*
X5369356Y-6385356D02*
X5369356Y-6314644D01*
X5298644Y-6314644D01*
X5298644Y-6385356D01*
X5369356Y-6385356D01*
X5369356Y-6639356D02*
X5369356Y-6568644D01*
X5298644Y-6568644D01*
X5298644Y-6639356D01*
X5369356Y-6639356D01*
X5369356Y-6893356D02*
X5369356Y-6822644D01*
X5298644Y-6822644D01*
X5298644Y-6893356D01*
X5369356Y-6893356D01*
X5369356Y-7401356D02*
X5369356Y-7330644D01*
X5298644Y-7330644D01*
X5298644Y-7401356D01*
X5369356Y-7401356D01*
X5369356Y-7661356D02*
X5369356Y-7590644D01*
X5298644Y-7590644D01*
X5298644Y-7661356D01*
X5369356Y-7661356D01*
D15*
X3523500Y-9051123D02*
X3574500Y-9000123D01*
X3523500Y-8949123D01*
X3472500Y-9000123D01*
X3523500Y-9051123D01*
X3777500Y-9051123D02*
X3828500Y-9000123D01*
X3777500Y-8949123D01*
X3726500Y-9000123D01*
X3777500Y-9051123D01*
X4595500Y-9051123D02*
X4646500Y-9000123D01*
X4595500Y-8949123D01*
X4544500Y-9000123D01*
X4595500Y-9051123D01*
X4849500Y-9051123D02*
X4900500Y-9000123D01*
X4849500Y-8949123D01*
X4798500Y-9000123D01*
X4849500Y-9051123D01*
D16*
X3332000Y-8207123D02*
X3492000Y-8367123D01*
X3492000Y-8207123D02*
X3332000Y-8367123D01*
X3492000Y-8287123D02*
G75*
G03*
X3492000Y-8287123I-80000J0D01*
G01*
X4881000Y-8207123D02*
X5041000Y-8367123D01*
X5041000Y-8207123D02*
X4881000Y-8367123D01*
X5041000Y-8287123D02*
G75*
G03*
X5041000Y-8287123I-80000J0D01*
G01*
D11*
X3173619Y-9669476D02*
X3173619Y-9469476D01*
X3221238Y-9469476D01*
X3249809Y-9479000D01*
X3268857Y-9498048D01*
X3278381Y-9517095D01*
X3287905Y-9555190D01*
X3287905Y-9583762D01*
X3278381Y-9621857D01*
X3268857Y-9640905D01*
X3249809Y-9659952D01*
X3221238Y-9669476D01*
X3173619Y-9669476D01*
X3373619Y-9669476D02*
X3373619Y-9536143D01*
X3373619Y-9574238D02*
X3383143Y-9555190D01*
X3392667Y-9545667D01*
X3411714Y-9536143D01*
X3430762Y-9536143D01*
X3497428Y-9669476D02*
X3497428Y-9536143D01*
X3497428Y-9469476D02*
X3487905Y-9479000D01*
X3497428Y-9488524D01*
X3506952Y-9479000D01*
X3497428Y-9469476D01*
X3497428Y-9488524D01*
X3621238Y-9669476D02*
X3602190Y-9659952D01*
X3592667Y-9640905D01*
X3592667Y-9469476D01*
X3726000Y-9669476D02*
X3706952Y-9659952D01*
X3697428Y-9640905D01*
X3697428Y-9469476D01*
X3954571Y-9669476D02*
X3954571Y-9469476D01*
X4021238Y-9612333D01*
X4087905Y-9469476D01*
X4087905Y-9669476D01*
X4268857Y-9669476D02*
X4268857Y-9564714D01*
X4259333Y-9545667D01*
X4240286Y-9536143D01*
X4202190Y-9536143D01*
X4183143Y-9545667D01*
X4268857Y-9659952D02*
X4249810Y-9669476D01*
X4202190Y-9669476D01*
X4183143Y-9659952D01*
X4173619Y-9640905D01*
X4173619Y-9621857D01*
X4183143Y-9602810D01*
X4202190Y-9593286D01*
X4249810Y-9593286D01*
X4268857Y-9583762D01*
X4364095Y-9536143D02*
X4364095Y-9736143D01*
X4364095Y-9545667D02*
X4383143Y-9536143D01*
X4421238Y-9536143D01*
X4440286Y-9545667D01*
X4449810Y-9555190D01*
X4459333Y-9574238D01*
X4459333Y-9631381D01*
X4449810Y-9650429D01*
X4440286Y-9659952D01*
X4421238Y-9669476D01*
X4383143Y-9669476D01*
X4364095Y-9659952D01*
X4545048Y-9650429D02*
X4554571Y-9659952D01*
X4545048Y-9669476D01*
X4535524Y-9659952D01*
X4545048Y-9650429D01*
X4545048Y-9669476D01*
X4545048Y-9545667D02*
X4554571Y-9555190D01*
X4545048Y-9564714D01*
X4535524Y-9555190D01*
X4545048Y-9545667D01*
X4545048Y-9564714D01*
D12*
X2896000Y-9989000D02*
X2916000Y-10009000D01*
X2916000Y-9989000D02*
X2896000Y-10009000D01*
D11*
X3211714Y-9889476D02*
X3230762Y-9889476D01*
X3249809Y-9899000D01*
X3259333Y-9908524D01*
X3268857Y-9927571D01*
X3278381Y-9965667D01*
X3278381Y-10013286D01*
X3268857Y-10051381D01*
X3259333Y-10070429D01*
X3249809Y-10079952D01*
X3230762Y-10089476D01*
X3211714Y-10089476D01*
X3192667Y-10079952D01*
X3183143Y-10070429D01*
X3173619Y-10051381D01*
X3164095Y-10013286D01*
X3164095Y-9965667D01*
X3173619Y-9927571D01*
X3183143Y-9908524D01*
X3192667Y-9899000D01*
X3211714Y-9889476D01*
X3364095Y-10070429D02*
X3373619Y-10079952D01*
X3364095Y-10089476D01*
X3354571Y-10079952D01*
X3364095Y-10070429D01*
X3364095Y-10089476D01*
X3449809Y-9908524D02*
X3459333Y-9899000D01*
X3478381Y-9889476D01*
X3526000Y-9889476D01*
X3545048Y-9899000D01*
X3554571Y-9908524D01*
X3564095Y-9927571D01*
X3564095Y-9946619D01*
X3554571Y-9975190D01*
X3440286Y-10089476D01*
X3564095Y-10089476D01*
X3687905Y-9889476D02*
X3706952Y-9889476D01*
X3726000Y-9899000D01*
X3735524Y-9908524D01*
X3745048Y-9927571D01*
X3754571Y-9965667D01*
X3754571Y-10013286D01*
X3745048Y-10051381D01*
X3735524Y-10070429D01*
X3726000Y-10079952D01*
X3706952Y-10089476D01*
X3687905Y-10089476D01*
X3668857Y-10079952D01*
X3659333Y-10070429D01*
X3649809Y-10051381D01*
X3640286Y-10013286D01*
X3640286Y-9965667D01*
X3649809Y-9927571D01*
X3659333Y-9908524D01*
X3668857Y-9899000D01*
X3687905Y-9889476D01*
X3878381Y-9889476D02*
X3897428Y-9889476D01*
X3916476Y-9899000D01*
X3926000Y-9908524D01*
X3935524Y-9927571D01*
X3945048Y-9965667D01*
X3945048Y-10013286D01*
X3935524Y-10051381D01*
X3926000Y-10070429D01*
X3916476Y-10079952D01*
X3897428Y-10089476D01*
X3878381Y-10089476D01*
X3859333Y-10079952D01*
X3849809Y-10070429D01*
X3840286Y-10051381D01*
X3830762Y-10013286D01*
X3830762Y-9965667D01*
X3840286Y-9927571D01*
X3849809Y-9908524D01*
X3859333Y-9899000D01*
X3878381Y-9889476D01*
X4030762Y-10089476D02*
X4030762Y-9956143D01*
X4030762Y-9975190D02*
X4040286Y-9965667D01*
X4059333Y-9956143D01*
X4087905Y-9956143D01*
X4106952Y-9965667D01*
X4116476Y-9984714D01*
X4116476Y-10089476D01*
X4116476Y-9984714D02*
X4126000Y-9965667D01*
X4145048Y-9956143D01*
X4173619Y-9956143D01*
X4192667Y-9965667D01*
X4202190Y-9984714D01*
X4202190Y-10089476D01*
X4297429Y-10089476D02*
X4297429Y-9956143D01*
X4297429Y-9975190D02*
X4306952Y-9965667D01*
X4326000Y-9956143D01*
X4354571Y-9956143D01*
X4373619Y-9965667D01*
X4383143Y-9984714D01*
X4383143Y-10089476D01*
X4383143Y-9984714D02*
X4392667Y-9965667D01*
X4411714Y-9956143D01*
X4440286Y-9956143D01*
X4459333Y-9965667D01*
X4468857Y-9984714D01*
X4468857Y-10089476D01*
X4859333Y-9879952D02*
X4687905Y-10137095D01*
X5116476Y-9889476D02*
X5135524Y-9889476D01*
X5154571Y-9899000D01*
X5164095Y-9908524D01*
X5173619Y-9927571D01*
X5183143Y-9965667D01*
X5183143Y-10013286D01*
X5173619Y-10051381D01*
X5164095Y-10070429D01*
X5154571Y-10079952D01*
X5135524Y-10089476D01*
X5116476Y-10089476D01*
X5097429Y-10079952D01*
X5087905Y-10070429D01*
X5078381Y-10051381D01*
X5068857Y-10013286D01*
X5068857Y-9965667D01*
X5078381Y-9927571D01*
X5087905Y-9908524D01*
X5097429Y-9899000D01*
X5116476Y-9889476D01*
X5268857Y-10070429D02*
X5278381Y-10079952D01*
X5268857Y-10089476D01*
X5259333Y-10079952D01*
X5268857Y-10070429D01*
X5268857Y-10089476D01*
X5402190Y-9889476D02*
X5421238Y-9889476D01*
X5440286Y-9899000D01*
X5449810Y-9908524D01*
X5459333Y-9927571D01*
X5468857Y-9965667D01*
X5468857Y-10013286D01*
X5459333Y-10051381D01*
X5449810Y-10070429D01*
X5440286Y-10079952D01*
X5421238Y-10089476D01*
X5402190Y-10089476D01*
X5383143Y-10079952D01*
X5373619Y-10070429D01*
X5364095Y-10051381D01*
X5354571Y-10013286D01*
X5354571Y-9965667D01*
X5364095Y-9927571D01*
X5373619Y-9908524D01*
X5383143Y-9899000D01*
X5402190Y-9889476D01*
X5592667Y-9889476D02*
X5611714Y-9889476D01*
X5630762Y-9899000D01*
X5640286Y-9908524D01*
X5649809Y-9927571D01*
X5659333Y-9965667D01*
X5659333Y-10013286D01*
X5649809Y-10051381D01*
X5640286Y-10070429D01*
X5630762Y-10079952D01*
X5611714Y-10089476D01*
X5592667Y-10089476D01*
X5573619Y-10079952D01*
X5564095Y-10070429D01*
X5554571Y-10051381D01*
X5545048Y-10013286D01*
X5545048Y-9965667D01*
X5554571Y-9927571D01*
X5564095Y-9908524D01*
X5573619Y-9899000D01*
X5592667Y-9889476D01*
X5726000Y-9889476D02*
X5859333Y-9889476D01*
X5773619Y-10089476D01*
X5945048Y-10089476D02*
X5983143Y-10089476D01*
X6002190Y-10079952D01*
X6011714Y-10070429D01*
X6030762Y-10041857D01*
X6040286Y-10003762D01*
X6040286Y-9927571D01*
X6030762Y-9908524D01*
X6021238Y-9899000D01*
X6002190Y-9889476D01*
X5964095Y-9889476D01*
X5945048Y-9899000D01*
X5935524Y-9908524D01*
X5926000Y-9927571D01*
X5926000Y-9975190D01*
X5935524Y-9994238D01*
X5945048Y-10003762D01*
X5964095Y-10013286D01*
X6002190Y-10013286D01*
X6021238Y-10003762D01*
X6030762Y-9994238D01*
X6040286Y-9975190D01*
X6116476Y-9889476D02*
X6116476Y-9927571D01*
X6192667Y-9889476D02*
X6192667Y-9927571D01*
X6487905Y-10165667D02*
X6478381Y-10156143D01*
X6459333Y-10127571D01*
X6449809Y-10108524D01*
X6440286Y-10079952D01*
X6430762Y-10032333D01*
X6430762Y-9994238D01*
X6440286Y-9946619D01*
X6449809Y-9918048D01*
X6459333Y-9899000D01*
X6478381Y-9870429D01*
X6487905Y-9860905D01*
X6668857Y-10089476D02*
X6554571Y-10089476D01*
X6611714Y-10089476D02*
X6611714Y-9889476D01*
X6592667Y-9918048D01*
X6573619Y-9937095D01*
X6554571Y-9946619D01*
X6840286Y-9889476D02*
X6802190Y-9889476D01*
X6783143Y-9899000D01*
X6773619Y-9908524D01*
X6754571Y-9937095D01*
X6745048Y-9975190D01*
X6745048Y-10051381D01*
X6754571Y-10070429D01*
X6764095Y-10079952D01*
X6783143Y-10089476D01*
X6821238Y-10089476D01*
X6840286Y-10079952D01*
X6849809Y-10070429D01*
X6859333Y-10051381D01*
X6859333Y-10003762D01*
X6849809Y-9984714D01*
X6840286Y-9975190D01*
X6821238Y-9965667D01*
X6783143Y-9965667D01*
X6764095Y-9975190D01*
X6754571Y-9984714D01*
X6745048Y-10003762D01*
X7097428Y-10089476D02*
X7097428Y-9889476D01*
X7183143Y-10089476D02*
X7183143Y-9984714D01*
X7173619Y-9965667D01*
X7154571Y-9956143D01*
X7126000Y-9956143D01*
X7106952Y-9965667D01*
X7097428Y-9975190D01*
X7306952Y-10089476D02*
X7287905Y-10079952D01*
X7278381Y-10070429D01*
X7268857Y-10051381D01*
X7268857Y-9994238D01*
X7278381Y-9975190D01*
X7287905Y-9965667D01*
X7306952Y-9956143D01*
X7335524Y-9956143D01*
X7354571Y-9965667D01*
X7364095Y-9975190D01*
X7373619Y-9994238D01*
X7373619Y-10051381D01*
X7364095Y-10070429D01*
X7354571Y-10079952D01*
X7335524Y-10089476D01*
X7306952Y-10089476D01*
X7487905Y-10089476D02*
X7468857Y-10079952D01*
X7459333Y-10060905D01*
X7459333Y-9889476D01*
X7640286Y-10079952D02*
X7621238Y-10089476D01*
X7583143Y-10089476D01*
X7564095Y-10079952D01*
X7554571Y-10060905D01*
X7554571Y-9984714D01*
X7564095Y-9965667D01*
X7583143Y-9956143D01*
X7621238Y-9956143D01*
X7640286Y-9965667D01*
X7649809Y-9984714D01*
X7649809Y-10003762D01*
X7554571Y-10022810D01*
X7726000Y-10079952D02*
X7745048Y-10089476D01*
X7783143Y-10089476D01*
X7802190Y-10079952D01*
X7811714Y-10060905D01*
X7811714Y-10051381D01*
X7802190Y-10032333D01*
X7783143Y-10022810D01*
X7754571Y-10022810D01*
X7735524Y-10013286D01*
X7726000Y-9994238D01*
X7726000Y-9984714D01*
X7735524Y-9965667D01*
X7754571Y-9956143D01*
X7783143Y-9956143D01*
X7802190Y-9965667D01*
X7878381Y-10165667D02*
X7887905Y-10156143D01*
X7906952Y-10127571D01*
X7916476Y-10108524D01*
X7926000Y-10079952D01*
X7935524Y-10032333D01*
X7935524Y-9994238D01*
X7926000Y-9946619D01*
X7916476Y-9918048D01*
X7906952Y-9899000D01*
X7887905Y-9870429D01*
X7878381Y-9860905D01*
D13*
X2916000Y-10263000D02*
G75*
G03*
X2916000Y-10263000I-15000J0D01*
G01*
D11*
X3211714Y-10153476D02*
X3230762Y-10153476D01*
X3249809Y-10163000D01*
X3259333Y-10172524D01*
X3268857Y-10191571D01*
X3278381Y-10229667D01*
X3278381Y-10277286D01*
X3268857Y-10315381D01*
X3259333Y-10334429D01*
X3249809Y-10343952D01*
X3230762Y-10353476D01*
X3211714Y-10353476D01*
X3192667Y-10343952D01*
X3183143Y-10334429D01*
X3173619Y-10315381D01*
X3164095Y-10277286D01*
X3164095Y-10229667D01*
X3173619Y-10191571D01*
X3183143Y-10172524D01*
X3192667Y-10163000D01*
X3211714Y-10153476D01*
X3364095Y-10334429D02*
X3373619Y-10343952D01*
X3364095Y-10353476D01*
X3354571Y-10343952D01*
X3364095Y-10334429D01*
X3364095Y-10353476D01*
X3440286Y-10153476D02*
X3564095Y-10153476D01*
X3497428Y-10229667D01*
X3526000Y-10229667D01*
X3545048Y-10239190D01*
X3554571Y-10248714D01*
X3564095Y-10267762D01*
X3564095Y-10315381D01*
X3554571Y-10334429D01*
X3545048Y-10343952D01*
X3526000Y-10353476D01*
X3468857Y-10353476D01*
X3449809Y-10343952D01*
X3440286Y-10334429D01*
X3687905Y-10153476D02*
X3706952Y-10153476D01*
X3726000Y-10163000D01*
X3735524Y-10172524D01*
X3745048Y-10191571D01*
X3754571Y-10229667D01*
X3754571Y-10277286D01*
X3745048Y-10315381D01*
X3735524Y-10334429D01*
X3726000Y-10343952D01*
X3706952Y-10353476D01*
X3687905Y-10353476D01*
X3668857Y-10343952D01*
X3659333Y-10334429D01*
X3649809Y-10315381D01*
X3640286Y-10277286D01*
X3640286Y-10229667D01*
X3649809Y-10191571D01*
X3659333Y-10172524D01*
X3668857Y-10163000D01*
X3687905Y-10153476D01*
X3878381Y-10153476D02*
X3897428Y-10153476D01*
X3916476Y-10163000D01*
X3926000Y-10172524D01*
X3935524Y-10191571D01*
X3945048Y-10229667D01*
X3945048Y-10277286D01*
X3935524Y-10315381D01*
X3926000Y-10334429D01*
X3916476Y-10343952D01*
X3897428Y-10353476D01*
X3878381Y-10353476D01*
X3859333Y-10343952D01*
X3849809Y-10334429D01*
X3840286Y-10315381D01*
X3830762Y-10277286D01*
X3830762Y-10229667D01*
X3840286Y-10191571D01*
X3849809Y-10172524D01*
X3859333Y-10163000D01*
X3878381Y-10153476D01*
X4030762Y-10353476D02*
X4030762Y-10220143D01*
X4030762Y-10239190D02*
X4040286Y-10229667D01*
X4059333Y-10220143D01*
X4087905Y-10220143D01*
X4106952Y-10229667D01*
X4116476Y-10248714D01*
X4116476Y-10353476D01*
X4116476Y-10248714D02*
X4126000Y-10229667D01*
X4145048Y-10220143D01*
X4173619Y-10220143D01*
X4192667Y-10229667D01*
X4202190Y-10248714D01*
X4202190Y-10353476D01*
X4297429Y-10353476D02*
X4297429Y-10220143D01*
X4297429Y-10239190D02*
X4306952Y-10229667D01*
X4326000Y-10220143D01*
X4354571Y-10220143D01*
X4373619Y-10229667D01*
X4383143Y-10248714D01*
X4383143Y-10353476D01*
X4383143Y-10248714D02*
X4392667Y-10229667D01*
X4411714Y-10220143D01*
X4440286Y-10220143D01*
X4459333Y-10229667D01*
X4468857Y-10248714D01*
X4468857Y-10353476D01*
X4859333Y-10143952D02*
X4687905Y-10401095D01*
X5116476Y-10153476D02*
X5135524Y-10153476D01*
X5154571Y-10163000D01*
X5164095Y-10172524D01*
X5173619Y-10191571D01*
X5183143Y-10229667D01*
X5183143Y-10277286D01*
X5173619Y-10315381D01*
X5164095Y-10334429D01*
X5154571Y-10343952D01*
X5135524Y-10353476D01*
X5116476Y-10353476D01*
X5097429Y-10343952D01*
X5087905Y-10334429D01*
X5078381Y-10315381D01*
X5068857Y-10277286D01*
X5068857Y-10229667D01*
X5078381Y-10191571D01*
X5087905Y-10172524D01*
X5097429Y-10163000D01*
X5116476Y-10153476D01*
X5268857Y-10334429D02*
X5278381Y-10343952D01*
X5268857Y-10353476D01*
X5259333Y-10343952D01*
X5268857Y-10334429D01*
X5268857Y-10353476D01*
X5402190Y-10153476D02*
X5421238Y-10153476D01*
X5440286Y-10163000D01*
X5449810Y-10172524D01*
X5459333Y-10191571D01*
X5468857Y-10229667D01*
X5468857Y-10277286D01*
X5459333Y-10315381D01*
X5449810Y-10334429D01*
X5440286Y-10343952D01*
X5421238Y-10353476D01*
X5402190Y-10353476D01*
X5383143Y-10343952D01*
X5373619Y-10334429D01*
X5364095Y-10315381D01*
X5354571Y-10277286D01*
X5354571Y-10229667D01*
X5364095Y-10191571D01*
X5373619Y-10172524D01*
X5383143Y-10163000D01*
X5402190Y-10153476D01*
X5659333Y-10353476D02*
X5545048Y-10353476D01*
X5602190Y-10353476D02*
X5602190Y-10153476D01*
X5583143Y-10182048D01*
X5564095Y-10201095D01*
X5545048Y-10210619D01*
X5849809Y-10353476D02*
X5735524Y-10353476D01*
X5792667Y-10353476D02*
X5792667Y-10153476D01*
X5773619Y-10182048D01*
X5754571Y-10201095D01*
X5735524Y-10210619D01*
X5964095Y-10239190D02*
X5945048Y-10229667D01*
X5935524Y-10220143D01*
X5926000Y-10201095D01*
X5926000Y-10191571D01*
X5935524Y-10172524D01*
X5945048Y-10163000D01*
X5964095Y-10153476D01*
X6002190Y-10153476D01*
X6021238Y-10163000D01*
X6030762Y-10172524D01*
X6040286Y-10191571D01*
X6040286Y-10201095D01*
X6030762Y-10220143D01*
X6021238Y-10229667D01*
X6002190Y-10239190D01*
X5964095Y-10239190D01*
X5945048Y-10248714D01*
X5935524Y-10258238D01*
X5926000Y-10277286D01*
X5926000Y-10315381D01*
X5935524Y-10334429D01*
X5945048Y-10343952D01*
X5964095Y-10353476D01*
X6002190Y-10353476D01*
X6021238Y-10343952D01*
X6030762Y-10334429D01*
X6040286Y-10315381D01*
X6040286Y-10277286D01*
X6030762Y-10258238D01*
X6021238Y-10248714D01*
X6002190Y-10239190D01*
X6116476Y-10153476D02*
X6116476Y-10191571D01*
X6192667Y-10153476D02*
X6192667Y-10191571D01*
X6487905Y-10429667D02*
X6478381Y-10420143D01*
X6459333Y-10391571D01*
X6449809Y-10372524D01*
X6440286Y-10343952D01*
X6430762Y-10296333D01*
X6430762Y-10258238D01*
X6440286Y-10210619D01*
X6449809Y-10182048D01*
X6459333Y-10163000D01*
X6478381Y-10134429D01*
X6487905Y-10124905D01*
X6668857Y-10353476D02*
X6554571Y-10353476D01*
X6611714Y-10353476D02*
X6611714Y-10153476D01*
X6592667Y-10182048D01*
X6573619Y-10201095D01*
X6554571Y-10210619D01*
X6859333Y-10353476D02*
X6745048Y-10353476D01*
X6802190Y-10353476D02*
X6802190Y-10153476D01*
X6783143Y-10182048D01*
X6764095Y-10201095D01*
X6745048Y-10210619D01*
X7030762Y-10153476D02*
X6992667Y-10153476D01*
X6973619Y-10163000D01*
X6964095Y-10172524D01*
X6945048Y-10201095D01*
X6935524Y-10239190D01*
X6935524Y-10315381D01*
X6945048Y-10334429D01*
X6954571Y-10343952D01*
X6973619Y-10353476D01*
X7011714Y-10353476D01*
X7030762Y-10343952D01*
X7040286Y-10334429D01*
X7049809Y-10315381D01*
X7049809Y-10267762D01*
X7040286Y-10248714D01*
X7030762Y-10239190D01*
X7011714Y-10229667D01*
X6973619Y-10229667D01*
X6954571Y-10239190D01*
X6945048Y-10248714D01*
X6935524Y-10267762D01*
X7287905Y-10353476D02*
X7287905Y-10153476D01*
X7373619Y-10353476D02*
X7373619Y-10248714D01*
X7364095Y-10229667D01*
X7345048Y-10220143D01*
X7316476Y-10220143D01*
X7297428Y-10229667D01*
X7287905Y-10239190D01*
X7497428Y-10353476D02*
X7478381Y-10343952D01*
X7468857Y-10334429D01*
X7459333Y-10315381D01*
X7459333Y-10258238D01*
X7468857Y-10239190D01*
X7478381Y-10229667D01*
X7497428Y-10220143D01*
X7526000Y-10220143D01*
X7545048Y-10229667D01*
X7554571Y-10239190D01*
X7564095Y-10258238D01*
X7564095Y-10315381D01*
X7554571Y-10334429D01*
X7545048Y-10343952D01*
X7526000Y-10353476D01*
X7497428Y-10353476D01*
X7678381Y-10353476D02*
X7659333Y-10343952D01*
X7649809Y-10324905D01*
X7649809Y-10153476D01*
X7830762Y-10343952D02*
X7811714Y-10353476D01*
X7773619Y-10353476D01*
X7754571Y-10343952D01*
X7745048Y-10324905D01*
X7745048Y-10248714D01*
X7754571Y-10229667D01*
X7773619Y-10220143D01*
X7811714Y-10220143D01*
X7830762Y-10229667D01*
X7840286Y-10248714D01*
X7840286Y-10267762D01*
X7745048Y-10286810D01*
X7916476Y-10343952D02*
X7935524Y-10353476D01*
X7973619Y-10353476D01*
X7992667Y-10343952D01*
X8002190Y-10324905D01*
X8002190Y-10315381D01*
X7992667Y-10296333D01*
X7973619Y-10286810D01*
X7945048Y-10286810D01*
X7926000Y-10277286D01*
X7916476Y-10258238D01*
X7916476Y-10248714D01*
X7926000Y-10229667D01*
X7945048Y-10220143D01*
X7973619Y-10220143D01*
X7992667Y-10229667D01*
X8068857Y-10429667D02*
X8078381Y-10420143D01*
X8097428Y-10391571D01*
X8106952Y-10372524D01*
X8116476Y-10343952D01*
X8126000Y-10296333D01*
X8126000Y-10258238D01*
X8116476Y-10210619D01*
X8106952Y-10182048D01*
X8097428Y-10163000D01*
X8078381Y-10134429D01*
X8068857Y-10124905D01*
D14*
X2871000Y-10482000D02*
X2871000Y-10572000D01*
X2826000Y-10527000D02*
X2916000Y-10527000D01*
D11*
X3211714Y-10417476D02*
X3230762Y-10417476D01*
X3249809Y-10427000D01*
X3259333Y-10436524D01*
X3268857Y-10455571D01*
X3278381Y-10493667D01*
X3278381Y-10541286D01*
X3268857Y-10579381D01*
X3259333Y-10598429D01*
X3249809Y-10607952D01*
X3230762Y-10617476D01*
X3211714Y-10617476D01*
X3192667Y-10607952D01*
X3183143Y-10598429D01*
X3173619Y-10579381D01*
X3164095Y-10541286D01*
X3164095Y-10493667D01*
X3173619Y-10455571D01*
X3183143Y-10436524D01*
X3192667Y-10427000D01*
X3211714Y-10417476D01*
X3364095Y-10598429D02*
X3373619Y-10607952D01*
X3364095Y-10617476D01*
X3354571Y-10607952D01*
X3364095Y-10598429D01*
X3364095Y-10617476D01*
X3468857Y-10617476D02*
X3506952Y-10617476D01*
X3526000Y-10607952D01*
X3535524Y-10598429D01*
X3554571Y-10569857D01*
X3564095Y-10531762D01*
X3564095Y-10455571D01*
X3554571Y-10436524D01*
X3545048Y-10427000D01*
X3526000Y-10417476D01*
X3487905Y-10417476D01*
X3468857Y-10427000D01*
X3459333Y-10436524D01*
X3449809Y-10455571D01*
X3449809Y-10503190D01*
X3459333Y-10522238D01*
X3468857Y-10531762D01*
X3487905Y-10541286D01*
X3526000Y-10541286D01*
X3545048Y-10531762D01*
X3554571Y-10522238D01*
X3564095Y-10503190D01*
X3687905Y-10417476D02*
X3706952Y-10417476D01*
X3726000Y-10427000D01*
X3735524Y-10436524D01*
X3745048Y-10455571D01*
X3754571Y-10493667D01*
X3754571Y-10541286D01*
X3745048Y-10579381D01*
X3735524Y-10598429D01*
X3726000Y-10607952D01*
X3706952Y-10617476D01*
X3687905Y-10617476D01*
X3668857Y-10607952D01*
X3659333Y-10598429D01*
X3649809Y-10579381D01*
X3640286Y-10541286D01*
X3640286Y-10493667D01*
X3649809Y-10455571D01*
X3659333Y-10436524D01*
X3668857Y-10427000D01*
X3687905Y-10417476D01*
X3878381Y-10417476D02*
X3897428Y-10417476D01*
X3916476Y-10427000D01*
X3926000Y-10436524D01*
X3935524Y-10455571D01*
X3945048Y-10493667D01*
X3945048Y-10541286D01*
X3935524Y-10579381D01*
X3926000Y-10598429D01*
X3916476Y-10607952D01*
X3897428Y-10617476D01*
X3878381Y-10617476D01*
X3859333Y-10607952D01*
X3849809Y-10598429D01*
X3840286Y-10579381D01*
X3830762Y-10541286D01*
X3830762Y-10493667D01*
X3840286Y-10455571D01*
X3849809Y-10436524D01*
X3859333Y-10427000D01*
X3878381Y-10417476D01*
X4030762Y-10617476D02*
X4030762Y-10484143D01*
X4030762Y-10503190D02*
X4040286Y-10493667D01*
X4059333Y-10484143D01*
X4087905Y-10484143D01*
X4106952Y-10493667D01*
X4116476Y-10512714D01*
X4116476Y-10617476D01*
X4116476Y-10512714D02*
X4126000Y-10493667D01*
X4145048Y-10484143D01*
X4173619Y-10484143D01*
X4192667Y-10493667D01*
X4202190Y-10512714D01*
X4202190Y-10617476D01*
X4297429Y-10617476D02*
X4297429Y-10484143D01*
X4297429Y-10503190D02*
X4306952Y-10493667D01*
X4326000Y-10484143D01*
X4354571Y-10484143D01*
X4373619Y-10493667D01*
X4383143Y-10512714D01*
X4383143Y-10617476D01*
X4383143Y-10512714D02*
X4392667Y-10493667D01*
X4411714Y-10484143D01*
X4440286Y-10484143D01*
X4459333Y-10493667D01*
X4468857Y-10512714D01*
X4468857Y-10617476D01*
X4859333Y-10407952D02*
X4687905Y-10665095D01*
X5116476Y-10417476D02*
X5135524Y-10417476D01*
X5154571Y-10427000D01*
X5164095Y-10436524D01*
X5173619Y-10455571D01*
X5183143Y-10493667D01*
X5183143Y-10541286D01*
X5173619Y-10579381D01*
X5164095Y-10598429D01*
X5154571Y-10607952D01*
X5135524Y-10617476D01*
X5116476Y-10617476D01*
X5097429Y-10607952D01*
X5087905Y-10598429D01*
X5078381Y-10579381D01*
X5068857Y-10541286D01*
X5068857Y-10493667D01*
X5078381Y-10455571D01*
X5087905Y-10436524D01*
X5097429Y-10427000D01*
X5116476Y-10417476D01*
X5268857Y-10598429D02*
X5278381Y-10607952D01*
X5268857Y-10617476D01*
X5259333Y-10607952D01*
X5268857Y-10598429D01*
X5268857Y-10617476D01*
X5402190Y-10417476D02*
X5421238Y-10417476D01*
X5440286Y-10427000D01*
X5449810Y-10436524D01*
X5459333Y-10455571D01*
X5468857Y-10493667D01*
X5468857Y-10541286D01*
X5459333Y-10579381D01*
X5449810Y-10598429D01*
X5440286Y-10607952D01*
X5421238Y-10617476D01*
X5402190Y-10617476D01*
X5383143Y-10607952D01*
X5373619Y-10598429D01*
X5364095Y-10579381D01*
X5354571Y-10541286D01*
X5354571Y-10493667D01*
X5364095Y-10455571D01*
X5373619Y-10436524D01*
X5383143Y-10427000D01*
X5402190Y-10417476D01*
X5535524Y-10417476D02*
X5659333Y-10417476D01*
X5592667Y-10493667D01*
X5621238Y-10493667D01*
X5640286Y-10503190D01*
X5649809Y-10512714D01*
X5659333Y-10531762D01*
X5659333Y-10579381D01*
X5649809Y-10598429D01*
X5640286Y-10607952D01*
X5621238Y-10617476D01*
X5564095Y-10617476D01*
X5545048Y-10607952D01*
X5535524Y-10598429D01*
X5840286Y-10417476D02*
X5745048Y-10417476D01*
X5735524Y-10512714D01*
X5745048Y-10503190D01*
X5764095Y-10493667D01*
X5811714Y-10493667D01*
X5830762Y-10503190D01*
X5840286Y-10512714D01*
X5849809Y-10531762D01*
X5849809Y-10579381D01*
X5840286Y-10598429D01*
X5830762Y-10607952D01*
X5811714Y-10617476D01*
X5764095Y-10617476D01*
X5745048Y-10607952D01*
X5735524Y-10598429D01*
X6021238Y-10484143D02*
X6021238Y-10617476D01*
X5973619Y-10407952D02*
X5926000Y-10550810D01*
X6049809Y-10550810D01*
X6116476Y-10417476D02*
X6116476Y-10455571D01*
X6192667Y-10417476D02*
X6192667Y-10455571D01*
X6487905Y-10693667D02*
X6478381Y-10684143D01*
X6459333Y-10655571D01*
X6449809Y-10636524D01*
X6440286Y-10607952D01*
X6430762Y-10560333D01*
X6430762Y-10522238D01*
X6440286Y-10474619D01*
X6449809Y-10446048D01*
X6459333Y-10427000D01*
X6478381Y-10398429D01*
X6487905Y-10388905D01*
X6668857Y-10617476D02*
X6554571Y-10617476D01*
X6611714Y-10617476D02*
X6611714Y-10417476D01*
X6592667Y-10446048D01*
X6573619Y-10465095D01*
X6554571Y-10474619D01*
X6792667Y-10417476D02*
X6811714Y-10417476D01*
X6830762Y-10427000D01*
X6840286Y-10436524D01*
X6849809Y-10455571D01*
X6859333Y-10493667D01*
X6859333Y-10541286D01*
X6849809Y-10579381D01*
X6840286Y-10598429D01*
X6830762Y-10607952D01*
X6811714Y-10617476D01*
X6792667Y-10617476D01*
X6773619Y-10607952D01*
X6764095Y-10598429D01*
X6754571Y-10579381D01*
X6745048Y-10541286D01*
X6745048Y-10493667D01*
X6754571Y-10455571D01*
X6764095Y-10436524D01*
X6773619Y-10427000D01*
X6792667Y-10417476D01*
X7097428Y-10617476D02*
X7097428Y-10417476D01*
X7183143Y-10617476D02*
X7183143Y-10512714D01*
X7173619Y-10493667D01*
X7154571Y-10484143D01*
X7126000Y-10484143D01*
X7106952Y-10493667D01*
X7097428Y-10503190D01*
X7306952Y-10617476D02*
X7287905Y-10607952D01*
X7278381Y-10598429D01*
X7268857Y-10579381D01*
X7268857Y-10522238D01*
X7278381Y-10503190D01*
X7287905Y-10493667D01*
X7306952Y-10484143D01*
X7335524Y-10484143D01*
X7354571Y-10493667D01*
X7364095Y-10503190D01*
X7373619Y-10522238D01*
X7373619Y-10579381D01*
X7364095Y-10598429D01*
X7354571Y-10607952D01*
X7335524Y-10617476D01*
X7306952Y-10617476D01*
X7487905Y-10617476D02*
X7468857Y-10607952D01*
X7459333Y-10588905D01*
X7459333Y-10417476D01*
X7640286Y-10607952D02*
X7621238Y-10617476D01*
X7583143Y-10617476D01*
X7564095Y-10607952D01*
X7554571Y-10588905D01*
X7554571Y-10512714D01*
X7564095Y-10493667D01*
X7583143Y-10484143D01*
X7621238Y-10484143D01*
X7640286Y-10493667D01*
X7649809Y-10512714D01*
X7649809Y-10531762D01*
X7554571Y-10550810D01*
X7726000Y-10607952D02*
X7745048Y-10617476D01*
X7783143Y-10617476D01*
X7802190Y-10607952D01*
X7811714Y-10588905D01*
X7811714Y-10579381D01*
X7802190Y-10560333D01*
X7783143Y-10550810D01*
X7754571Y-10550810D01*
X7735524Y-10541286D01*
X7726000Y-10522238D01*
X7726000Y-10512714D01*
X7735524Y-10493667D01*
X7754571Y-10484143D01*
X7783143Y-10484143D01*
X7802190Y-10493667D01*
X7878381Y-10693667D02*
X7887905Y-10684143D01*
X7906952Y-10655571D01*
X7916476Y-10636524D01*
X7926000Y-10607952D01*
X7935524Y-10560333D01*
X7935524Y-10522238D01*
X7926000Y-10474619D01*
X7916476Y-10446048D01*
X7906952Y-10427000D01*
X7887905Y-10398429D01*
X7878381Y-10388905D01*
D10*
X2901356Y-10826356D02*
X2901356Y-10755644D01*
X2830644Y-10755644D01*
X2830644Y-10826356D01*
X2901356Y-10826356D01*
D11*
X3278381Y-10881476D02*
X3164095Y-10881476D01*
X3221238Y-10881476D02*
X3221238Y-10681476D01*
X3202190Y-10710048D01*
X3183143Y-10729095D01*
X3164095Y-10738619D01*
X3364095Y-10862429D02*
X3373619Y-10871952D01*
X3364095Y-10881476D01*
X3354571Y-10871952D01*
X3364095Y-10862429D01*
X3364095Y-10881476D01*
X3497428Y-10681476D02*
X3516476Y-10681476D01*
X3535524Y-10691000D01*
X3545048Y-10700524D01*
X3554571Y-10719571D01*
X3564095Y-10757667D01*
X3564095Y-10805286D01*
X3554571Y-10843381D01*
X3545048Y-10862429D01*
X3535524Y-10871952D01*
X3516476Y-10881476D01*
X3497428Y-10881476D01*
X3478381Y-10871952D01*
X3468857Y-10862429D01*
X3459333Y-10843381D01*
X3449809Y-10805286D01*
X3449809Y-10757667D01*
X3459333Y-10719571D01*
X3468857Y-10700524D01*
X3478381Y-10691000D01*
X3497428Y-10681476D01*
X3687905Y-10681476D02*
X3706952Y-10681476D01*
X3726000Y-10691000D01*
X3735524Y-10700524D01*
X3745048Y-10719571D01*
X3754571Y-10757667D01*
X3754571Y-10805286D01*
X3745048Y-10843381D01*
X3735524Y-10862429D01*
X3726000Y-10871952D01*
X3706952Y-10881476D01*
X3687905Y-10881476D01*
X3668857Y-10871952D01*
X3659333Y-10862429D01*
X3649809Y-10843381D01*
X3640286Y-10805286D01*
X3640286Y-10757667D01*
X3649809Y-10719571D01*
X3659333Y-10700524D01*
X3668857Y-10691000D01*
X3687905Y-10681476D01*
X3878381Y-10681476D02*
X3897428Y-10681476D01*
X3916476Y-10691000D01*
X3926000Y-10700524D01*
X3935524Y-10719571D01*
X3945048Y-10757667D01*
X3945048Y-10805286D01*
X3935524Y-10843381D01*
X3926000Y-10862429D01*
X3916476Y-10871952D01*
X3897428Y-10881476D01*
X3878381Y-10881476D01*
X3859333Y-10871952D01*
X3849809Y-10862429D01*
X3840286Y-10843381D01*
X3830762Y-10805286D01*
X3830762Y-10757667D01*
X3840286Y-10719571D01*
X3849809Y-10700524D01*
X3859333Y-10691000D01*
X3878381Y-10681476D01*
X4030762Y-10881476D02*
X4030762Y-10748143D01*
X4030762Y-10767190D02*
X4040286Y-10757667D01*
X4059333Y-10748143D01*
X4087905Y-10748143D01*
X4106952Y-10757667D01*
X4116476Y-10776714D01*
X4116476Y-10881476D01*
X4116476Y-10776714D02*
X4126000Y-10757667D01*
X4145048Y-10748143D01*
X4173619Y-10748143D01*
X4192667Y-10757667D01*
X4202190Y-10776714D01*
X4202190Y-10881476D01*
X4297429Y-10881476D02*
X4297429Y-10748143D01*
X4297429Y-10767190D02*
X4306952Y-10757667D01*
X4326000Y-10748143D01*
X4354571Y-10748143D01*
X4373619Y-10757667D01*
X4383143Y-10776714D01*
X4383143Y-10881476D01*
X4383143Y-10776714D02*
X4392667Y-10757667D01*
X4411714Y-10748143D01*
X4440286Y-10748143D01*
X4459333Y-10757667D01*
X4468857Y-10776714D01*
X4468857Y-10881476D01*
X4859333Y-10671952D02*
X4687905Y-10929095D01*
X5116476Y-10681476D02*
X5135524Y-10681476D01*
X5154571Y-10691000D01*
X5164095Y-10700524D01*
X5173619Y-10719571D01*
X5183143Y-10757667D01*
X5183143Y-10805286D01*
X5173619Y-10843381D01*
X5164095Y-10862429D01*
X5154571Y-10871952D01*
X5135524Y-10881476D01*
X5116476Y-10881476D01*
X5097429Y-10871952D01*
X5087905Y-10862429D01*
X5078381Y-10843381D01*
X5068857Y-10805286D01*
X5068857Y-10757667D01*
X5078381Y-10719571D01*
X5087905Y-10700524D01*
X5097429Y-10691000D01*
X5116476Y-10681476D01*
X5268857Y-10862429D02*
X5278381Y-10871952D01*
X5268857Y-10881476D01*
X5259333Y-10871952D01*
X5268857Y-10862429D01*
X5268857Y-10881476D01*
X5402190Y-10681476D02*
X5421238Y-10681476D01*
X5440286Y-10691000D01*
X5449810Y-10700524D01*
X5459333Y-10719571D01*
X5468857Y-10757667D01*
X5468857Y-10805286D01*
X5459333Y-10843381D01*
X5449810Y-10862429D01*
X5440286Y-10871952D01*
X5421238Y-10881476D01*
X5402190Y-10881476D01*
X5383143Y-10871952D01*
X5373619Y-10862429D01*
X5364095Y-10843381D01*
X5354571Y-10805286D01*
X5354571Y-10757667D01*
X5364095Y-10719571D01*
X5373619Y-10700524D01*
X5383143Y-10691000D01*
X5402190Y-10681476D01*
X5535524Y-10681476D02*
X5659333Y-10681476D01*
X5592667Y-10757667D01*
X5621238Y-10757667D01*
X5640286Y-10767190D01*
X5649809Y-10776714D01*
X5659333Y-10795762D01*
X5659333Y-10843381D01*
X5649809Y-10862429D01*
X5640286Y-10871952D01*
X5621238Y-10881476D01*
X5564095Y-10881476D01*
X5545048Y-10871952D01*
X5535524Y-10862429D01*
X5754571Y-10881476D02*
X5792667Y-10881476D01*
X5811714Y-10871952D01*
X5821238Y-10862429D01*
X5840286Y-10833857D01*
X5849809Y-10795762D01*
X5849809Y-10719571D01*
X5840286Y-10700524D01*
X5830762Y-10691000D01*
X5811714Y-10681476D01*
X5773619Y-10681476D01*
X5754571Y-10691000D01*
X5745048Y-10700524D01*
X5735524Y-10719571D01*
X5735524Y-10767190D01*
X5745048Y-10786238D01*
X5754571Y-10795762D01*
X5773619Y-10805286D01*
X5811714Y-10805286D01*
X5830762Y-10795762D01*
X5840286Y-10786238D01*
X5849809Y-10767190D01*
X6021238Y-10748143D02*
X6021238Y-10881476D01*
X5973619Y-10671952D02*
X5926000Y-10814810D01*
X6049809Y-10814810D01*
X6116476Y-10681476D02*
X6116476Y-10719571D01*
X6192667Y-10681476D02*
X6192667Y-10719571D01*
X6487905Y-10957667D02*
X6478381Y-10948143D01*
X6459333Y-10919571D01*
X6449809Y-10900524D01*
X6440286Y-10871952D01*
X6430762Y-10824333D01*
X6430762Y-10786238D01*
X6440286Y-10738619D01*
X6449809Y-10710048D01*
X6459333Y-10691000D01*
X6478381Y-10662429D01*
X6487905Y-10652905D01*
X6554571Y-10700524D02*
X6564095Y-10691000D01*
X6583143Y-10681476D01*
X6630762Y-10681476D01*
X6649809Y-10691000D01*
X6659333Y-10700524D01*
X6668857Y-10719571D01*
X6668857Y-10738619D01*
X6659333Y-10767190D01*
X6545048Y-10881476D01*
X6668857Y-10881476D01*
X6783143Y-10767190D02*
X6764095Y-10757667D01*
X6754571Y-10748143D01*
X6745048Y-10729095D01*
X6745048Y-10719571D01*
X6754571Y-10700524D01*
X6764095Y-10691000D01*
X6783143Y-10681476D01*
X6821238Y-10681476D01*
X6840286Y-10691000D01*
X6849809Y-10700524D01*
X6859333Y-10719571D01*
X6859333Y-10729095D01*
X6849809Y-10748143D01*
X6840286Y-10757667D01*
X6821238Y-10767190D01*
X6783143Y-10767190D01*
X6764095Y-10776714D01*
X6754571Y-10786238D01*
X6745048Y-10805286D01*
X6745048Y-10843381D01*
X6754571Y-10862429D01*
X6764095Y-10871952D01*
X6783143Y-10881476D01*
X6821238Y-10881476D01*
X6840286Y-10871952D01*
X6849809Y-10862429D01*
X6859333Y-10843381D01*
X6859333Y-10805286D01*
X6849809Y-10786238D01*
X6840286Y-10776714D01*
X6821238Y-10767190D01*
X7097428Y-10881476D02*
X7097428Y-10681476D01*
X7183143Y-10881476D02*
X7183143Y-10776714D01*
X7173619Y-10757667D01*
X7154571Y-10748143D01*
X7126000Y-10748143D01*
X7106952Y-10757667D01*
X7097428Y-10767190D01*
X7306952Y-10881476D02*
X7287905Y-10871952D01*
X7278381Y-10862429D01*
X7268857Y-10843381D01*
X7268857Y-10786238D01*
X7278381Y-10767190D01*
X7287905Y-10757667D01*
X7306952Y-10748143D01*
X7335524Y-10748143D01*
X7354571Y-10757667D01*
X7364095Y-10767190D01*
X7373619Y-10786238D01*
X7373619Y-10843381D01*
X7364095Y-10862429D01*
X7354571Y-10871952D01*
X7335524Y-10881476D01*
X7306952Y-10881476D01*
X7487905Y-10881476D02*
X7468857Y-10871952D01*
X7459333Y-10852905D01*
X7459333Y-10681476D01*
X7640286Y-10871952D02*
X7621238Y-10881476D01*
X7583143Y-10881476D01*
X7564095Y-10871952D01*
X7554571Y-10852905D01*
X7554571Y-10776714D01*
X7564095Y-10757667D01*
X7583143Y-10748143D01*
X7621238Y-10748143D01*
X7640286Y-10757667D01*
X7649809Y-10776714D01*
X7649809Y-10795762D01*
X7554571Y-10814810D01*
X7726000Y-10871952D02*
X7745048Y-10881476D01*
X7783143Y-10881476D01*
X7802190Y-10871952D01*
X7811714Y-10852905D01*
X7811714Y-10843381D01*
X7802190Y-10824333D01*
X7783143Y-10814810D01*
X7754571Y-10814810D01*
X7735524Y-10805286D01*
X7726000Y-10786238D01*
X7726000Y-10776714D01*
X7735524Y-10757667D01*
X7754571Y-10748143D01*
X7783143Y-10748143D01*
X7802190Y-10757667D01*
X7878381Y-10957667D02*
X7887905Y-10948143D01*
X7906952Y-10919571D01*
X7916476Y-10900524D01*
X7926000Y-10871952D01*
X7935524Y-10824333D01*
X7935524Y-10786238D01*
X7926000Y-10738619D01*
X7916476Y-10710048D01*
X7906952Y-10691000D01*
X7887905Y-10662429D01*
X7878381Y-10652905D01*
D15*
X2865000Y-11106000D02*
X2916000Y-11055000D01*
X2865000Y-11004000D01*
X2814000Y-11055000D01*
X2865000Y-11106000D01*
D11*
X3278381Y-11145476D02*
X3164095Y-11145476D01*
X3221238Y-11145476D02*
X3221238Y-10945476D01*
X3202190Y-10974048D01*
X3183143Y-10993095D01*
X3164095Y-11002619D01*
X3364095Y-11126429D02*
X3373619Y-11135952D01*
X3364095Y-11145476D01*
X3354571Y-11135952D01*
X3364095Y-11126429D01*
X3364095Y-11145476D01*
X3497428Y-10945476D02*
X3516476Y-10945476D01*
X3535524Y-10955000D01*
X3545048Y-10964524D01*
X3554571Y-10983571D01*
X3564095Y-11021667D01*
X3564095Y-11069286D01*
X3554571Y-11107381D01*
X3545048Y-11126429D01*
X3535524Y-11135952D01*
X3516476Y-11145476D01*
X3497428Y-11145476D01*
X3478381Y-11135952D01*
X3468857Y-11126429D01*
X3459333Y-11107381D01*
X3449809Y-11069286D01*
X3449809Y-11021667D01*
X3459333Y-10983571D01*
X3468857Y-10964524D01*
X3478381Y-10955000D01*
X3497428Y-10945476D01*
X3640286Y-10964524D02*
X3649809Y-10955000D01*
X3668857Y-10945476D01*
X3716476Y-10945476D01*
X3735524Y-10955000D01*
X3745048Y-10964524D01*
X3754571Y-10983571D01*
X3754571Y-11002619D01*
X3745048Y-11031190D01*
X3630762Y-11145476D01*
X3754571Y-11145476D01*
X3878381Y-10945476D02*
X3897428Y-10945476D01*
X3916476Y-10955000D01*
X3926000Y-10964524D01*
X3935524Y-10983571D01*
X3945048Y-11021667D01*
X3945048Y-11069286D01*
X3935524Y-11107381D01*
X3926000Y-11126429D01*
X3916476Y-11135952D01*
X3897428Y-11145476D01*
X3878381Y-11145476D01*
X3859333Y-11135952D01*
X3849809Y-11126429D01*
X3840286Y-11107381D01*
X3830762Y-11069286D01*
X3830762Y-11021667D01*
X3840286Y-10983571D01*
X3849809Y-10964524D01*
X3859333Y-10955000D01*
X3878381Y-10945476D01*
X4030762Y-11145476D02*
X4030762Y-11012143D01*
X4030762Y-11031190D02*
X4040286Y-11021667D01*
X4059333Y-11012143D01*
X4087905Y-11012143D01*
X4106952Y-11021667D01*
X4116476Y-11040714D01*
X4116476Y-11145476D01*
X4116476Y-11040714D02*
X4126000Y-11021667D01*
X4145048Y-11012143D01*
X4173619Y-11012143D01*
X4192667Y-11021667D01*
X4202190Y-11040714D01*
X4202190Y-11145476D01*
X4297429Y-11145476D02*
X4297429Y-11012143D01*
X4297429Y-11031190D02*
X4306952Y-11021667D01*
X4326000Y-11012143D01*
X4354571Y-11012143D01*
X4373619Y-11021667D01*
X4383143Y-11040714D01*
X4383143Y-11145476D01*
X4383143Y-11040714D02*
X4392667Y-11021667D01*
X4411714Y-11012143D01*
X4440286Y-11012143D01*
X4459333Y-11021667D01*
X4468857Y-11040714D01*
X4468857Y-11145476D01*
X4859333Y-10935952D02*
X4687905Y-11193095D01*
X5116476Y-10945476D02*
X5135524Y-10945476D01*
X5154571Y-10955000D01*
X5164095Y-10964524D01*
X5173619Y-10983571D01*
X5183143Y-11021667D01*
X5183143Y-11069286D01*
X5173619Y-11107381D01*
X5164095Y-11126429D01*
X5154571Y-11135952D01*
X5135524Y-11145476D01*
X5116476Y-11145476D01*
X5097429Y-11135952D01*
X5087905Y-11126429D01*
X5078381Y-11107381D01*
X5068857Y-11069286D01*
X5068857Y-11021667D01*
X5078381Y-10983571D01*
X5087905Y-10964524D01*
X5097429Y-10955000D01*
X5116476Y-10945476D01*
X5268857Y-11126429D02*
X5278381Y-11135952D01*
X5268857Y-11145476D01*
X5259333Y-11135952D01*
X5268857Y-11126429D01*
X5268857Y-11145476D01*
X5402190Y-10945476D02*
X5421238Y-10945476D01*
X5440286Y-10955000D01*
X5449810Y-10964524D01*
X5459333Y-10983571D01*
X5468857Y-11021667D01*
X5468857Y-11069286D01*
X5459333Y-11107381D01*
X5449810Y-11126429D01*
X5440286Y-11135952D01*
X5421238Y-11145476D01*
X5402190Y-11145476D01*
X5383143Y-11135952D01*
X5373619Y-11126429D01*
X5364095Y-11107381D01*
X5354571Y-11069286D01*
X5354571Y-11021667D01*
X5364095Y-10983571D01*
X5373619Y-10964524D01*
X5383143Y-10955000D01*
X5402190Y-10945476D01*
X5640286Y-11012143D02*
X5640286Y-11145476D01*
X5592667Y-10935952D02*
X5545048Y-11078810D01*
X5668857Y-11078810D01*
X5783143Y-10945476D02*
X5802190Y-10945476D01*
X5821238Y-10955000D01*
X5830762Y-10964524D01*
X5840286Y-10983571D01*
X5849809Y-11021667D01*
X5849809Y-11069286D01*
X5840286Y-11107381D01*
X5830762Y-11126429D01*
X5821238Y-11135952D01*
X5802190Y-11145476D01*
X5783143Y-11145476D01*
X5764095Y-11135952D01*
X5754571Y-11126429D01*
X5745048Y-11107381D01*
X5735524Y-11069286D01*
X5735524Y-11021667D01*
X5745048Y-10983571D01*
X5754571Y-10964524D01*
X5764095Y-10955000D01*
X5783143Y-10945476D01*
X5926000Y-10964524D02*
X5935524Y-10955000D01*
X5954571Y-10945476D01*
X6002190Y-10945476D01*
X6021238Y-10955000D01*
X6030762Y-10964524D01*
X6040286Y-10983571D01*
X6040286Y-11002619D01*
X6030762Y-11031190D01*
X5916476Y-11145476D01*
X6040286Y-11145476D01*
X6116476Y-10945476D02*
X6116476Y-10983571D01*
X6192667Y-10945476D02*
X6192667Y-10983571D01*
X6487905Y-11221667D02*
X6478381Y-11212143D01*
X6459333Y-11183571D01*
X6449809Y-11164524D01*
X6440286Y-11135952D01*
X6430762Y-11088333D01*
X6430762Y-11050238D01*
X6440286Y-11002619D01*
X6449809Y-10974048D01*
X6459333Y-10955000D01*
X6478381Y-10926429D01*
X6487905Y-10916905D01*
X6649809Y-11012143D02*
X6649809Y-11145476D01*
X6602190Y-10935952D02*
X6554571Y-11078810D01*
X6678381Y-11078810D01*
X6906952Y-11145476D02*
X6906952Y-10945476D01*
X6992667Y-11145476D02*
X6992667Y-11040714D01*
X6983143Y-11021667D01*
X6964095Y-11012143D01*
X6935524Y-11012143D01*
X6916476Y-11021667D01*
X6906952Y-11031190D01*
X7116476Y-11145476D02*
X7097428Y-11135952D01*
X7087905Y-11126429D01*
X7078381Y-11107381D01*
X7078381Y-11050238D01*
X7087905Y-11031190D01*
X7097428Y-11021667D01*
X7116476Y-11012143D01*
X7145048Y-11012143D01*
X7164095Y-11021667D01*
X7173619Y-11031190D01*
X7183143Y-11050238D01*
X7183143Y-11107381D01*
X7173619Y-11126429D01*
X7164095Y-11135952D01*
X7145048Y-11145476D01*
X7116476Y-11145476D01*
X7297428Y-11145476D02*
X7278381Y-11135952D01*
X7268857Y-11116905D01*
X7268857Y-10945476D01*
X7449809Y-11135952D02*
X7430762Y-11145476D01*
X7392667Y-11145476D01*
X7373619Y-11135952D01*
X7364095Y-11116905D01*
X7364095Y-11040714D01*
X7373619Y-11021667D01*
X7392667Y-11012143D01*
X7430762Y-11012143D01*
X7449809Y-11021667D01*
X7459333Y-11040714D01*
X7459333Y-11059762D01*
X7364095Y-11078810D01*
X7535524Y-11135952D02*
X7554571Y-11145476D01*
X7592667Y-11145476D01*
X7611714Y-11135952D01*
X7621238Y-11116905D01*
X7621238Y-11107381D01*
X7611714Y-11088333D01*
X7592667Y-11078810D01*
X7564095Y-11078810D01*
X7545048Y-11069286D01*
X7535524Y-11050238D01*
X7535524Y-11040714D01*
X7545048Y-11021667D01*
X7564095Y-11012143D01*
X7592667Y-11012143D01*
X7611714Y-11021667D01*
X7687905Y-11221667D02*
X7697428Y-11212143D01*
X7716476Y-11183571D01*
X7726000Y-11164524D01*
X7735524Y-11135952D01*
X7745048Y-11088333D01*
X7745048Y-11050238D01*
X7735524Y-11002619D01*
X7726000Y-10974048D01*
X7716476Y-10955000D01*
X7697428Y-10926429D01*
X7687905Y-10916905D01*
D16*
X2756000Y-11239000D02*
X2916000Y-11399000D01*
X2916000Y-11239000D02*
X2756000Y-11399000D01*
X2916000Y-11319000D02*
G75*
G03*
X2916000Y-11319000I-80000J0D01*
G01*
D11*
X3278381Y-11409476D02*
X3164095Y-11409476D01*
X3221238Y-11409476D02*
X3221238Y-11209476D01*
X3202190Y-11238048D01*
X3183143Y-11257095D01*
X3164095Y-11266619D01*
X3364095Y-11390428D02*
X3373619Y-11399952D01*
X3364095Y-11409476D01*
X3354571Y-11399952D01*
X3364095Y-11390428D01*
X3364095Y-11409476D01*
X3545048Y-11209476D02*
X3506952Y-11209476D01*
X3487905Y-11219000D01*
X3478381Y-11228524D01*
X3459333Y-11257095D01*
X3449809Y-11295190D01*
X3449809Y-11371381D01*
X3459333Y-11390428D01*
X3468857Y-11399952D01*
X3487905Y-11409476D01*
X3526000Y-11409476D01*
X3545048Y-11399952D01*
X3554571Y-11390428D01*
X3564095Y-11371381D01*
X3564095Y-11323762D01*
X3554571Y-11304714D01*
X3545048Y-11295190D01*
X3526000Y-11285667D01*
X3487905Y-11285667D01*
X3468857Y-11295190D01*
X3459333Y-11304714D01*
X3449809Y-11323762D01*
X3687905Y-11209476D02*
X3706952Y-11209476D01*
X3726000Y-11219000D01*
X3735524Y-11228524D01*
X3745048Y-11247571D01*
X3754571Y-11285667D01*
X3754571Y-11333286D01*
X3745048Y-11371381D01*
X3735524Y-11390428D01*
X3726000Y-11399952D01*
X3706952Y-11409476D01*
X3687905Y-11409476D01*
X3668857Y-11399952D01*
X3659333Y-11390428D01*
X3649809Y-11371381D01*
X3640286Y-11333286D01*
X3640286Y-11285667D01*
X3649809Y-11247571D01*
X3659333Y-11228524D01*
X3668857Y-11219000D01*
X3687905Y-11209476D01*
X3878381Y-11209476D02*
X3897428Y-11209476D01*
X3916476Y-11219000D01*
X3926000Y-11228524D01*
X3935524Y-11247571D01*
X3945048Y-11285667D01*
X3945048Y-11333286D01*
X3935524Y-11371381D01*
X3926000Y-11390428D01*
X3916476Y-11399952D01*
X3897428Y-11409476D01*
X3878381Y-11409476D01*
X3859333Y-11399952D01*
X3849809Y-11390428D01*
X3840286Y-11371381D01*
X3830762Y-11333286D01*
X3830762Y-11285667D01*
X3840286Y-11247571D01*
X3849809Y-11228524D01*
X3859333Y-11219000D01*
X3878381Y-11209476D01*
X4030762Y-11409476D02*
X4030762Y-11276143D01*
X4030762Y-11295190D02*
X4040286Y-11285667D01*
X4059333Y-11276143D01*
X4087905Y-11276143D01*
X4106952Y-11285667D01*
X4116476Y-11304714D01*
X4116476Y-11409476D01*
X4116476Y-11304714D02*
X4126000Y-11285667D01*
X4145048Y-11276143D01*
X4173619Y-11276143D01*
X4192667Y-11285667D01*
X4202190Y-11304714D01*
X4202190Y-11409476D01*
X4297429Y-11409476D02*
X4297429Y-11276143D01*
X4297429Y-11295190D02*
X4306952Y-11285667D01*
X4326000Y-11276143D01*
X4354571Y-11276143D01*
X4373619Y-11285667D01*
X4383143Y-11304714D01*
X4383143Y-11409476D01*
X4383143Y-11304714D02*
X4392667Y-11285667D01*
X4411714Y-11276143D01*
X4440286Y-11276143D01*
X4459333Y-11285667D01*
X4468857Y-11304714D01*
X4468857Y-11409476D01*
X4859333Y-11199952D02*
X4687905Y-11457095D01*
X5116476Y-11209476D02*
X5135524Y-11209476D01*
X5154571Y-11219000D01*
X5164095Y-11228524D01*
X5173619Y-11247571D01*
X5183143Y-11285667D01*
X5183143Y-11333286D01*
X5173619Y-11371381D01*
X5164095Y-11390428D01*
X5154571Y-11399952D01*
X5135524Y-11409476D01*
X5116476Y-11409476D01*
X5097429Y-11399952D01*
X5087905Y-11390428D01*
X5078381Y-11371381D01*
X5068857Y-11333286D01*
X5068857Y-11285667D01*
X5078381Y-11247571D01*
X5087905Y-11228524D01*
X5097429Y-11219000D01*
X5116476Y-11209476D01*
X5268857Y-11390428D02*
X5278381Y-11399952D01*
X5268857Y-11409476D01*
X5259333Y-11399952D01*
X5268857Y-11390428D01*
X5268857Y-11409476D01*
X5402190Y-11209476D02*
X5421238Y-11209476D01*
X5440286Y-11219000D01*
X5449810Y-11228524D01*
X5459333Y-11247571D01*
X5468857Y-11285667D01*
X5468857Y-11333286D01*
X5459333Y-11371381D01*
X5449810Y-11390428D01*
X5440286Y-11399952D01*
X5421238Y-11409476D01*
X5402190Y-11409476D01*
X5383143Y-11399952D01*
X5373619Y-11390428D01*
X5364095Y-11371381D01*
X5354571Y-11333286D01*
X5354571Y-11285667D01*
X5364095Y-11247571D01*
X5373619Y-11228524D01*
X5383143Y-11219000D01*
X5402190Y-11209476D01*
X5640286Y-11209476D02*
X5602190Y-11209476D01*
X5583143Y-11219000D01*
X5573619Y-11228524D01*
X5554571Y-11257095D01*
X5545048Y-11295190D01*
X5545048Y-11371381D01*
X5554571Y-11390428D01*
X5564095Y-11399952D01*
X5583143Y-11409476D01*
X5621238Y-11409476D01*
X5640286Y-11399952D01*
X5649809Y-11390428D01*
X5659333Y-11371381D01*
X5659333Y-11323762D01*
X5649809Y-11304714D01*
X5640286Y-11295190D01*
X5621238Y-11285667D01*
X5583143Y-11285667D01*
X5564095Y-11295190D01*
X5554571Y-11304714D01*
X5545048Y-11323762D01*
X5726000Y-11209476D02*
X5849809Y-11209476D01*
X5783143Y-11285667D01*
X5811714Y-11285667D01*
X5830762Y-11295190D01*
X5840286Y-11304714D01*
X5849809Y-11323762D01*
X5849809Y-11371381D01*
X5840286Y-11390428D01*
X5830762Y-11399952D01*
X5811714Y-11409476D01*
X5754571Y-11409476D01*
X5735524Y-11399952D01*
X5726000Y-11390428D01*
X5973619Y-11209476D02*
X5992667Y-11209476D01*
X6011714Y-11219000D01*
X6021238Y-11228524D01*
X6030762Y-11247571D01*
X6040286Y-11285667D01*
X6040286Y-11333286D01*
X6030762Y-11371381D01*
X6021238Y-11390428D01*
X6011714Y-11399952D01*
X5992667Y-11409476D01*
X5973619Y-11409476D01*
X5954571Y-11399952D01*
X5945048Y-11390428D01*
X5935524Y-11371381D01*
X5926000Y-11333286D01*
X5926000Y-11285667D01*
X5935524Y-11247571D01*
X5945048Y-11228524D01*
X5954571Y-11219000D01*
X5973619Y-11209476D01*
X6116476Y-11209476D02*
X6116476Y-11247571D01*
X6192667Y-11209476D02*
X6192667Y-11247571D01*
X6487905Y-11485667D02*
X6478381Y-11476143D01*
X6459333Y-11447571D01*
X6449809Y-11428524D01*
X6440286Y-11399952D01*
X6430762Y-11352333D01*
X6430762Y-11314238D01*
X6440286Y-11266619D01*
X6449809Y-11238048D01*
X6459333Y-11219000D01*
X6478381Y-11190428D01*
X6487905Y-11180905D01*
X6554571Y-11228524D02*
X6564095Y-11219000D01*
X6583143Y-11209476D01*
X6630762Y-11209476D01*
X6649809Y-11219000D01*
X6659333Y-11228524D01*
X6668857Y-11247571D01*
X6668857Y-11266619D01*
X6659333Y-11295190D01*
X6545048Y-11409476D01*
X6668857Y-11409476D01*
X6906952Y-11409476D02*
X6906952Y-11209476D01*
X6992667Y-11409476D02*
X6992667Y-11304714D01*
X6983143Y-11285667D01*
X6964095Y-11276143D01*
X6935524Y-11276143D01*
X6916476Y-11285667D01*
X6906952Y-11295190D01*
X7116476Y-11409476D02*
X7097428Y-11399952D01*
X7087905Y-11390428D01*
X7078381Y-11371381D01*
X7078381Y-11314238D01*
X7087905Y-11295190D01*
X7097428Y-11285667D01*
X7116476Y-11276143D01*
X7145048Y-11276143D01*
X7164095Y-11285667D01*
X7173619Y-11295190D01*
X7183143Y-11314238D01*
X7183143Y-11371381D01*
X7173619Y-11390428D01*
X7164095Y-11399952D01*
X7145048Y-11409476D01*
X7116476Y-11409476D01*
X7297428Y-11409476D02*
X7278381Y-11399952D01*
X7268857Y-11380905D01*
X7268857Y-11209476D01*
X7449809Y-11399952D02*
X7430762Y-11409476D01*
X7392667Y-11409476D01*
X7373619Y-11399952D01*
X7364095Y-11380905D01*
X7364095Y-11304714D01*
X7373619Y-11285667D01*
X7392667Y-11276143D01*
X7430762Y-11276143D01*
X7449809Y-11285667D01*
X7459333Y-11304714D01*
X7459333Y-11323762D01*
X7364095Y-11342809D01*
X7535524Y-11399952D02*
X7554571Y-11409476D01*
X7592667Y-11409476D01*
X7611714Y-11399952D01*
X7621238Y-11380905D01*
X7621238Y-11371381D01*
X7611714Y-11352333D01*
X7592667Y-11342809D01*
X7564095Y-11342809D01*
X7545048Y-11333286D01*
X7535524Y-11314238D01*
X7535524Y-11304714D01*
X7545048Y-11285667D01*
X7564095Y-11276143D01*
X7592667Y-11276143D01*
X7611714Y-11285667D01*
X7687905Y-11485667D02*
X7697428Y-11476143D01*
X7716476Y-11447571D01*
X7726000Y-11428524D01*
X7735524Y-11399952D01*
X7745048Y-11352333D01*
X7745048Y-11314238D01*
X7735524Y-11266619D01*
X7726000Y-11238048D01*
X7716476Y-11219000D01*
X7697428Y-11190428D01*
X7687905Y-11180905D01*
M02*
