M48
; DRILL file {KiCad (6.0.9)} date Mon Nov 21 00:29:59 2022
; FORMAT={-:-/ absolute / inch / decimal}
; #@! TF.CreationDate,2022-11-21T00:29:59+13:00
; #@! TF.GenerationSoftware,Kicad,Pcbnew,(6.0.9)
; #@! TF.FileFunction,Plated,1,2,PTH
FMAT,2
INCH
; #@! TA.AperFunction,Plated,PTH,ComponentDrill
T1C0.0079
; #@! TA.AperFunction,Plated,PTH,ViaDrill
T2C0.0118
; #@! TA.AperFunction,Plated,PTH,ComponentDrill
T3C0.0354
; #@! TA.AperFunction,Plated,PTH,ComponentDrill
T4C0.0394
; #@! TA.AperFunction,Plated,PTH,ComponentDrill
T5C0.0402
; #@! TA.AperFunction,Plated,PTH,ComponentDrill
T6C0.0630
%
G90
G05
T1
X1.5896Y-1.5515
X1.5896Y-1.5935
X1.5896Y-1.6355
X1.5896Y-1.6775
X1.6316Y-1.5515
X1.6316Y-1.5935
X1.6316Y-1.6355
X1.6316Y-1.6775
X1.6736Y-1.5515
X1.6736Y-1.5935
X1.6736Y-1.6355
X1.6736Y-1.6775
X1.7156Y-1.5515
X1.7156Y-1.5935
X1.7156Y-1.6355
X1.7156Y-1.6775
T2
X1.2Y-3.0701
X1.2559Y-2.0197
X1.2638Y-3.2047
X1.2677Y-3.1693
X1.2854Y-1.4721
X1.2864Y-1.4321
X1.2913Y-1.5236
X1.315Y-1.5039
X1.3217Y-2.1535
X1.3395Y-1.3819
X1.3465Y-1.3031
X1.3522Y-2.0945
X1.3553Y-1.7411
X1.3622Y-1.3937
X1.3661Y-1.9252
X1.3816Y-1.9477
X1.3858Y-1.3228
X1.3925Y-1.9764
X1.4035Y-2.7808
X1.4055Y-1.8898
X1.4102Y-2.2618
X1.4108Y-2.1639
X1.4115Y-2.3209
X1.4241Y-1.7036
X1.4252Y-1.7322
X1.4545Y-2.9478
X1.4646Y-1.5748
X1.4752Y-2.1102
X1.4764Y-2.0197
X1.4764Y-2.063
X1.4791Y-2.748
X1.4791Y-2.7795
X1.4791Y-2.811
X1.4803Y-2.6299
X1.4882Y-1.9173
X1.4931Y-1.8307
X1.499Y-1.625
X1.5039Y-2.5669
X1.5079Y-1.3976
X1.5108Y-1.6998
X1.5146Y-2.748
X1.5157Y-2.7798
X1.5165Y-2.811
X1.5197Y-2.0197
X1.5197Y-2.063
X1.5197Y-2.1102
X1.5384Y-1.7707
X1.5384Y-1.4528
X1.55Y-2.748
X1.55Y-2.7795
X1.55Y-2.811
X1.5541Y-1.7313
X1.5591Y-1.3976
X1.563Y-2.063
X1.563Y-2.1102
X1.5659Y-1.7667
X1.5768Y-2.6705
X1.5857Y-1.4549
X1.5906Y-1.3976
X1.5984Y-2.9134
X1.6024Y-2.4961
X1.6219Y-1.4019
X1.622Y-2.5866
X1.622Y-2.6693
X1.631Y-1.378
X1.6339Y-1.9449
X1.6524Y-1.9961
X1.6524Y-2.3209
X1.6543Y-2.2618
X1.6642Y-2.1024
X1.6642Y-2.1339
X1.6722Y-1.436
X1.6772Y-1.8177
X1.6978Y-1.4371
X1.7057Y-1.9104
X1.7067Y-1.4803
X1.7156Y-1.7707
X1.7283Y-2.8425
X1.7323Y-1.4213
X1.7323Y-2.3661
X1.7636Y-2.125
X1.7828Y-1.7041
X1.7913Y-1.4213
X1.7987Y-2.1849
X1.8022Y-1.873
X1.814Y-1.5879
X1.8268Y-1.3268
X1.8465Y-2.0118
X1.8466Y-2.1919
X1.8533Y-1.6447
X1.8563Y-1.748
X1.8687Y-1.4747
X1.8691Y-1.5955
X1.8773Y-1.5172
X1.8819Y-1.4528
X1.8868Y-1.9656
X1.8888Y-1.4943
X1.8898Y-2.4961
X1.8927Y-1.5738
X1.8927Y-1.6171
X1.8937Y-1.3937
X1.8937Y-2.9843
X1.9528Y-2.2677
X1.9528Y-2.311
X1.9528Y-2.3819
X1.9567Y-1.3386
X1.9764Y-1.5945
X1.9764Y-1.9213
X1.9803Y-3.4685
X1.9917Y-2.0827
X1.9921Y-2.185
X1.9961Y-2.5433
X2.0Y-1.3819
X2.0Y-2.7598
X2.01Y-1.4585
X2.0276Y-3.1299
T3
X1.4232Y-3.0327
X1.4732Y-3.1327
X1.5232Y-3.0327
X1.5732Y-3.1327
X1.6232Y-3.0327
X1.6732Y-3.1327
X1.7232Y-3.0327
X1.7732Y-3.1327
X1.8232Y-3.0327
X1.8732Y-3.1327
T4
X1.2Y-1.4965
X1.2Y-1.6055
X1.2Y-1.7055
X1.2Y-1.8055
X1.2Y-1.9055
X1.2Y-2.0
X1.2Y-2.1
X1.2Y-2.2
X1.2Y-2.3
X1.2Y-2.4
X1.2Y-2.5
X1.2Y-2.6
X1.2Y-2.7
X2.1Y-1.5
X2.1Y-1.6
X2.1Y-1.7
X2.1Y-1.8
X2.1Y-1.9
X2.1Y-2.0
X2.1Y-2.1
X2.1Y-2.2
X2.1Y-2.3
X2.1Y-2.4
X2.1Y-2.5
X2.1Y-2.6
X2.1Y-2.7
X2.1Y-2.9
X2.1Y-3.0024
T5
X1.3872Y-3.5434
X1.4872Y-3.5434
X1.8093Y-3.5434
X1.9093Y-3.5434
T6
X1.3433Y-3.2626
X1.9531Y-3.2626
T0
M30
