G04 #@! TF.GenerationSoftware,KiCad,Pcbnew,(6.0.4)*
G04 #@! TF.CreationDate,2022-11-09T23:23:59+13:00*
G04 #@! TF.ProjectId,LAN-Module-PoE,4c414e2d-4d6f-4647-956c-652d506f452e,rev?*
G04 #@! TF.SameCoordinates,Original*
G04 #@! TF.FileFunction,Soldermask,Bot*
G04 #@! TF.FilePolarity,Negative*
%FSLAX46Y46*%
G04 Gerber Fmt 4.6, Leading zero omitted, Abs format (unit mm)*
G04 Created by KiCad (PCBNEW (6.0.4)) date 2022-11-09 23:23:59*
%MOMM*%
%LPD*%
G01*
G04 APERTURE LIST*
%ADD10C,1.600000*%
%ADD11C,3.250000*%
%ADD12R,1.500000X1.500000*%
%ADD13C,1.500000*%
%ADD14C,2.200000*%
G04 APERTURE END LIST*
D10*
G04 #@! TO.C,J28*
X48260000Y-60960000D03*
G04 #@! TD*
G04 #@! TO.C,J27*
X48260000Y-58420000D03*
G04 #@! TD*
G04 #@! TO.C,J26*
X48260000Y-53340000D03*
G04 #@! TD*
G04 #@! TO.C,J25*
X48260000Y-50800000D03*
G04 #@! TD*
G04 #@! TO.C,J24*
X48260000Y-48260000D03*
G04 #@! TD*
G04 #@! TO.C,J23*
X48260000Y-45720000D03*
G04 #@! TD*
G04 #@! TO.C,J22*
X48260000Y-43180000D03*
G04 #@! TD*
G04 #@! TO.C,J21*
X48260000Y-40640000D03*
G04 #@! TD*
G04 #@! TO.C,J20*
X48260000Y-38100000D03*
G04 #@! TD*
G04 #@! TO.C,J19*
X48260000Y-35560000D03*
G04 #@! TD*
G04 #@! TO.C,J18*
X48260000Y-33020000D03*
G04 #@! TD*
G04 #@! TO.C,J17*
X48260000Y-30480000D03*
G04 #@! TD*
G04 #@! TO.C,J16*
X22860000Y-60960000D03*
G04 #@! TD*
G04 #@! TO.C,J15*
X48260000Y-55880000D03*
G04 #@! TD*
G04 #@! TO.C,J14*
X22860000Y-58420000D03*
G04 #@! TD*
G04 #@! TO.C,J13*
X22860000Y-55880000D03*
G04 #@! TD*
G04 #@! TO.C,J12*
X22860000Y-53340000D03*
G04 #@! TD*
G04 #@! TO.C,J11*
X22860000Y-50800000D03*
G04 #@! TD*
G04 #@! TO.C,J10*
X22860000Y-48260000D03*
G04 #@! TD*
G04 #@! TO.C,J9*
X22860000Y-45720000D03*
G04 #@! TD*
G04 #@! TO.C,J8*
X22860000Y-43180000D03*
G04 #@! TD*
G04 #@! TO.C,J7*
X22860000Y-40640000D03*
G04 #@! TD*
G04 #@! TO.C,J6*
X22860000Y-38100000D03*
G04 #@! TD*
G04 #@! TO.C,J5*
X22860000Y-35560000D03*
G04 #@! TD*
G04 #@! TO.C,J4*
X22860000Y-33020000D03*
G04 #@! TD*
G04 #@! TO.C,J3*
X22860000Y-30480000D03*
G04 #@! TD*
D11*
G04 #@! TO.C,J1*
X29800000Y-70890000D03*
X41230000Y-70890000D03*
D12*
X29800000Y-62000000D03*
D13*
X31070000Y-64540000D03*
X32340000Y-62000000D03*
X33610000Y-64540000D03*
X34880000Y-62000000D03*
X36150000Y-64540000D03*
X37420000Y-62000000D03*
X38690000Y-64540000D03*
X39960000Y-62000000D03*
X41230000Y-64540000D03*
D10*
X28885000Y-74970000D03*
X31425000Y-74970000D03*
X39605000Y-74970000D03*
X42145000Y-74970000D03*
D14*
X27770000Y-67840000D03*
X43260000Y-67840000D03*
G04 #@! TD*
M02*
