M48
; DRILL file {KiCad (6.0.4)} date Wed Nov  9 23:24:05 2022
; FORMAT={-:-/ absolute / metric / decimal}
; #@! TF.CreationDate,2022-11-09T23:24:05+13:00
; #@! TF.GenerationSoftware,Kicad,Pcbnew,(6.0.4)
; #@! TF.FileFunction,Plated,1,2,PTH
FMAT,2
METRIC
; #@! TA.AperFunction,Plated,PTH,ViaDrill
T1C0.300
; #@! TA.AperFunction,Plated,PTH,ComponentDrill
T2C0.900
; #@! TA.AperFunction,Plated,PTH,ComponentDrill
T3C1.000
; #@! TA.AperFunction,Plated,PTH,ComponentDrill
T4C1.020
; #@! TA.AperFunction,Plated,PTH,ComponentDrill
T5C1.600
%
G90
G05
T1
X24.4Y-37.55
X25.0Y-60.5
X25.425Y-29.419
X26.0Y-44.5
X26.202Y-37.8
X26.75Y-40.5
X26.75Y-49.075
X26.752Y-38.7
X26.8Y-27.4
X26.8Y-43.0
X27.0Y-34.3
X27.8Y-29.4
X28.25Y-47.25
X28.264Y-44.764
X28.281Y-48.75
X28.75Y-35.25
X28.9Y-29.6
X28.936Y-32.036
X30.6Y-58.8
X31.0Y-42.25
X31.662Y-32.745
X31.75Y-30.75
X31.75Y-38.5
X31.8Y-34.9
X32.0Y-51.75
X32.4Y-32.3
X32.85Y-37.5
X33.0Y-27.0
X33.0Y-39.0
X33.2Y-55.6
X33.8Y-28.0
X34.4Y-44.0
X34.5Y-26.9
X34.5Y-47.25
X34.5Y-48.75
X34.631Y-51.484
X34.7Y-43.2
X34.75Y-36.75
X34.95Y-28.2
X35.014Y-38.988
X35.059Y-29.91
X35.2Y-33.0
X35.325Y-37.216
X35.6Y-26.351
X36.0Y-37.4
X36.2Y-30.0
X36.6Y-58.8
X36.8Y-40.4
X37.0Y-30.0
X37.2Y-27.6
X37.2Y-43.8
X37.4Y-33.0
X37.5Y-40.5
X37.6Y-52.8
X38.0Y-30.0
X38.6Y-45.3
X38.8Y-58.0
X38.9Y-26.75
X38.902Y-27.45
X39.0Y-35.625
X39.2Y-54.45
X39.6Y-43.0
X39.85Y-28.0
X40.039Y-26.261
X40.4Y-38.6
X40.432Y-27.612
X40.75Y-47.0
X41.2Y-32.6
X41.8Y-29.351
X41.8Y-30.45
X41.8Y-31.549
X42.4Y-28.8
X42.4Y-29.901
X42.4Y-31.0
X42.4Y-32.099
X42.55Y-40.95
X42.998Y-36.774
X43.6Y-27.501
X44.0Y-60.325
X44.5Y-47.0
X44.75Y-26.25
X45.149Y-44.5
X45.2Y-29.249
X45.25Y-27.5
T2
X29.8Y-62.0
X31.07Y-64.54
X32.34Y-62.0
X33.61Y-64.54
X34.88Y-62.0
X36.15Y-64.54
X37.42Y-62.0
X38.69Y-64.54
X39.96Y-62.0
X41.23Y-64.54
T3
X22.86Y-30.48
X22.86Y-33.02
X22.86Y-35.56
X22.86Y-38.1
X22.86Y-40.64
X22.86Y-43.18
X22.86Y-45.72
X22.86Y-48.26
X22.86Y-50.8
X22.86Y-53.34
X22.86Y-55.88
X22.86Y-58.42
X22.86Y-60.96
X48.26Y-30.48
X48.26Y-33.02
X48.26Y-35.56
X48.26Y-38.1
X48.26Y-40.64
X48.26Y-43.18
X48.26Y-45.72
X48.26Y-48.26
X48.26Y-50.8
X48.26Y-53.34
X48.26Y-55.88
X48.26Y-58.42
X48.26Y-60.96
T4
X28.885Y-74.97
X31.425Y-74.97
X39.605Y-74.97
X42.145Y-74.97
T5
X27.77Y-67.84
X43.26Y-67.84
T0
M30
