G04 #@! TF.GenerationSoftware,KiCad,Pcbnew,(6.0.4)*
G04 #@! TF.CreationDate,2022-11-09T23:23:58+13:00*
G04 #@! TF.ProjectId,LAN-Module-PoE,4c414e2d-4d6f-4647-956c-652d506f452e,rev?*
G04 #@! TF.SameCoordinates,Original*
G04 #@! TF.FileFunction,Copper,L1,Top*
G04 #@! TF.FilePolarity,Positive*
%FSLAX46Y46*%
G04 Gerber Fmt 4.6, Leading zero omitted, Abs format (unit mm)*
G04 Created by KiCad (PCBNEW (6.0.4)) date 2022-11-09 23:23:58*
%MOMM*%
%LPD*%
G01*
G04 APERTURE LIST*
G04 Aperture macros list*
%AMRoundRect*
0 Rectangle with rounded corners*
0 $1 Rounding radius*
0 $2 $3 $4 $5 $6 $7 $8 $9 X,Y pos of 4 corners*
0 Add a 4 corners polygon primitive as box body*
4,1,4,$2,$3,$4,$5,$6,$7,$8,$9,$2,$3,0*
0 Add four circle primitives for the rounded corners*
1,1,$1+$1,$2,$3*
1,1,$1+$1,$4,$5*
1,1,$1+$1,$6,$7*
1,1,$1+$1,$8,$9*
0 Add four rect primitives between the rounded corners*
20,1,$1+$1,$2,$3,$4,$5,0*
20,1,$1+$1,$4,$5,$6,$7,0*
20,1,$1+$1,$6,$7,$8,$9,0*
20,1,$1+$1,$8,$9,$2,$3,0*%
G04 Aperture macros list end*
G04 #@! TA.AperFunction,ComponentPad*
%ADD10C,1.600000*%
G04 #@! TD*
G04 #@! TA.AperFunction,SMDPad,CuDef*
%ADD11RoundRect,0.200000X0.275000X-0.200000X0.275000X0.200000X-0.275000X0.200000X-0.275000X-0.200000X0*%
G04 #@! TD*
G04 #@! TA.AperFunction,SMDPad,CuDef*
%ADD12RoundRect,0.218750X-0.256250X0.218750X-0.256250X-0.218750X0.256250X-0.218750X0.256250X0.218750X0*%
G04 #@! TD*
G04 #@! TA.AperFunction,SMDPad,CuDef*
%ADD13RoundRect,0.200000X0.200000X0.275000X-0.200000X0.275000X-0.200000X-0.275000X0.200000X-0.275000X0*%
G04 #@! TD*
G04 #@! TA.AperFunction,SMDPad,CuDef*
%ADD14RoundRect,0.225000X0.225000X0.250000X-0.225000X0.250000X-0.225000X-0.250000X0.225000X-0.250000X0*%
G04 #@! TD*
G04 #@! TA.AperFunction,SMDPad,CuDef*
%ADD15R,0.900000X1.200000*%
G04 #@! TD*
G04 #@! TA.AperFunction,SMDPad,CuDef*
%ADD16RoundRect,0.150000X-0.150000X0.512500X-0.150000X-0.512500X0.150000X-0.512500X0.150000X0.512500X0*%
G04 #@! TD*
G04 #@! TA.AperFunction,SMDPad,CuDef*
%ADD17RoundRect,0.200000X-0.200000X-0.275000X0.200000X-0.275000X0.200000X0.275000X-0.200000X0.275000X0*%
G04 #@! TD*
G04 #@! TA.AperFunction,SMDPad,CuDef*
%ADD18RoundRect,0.225000X-0.225000X-0.250000X0.225000X-0.250000X0.225000X0.250000X-0.225000X0.250000X0*%
G04 #@! TD*
G04 #@! TA.AperFunction,SMDPad,CuDef*
%ADD19RoundRect,0.200000X-0.275000X0.200000X-0.275000X-0.200000X0.275000X-0.200000X0.275000X0.200000X0*%
G04 #@! TD*
G04 #@! TA.AperFunction,SMDPad,CuDef*
%ADD20R,1.200000X3.700000*%
G04 #@! TD*
G04 #@! TA.AperFunction,SMDPad,CuDef*
%ADD21RoundRect,0.225000X-0.250000X0.225000X-0.250000X-0.225000X0.250000X-0.225000X0.250000X0.225000X0*%
G04 #@! TD*
G04 #@! TA.AperFunction,SMDPad,CuDef*
%ADD22RoundRect,0.062500X-0.062500X0.362500X-0.062500X-0.362500X0.062500X-0.362500X0.062500X0.362500X0*%
G04 #@! TD*
G04 #@! TA.AperFunction,SMDPad,CuDef*
%ADD23RoundRect,0.062500X-0.362500X0.062500X-0.362500X-0.062500X0.362500X-0.062500X0.362500X0.062500X0*%
G04 #@! TD*
G04 #@! TA.AperFunction,SMDPad,CuDef*
%ADD24R,2.600000X2.600000*%
G04 #@! TD*
G04 #@! TA.AperFunction,SMDPad,CuDef*
%ADD25R,2.500000X1.800000*%
G04 #@! TD*
G04 #@! TA.AperFunction,SMDPad,CuDef*
%ADD26R,1.600000X5.700000*%
G04 #@! TD*
G04 #@! TA.AperFunction,SMDPad,CuDef*
%ADD27RoundRect,0.225000X0.250000X-0.225000X0.250000X0.225000X-0.250000X0.225000X-0.250000X-0.225000X0*%
G04 #@! TD*
G04 #@! TA.AperFunction,SMDPad,CuDef*
%ADD28RoundRect,0.062500X0.062500X-0.375000X0.062500X0.375000X-0.062500X0.375000X-0.062500X-0.375000X0*%
G04 #@! TD*
G04 #@! TA.AperFunction,SMDPad,CuDef*
%ADD29RoundRect,0.062500X0.375000X-0.062500X0.375000X0.062500X-0.375000X0.062500X-0.375000X-0.062500X0*%
G04 #@! TD*
G04 #@! TA.AperFunction,SMDPad,CuDef*
%ADD30R,3.100000X3.100000*%
G04 #@! TD*
G04 #@! TA.AperFunction,SMDPad,CuDef*
%ADD31RoundRect,0.200000X0.200000X0.800000X-0.200000X0.800000X-0.200000X-0.800000X0.200000X-0.800000X0*%
G04 #@! TD*
G04 #@! TA.AperFunction,SMDPad,CuDef*
%ADD32RoundRect,0.250000X0.550000X-1.412500X0.550000X1.412500X-0.550000X1.412500X-0.550000X-1.412500X0*%
G04 #@! TD*
G04 #@! TA.AperFunction,ComponentPad*
%ADD33R,1.500000X1.500000*%
G04 #@! TD*
G04 #@! TA.AperFunction,ComponentPad*
%ADD34C,1.500000*%
G04 #@! TD*
G04 #@! TA.AperFunction,ComponentPad*
%ADD35C,2.200000*%
G04 #@! TD*
G04 #@! TA.AperFunction,SMDPad,CuDef*
%ADD36RoundRect,0.250000X-0.250000X-0.475000X0.250000X-0.475000X0.250000X0.475000X-0.250000X0.475000X0*%
G04 #@! TD*
G04 #@! TA.AperFunction,SMDPad,CuDef*
%ADD37O,0.850000X0.200000*%
G04 #@! TD*
G04 #@! TA.AperFunction,SMDPad,CuDef*
%ADD38O,0.200000X0.850000*%
G04 #@! TD*
G04 #@! TA.AperFunction,SMDPad,CuDef*
%ADD39R,3.000000X3.000000*%
G04 #@! TD*
G04 #@! TA.AperFunction,SMDPad,CuDef*
%ADD40R,1.400000X1.200000*%
G04 #@! TD*
G04 #@! TA.AperFunction,ViaPad*
%ADD41C,0.500000*%
G04 #@! TD*
G04 #@! TA.AperFunction,Conductor*
%ADD42C,0.200000*%
G04 #@! TD*
G04 #@! TA.AperFunction,Conductor*
%ADD43C,0.400000*%
G04 #@! TD*
G04 #@! TA.AperFunction,Conductor*
%ADD44C,0.250000*%
G04 #@! TD*
G04 #@! TA.AperFunction,Conductor*
%ADD45C,0.800000*%
G04 #@! TD*
G04 APERTURE END LIST*
G04 #@! TO.C,LOGO1*
G36*
X22966000Y-71521000D02*
G01*
X23063000Y-71580000D01*
X23163000Y-71662000D01*
X23296000Y-71822000D01*
X23374000Y-71998000D01*
X23397000Y-72192000D01*
X23367000Y-72405000D01*
X23282000Y-72640000D01*
X23174000Y-72842000D01*
X23047000Y-73014000D01*
X22900000Y-73156000D01*
X22729000Y-73272000D01*
X22534000Y-73363000D01*
X22306000Y-73426000D01*
X22102000Y-73435000D01*
X21934000Y-73392000D01*
X21812000Y-73298000D01*
X21753000Y-73152000D01*
X21726000Y-72932000D01*
X21730000Y-72676000D01*
X21764000Y-72425000D01*
X21829000Y-72216000D01*
X21915000Y-72065000D01*
X22034000Y-71910000D01*
X22175000Y-71763000D01*
X22324000Y-71637000D01*
X22469000Y-71544000D01*
X22632000Y-71494000D01*
X22812000Y-71485000D01*
X22966000Y-71521000D01*
G37*
G36*
X23095000Y-73459000D02*
G01*
X23256000Y-73558000D01*
X23397000Y-73726000D01*
X23467000Y-73945000D01*
X23475000Y-74129000D01*
X23448000Y-74338000D01*
X23387000Y-74562000D01*
X23294000Y-74793000D01*
X23172000Y-75024000D01*
X23012000Y-75260000D01*
X22857000Y-75421000D01*
X22706000Y-75507000D01*
X22558000Y-75520000D01*
X22390000Y-75457000D01*
X22263000Y-75326000D01*
X22171000Y-75119000D01*
X22110000Y-74828000D01*
X22075000Y-74518000D01*
X22069000Y-74262000D01*
X22093000Y-74052000D01*
X22150000Y-73878000D01*
X22241000Y-73733000D01*
X22368000Y-73605000D01*
X22548000Y-73487000D01*
X22734000Y-73424000D01*
X22919000Y-73414000D01*
X23095000Y-73459000D01*
G37*
G36*
X24167000Y-70502000D02*
G01*
X24316000Y-70553000D01*
X24481000Y-70638000D01*
X24679000Y-70765000D01*
X24863000Y-70886000D01*
X25023000Y-70977000D01*
X25180000Y-71048000D01*
X25355000Y-71110000D01*
X25569000Y-71172000D01*
X25849000Y-71254000D01*
X26024000Y-71328000D01*
X26154000Y-71420000D01*
X26327000Y-71596000D01*
X26430000Y-71775000D01*
X26472000Y-71972000D01*
X26467000Y-72129000D01*
X26410000Y-72291000D01*
X26313000Y-72454000D01*
X26182000Y-72583000D01*
X26014000Y-72679000D01*
X25806000Y-72744000D01*
X25556000Y-72779000D01*
X25331000Y-72814000D01*
X25161000Y-72890000D01*
X25004000Y-73027000D01*
X24806000Y-73211000D01*
X24633000Y-73299000D01*
X24422000Y-73323000D01*
X24264000Y-73307000D01*
X24092000Y-73243000D01*
X23925000Y-73151000D01*
X23799000Y-73021000D01*
X23698000Y-72867000D01*
X23654000Y-72705000D01*
X23656000Y-72502000D01*
X23668000Y-72287000D01*
X23648000Y-72127000D01*
X23583000Y-71980000D01*
X23463000Y-71806000D01*
X23338000Y-71612000D01*
X23259000Y-71422000D01*
X23225000Y-71235000D01*
X23236000Y-71052000D01*
X23293000Y-70873000D01*
X23376000Y-70724000D01*
X23492000Y-70617000D01*
X23649000Y-70530000D01*
X23828000Y-70482000D01*
X24016000Y-70477000D01*
X24167000Y-70502000D01*
G37*
G36*
X24590000Y-74137000D02*
G01*
X24739000Y-74235000D01*
X24852000Y-74385000D01*
X24924000Y-74561000D01*
X24953000Y-74753000D01*
X24937000Y-74952000D01*
X24876000Y-75145000D01*
X24803000Y-75281000D01*
X24707000Y-75398000D01*
X24559000Y-75525000D01*
X24333000Y-75689000D01*
X24072000Y-75858000D01*
X23870000Y-75958000D01*
X23703000Y-75996000D01*
X23549000Y-75982000D01*
X23400000Y-75912000D01*
X23306000Y-75788000D01*
X23268000Y-75611000D01*
X23285000Y-75382000D01*
X23358000Y-75101000D01*
X23440000Y-74887000D01*
X23538000Y-74689000D01*
X23649000Y-74511000D01*
X23770000Y-74359000D01*
X23898000Y-74235000D01*
X24029000Y-74146000D01*
X24207000Y-74089000D01*
X24403000Y-74087000D01*
X24590000Y-74137000D01*
G37*
G36*
X26094000Y-72953000D02*
G01*
X26221000Y-73014000D01*
X26322000Y-73118000D01*
X26396000Y-73235000D01*
X26445000Y-73354000D01*
X26473000Y-73548000D01*
X26473000Y-73761000D01*
X26444000Y-73977000D01*
X26391000Y-74178000D01*
X26314000Y-74350000D01*
X26193000Y-74521000D01*
X26036000Y-74690000D01*
X25866000Y-74839000D01*
X25703000Y-74948000D01*
X25571000Y-74998000D01*
X25417000Y-74977000D01*
X25269000Y-74881000D01*
X25136000Y-74719000D01*
X25029000Y-74499000D01*
X24965000Y-74280000D01*
X24942000Y-74066000D01*
X24960000Y-73851000D01*
X25019000Y-73630000D01*
X25120000Y-73396000D01*
X25239000Y-73183000D01*
X25355000Y-73066000D01*
X25522000Y-72966000D01*
X25706000Y-72914000D01*
X25899000Y-72909000D01*
X26094000Y-72953000D01*
G37*
G04 #@! TD*
D10*
G04 #@! TO.P,J28,1,1*
G04 #@! TO.N,/12V*
X48260000Y-60960000D03*
G04 #@! TD*
G04 #@! TO.P,J27,1,1*
G04 #@! TO.N,GND*
X48260000Y-58420000D03*
G04 #@! TD*
G04 #@! TO.P,J26,1,1*
G04 #@! TO.N,/S_VP*
X48260000Y-53340000D03*
G04 #@! TD*
G04 #@! TO.P,J25,1,1*
G04 #@! TO.N,/IO37*
X48260000Y-50800000D03*
G04 #@! TD*
G04 #@! TO.P,J24,1,1*
G04 #@! TO.N,/IO38*
X48260000Y-48260000D03*
G04 #@! TD*
G04 #@! TO.P,J23,1,1*
G04 #@! TO.N,/S_VN*
X48260000Y-45720000D03*
G04 #@! TD*
G04 #@! TO.P,J22,1,1*
G04 #@! TO.N,/IO34*
X48260000Y-43180000D03*
G04 #@! TD*
G04 #@! TO.P,J21,1,1*
G04 #@! TO.N,/IO35*
X48260000Y-40640000D03*
G04 #@! TD*
G04 #@! TO.P,J20,1,1*
G04 #@! TO.N,/IO32*
X48260000Y-38100000D03*
G04 #@! TD*
G04 #@! TO.P,J19,1,1*
G04 #@! TO.N,/IO33*
X48260000Y-35560000D03*
G04 #@! TD*
G04 #@! TO.P,J18,1,1*
G04 #@! TO.N,/U0RXD*
X48260000Y-33020000D03*
G04 #@! TD*
G04 #@! TO.P,J17,1,1*
G04 #@! TO.N,/U0TXD*
X48260000Y-30480000D03*
G04 #@! TD*
G04 #@! TO.P,J16,1,1*
G04 #@! TO.N,GND*
X22860000Y-60960000D03*
G04 #@! TD*
G04 #@! TO.P,J15,1,1*
G04 #@! TO.N,+3V3*
X48260000Y-55880000D03*
G04 #@! TD*
G04 #@! TO.P,J14,1,1*
G04 #@! TO.N,GND*
X22860000Y-58420000D03*
G04 #@! TD*
G04 #@! TO.P,J13,1,1*
G04 #@! TO.N,/IO5*
X22860000Y-55880000D03*
G04 #@! TD*
G04 #@! TO.P,J12,1,1*
G04 #@! TO.N,/IO14*
X22860000Y-53340000D03*
G04 #@! TD*
G04 #@! TO.P,J11,1,1*
G04 #@! TO.N,/IO2*
X22860000Y-50800000D03*
G04 #@! TD*
G04 #@! TO.P,J10,1,1*
G04 #@! TO.N,/IO4*
X22860000Y-48260000D03*
G04 #@! TD*
G04 #@! TO.P,J9,1,1*
G04 #@! TO.N,/IO12*
X22860000Y-45720000D03*
G04 #@! TD*
G04 #@! TO.P,J8,1,1*
G04 #@! TO.N,/IO15*
X22860000Y-43180000D03*
G04 #@! TD*
G04 #@! TO.P,J7,1,1*
G04 #@! TO.N,/IO16*
X22860000Y-40640000D03*
G04 #@! TD*
G04 #@! TO.P,J6,1,1*
G04 #@! TO.N,/IO13*
X22860000Y-38100000D03*
G04 #@! TD*
G04 #@! TO.P,J5,1,1*
G04 #@! TO.N,/BOOT*
X22860000Y-35560000D03*
G04 #@! TD*
G04 #@! TO.P,J4,1,1*
G04 #@! TO.N,/EN*
X22860000Y-33020000D03*
G04 #@! TD*
G04 #@! TO.P,J3,1,1*
G04 #@! TO.N,GND*
X22860000Y-30480000D03*
G04 #@! TD*
D11*
G04 #@! TO.P,R28,1*
G04 #@! TO.N,GND*
X47750000Y-28325000D03*
G04 #@! TO.P,R28,2*
G04 #@! TO.N,Net-(D3-Pad1)*
X47750000Y-26675000D03*
G04 #@! TD*
D12*
G04 #@! TO.P,D3,1,K*
G04 #@! TO.N,Net-(D3-Pad1)*
X46000000Y-26712500D03*
G04 #@! TO.P,D3,2,A*
G04 #@! TO.N,+3V3*
X46000000Y-28287500D03*
G04 #@! TD*
D13*
G04 #@! TO.P,R14,1*
G04 #@! TO.N,/LAN_3P3V*
X30762500Y-48750000D03*
G04 #@! TO.P,R14,2*
G04 #@! TO.N,/MDI0_N*
X29112500Y-48750000D03*
G04 #@! TD*
D14*
G04 #@! TO.P,C2,1*
G04 #@! TO.N,GND*
X45175000Y-34250000D03*
G04 #@! TO.P,C2,2*
G04 #@! TO.N,+3V3*
X43625000Y-34250000D03*
G04 #@! TD*
D15*
G04 #@! TO.P,D2,1,K*
G04 #@! TO.N,Net-(C17-Pad2)*
X43100000Y-47000000D03*
G04 #@! TO.P,D2,2,A*
G04 #@! TO.N,GND*
X46400000Y-47000000D03*
G04 #@! TD*
D16*
G04 #@! TO.P,U3,1,CB*
G04 #@! TO.N,Net-(C17-Pad1)*
X41700000Y-46112500D03*
G04 #@! TO.P,U3,2,GND*
G04 #@! TO.N,GND*
X40750000Y-46112500D03*
G04 #@! TO.P,U3,3,FB*
G04 #@! TO.N,Net-(R26-Pad1)*
X39800000Y-46112500D03*
G04 #@! TO.P,U3,4,~{SHDN}*
G04 #@! TO.N,/12V*
X39800000Y-48387500D03*
G04 #@! TO.P,U3,5,VIN*
X40750000Y-48387500D03*
G04 #@! TO.P,U3,6,SW*
G04 #@! TO.N,Net-(C17-Pad2)*
X41700000Y-48387500D03*
G04 #@! TD*
D17*
G04 #@! TO.P,R8,1*
G04 #@! TO.N,GND*
X25175000Y-45250000D03*
G04 #@! TO.P,R8,2*
G04 #@! TO.N,/RSET*
X26825000Y-45250000D03*
G04 #@! TD*
G04 #@! TO.P,R17,1*
G04 #@! TO.N,/LAN_3P3V*
X32112500Y-48750000D03*
G04 #@! TO.P,R17,2*
G04 #@! TO.N,/MDI1_P*
X33762500Y-48750000D03*
G04 #@! TD*
D14*
G04 #@! TO.P,C22,1*
G04 #@! TO.N,/AVDD10*
X26775000Y-46750000D03*
G04 #@! TO.P,C22,2*
G04 #@! TO.N,GND*
X25225000Y-46750000D03*
G04 #@! TD*
D11*
G04 #@! TO.P,R20,1*
G04 #@! TO.N,/VSS*
X39200000Y-53825000D03*
G04 #@! TO.P,R20,2*
G04 #@! TO.N,/VIN_NEG*
X39200000Y-52175000D03*
G04 #@! TD*
D14*
G04 #@! TO.P,C7,1*
G04 #@! TO.N,GND*
X45175000Y-32750000D03*
G04 #@! TO.P,C7,2*
G04 #@! TO.N,+3V3*
X43625000Y-32750000D03*
G04 #@! TD*
D18*
G04 #@! TO.P,C3,1*
G04 #@! TO.N,GND*
X25225000Y-48500000D03*
G04 #@! TO.P,C3,2*
G04 #@! TO.N,/MDI0_CT*
X26775000Y-48500000D03*
G04 #@! TD*
D19*
G04 #@! TO.P,R2,1*
G04 #@! TO.N,GND*
X30600000Y-27775000D03*
G04 #@! TO.P,R2,2*
G04 #@! TO.N,/VDD_SDIO*
X30600000Y-29425000D03*
G04 #@! TD*
D14*
G04 #@! TO.P,C10,1*
G04 #@! TO.N,GND*
X27025000Y-33500000D03*
G04 #@! TO.P,C10,2*
G04 #@! TO.N,/EN*
X25475000Y-33500000D03*
G04 #@! TD*
D11*
G04 #@! TO.P,R11,1*
G04 #@! TO.N,/RTL_LED1*
X45000000Y-62325000D03*
G04 #@! TO.P,R11,2*
G04 #@! TO.N,GND*
X45000000Y-60675000D03*
G04 #@! TD*
D19*
G04 #@! TO.P,R10,1*
G04 #@! TO.N,+3V3*
X30750000Y-35925000D03*
G04 #@! TO.P,R10,2*
G04 #@! TO.N,/ETH_RST*
X30750000Y-37575000D03*
G04 #@! TD*
D20*
G04 #@! TO.P,L2,1*
G04 #@! TO.N,Net-(C17-Pad2)*
X43350000Y-43750000D03*
G04 #@! TO.P,L2,2*
G04 #@! TO.N,+3V3*
X46150000Y-43750000D03*
G04 #@! TD*
D21*
G04 #@! TO.P,C13,1*
G04 #@! TO.N,/XTAL_P*
X43250000Y-37800000D03*
G04 #@! TO.P,C13,2*
G04 #@! TO.N,GND*
X43250000Y-39350000D03*
G04 #@! TD*
D14*
G04 #@! TO.P,C21,1*
G04 #@! TO.N,+3V3*
X46525000Y-40750000D03*
G04 #@! TO.P,C21,2*
G04 #@! TO.N,GND*
X44975000Y-40750000D03*
G04 #@! TD*
D22*
G04 #@! TO.P,U2,1,ISNS*
G04 #@! TO.N,/VIN_NEG*
X37050000Y-53650000D03*
G04 #@! TO.P,U2,2,FBH*
G04 #@! TO.N,/FBH*
X36550000Y-53650000D03*
G04 #@! TO.P,U2,3,EROUT*
G04 #@! TO.N,/COMP*
X36050000Y-53650000D03*
G04 #@! TO.P,U2,4,FBL*
G04 #@! TO.N,/VSS*
X35550000Y-53650000D03*
G04 #@! TO.P,U2,5,VDD*
G04 #@! TO.N,Net-(C20-Pad1)*
X35050000Y-53650000D03*
D23*
G04 #@! TO.P,U2,6,RDET*
G04 #@! TO.N,Net-(R6-Pad2)*
X34125000Y-54575000D03*
G04 #@! TO.P,U2,7,NC*
G04 #@! TO.N,/POE_NEG*
X34125000Y-55075000D03*
G04 #@! TO.P,U2,8,HSO*
G04 #@! TO.N,/VIN_NEG*
X34125000Y-55575000D03*
G04 #@! TO.P,U2,9,RCLASS*
G04 #@! TO.N,Net-(R7-Pad2)*
X34125000Y-56075000D03*
G04 #@! TO.P,U2,10,RFREQ*
G04 #@! TO.N,Net-(R19-Pad2)*
X34125000Y-56575000D03*
D22*
G04 #@! TO.P,U2,11,NC*
G04 #@! TO.N,/POE_NEG*
X35050000Y-57500000D03*
G04 #@! TO.P,U2,12,NC*
X35550000Y-57500000D03*
G04 #@! TO.P,U2,13,VPOS*
G04 #@! TO.N,/12V*
X36050000Y-57500000D03*
G04 #@! TO.P,U2,14,NC*
G04 #@! TO.N,/POE_NEG*
X36550000Y-57500000D03*
G04 #@! TO.P,U2,15,NC*
X37050000Y-57500000D03*
D23*
G04 #@! TO.P,U2,16,VT15*
G04 #@! TO.N,unconnected-(U2-Pad16)*
X37975000Y-56575000D03*
G04 #@! TO.P,U2,17*
G04 #@! TO.N,N/C*
X37975000Y-56075000D03*
G04 #@! TO.P,U2,18,SWO*
G04 #@! TO.N,/SWO*
X37975000Y-55575000D03*
G04 #@! TO.P,U2,19,VSS*
G04 #@! TO.N,/VSS*
X37975000Y-55075000D03*
G04 #@! TO.P,U2,20,NC*
G04 #@! TO.N,/POE_NEG*
X37975000Y-54575000D03*
D24*
G04 #@! TO.P,U2,21,VNEG*
X36050000Y-55575000D03*
G04 #@! TD*
D17*
G04 #@! TO.P,R23,1*
G04 #@! TO.N,/FBH*
X36675000Y-49000000D03*
G04 #@! TO.P,R23,2*
G04 #@! TO.N,/12V*
X38325000Y-49000000D03*
G04 #@! TD*
D13*
G04 #@! TO.P,R13,1*
G04 #@! TO.N,/LAN_3P3V*
X30825000Y-47250000D03*
G04 #@! TO.P,R13,2*
G04 #@! TO.N,/MDI0_P*
X29175000Y-47250000D03*
G04 #@! TD*
D25*
G04 #@! TO.P,D1,1,K*
G04 #@! TO.N,/12V*
X45150000Y-58000000D03*
G04 #@! TO.P,D1,2,A*
G04 #@! TO.N,/SWO*
X41150000Y-58000000D03*
G04 #@! TD*
D19*
G04 #@! TO.P,R6,1*
G04 #@! TO.N,/12V*
X32200000Y-52775000D03*
G04 #@! TO.P,R6,2*
G04 #@! TO.N,Net-(R6-Pad2)*
X32200000Y-54425000D03*
G04 #@! TD*
D17*
G04 #@! TO.P,R19,1*
G04 #@! TO.N,/12V*
X31375000Y-58800000D03*
G04 #@! TO.P,R19,2*
G04 #@! TO.N,Net-(R19-Pad2)*
X33025000Y-58800000D03*
G04 #@! TD*
D26*
G04 #@! TO.P,L4,1*
G04 #@! TO.N,/SWO*
X41050000Y-53000000D03*
G04 #@! TO.P,L4,2*
G04 #@! TO.N,GND*
X45750000Y-53000000D03*
G04 #@! TD*
D17*
G04 #@! TO.P,R18,1*
G04 #@! TO.N,/LAN_3P3V*
X32112500Y-47250000D03*
G04 #@! TO.P,R18,2*
G04 #@! TO.N,/MDI1_N*
X33762500Y-47250000D03*
G04 #@! TD*
D18*
G04 #@! TO.P,C20,1*
G04 #@! TO.N,Net-(C20-Pad1)*
X33725000Y-52200000D03*
G04 #@! TO.P,C20,2*
G04 #@! TO.N,/VSS*
X35275000Y-52200000D03*
G04 #@! TD*
D27*
G04 #@! TO.P,C8,1*
G04 #@! TO.N,GND*
X32250000Y-37525000D03*
G04 #@! TO.P,C8,2*
G04 #@! TO.N,+3V3*
X32250000Y-35975000D03*
G04 #@! TD*
D18*
G04 #@! TO.P,C24,1*
G04 #@! TO.N,/LAN_3P3V*
X35725000Y-46000000D03*
G04 #@! TO.P,C24,2*
G04 #@! TO.N,GND*
X37275000Y-46000000D03*
G04 #@! TD*
D13*
G04 #@! TO.P,R3,1*
G04 #@! TO.N,GND*
X45225000Y-35750000D03*
G04 #@! TO.P,R3,2*
G04 #@! TO.N,/CAP2*
X43575000Y-35750000D03*
G04 #@! TD*
D11*
G04 #@! TO.P,R12,1*
G04 #@! TO.N,/RTL_LED0*
X26000000Y-62325000D03*
G04 #@! TO.P,R12,2*
G04 #@! TO.N,GND*
X26000000Y-60675000D03*
G04 #@! TD*
D17*
G04 #@! TO.P,R26,1*
G04 #@! TO.N,Net-(R26-Pad1)*
X38675000Y-43000000D03*
G04 #@! TO.P,R26,2*
G04 #@! TO.N,+3V3*
X40325000Y-43000000D03*
G04 #@! TD*
D28*
G04 #@! TO.P,U4,1,RSET*
G04 #@! TO.N,/RSET*
X29250000Y-44687500D03*
G04 #@! TO.P,U4,2,AVDD10OUT*
G04 #@! TO.N,/AVDD10*
X29750000Y-44687500D03*
G04 #@! TO.P,U4,3,MDI0_P*
G04 #@! TO.N,/MDI0_P*
X30250000Y-44687500D03*
G04 #@! TO.P,U4,4,MDI0_N*
G04 #@! TO.N,/MDI0_N*
X30750000Y-44687500D03*
G04 #@! TO.P,U4,5,MDI1_P*
G04 #@! TO.N,/MDI1_P*
X31250000Y-44687500D03*
G04 #@! TO.P,U4,6,MDI1_N*
G04 #@! TO.N,/MDI1_N*
X31750000Y-44687500D03*
G04 #@! TO.P,U4,7,AVDD33*
G04 #@! TO.N,/LAN_3P3V*
X32250000Y-44687500D03*
G04 #@! TO.P,U4,8,RXDV*
G04 #@! TO.N,/RXDV*
X32750000Y-44687500D03*
D29*
G04 #@! TO.P,U4,9,RXD0*
G04 #@! TO.N,/ETH_RXD0*
X33437500Y-44000000D03*
G04 #@! TO.P,U4,10,RXD1*
G04 #@! TO.N,/ETH_RXD1*
X33437500Y-43500000D03*
G04 #@! TO.P,U4,11,RXD2_INTB*
G04 #@! TO.N,unconnected-(U4-Pad11)*
X33437500Y-43000000D03*
G04 #@! TO.P,U4,12,RXD3_CLK_CTL*
G04 #@! TO.N,unconnected-(U4-Pad12)*
X33437500Y-42500000D03*
G04 #@! TO.P,U4,13,RXC*
G04 #@! TO.N,unconnected-(U4-Pad13)*
X33437500Y-42000000D03*
G04 #@! TO.P,U4,14,DVDD33*
G04 #@! TO.N,/LAN_3P3V*
X33437500Y-41500000D03*
G04 #@! TO.P,U4,15,TXC*
G04 #@! TO.N,unconnected-(U4-Pad15)*
X33437500Y-41000000D03*
G04 #@! TO.P,U4,16,TXD0*
G04 #@! TO.N,/ETH_TXD0*
X33437500Y-40500000D03*
D28*
G04 #@! TO.P,U4,17,TXD1*
G04 #@! TO.N,/ETH_TXD1*
X32750000Y-39812500D03*
G04 #@! TO.P,U4,18,TXD2*
G04 #@! TO.N,unconnected-(U4-Pad18)*
X32250000Y-39812500D03*
G04 #@! TO.P,U4,19,TXD3*
G04 #@! TO.N,unconnected-(U4-Pad19)*
X31750000Y-39812500D03*
G04 #@! TO.P,U4,20,TXEN*
G04 #@! TO.N,/ETH_TXEN*
X31250000Y-39812500D03*
G04 #@! TO.P,U4,21,PHYRSTB*
G04 #@! TO.N,/ETH_RST*
X30750000Y-39812500D03*
G04 #@! TO.P,U4,22,MDC*
G04 #@! TO.N,/ETH_MDC*
X30250000Y-39812500D03*
G04 #@! TO.P,U4,23,MDIO*
G04 #@! TO.N,/ETH_MDIO*
X29750000Y-39812500D03*
G04 #@! TO.P,U4,24,LED0_PHYAD0*
G04 #@! TO.N,/RTL_LED0*
X29250000Y-39812500D03*
D29*
G04 #@! TO.P,U4,25,LED1_PHYAD1*
G04 #@! TO.N,/RTL_LED1*
X28562500Y-40500000D03*
G04 #@! TO.P,U4,26,CRS_DV*
G04 #@! TO.N,/ETH_CRS_DV*
X28562500Y-41000000D03*
G04 #@! TO.P,U4,27,COL*
G04 #@! TO.N,unconnected-(U4-Pad27)*
X28562500Y-41500000D03*
G04 #@! TO.P,U4,28,RXER_FXEN*
G04 #@! TO.N,unconnected-(U4-Pad28)*
X28562500Y-42000000D03*
G04 #@! TO.P,U4,29,DVDD10OUT*
G04 #@! TO.N,/DVDD10*
X28562500Y-42500000D03*
G04 #@! TO.P,U4,30,AVDD33*
G04 #@! TO.N,/LAN_3P3V*
X28562500Y-43000000D03*
G04 #@! TO.P,U4,31,CKXTAL1*
G04 #@! TO.N,GND*
X28562500Y-43500000D03*
G04 #@! TO.P,U4,32,CKXTAL2*
G04 #@! TO.N,/ETH_CLK*
X28562500Y-44000000D03*
D30*
G04 #@! TO.P,U4,33,GND*
G04 #@! TO.N,GND*
X31000000Y-42250000D03*
G04 #@! TD*
D17*
G04 #@! TO.P,R5,1*
G04 #@! TO.N,/IO12*
X25425000Y-30250000D03*
G04 #@! TO.P,R5,2*
G04 #@! TO.N,+3V3*
X27075000Y-30250000D03*
G04 #@! TD*
D14*
G04 #@! TO.P,C16,1*
G04 #@! TO.N,GND*
X42175000Y-35000000D03*
G04 #@! TO.P,C16,2*
G04 #@! TO.N,/CAP1*
X40625000Y-35000000D03*
G04 #@! TD*
D31*
G04 #@! TO.P,SW1,1,1*
G04 #@! TO.N,GND*
X29500000Y-27400000D03*
G04 #@! TO.P,SW1,2,2*
G04 #@! TO.N,/EN*
X25300000Y-27400000D03*
G04 #@! TD*
D19*
G04 #@! TO.P,R4,1*
G04 #@! TO.N,/U0TXD*
X42700000Y-26275000D03*
G04 #@! TO.P,R4,2*
G04 #@! TO.N,Net-(R4-Pad2)*
X42700000Y-27925000D03*
G04 #@! TD*
D13*
G04 #@! TO.P,R25,1*
G04 #@! TO.N,/LAN_3P3V*
X26825000Y-50000000D03*
G04 #@! TO.P,R25,2*
G04 #@! TO.N,/MDI0_CT*
X25175000Y-50000000D03*
G04 #@! TD*
D14*
G04 #@! TO.P,C6,1*
G04 #@! TO.N,Net-(C6-Pad1)*
X34175000Y-50600000D03*
G04 #@! TO.P,C6,2*
G04 #@! TO.N,/VSS*
X32625000Y-50600000D03*
G04 #@! TD*
D18*
G04 #@! TO.P,C4,1*
G04 #@! TO.N,/12V*
X37225000Y-58800000D03*
G04 #@! TO.P,C4,2*
G04 #@! TO.N,/VSS*
X38775000Y-58800000D03*
G04 #@! TD*
D13*
G04 #@! TO.P,L3,1*
G04 #@! TO.N,+3V3*
X37225000Y-43000000D03*
G04 #@! TO.P,L3,2*
G04 #@! TO.N,/LAN_3P3V*
X35575000Y-43000000D03*
G04 #@! TD*
D18*
G04 #@! TO.P,C26,1*
G04 #@! TO.N,/LAN_3P3V*
X35625000Y-41400000D03*
G04 #@! TO.P,C26,2*
G04 #@! TO.N,GND*
X37175000Y-41400000D03*
G04 #@! TD*
D13*
G04 #@! TO.P,R27,1*
G04 #@! TO.N,GND*
X40325000Y-44250000D03*
G04 #@! TO.P,R27,2*
G04 #@! TO.N,Net-(R26-Pad1)*
X38675000Y-44250000D03*
G04 #@! TD*
D18*
G04 #@! TO.P,C12,1*
G04 #@! TO.N,/XTAL_N*
X39400000Y-41000000D03*
G04 #@! TO.P,C12,2*
G04 #@! TO.N,GND*
X40950000Y-41000000D03*
G04 #@! TD*
D17*
G04 #@! TO.P,R21,1*
G04 #@! TO.N,Net-(C6-Pad1)*
X35575000Y-50600000D03*
G04 #@! TO.P,R21,2*
G04 #@! TO.N,/COMP*
X37225000Y-50600000D03*
G04 #@! TD*
D14*
G04 #@! TO.P,C5,1*
G04 #@! TO.N,GND*
X45175000Y-31200000D03*
G04 #@! TO.P,C5,2*
G04 #@! TO.N,+3V3*
X43625000Y-31200000D03*
G04 #@! TD*
D13*
G04 #@! TO.P,R24,1*
G04 #@! TO.N,GND*
X38325000Y-47650000D03*
G04 #@! TO.P,R24,2*
G04 #@! TO.N,/FBH*
X36675000Y-47650000D03*
G04 #@! TD*
D27*
G04 #@! TO.P,C15,1*
G04 #@! TO.N,GND*
X45000000Y-39175000D03*
G04 #@! TO.P,C15,2*
G04 #@! TO.N,/CAP2*
X45000000Y-37625000D03*
G04 #@! TD*
D14*
G04 #@! TO.P,C25,1*
G04 #@! TO.N,/LAN_3P3V*
X26775000Y-43000000D03*
G04 #@! TO.P,C25,2*
G04 #@! TO.N,GND*
X25225000Y-43000000D03*
G04 #@! TD*
G04 #@! TO.P,C1,1*
G04 #@! TO.N,/12V*
X36125000Y-58800000D03*
G04 #@! TO.P,C1,2*
G04 #@! TO.N,/POE_NEG*
X34575000Y-58800000D03*
G04 #@! TD*
D19*
G04 #@! TO.P,R15,1*
G04 #@! TO.N,/RTL_LED0*
X26000000Y-63675000D03*
G04 #@! TO.P,R15,2*
G04 #@! TO.N,/ETH_LED0*
X26000000Y-65325000D03*
G04 #@! TD*
D32*
G04 #@! TO.P,C27,1*
G04 #@! TO.N,/12V*
X27600000Y-57637500D03*
G04 #@! TO.P,C27,2*
G04 #@! TO.N,/VSS*
X27600000Y-52562500D03*
G04 #@! TD*
D17*
G04 #@! TO.P,R1,1*
G04 #@! TO.N,/EN*
X25425000Y-32000000D03*
G04 #@! TO.P,R1,2*
G04 #@! TO.N,+3V3*
X27075000Y-32000000D03*
G04 #@! TD*
D19*
G04 #@! TO.P,R22,1*
G04 #@! TO.N,/U0RXD*
X41100000Y-26275000D03*
G04 #@! TO.P,R22,2*
G04 #@! TO.N,Net-(R22-Pad2)*
X41100000Y-27925000D03*
G04 #@! TD*
D27*
G04 #@! TO.P,C9,1*
G04 #@! TO.N,GND*
X36800000Y-39575000D03*
G04 #@! TO.P,C9,2*
G04 #@! TO.N,+3V3*
X36800000Y-38025000D03*
G04 #@! TD*
D33*
G04 #@! TO.P,J1,1,RD+*
G04 #@! TO.N,/MDI1_P*
X29800000Y-62000000D03*
D34*
G04 #@! TO.P,J1,2,RD-*
G04 #@! TO.N,/MDI1_N*
X31070000Y-64540000D03*
G04 #@! TO.P,J1,3,RCT*
G04 #@! TO.N,/MDI0_CT*
X32340000Y-62000000D03*
G04 #@! TO.P,J1,4,TCT*
X33610000Y-64540000D03*
G04 #@! TO.P,J1,5,TD+*
G04 #@! TO.N,/MDI0_P*
X34880000Y-62000000D03*
G04 #@! TO.P,J1,6,TD-*
G04 #@! TO.N,/MDI0_N*
X36150000Y-64540000D03*
G04 #@! TO.P,J1,7*
G04 #@! TO.N,N/C*
X37420000Y-62000000D03*
G04 #@! TO.P,J1,8*
X38690000Y-64540000D03*
G04 #@! TO.P,J1,9,V+*
G04 #@! TO.N,/12V*
X39960000Y-62000000D03*
G04 #@! TO.P,J1,10,V-*
G04 #@! TO.N,/POE_NEG*
X41230000Y-64540000D03*
D10*
G04 #@! TO.P,J1,11,LEDG_A*
G04 #@! TO.N,/ETH_LED0*
X28885000Y-74970000D03*
G04 #@! TO.P,J1,12,LEDG_K*
G04 #@! TO.N,GND*
X31425000Y-74970000D03*
G04 #@! TO.P,J1,13,LEDY_A*
G04 #@! TO.N,/ETH_LED1*
X39605000Y-74970000D03*
G04 #@! TO.P,J1,14,LEDY_K*
G04 #@! TO.N,GND*
X42145000Y-74970000D03*
D35*
G04 #@! TO.P,J1,SH,SHIELD*
X27770000Y-67840000D03*
X43260000Y-67840000D03*
G04 #@! TD*
D13*
G04 #@! TO.P,R9,1*
G04 #@! TO.N,+3V3*
X37225000Y-44500000D03*
G04 #@! TO.P,R9,2*
G04 #@! TO.N,/RXDV*
X35575000Y-44500000D03*
G04 #@! TD*
D18*
G04 #@! TO.P,C19,1*
G04 #@! TO.N,+3V3*
X36625000Y-26750000D03*
G04 #@! TO.P,C19,2*
G04 #@! TO.N,GND*
X38175000Y-26750000D03*
G04 #@! TD*
D19*
G04 #@! TO.P,R16,1*
G04 #@! TO.N,/RTL_LED1*
X45000000Y-63675000D03*
G04 #@! TO.P,R16,2*
G04 #@! TO.N,/ETH_LED1*
X45000000Y-65325000D03*
G04 #@! TD*
D17*
G04 #@! TO.P,L1,1*
G04 #@! TO.N,/VDD3P3*
X40575000Y-33400000D03*
G04 #@! TO.P,L1,2*
G04 #@! TO.N,+3V3*
X42225000Y-33400000D03*
G04 #@! TD*
D21*
G04 #@! TO.P,C14,1*
G04 #@! TO.N,GND*
X32000000Y-27825000D03*
G04 #@! TO.P,C14,2*
G04 #@! TO.N,/VDD_SDIO*
X32000000Y-29375000D03*
G04 #@! TD*
D36*
G04 #@! TO.P,C18,1*
G04 #@! TO.N,/12V*
X43850000Y-48800000D03*
G04 #@! TO.P,C18,2*
G04 #@! TO.N,GND*
X45750000Y-48800000D03*
G04 #@! TD*
D37*
G04 #@! TO.P,U1,1,VDDA*
G04 #@! TO.N,+3V3*
X39100000Y-34200000D03*
G04 #@! TO.P,U1,2,LNA_IN*
G04 #@! TO.N,unconnected-(U1-Pad2)*
X39100000Y-33800000D03*
G04 #@! TO.P,U1,3,VDD3P3*
G04 #@! TO.N,/VDD3P3*
X39100000Y-33400000D03*
G04 #@! TO.P,U1,4,VDD3P3*
X39100000Y-33000000D03*
G04 #@! TO.P,U1,5,SENSOR_VP*
G04 #@! TO.N,/S_VP*
X39100000Y-32600000D03*
G04 #@! TO.P,U1,6,SENSOR_CAPP*
G04 #@! TO.N,/IO37*
X39100000Y-32200000D03*
G04 #@! TO.P,U1,7,SENSOR_CAPN*
G04 #@! TO.N,/IO38*
X39100000Y-31800000D03*
G04 #@! TO.P,U1,8,SENSOR_VN*
G04 #@! TO.N,/S_VN*
X39100000Y-31400000D03*
G04 #@! TO.P,U1,9,CHIP_PU*
G04 #@! TO.N,/EN*
X39100000Y-31000000D03*
G04 #@! TO.P,U1,10,VDET_1*
G04 #@! TO.N,/IO34*
X39100000Y-30600000D03*
G04 #@! TO.P,U1,11,VDET_2*
G04 #@! TO.N,/IO35*
X39100000Y-30200000D03*
G04 #@! TO.P,U1,12,32K_XP*
G04 #@! TO.N,/IO32*
X39100000Y-29800000D03*
D38*
G04 #@! TO.P,U1,13,32K_XIN*
G04 #@! TO.N,/IO33*
X38400000Y-29100000D03*
G04 #@! TO.P,U1,14,GPIO25*
G04 #@! TO.N,/ETH_RXD0*
X38000000Y-29100000D03*
G04 #@! TO.P,U1,15,GPIO26*
G04 #@! TO.N,/ETH_RXD1*
X37600000Y-29100000D03*
G04 #@! TO.P,U1,16,GPIO27*
G04 #@! TO.N,/ETH_CRS_DV*
X37200000Y-29100000D03*
G04 #@! TO.P,U1,17,MTMS*
G04 #@! TO.N,/IO14*
X36800000Y-29100000D03*
G04 #@! TO.P,U1,18,MTDI*
G04 #@! TO.N,/IO12*
X36400000Y-29100000D03*
G04 #@! TO.P,U1,19,VDD3P3_RTC*
G04 #@! TO.N,+3V3*
X36000000Y-29100000D03*
G04 #@! TO.P,U1,20,MTCK*
G04 #@! TO.N,/IO13*
X35600000Y-29100000D03*
G04 #@! TO.P,U1,21,MTDO*
G04 #@! TO.N,/IO15*
X35200000Y-29100000D03*
G04 #@! TO.P,U1,22,GPIO2*
G04 #@! TO.N,/IO2*
X34800000Y-29100000D03*
G04 #@! TO.P,U1,23,GPIO0*
G04 #@! TO.N,/BOOT*
X34400000Y-29100000D03*
G04 #@! TO.P,U1,24,GPIO4*
G04 #@! TO.N,/IO4*
X34000000Y-29100000D03*
D37*
G04 #@! TO.P,U1,25,GPIO16*
G04 #@! TO.N,/IO16*
X33300000Y-29800000D03*
G04 #@! TO.P,U1,26,VDD_SDIO*
G04 #@! TO.N,/VDD_SDIO*
X33300000Y-30200000D03*
G04 #@! TO.P,U1,27,GPIO17*
G04 #@! TO.N,/ETH_CLK*
X33300000Y-30600000D03*
G04 #@! TO.P,U1,28,SD_DATA_2*
G04 #@! TO.N,/SDD2*
X33300000Y-31000000D03*
G04 #@! TO.P,U1,29,SD_DATA_3*
G04 #@! TO.N,/SDD3*
X33300000Y-31400000D03*
G04 #@! TO.P,U1,30,SD_CMD*
G04 #@! TO.N,/SDCS*
X33300000Y-31800000D03*
G04 #@! TO.P,U1,31,SD_CLK*
G04 #@! TO.N,/SDCK*
X33300000Y-32200000D03*
G04 #@! TO.P,U1,32,SD_DATA_0*
G04 #@! TO.N,/SDD0*
X33300000Y-32600000D03*
G04 #@! TO.P,U1,33,SD_DATA_1*
G04 #@! TO.N,/SDD1*
X33300000Y-33000000D03*
G04 #@! TO.P,U1,34,GPIO5*
G04 #@! TO.N,/IO5*
X33300000Y-33400000D03*
G04 #@! TO.P,U1,35,GPIO18*
G04 #@! TO.N,/ETH_MDIO*
X33300000Y-33800000D03*
G04 #@! TO.P,U1,36,GPIO23*
G04 #@! TO.N,/ETH_MDC*
X33300000Y-34200000D03*
D38*
G04 #@! TO.P,U1,37,VDD3P3_CPU*
G04 #@! TO.N,+3V3*
X34000000Y-34900000D03*
G04 #@! TO.P,U1,38,GPIO19*
G04 #@! TO.N,/ETH_TXD0*
X34400000Y-34900000D03*
G04 #@! TO.P,U1,39,GPIO22*
G04 #@! TO.N,/ETH_TXD1*
X34800000Y-34900000D03*
G04 #@! TO.P,U1,40,U0RXD*
G04 #@! TO.N,Net-(R22-Pad2)*
X35200000Y-34900000D03*
G04 #@! TO.P,U1,41,U0TXD*
G04 #@! TO.N,Net-(R4-Pad2)*
X35600000Y-34900000D03*
G04 #@! TO.P,U1,42,GPIO21*
G04 #@! TO.N,/ETH_TXEN*
X36000000Y-34900000D03*
G04 #@! TO.P,U1,43,VDDA*
G04 #@! TO.N,+3V3*
X36400000Y-34900000D03*
G04 #@! TO.P,U1,44,XTAL_N*
G04 #@! TO.N,/XTAL_N*
X36800000Y-34900000D03*
G04 #@! TO.P,U1,45,XTAL_P*
G04 #@! TO.N,/XTAL_P*
X37200000Y-34900000D03*
G04 #@! TO.P,U1,46,VDDA*
G04 #@! TO.N,+3V3*
X37600000Y-34900000D03*
G04 #@! TO.P,U1,47,CAP2*
G04 #@! TO.N,/CAP2*
X38000000Y-34900000D03*
G04 #@! TO.P,U1,48,CAP1*
G04 #@! TO.N,/CAP1*
X38400000Y-34900000D03*
D39*
G04 #@! TO.P,U1,49,GND*
G04 #@! TO.N,GND*
X36200000Y-32000000D03*
G04 #@! TD*
D19*
G04 #@! TO.P,R7,1*
G04 #@! TO.N,/POE_NEG*
X32200000Y-55775000D03*
G04 #@! TO.P,R7,2*
G04 #@! TO.N,Net-(R7-Pad2)*
X32200000Y-57425000D03*
G04 #@! TD*
D14*
G04 #@! TO.P,C11,1*
G04 #@! TO.N,GND*
X45175000Y-29800000D03*
G04 #@! TO.P,C11,2*
G04 #@! TO.N,+3V3*
X43625000Y-29800000D03*
G04 #@! TD*
G04 #@! TO.P,C23,1*
G04 #@! TO.N,/DVDD10*
X26775000Y-41500000D03*
G04 #@! TO.P,C23,2*
G04 #@! TO.N,GND*
X25225000Y-41500000D03*
G04 #@! TD*
D27*
G04 #@! TO.P,C17,1*
G04 #@! TO.N,Net-(C17-Pad1)*
X41750000Y-44525000D03*
G04 #@! TO.P,C17,2*
G04 #@! TO.N,Net-(C17-Pad2)*
X41750000Y-42975000D03*
G04 #@! TD*
D40*
G04 #@! TO.P,Y1,1,1*
G04 #@! TO.N,/XTAL_N*
X39250000Y-39350000D03*
G04 #@! TO.P,Y1,2,2*
G04 #@! TO.N,GND*
X41450000Y-39350000D03*
G04 #@! TO.P,Y1,3,3*
G04 #@! TO.N,/XTAL_P*
X41450000Y-37650000D03*
G04 #@! TO.P,Y1,4,4*
G04 #@! TO.N,GND*
X39250000Y-37650000D03*
G04 #@! TD*
D41*
G04 #@! TO.N,GND*
X45250000Y-27500000D03*
G04 #@! TO.N,/MDI0_CT*
X26750000Y-49075500D03*
G04 #@! TO.N,GND*
X27000000Y-34300000D03*
X28900000Y-29600000D03*
X35200000Y-33000000D03*
X45200000Y-29249500D03*
X32400000Y-32300000D03*
X38600000Y-45300000D03*
X37400000Y-33000000D03*
X39000000Y-35625500D03*
X42997679Y-36774500D03*
X40400000Y-38600000D03*
X44000000Y-60324980D03*
X25000000Y-60500000D03*
X42550000Y-40950000D03*
X26800000Y-27400000D03*
X36800000Y-40400000D03*
X32850500Y-37500000D03*
X40750000Y-47000000D03*
X44500000Y-47000000D03*
X31000000Y-42250000D03*
X37500000Y-40500000D03*
X38900000Y-26750000D03*
G04 #@! TO.N,/EN*
X35600000Y-26350500D03*
X38000000Y-30000000D03*
G04 #@! TO.N,/S_VP*
X41200000Y-32600000D03*
G04 #@! TO.N,/S_VN*
X42400000Y-31000000D03*
G04 #@! TO.N,/IO34*
X41800000Y-30450500D03*
G04 #@! TO.N,/ETH_TXD1*
X33000000Y-39000000D03*
X35013542Y-38988152D03*
G04 #@! TO.N,/IO35*
X42400000Y-29901000D03*
G04 #@! TO.N,/IO32*
X41800000Y-29351500D03*
G04 #@! TO.N,/ETH_CRS_DV*
X26750000Y-40500000D03*
X37200000Y-27600000D03*
G04 #@! TO.N,/ETH_RXD1*
X34700000Y-43200000D03*
X38901997Y-27450500D03*
G04 #@! TO.N,/ETH_RXD0*
X34400000Y-44000000D03*
X39850500Y-28000000D03*
G04 #@! TO.N,+3V3*
X31800000Y-34900000D03*
X45149500Y-44500000D03*
X37200000Y-43800000D03*
X31661670Y-32745453D03*
X39600000Y-43000000D03*
G04 #@! TO.N,/IO33*
X42400000Y-28800000D03*
G04 #@! TO.N,/U0RXD*
X40038556Y-26261444D03*
G04 #@! TO.N,/ETH_TXEN*
X36000000Y-37400000D03*
X31750000Y-38500000D03*
G04 #@! TO.N,Net-(R4-Pad2)*
X35325186Y-37215796D03*
X43600000Y-27500989D03*
G04 #@! TO.N,/ETH_CLK*
X28263556Y-44763556D03*
X31750000Y-30750000D03*
G04 #@! TO.N,/IO14*
X37000000Y-30000000D03*
G04 #@! TO.N,/IO12*
X27800000Y-29400000D03*
X25425000Y-29419104D03*
X36200000Y-30000000D03*
G04 #@! TO.N,/IO13*
X26202441Y-37800000D03*
X34500000Y-26900000D03*
G04 #@! TO.N,/U0TXD*
X44750000Y-26250000D03*
G04 #@! TO.N,/MDI0_P*
X28250000Y-47250000D03*
G04 #@! TO.N,/MDI0_N*
X28281222Y-48750000D03*
G04 #@! TO.N,/MDI1_P*
X34500000Y-48750000D03*
G04 #@! TO.N,/MDI1_N*
X34500000Y-47250000D03*
G04 #@! TO.N,/IO15*
X24400000Y-37550500D03*
X28936444Y-32036444D03*
X35058588Y-29909854D03*
G04 #@! TO.N,/IO2*
X34949500Y-28200000D03*
G04 #@! TO.N,/IO4*
X33800000Y-28000000D03*
G04 #@! TO.N,/IO16*
X33000000Y-27000000D03*
X26751941Y-38700000D03*
G04 #@! TO.N,/IO5*
X28750000Y-35250000D03*
G04 #@! TO.N,/IO37*
X42400000Y-32099000D03*
G04 #@! TO.N,/IO38*
X41800000Y-31549500D03*
G04 #@! TO.N,Net-(R22-Pad2)*
X34750000Y-36750000D03*
X40432322Y-27611687D03*
G04 #@! TO.N,/LAN_3P3V*
X26000000Y-44500000D03*
X26800000Y-43000000D03*
G04 #@! TO.N,/VIN_NEG*
X33200000Y-55600000D03*
X37600000Y-52800000D03*
G04 #@! TO.N,/VSS*
X38800000Y-58000000D03*
X32000000Y-51750000D03*
X39200000Y-54450000D03*
X34630506Y-51483892D03*
G04 #@! TO.N,/12V*
X30600000Y-58800000D03*
X36600000Y-58800000D03*
G04 #@! TD*
D42*
G04 #@! TO.N,GND*
X46250000Y-27500000D02*
X45250000Y-27500000D01*
X46925000Y-27500000D02*
X46250000Y-27500000D01*
X47750000Y-28325000D02*
X46925000Y-27500000D01*
G04 #@! TO.N,Net-(D3-Pad1)*
X47712500Y-26712500D02*
X47750000Y-26675000D01*
X46000000Y-26712500D02*
X47712500Y-26712500D01*
G04 #@! TO.N,/U0TXD*
X44725000Y-26275000D02*
X42700000Y-26275000D01*
X44750000Y-26250000D02*
X44725000Y-26275000D01*
G04 #@! TO.N,/MDI0_CT*
X26750000Y-48250000D02*
X25250000Y-49750000D01*
X26750000Y-49075500D02*
X26750000Y-48525000D01*
G04 #@! TO.N,GND*
X36800000Y-39575000D02*
X36800000Y-40600000D01*
D43*
X45874520Y-38300480D02*
X45874520Y-36399520D01*
D42*
X37275000Y-46000000D02*
X38400000Y-46000000D01*
X38325000Y-47650000D02*
X39100000Y-47650000D01*
X40950000Y-41500000D02*
X41450000Y-41000000D01*
X41450000Y-39800000D02*
X40950000Y-40300000D01*
D43*
X45874520Y-36399520D02*
X45225000Y-35750000D01*
D44*
X28562500Y-43500000D02*
X27527138Y-43500000D01*
D42*
X40750000Y-45250000D02*
X40750000Y-46112500D01*
X32705000Y-76250000D02*
X31425000Y-74970000D01*
D43*
X25225000Y-41500000D02*
X25225000Y-43925000D01*
X45000000Y-39175000D02*
X45874520Y-38300480D01*
X30600000Y-27775000D02*
X31950000Y-27775000D01*
D42*
X26000000Y-60575000D02*
X25075000Y-60575000D01*
D43*
X44975000Y-40750000D02*
X44975000Y-39200000D01*
X45750000Y-53000000D02*
X45750000Y-55950000D01*
X25225000Y-43925000D02*
X25225000Y-48500000D01*
D42*
X44150000Y-39350000D02*
X44825000Y-39350000D01*
X36800000Y-40400000D02*
X36800000Y-40600000D01*
X39100000Y-47650000D02*
X39500000Y-47250000D01*
D43*
X45175000Y-29800000D02*
X45175000Y-35700000D01*
D42*
X27025000Y-34275000D02*
X27000000Y-34300000D01*
X42175000Y-35225000D02*
X41624520Y-35775480D01*
D43*
X45750000Y-48800000D02*
X45750000Y-53000000D01*
D42*
X40325000Y-44250000D02*
X40325000Y-44825000D01*
D43*
X45175000Y-29800000D02*
X45175000Y-29274500D01*
D42*
X44500000Y-47000000D02*
X46400000Y-47000000D01*
X39149980Y-35775480D02*
X39000000Y-35625500D01*
D43*
X29500000Y-29647849D02*
X29500000Y-27400000D01*
D42*
X37175000Y-40825000D02*
X37500000Y-40500000D01*
D43*
X30600000Y-27775000D02*
X29875000Y-27775000D01*
X44500000Y-45750000D02*
X45000000Y-46250000D01*
D42*
X40325000Y-44825000D02*
X40750000Y-45250000D01*
X37175000Y-41400000D02*
X37175000Y-40825000D01*
X42145000Y-74970000D02*
X43260000Y-73855000D01*
X44150000Y-39350000D02*
X44150000Y-37150000D01*
D43*
X45000000Y-46250000D02*
X45000000Y-48050000D01*
X40750000Y-47000000D02*
X40750000Y-46112500D01*
X45000000Y-48050000D02*
X45750000Y-48800000D01*
D42*
X43774500Y-36774500D02*
X42997679Y-36774500D01*
D43*
X44975000Y-40750000D02*
X44500000Y-41225000D01*
D42*
X45000000Y-60675000D02*
X44350020Y-60675000D01*
D43*
X45175000Y-29274500D02*
X45200000Y-29249500D01*
D44*
X27527138Y-43500000D02*
X27102138Y-43925000D01*
D42*
X40750000Y-47000000D02*
X40750000Y-45862500D01*
D43*
X28900000Y-29600000D02*
X29452151Y-29600000D01*
D42*
X36800000Y-39575000D02*
X36800000Y-40400000D01*
D44*
X27102138Y-43925000D02*
X25225000Y-43925000D01*
D42*
X37975000Y-41775000D02*
X41725000Y-41775000D01*
D43*
X29500000Y-27400000D02*
X26800000Y-27400000D01*
X32152151Y-32300000D02*
X29500000Y-29647849D01*
D44*
X28562500Y-43500000D02*
X29750000Y-43500000D01*
D42*
X39450000Y-37650000D02*
X41150000Y-39350000D01*
D43*
X32400000Y-32300000D02*
X32152151Y-32300000D01*
X45750000Y-55950000D02*
X46350000Y-56550000D01*
D42*
X41725000Y-41775000D02*
X43250000Y-40250000D01*
X39149980Y-35775480D02*
X41624520Y-35775480D01*
X44000000Y-37000000D02*
X43774500Y-36774500D01*
X43250000Y-39350000D02*
X44150000Y-39350000D01*
X40865000Y-76250000D02*
X32705000Y-76250000D01*
X27025000Y-33500000D02*
X27025000Y-34275000D01*
X38600000Y-45800000D02*
X38600000Y-45300000D01*
D43*
X46350000Y-56550000D02*
X46750000Y-56550000D01*
D42*
X25075000Y-60575000D02*
X25000000Y-60500000D01*
D43*
X46750000Y-56550000D02*
X47100000Y-56900000D01*
X47100000Y-56900000D02*
X47100000Y-57260000D01*
D42*
X44150000Y-37150000D02*
X44000000Y-37000000D01*
X38175000Y-26750000D02*
X38900000Y-26750000D01*
D43*
X29875000Y-27775000D02*
X29500000Y-27400000D01*
D42*
X44350020Y-60675000D02*
X44000000Y-60324980D01*
X40500000Y-47250000D02*
X40750000Y-47000000D01*
D43*
X47100000Y-57260000D02*
X48260000Y-58420000D01*
D42*
X40950000Y-40300000D02*
X40950000Y-41000000D01*
X41000000Y-41550000D02*
X40950000Y-41500000D01*
X32250000Y-37525000D02*
X32825500Y-37525000D01*
X38400000Y-46000000D02*
X38600000Y-45800000D01*
D43*
X44500000Y-41225000D02*
X44500000Y-45750000D01*
D42*
X43260000Y-73855000D02*
X43260000Y-67840000D01*
X42145000Y-74970000D02*
X40865000Y-76250000D01*
D43*
X29452151Y-29600000D02*
X29500000Y-29647849D01*
D42*
X43250000Y-40250000D02*
X43250000Y-39350000D01*
X40950000Y-41000000D02*
X40950000Y-41700000D01*
X40950000Y-41700000D02*
X41000000Y-41750000D01*
X39500000Y-47250000D02*
X40500000Y-47250000D01*
X36800000Y-40600000D02*
X37975000Y-41775000D01*
X32825500Y-37525000D02*
X32850500Y-37500000D01*
G04 #@! TO.N,/EN*
X24250000Y-31630000D02*
X24250000Y-27500000D01*
X25425000Y-32000000D02*
X24620000Y-32000000D01*
X39100000Y-31000000D02*
X38609994Y-31000000D01*
X24500000Y-27250000D02*
X25250000Y-27250000D01*
X24620000Y-32000000D02*
X24250000Y-31630000D01*
X33750500Y-26350500D02*
X33069931Y-25669931D01*
X25425000Y-32000000D02*
X25425000Y-33450000D01*
X22860000Y-33020000D02*
X24250000Y-31630000D01*
X38609994Y-31000000D02*
X38000000Y-30390006D01*
X24250000Y-27500000D02*
X24500000Y-27250000D01*
X26430069Y-25669931D02*
X25300000Y-26800000D01*
X38000000Y-30390006D02*
X38000000Y-30000000D01*
X35600000Y-26350500D02*
X33750500Y-26350500D01*
X33069931Y-25669931D02*
X26430069Y-25669931D01*
G04 #@! TO.N,/ETH_MDC*
X30250000Y-38684994D02*
X30250000Y-39812500D01*
X31050000Y-34200000D02*
X29975480Y-35274520D01*
X29975480Y-38410474D02*
X30250000Y-38684994D01*
X29975480Y-35274520D02*
X29975480Y-38410474D01*
X33300000Y-34200000D02*
X31050000Y-34200000D01*
G04 #@! TO.N,/S_VP*
X41200000Y-32600000D02*
X39100000Y-32600000D01*
G04 #@! TO.N,/S_VN*
X40200000Y-31400000D02*
X39100000Y-31400000D01*
X42400000Y-31000000D02*
X40600000Y-31000000D01*
X40600000Y-31000000D02*
X40200000Y-31400000D01*
G04 #@! TO.N,/IO34*
X41800000Y-30450500D02*
X40549500Y-30450500D01*
X40400000Y-30600000D02*
X39100000Y-30600000D01*
X40549500Y-30450500D02*
X40400000Y-30600000D01*
G04 #@! TO.N,/CAP1*
X38400000Y-34950000D02*
X40575000Y-34950000D01*
G04 #@! TO.N,/ETH_TXD1*
X32750000Y-39250000D02*
X33000000Y-39000000D01*
X35013542Y-38988152D02*
X34100000Y-38074610D01*
X34100000Y-38074610D02*
X34100000Y-36465006D01*
X32750000Y-39812500D02*
X32750000Y-39250000D01*
X34100000Y-36465006D02*
X34800000Y-35765006D01*
X34800000Y-35765006D02*
X34800000Y-34900000D01*
G04 #@! TO.N,/IO35*
X40234994Y-30200000D02*
X39100000Y-30200000D01*
X42400000Y-29901000D02*
X40533994Y-29901000D01*
X40533994Y-29901000D02*
X40234994Y-30200000D01*
G04 #@! TO.N,/IO32*
X41800000Y-29351500D02*
X40518488Y-29351500D01*
X40069988Y-29800000D02*
X39100000Y-29800000D01*
X40518488Y-29351500D02*
X40069988Y-29800000D01*
G04 #@! TO.N,/ETH_CRS_DV*
X27491783Y-41000000D02*
X28500000Y-41000000D01*
X26991783Y-40500000D02*
X27491783Y-41000000D01*
X37200000Y-27600000D02*
X37200000Y-29100000D01*
X26750000Y-40500000D02*
X26991783Y-40500000D01*
G04 #@! TO.N,/ETH_RXD1*
X34700000Y-43200000D02*
X34300000Y-43200000D01*
X34300000Y-43200000D02*
X34000000Y-43500000D01*
X38234513Y-27600481D02*
X37600000Y-28234994D01*
X38752017Y-27600480D02*
X38234513Y-27600481D01*
X34000000Y-43500000D02*
X33437500Y-43500000D01*
X38901997Y-27450500D02*
X38752017Y-27600480D01*
X37600000Y-28234994D02*
X37600000Y-29100000D01*
G04 #@! TO.N,/ETH_RXD0*
X38000000Y-28400000D02*
X38000000Y-29100000D01*
X38400000Y-28000000D02*
X39850500Y-28000000D01*
X33437500Y-44000000D02*
X34400000Y-44000000D01*
X38400000Y-28000000D02*
X38000000Y-28400000D01*
G04 #@! TO.N,+3V3*
X44700000Y-27823862D02*
X44700000Y-28600000D01*
X36400000Y-34900000D02*
X36400000Y-34200000D01*
X34000000Y-34390006D02*
X34390006Y-34000000D01*
X40062176Y-27062176D02*
X43237824Y-27062176D01*
D43*
X44000000Y-28600000D02*
X44700000Y-28600000D01*
D42*
X38975480Y-25975480D02*
X40062176Y-27062176D01*
X30750000Y-35925000D02*
X32200000Y-35925000D01*
D43*
X43625000Y-29800000D02*
X43625000Y-28975000D01*
X43600000Y-33400000D02*
X43625000Y-33425000D01*
D42*
X32600000Y-34900000D02*
X32250000Y-35250000D01*
D43*
X46200000Y-35800000D02*
X46600000Y-36200000D01*
X44700000Y-28600000D02*
X45800000Y-28600000D01*
D42*
X38390006Y-34000000D02*
X37000000Y-34000000D01*
X27075000Y-31125000D02*
X27075000Y-32000000D01*
X35999520Y-27375480D02*
X36625000Y-26750000D01*
X34000000Y-34900000D02*
X34000000Y-34390006D01*
X34000000Y-34900000D02*
X33300000Y-34900000D01*
D43*
X45800000Y-28600000D02*
X46200000Y-29000000D01*
X46200000Y-29000000D02*
X46200000Y-35800000D01*
D42*
X27075000Y-31125000D02*
X29425000Y-31125000D01*
X36800000Y-37400000D02*
X36800000Y-38025000D01*
X37225000Y-43000000D02*
X37225000Y-44500000D01*
X36000000Y-27750480D02*
X35999520Y-27750000D01*
X43237824Y-27062176D02*
X43348522Y-26951478D01*
X29425000Y-31125000D02*
X31045453Y-32745453D01*
D43*
X43625000Y-29800000D02*
X43625000Y-33425000D01*
D42*
X37000000Y-34000000D02*
X37400000Y-34000000D01*
X37399520Y-25975480D02*
X38975480Y-25975480D01*
X31045453Y-32745453D02*
X31661670Y-32745453D01*
X40325000Y-43000000D02*
X39600000Y-43000000D01*
X36400000Y-34200000D02*
X36600000Y-34000000D01*
X36400000Y-34950000D02*
X36400000Y-37000000D01*
X36000000Y-29100000D02*
X36000000Y-27750480D01*
X43827616Y-26951478D02*
X44700000Y-27823862D01*
X37400000Y-34000000D02*
X37600480Y-34200480D01*
X39100000Y-34200000D02*
X43575000Y-34200000D01*
D43*
X42225000Y-33400000D02*
X43600000Y-33400000D01*
X45899500Y-43750000D02*
X45149500Y-44500000D01*
D42*
X36625000Y-26750000D02*
X37399520Y-25975480D01*
D43*
X43625000Y-33425000D02*
X43625000Y-34250000D01*
D42*
X32250000Y-35250000D02*
X32250000Y-35975000D01*
X27075000Y-30250000D02*
X27075000Y-31125000D01*
X39100000Y-34200000D02*
X38590006Y-34200000D01*
X37600480Y-34200480D02*
X37600480Y-35000000D01*
X33300000Y-34900000D02*
X31800000Y-34900000D01*
X36400000Y-37000000D02*
X36800000Y-37400000D01*
X35999520Y-27400480D02*
X35999520Y-27375480D01*
X33300000Y-34900000D02*
X32600000Y-34900000D01*
X35999520Y-27750000D02*
X35999520Y-27400480D01*
X43348522Y-26951478D02*
X43827616Y-26951478D01*
D43*
X46600000Y-36200000D02*
X46600000Y-45000000D01*
D42*
X36600000Y-34000000D02*
X37000000Y-34000000D01*
X38590006Y-34200000D02*
X38390006Y-34000000D01*
X34390006Y-34000000D02*
X37000000Y-34000000D01*
D43*
X43625000Y-28975000D02*
X44000000Y-28600000D01*
D42*
G04 #@! TO.N,/IO33*
X40504982Y-28800000D02*
X40204982Y-29100000D01*
X40204982Y-29100000D02*
X38400000Y-29100000D01*
X42400000Y-28800000D02*
X40504982Y-28800000D01*
G04 #@! TO.N,/XTAL_P*
X43250000Y-37650000D02*
X41450000Y-37650000D01*
X40424519Y-36624519D02*
X41450000Y-37650000D01*
X37624520Y-36624520D02*
X40424519Y-36624519D01*
X37200000Y-36200000D02*
X37624520Y-36624520D01*
X37200000Y-34900000D02*
X37200000Y-36200000D01*
G04 #@! TO.N,/U0RXD*
X40052112Y-26275000D02*
X41100000Y-26275000D01*
X40038556Y-26261444D02*
X40052112Y-26275000D01*
G04 #@! TO.N,/XTAL_N*
X36799520Y-36000000D02*
X36800000Y-35999520D01*
X36799520Y-36549520D02*
X36799520Y-36000000D01*
X39250000Y-39350000D02*
X38200000Y-39350000D01*
X37850000Y-39000000D02*
X37850000Y-37600000D01*
X38200000Y-39350000D02*
X37850000Y-39000000D01*
X37850000Y-37600000D02*
X36799520Y-36549520D01*
X39250000Y-41150000D02*
X39250000Y-39350000D01*
X36800000Y-35999520D02*
X36800000Y-34900000D01*
G04 #@! TO.N,/VDD3P3*
X39100000Y-33400000D02*
X40575000Y-33400000D01*
X39100000Y-33000000D02*
X40175000Y-33000000D01*
X40345000Y-33020000D02*
X40525000Y-33200000D01*
X40175000Y-33000000D02*
X40575000Y-33400000D01*
G04 #@! TO.N,/ETH_TXEN*
X36000000Y-37400000D02*
X36000000Y-34900000D01*
X31250000Y-39000000D02*
X31750000Y-38500000D01*
X31250000Y-39812500D02*
X31250000Y-39000000D01*
G04 #@! TO.N,Net-(R4-Pad2)*
X35600000Y-34900000D02*
X35600000Y-36600000D01*
X43600000Y-27500989D02*
X43124011Y-27500989D01*
X35400000Y-37140982D02*
X35325186Y-37215796D01*
X35600000Y-36600000D02*
X35400000Y-36800000D01*
X43124011Y-27500989D02*
X42700000Y-27925000D01*
X35400000Y-36800000D02*
X35400000Y-37140982D01*
G04 #@! TO.N,/ETH_TXD0*
X34000000Y-36000000D02*
X33400000Y-36000000D01*
X34400000Y-35600000D02*
X34000000Y-36000000D01*
X34300000Y-40500000D02*
X34600000Y-40200000D01*
X34600000Y-40200000D02*
X34600000Y-39350000D01*
X34400000Y-34900000D02*
X34400000Y-35600000D01*
X34600000Y-39350000D02*
X33400000Y-38150000D01*
X33437500Y-40500000D02*
X34300000Y-40500000D01*
X33400000Y-38150000D02*
X33400000Y-36000000D01*
G04 #@! TO.N,/ETH_MDIO*
X29500000Y-38500000D02*
X29750000Y-38750000D01*
X29500000Y-35065006D02*
X29500000Y-38500000D01*
X29750000Y-38750000D02*
X29750000Y-39812500D01*
X30765006Y-33800000D02*
X29500000Y-35065006D01*
X33300000Y-33800000D02*
X30765006Y-33800000D01*
G04 #@! TO.N,/BOOT*
X34400000Y-27622873D02*
X34400000Y-29100000D01*
X25705466Y-28700961D02*
X25999520Y-28406907D01*
X25891783Y-34300000D02*
X26250000Y-33941783D01*
X24725480Y-30731907D02*
X24725480Y-29274520D01*
X25925968Y-31225480D02*
X25219053Y-31225480D01*
X25299039Y-28700961D02*
X25705466Y-28700961D01*
X32846578Y-26069451D02*
X34400000Y-27622873D01*
X26630549Y-26069451D02*
X32846578Y-26069451D01*
X22860000Y-35560000D02*
X24120000Y-34300000D01*
X25999520Y-28406907D02*
X25999520Y-26700480D01*
X26250000Y-31549511D02*
X25925968Y-31225480D01*
X25219053Y-31225480D02*
X24725480Y-30731907D01*
X24120000Y-34300000D02*
X25891783Y-34300000D01*
X25999520Y-26700480D02*
X26630549Y-26069451D01*
X24725480Y-29274520D02*
X25299039Y-28700961D01*
X26250000Y-33941783D02*
X26250000Y-31549511D01*
G04 #@! TO.N,/ETH_CLK*
X28000000Y-44000000D02*
X28000000Y-44500000D01*
X31900000Y-30600000D02*
X33300000Y-30600000D01*
X31750000Y-30750000D02*
X31900000Y-30600000D01*
X28000000Y-44500000D02*
X28263556Y-44763556D01*
X28562500Y-44000000D02*
X28000000Y-44000000D01*
G04 #@! TO.N,/IO14*
X36800000Y-29800000D02*
X37000000Y-30000000D01*
X36800000Y-29100000D02*
X36800000Y-29800000D01*
G04 #@! TO.N,/VDD_SDIO*
X33300000Y-30200000D02*
X32200000Y-30200000D01*
X30400000Y-29225000D02*
X31850000Y-29225000D01*
X31850000Y-29850000D02*
X31850000Y-29225000D01*
X32200000Y-30200000D02*
X31850000Y-29850000D01*
G04 #@! TO.N,/IO12*
X25391504Y-29385608D02*
X25425000Y-29419104D01*
X25391504Y-29385608D02*
X27808496Y-29385608D01*
X25425000Y-30250000D02*
X25425000Y-29419104D01*
X36400000Y-29100000D02*
X36400000Y-29800000D01*
X36400000Y-29800000D02*
X36200000Y-30000000D01*
G04 #@! TO.N,/IO13*
X25900000Y-38100000D02*
X22860000Y-38100000D01*
X35600000Y-28000000D02*
X35600000Y-29100000D01*
X26202441Y-37800000D02*
X26200000Y-37800000D01*
X26200000Y-37800000D02*
X25900000Y-38100000D01*
X34500000Y-26900000D02*
X35600000Y-28000000D01*
G04 #@! TO.N,/AVDD10*
X29750000Y-44687500D02*
X29750000Y-45150000D01*
X28000000Y-46000000D02*
X27250000Y-46750000D01*
X27250000Y-46750000D02*
X26675000Y-46750000D01*
X28900000Y-46000000D02*
X28000000Y-46000000D01*
X29750000Y-45150000D02*
X28900000Y-46000000D01*
G04 #@! TO.N,/DVDD10*
X27525000Y-42500000D02*
X26775000Y-41750000D01*
X28500000Y-42500000D02*
X27525000Y-42500000D01*
G04 #@! TO.N,/RSET*
X28834994Y-45500000D02*
X28300000Y-45500000D01*
X28750000Y-45500000D02*
X28300000Y-45500000D01*
X29250000Y-44687500D02*
X29250000Y-45084994D01*
X29250000Y-45084994D02*
X28834994Y-45500000D01*
X28300000Y-45500000D02*
X27075000Y-45500000D01*
G04 #@! TO.N,/RXDV*
X35187500Y-45000000D02*
X33750000Y-45000000D01*
X33750000Y-45000000D02*
X33437500Y-44687500D01*
X35687500Y-44500000D02*
X35187500Y-45000000D01*
X33437500Y-44687500D02*
X32750000Y-44687500D01*
G04 #@! TO.N,/ETH_RST*
X30750000Y-39812500D02*
X30750000Y-37575000D01*
G04 #@! TO.N,/RTL_LED1*
X26256427Y-59750000D02*
X27500000Y-60993573D01*
X24359031Y-40705975D02*
X24359031Y-59359031D01*
X24750000Y-59750000D02*
X26256427Y-59750000D01*
X27250000Y-39750000D02*
X25315006Y-39750000D01*
X41500000Y-66000000D02*
X44500000Y-63000000D01*
X45000000Y-63575000D02*
X45000000Y-62325000D01*
X27500000Y-40000000D02*
X27250000Y-39750000D01*
X27500000Y-62750000D02*
X30750000Y-66000000D01*
X27500000Y-60993573D02*
X27500000Y-62750000D01*
X24359031Y-59359031D02*
X24750000Y-59750000D01*
X25315006Y-39750000D02*
X24359031Y-40705975D01*
X28500000Y-40500000D02*
X27750000Y-40500000D01*
X27750000Y-40500000D02*
X27500000Y-40250000D01*
X45000000Y-63000000D02*
X44500000Y-63000000D01*
X30750000Y-66000000D02*
X41500000Y-66000000D01*
X27500000Y-40250000D02*
X27500000Y-40000000D01*
G04 #@! TO.N,/RTL_LED0*
X27600000Y-39000000D02*
X29000000Y-39000000D01*
X26000000Y-62325000D02*
X25575000Y-62325000D01*
X25575000Y-62325000D02*
X23959511Y-60709511D01*
X23959511Y-60709511D02*
X23959512Y-40540488D01*
X29000000Y-39000000D02*
X29250000Y-39250000D01*
X29250000Y-39250000D02*
X29250000Y-39812500D01*
X25149520Y-39350480D02*
X27249520Y-39350480D01*
X26000000Y-63675000D02*
X26000000Y-62325000D01*
X27249520Y-39350480D02*
X27600000Y-39000000D01*
X23959512Y-40540488D02*
X25149520Y-39350480D01*
G04 #@! TO.N,/MDI0_P*
X29175000Y-46575000D02*
X29175000Y-47250000D01*
X30250000Y-45500000D02*
X29175000Y-46575000D01*
X29175000Y-47250000D02*
X28250000Y-47250000D01*
X30250000Y-44687500D02*
X30250000Y-45500000D01*
G04 #@! TO.N,/MDI0_N*
X30000000Y-47862500D02*
X29112500Y-48750000D01*
X30750000Y-44687500D02*
X30750000Y-45750000D01*
X30000000Y-46500000D02*
X30000000Y-47862500D01*
X30750000Y-45750000D02*
X30000000Y-46500000D01*
X29112500Y-48750000D02*
X28281222Y-48750000D01*
G04 #@! TO.N,/ETH_LED0*
X32200000Y-68200000D02*
X29325000Y-65325000D01*
X28935000Y-75807500D02*
X32200000Y-72542500D01*
X29325000Y-65325000D02*
X26000000Y-65325000D01*
X32200000Y-72542500D02*
X32200000Y-68200000D01*
G04 #@! TO.N,/ETH_LED1*
X38400000Y-72400000D02*
X38400000Y-69800000D01*
X39605000Y-73605000D02*
X38400000Y-72400000D01*
X38400000Y-69800000D02*
X42975000Y-65225000D01*
X42975000Y-65225000D02*
X45000000Y-65225000D01*
X39605000Y-74970000D02*
X39605000Y-73605000D01*
G04 #@! TO.N,/MDI1_P*
X33000000Y-47987500D02*
X33762500Y-48750000D01*
X32049040Y-46299040D02*
X32799040Y-46299040D01*
X33000000Y-46500000D02*
X33000000Y-47987500D01*
X33762500Y-48750000D02*
X34500000Y-48750000D01*
X32799040Y-46299040D02*
X33000000Y-46500000D01*
X31250000Y-45500000D02*
X32049040Y-46299040D01*
X31250000Y-44687500D02*
X31250000Y-45500000D01*
G04 #@! TO.N,/MDI1_N*
X33762500Y-46327506D02*
X33762500Y-47250000D01*
X33334514Y-45899520D02*
X33762500Y-46327506D01*
X31750000Y-44687500D02*
X31750000Y-45315006D01*
X33762500Y-47250000D02*
X34500000Y-47250000D01*
X31750000Y-45315006D02*
X32334514Y-45899520D01*
X32334514Y-45899520D02*
X33334514Y-45899520D01*
G04 #@! TO.N,/IO15*
X35200000Y-29768442D02*
X35058588Y-29909854D01*
X35200000Y-29100000D02*
X35200000Y-29768442D01*
X28936444Y-33813556D02*
X25199500Y-37550500D01*
X28936444Y-32036444D02*
X28936444Y-33813556D01*
X25199500Y-37550500D02*
X24400000Y-37550500D01*
G04 #@! TO.N,/IO2*
X34800000Y-28349500D02*
X34949500Y-28200000D01*
X34800000Y-29100000D02*
X34800000Y-28349500D01*
G04 #@! TO.N,/IO4*
X34000000Y-29100000D02*
X34000000Y-28200000D01*
X34000000Y-28200000D02*
X33800000Y-28000000D01*
G04 #@! TO.N,/IO16*
X33000000Y-27250000D02*
X33000000Y-27000000D01*
X25234994Y-38700000D02*
X26751941Y-38700000D01*
X32800000Y-29600000D02*
X32800000Y-27450000D01*
X33000000Y-29800000D02*
X32800000Y-29600000D01*
X32800000Y-27450000D02*
X32800000Y-27200000D01*
X23294994Y-40640000D02*
X25234994Y-38700000D01*
X32800000Y-27450000D02*
X33000000Y-27250000D01*
G04 #@! TO.N,/IO5*
X30600000Y-33400000D02*
X33300000Y-33400000D01*
X28750000Y-35250000D02*
X30600000Y-33400000D01*
G04 #@! TO.N,/IO37*
X40972384Y-32050489D02*
X40822873Y-32200000D01*
X42400000Y-32099000D02*
X41476127Y-32099000D01*
X41427616Y-32050489D02*
X40972384Y-32050489D01*
X40822873Y-32200000D02*
X39100000Y-32200000D01*
X41476127Y-32099000D02*
X41427616Y-32050489D01*
G04 #@! TO.N,/IO38*
X40600000Y-31800000D02*
X39100000Y-31800000D01*
X41800000Y-31549500D02*
X40850500Y-31549500D01*
X40850500Y-31549500D02*
X40600000Y-31800000D01*
G04 #@! TO.N,Net-(R22-Pad2)*
X34800000Y-36600000D02*
X35200000Y-36200000D01*
X40432322Y-27611687D02*
X40745635Y-27925000D01*
X35200000Y-36200000D02*
X35200000Y-34900000D01*
X34800000Y-36600000D02*
X34800000Y-36700000D01*
X34800000Y-36700000D02*
X34750000Y-36750000D01*
G04 #@! TO.N,/LAN_3P3V*
X27400000Y-43000000D02*
X26775000Y-43000000D01*
X26000000Y-47250000D02*
X26000000Y-44500000D01*
X30762500Y-47250000D02*
X30762500Y-48750000D01*
X26825000Y-50000000D02*
X28076167Y-50000000D01*
X27274520Y-47725480D02*
X26475480Y-47725480D01*
X34600000Y-46000000D02*
X35400000Y-46000000D01*
X36400000Y-43825000D02*
X36400000Y-46000000D01*
X31500000Y-48750000D02*
X31500000Y-49500000D01*
X33437500Y-41500000D02*
X35612500Y-41500000D01*
X31500000Y-48750000D02*
X30762500Y-48750000D01*
X32112500Y-47250000D02*
X32112500Y-48750000D01*
D44*
X31437500Y-47250000D02*
X32112500Y-47250000D01*
D42*
X26475480Y-47725480D02*
X26000000Y-47250000D01*
X28551647Y-49524520D02*
X28024520Y-49524520D01*
X31500000Y-49500000D02*
X31475480Y-49524520D01*
X28024520Y-49524520D02*
X27731722Y-49231722D01*
X27400000Y-43000000D02*
X27025000Y-43000000D01*
X35075480Y-49524520D02*
X35725000Y-48875000D01*
X35725000Y-48875000D02*
X35725000Y-46000000D01*
X35575000Y-43000000D02*
X36400000Y-43825000D01*
X32250000Y-45136973D02*
X32613027Y-45500000D01*
X35625000Y-41400000D02*
X35625000Y-42950000D01*
X27731722Y-48182682D02*
X27274520Y-47725480D01*
X32613027Y-45500000D02*
X34100000Y-45500000D01*
X32250000Y-44687500D02*
X32250000Y-45136973D01*
X35975000Y-46000000D02*
X36400000Y-46000000D01*
X27731722Y-49231722D02*
X27731722Y-48182682D01*
X34100000Y-45500000D02*
X34600000Y-46000000D01*
X28076167Y-50000000D02*
X28551647Y-49524520D01*
X32112500Y-48750000D02*
X31500000Y-48750000D01*
X28500000Y-43000000D02*
X27400000Y-43000000D01*
X31475480Y-49524520D02*
X35075480Y-49524520D01*
X28551647Y-49524520D02*
X31475480Y-49524520D01*
D44*
X31437500Y-47250000D02*
X30762500Y-47250000D01*
G04 #@! TO.N,/CAP2*
X43125000Y-36200000D02*
X43575000Y-35750000D01*
D42*
X45025000Y-37200000D02*
X43575000Y-35750000D01*
X45025000Y-37400000D02*
X45025000Y-37200000D01*
D44*
X38000000Y-35600000D02*
X38000000Y-35800000D01*
X38000000Y-35800000D02*
X38400000Y-36200000D01*
X38400000Y-36200000D02*
X43125000Y-36200000D01*
D42*
X38000000Y-34950000D02*
X38000000Y-35600000D01*
D44*
G04 #@! TO.N,Net-(C6-Pad1)*
X34175000Y-50600000D02*
X35575000Y-50600000D01*
G04 #@! TO.N,Net-(C20-Pad1)*
X34750000Y-53000000D02*
X34250000Y-53000000D01*
X34250000Y-53000000D02*
X33725000Y-52475000D01*
X35050000Y-53300000D02*
X34750000Y-53000000D01*
X35050000Y-53650000D02*
X35050000Y-53300000D01*
G04 #@! TO.N,Net-(R6-Pad2)*
X33582141Y-54582141D02*
X33400000Y-54400000D01*
X33625000Y-54575000D02*
X33617859Y-54582141D01*
X33617859Y-54582141D02*
X33582141Y-54582141D01*
X34125000Y-54575000D02*
X33625000Y-54575000D01*
X33400000Y-54400000D02*
X32225000Y-54400000D01*
G04 #@! TO.N,Net-(R7-Pad2)*
X34125000Y-56075000D02*
X33550000Y-56075000D01*
X33550000Y-56075000D02*
X32200000Y-57425000D01*
G04 #@! TO.N,Net-(R19-Pad2)*
X33685718Y-56575000D02*
X33025000Y-57235718D01*
X33025000Y-57235718D02*
X33025000Y-58800000D01*
X34125000Y-56575000D02*
X33685718Y-56575000D01*
G04 #@! TO.N,/VIN_NEG*
X33200000Y-55600000D02*
X33450000Y-55575000D01*
X33450000Y-55575000D02*
X34125000Y-55575000D01*
X37100000Y-52825000D02*
X37575000Y-52825000D01*
X37050000Y-52875000D02*
X37100000Y-52825000D01*
X37575000Y-52825000D02*
X38225000Y-52175000D01*
X37050000Y-53650000D02*
X37050000Y-52875000D01*
X38225000Y-52175000D02*
X39200000Y-52175000D01*
G04 #@! TO.N,/VSS*
X38800000Y-58000000D02*
X38800000Y-58775000D01*
X30537500Y-52462500D02*
X31250000Y-51750000D01*
X33200000Y-51400000D02*
X34575000Y-51400000D01*
X34630506Y-51483892D02*
X34630506Y-51555506D01*
X27600000Y-52462500D02*
X28462500Y-52462500D01*
X34575000Y-51400000D02*
X35375000Y-52200000D01*
X38925000Y-55075000D02*
X39200000Y-54800000D01*
X34630506Y-51555506D02*
X35275000Y-52200000D01*
X32625000Y-50825000D02*
X33200000Y-51400000D01*
X31250000Y-51750000D02*
X32000000Y-51750000D01*
X37975000Y-55075000D02*
X38925000Y-55075000D01*
X28462500Y-52462500D02*
X30537500Y-52462500D01*
X35550000Y-53650000D02*
X35550000Y-52375000D01*
X39200000Y-54800000D02*
X39200000Y-53825000D01*
G04 #@! TO.N,/SWO*
X37975000Y-55575000D02*
X40975000Y-55575000D01*
D43*
X41050000Y-53000000D02*
X41050000Y-57900000D01*
D44*
G04 #@! TO.N,/COMP*
X36050000Y-53650000D02*
X36050000Y-51775000D01*
X36050000Y-51775000D02*
X37225000Y-50600000D01*
D42*
G04 #@! TO.N,/FBH*
X37000000Y-49000000D02*
X38044642Y-50044642D01*
D44*
X36550000Y-52739282D02*
X38044642Y-51244642D01*
D42*
X36675000Y-47650000D02*
X36675000Y-49000000D01*
X36675000Y-49000000D02*
X37000000Y-49000000D01*
D44*
X36550000Y-53650000D02*
X36550000Y-52739282D01*
D42*
X38044642Y-50044642D02*
X38044642Y-51244642D01*
D43*
G04 #@! TO.N,Net-(C17-Pad1)*
X41700000Y-46112500D02*
X41700000Y-44575000D01*
G04 #@! TO.N,Net-(C17-Pad2)*
X43175000Y-42975000D02*
X41750000Y-42975000D01*
X41712500Y-48387500D02*
X43100000Y-47000000D01*
X43100000Y-47000000D02*
X43100000Y-44000000D01*
D42*
X42825000Y-43225000D02*
X43350000Y-43750000D01*
G04 #@! TO.N,Net-(R26-Pad1)*
X38675000Y-43000000D02*
X38675000Y-44250000D01*
X38675000Y-44425000D02*
X39800000Y-45550000D01*
D43*
G04 #@! TO.N,/12V*
X43824520Y-59675480D02*
X45075480Y-59675480D01*
D42*
X41000000Y-49500000D02*
X38825000Y-49500000D01*
D44*
X31725000Y-52775000D02*
X31250000Y-53250000D01*
D43*
X43850000Y-48800000D02*
X43850000Y-55750000D01*
D45*
X39960000Y-59810960D02*
X39824520Y-59675480D01*
D42*
X39800000Y-48387500D02*
X40750000Y-48387500D01*
D43*
X45150000Y-57050000D02*
X45150000Y-58000000D01*
D44*
X31250000Y-53250000D02*
X31250000Y-58675000D01*
D43*
X36125000Y-59425000D02*
X36375480Y-59675480D01*
X45075480Y-59675480D02*
X45875480Y-59675480D01*
X30600000Y-58800000D02*
X30000000Y-58800000D01*
D44*
X37225000Y-58800000D02*
X36125000Y-58800000D01*
D43*
X43850000Y-55750000D02*
X45150000Y-57050000D01*
D44*
X43850000Y-48800000D02*
X42625000Y-48800000D01*
D43*
X36375480Y-59675480D02*
X39824520Y-59675480D01*
D42*
X38825000Y-49500000D02*
X38325000Y-49000000D01*
D45*
X28837500Y-57637500D02*
X30000000Y-58800000D01*
D43*
X30600000Y-58800000D02*
X31375000Y-58800000D01*
D42*
X40750000Y-48387500D02*
X40750000Y-49250000D01*
D43*
X39824520Y-59675480D02*
X43824520Y-59675480D01*
D45*
X39960000Y-62000000D02*
X39960000Y-59810960D01*
D43*
X45150000Y-59600960D02*
X45075480Y-59675480D01*
D45*
X31375000Y-58800000D02*
X30000000Y-58800000D01*
D44*
X32200000Y-52775000D02*
X31725000Y-52775000D01*
D43*
X47100000Y-60900000D02*
X48200000Y-60900000D01*
D42*
X41925000Y-49500000D02*
X42625000Y-48800000D01*
D44*
X36050000Y-57500000D02*
X36050000Y-58725000D01*
D45*
X27600000Y-57637500D02*
X28837500Y-57637500D01*
D42*
X40750000Y-49250000D02*
X41000000Y-49500000D01*
X41000000Y-49500000D02*
X41925000Y-49500000D01*
D43*
X45875480Y-59675480D02*
X47100000Y-60900000D01*
X36125000Y-58800000D02*
X36125000Y-59425000D01*
X45150000Y-58000000D02*
X45150000Y-59600960D01*
D44*
G04 #@! TO.N,/POE_NEG*
X34125000Y-55075000D02*
X33475000Y-55075000D01*
X34125000Y-55075000D02*
X35550000Y-55075000D01*
D43*
X38600000Y-62600000D02*
X38600000Y-61200000D01*
D44*
X33475000Y-55075000D02*
X33400000Y-55000000D01*
X37975000Y-54575000D02*
X37050000Y-54575000D01*
X35550000Y-57500000D02*
X35550000Y-56075000D01*
D43*
X41230000Y-64540000D02*
X39890000Y-63200000D01*
X37675000Y-60275000D02*
X35275000Y-60275000D01*
X39200000Y-63200000D02*
X38600000Y-62600000D01*
D44*
X35050000Y-57500000D02*
X35050000Y-56575000D01*
X33400000Y-55000000D02*
X32975000Y-55000000D01*
X32975000Y-55000000D02*
X32200000Y-55775000D01*
D43*
X34575000Y-58800000D02*
X34575000Y-59575000D01*
D44*
X37050000Y-57500000D02*
X37050000Y-56575000D01*
D43*
X39890000Y-63200000D02*
X39200000Y-63200000D01*
D44*
X36550000Y-57500000D02*
X36550000Y-56075000D01*
X35050000Y-57500000D02*
X35050000Y-58325000D01*
X35050000Y-58325000D02*
X34575000Y-58800000D01*
D43*
X35275000Y-60275000D02*
X35050000Y-60050000D01*
X35050000Y-60050000D02*
X34900000Y-59900000D01*
X38600000Y-61200000D02*
X37675000Y-60275000D01*
X34575000Y-59575000D02*
X35050000Y-60050000D01*
D44*
X34900000Y-59900000D02*
X34575000Y-59575000D01*
G04 #@! TD*
G04 #@! TA.AperFunction,Conductor*
G04 #@! TO.N,/12V*
G36*
X44442393Y-48020002D02*
G01*
X44488886Y-48073658D01*
X44500272Y-48125727D01*
X44517308Y-56000000D01*
X44524925Y-56007751D01*
X44524925Y-56007752D01*
X45203750Y-56698532D01*
X45500000Y-57000000D01*
X46249801Y-57000000D01*
X46263344Y-57001307D01*
X46263874Y-57001493D01*
X46266235Y-57001586D01*
X46272433Y-57002184D01*
X46278097Y-57003975D01*
X46284768Y-57004500D01*
X46337938Y-57004500D01*
X46342883Y-57004597D01*
X46347401Y-57004774D01*
X46378947Y-57006014D01*
X46446230Y-57028675D01*
X46490580Y-57084115D01*
X46500000Y-57131917D01*
X46500000Y-59000000D01*
X47750000Y-60250000D01*
X49419500Y-60250000D01*
X49487621Y-60270002D01*
X49534114Y-60323658D01*
X49545500Y-60376000D01*
X49545500Y-61624000D01*
X49525498Y-61692121D01*
X49471842Y-61738614D01*
X49419500Y-61750000D01*
X46802190Y-61750000D01*
X46734069Y-61729998D01*
X46713095Y-61713095D01*
X45766405Y-60766405D01*
X45732379Y-60704093D01*
X45729500Y-60677310D01*
X45729499Y-60423654D01*
X45729499Y-60420686D01*
X45726493Y-60388873D01*
X45681209Y-60259924D01*
X45600010Y-60149990D01*
X45490076Y-60068791D01*
X45361127Y-60023507D01*
X45353485Y-60022785D01*
X45353482Y-60022784D01*
X45338579Y-60021376D01*
X45329315Y-60020500D01*
X45059052Y-60020500D01*
X45007287Y-60007287D01*
X45000000Y-60000000D01*
X44443736Y-60000000D01*
X44375615Y-59979998D01*
X44348285Y-59956250D01*
X44340918Y-59947700D01*
X44340914Y-59947697D01*
X44335056Y-59940898D01*
X44274423Y-59901598D01*
X44221324Y-59867180D01*
X44221322Y-59867179D01*
X44213790Y-59862297D01*
X44153861Y-59844374D01*
X44083938Y-59823462D01*
X44083936Y-59823462D01*
X44075337Y-59820890D01*
X44066363Y-59820835D01*
X44066361Y-59820835D01*
X44003082Y-59820449D01*
X43930827Y-59820008D01*
X43922196Y-59822475D01*
X43922194Y-59822475D01*
X43800509Y-59857252D01*
X43800505Y-59857254D01*
X43791879Y-59859719D01*
X43784292Y-59864506D01*
X43784290Y-59864507D01*
X43721766Y-59903957D01*
X43669661Y-59936833D01*
X43652513Y-59956250D01*
X43651491Y-59957407D01*
X43591405Y-59995226D01*
X43557049Y-60000000D01*
X38098102Y-60000000D01*
X38029981Y-59979998D01*
X37999151Y-59952004D01*
X37995473Y-59947338D01*
X37995471Y-59947336D01*
X37989641Y-59939941D01*
X37964762Y-59922746D01*
X37940906Y-59906258D01*
X37937713Y-59903976D01*
X37890076Y-59868791D01*
X37883203Y-59866377D01*
X37877211Y-59862236D01*
X37820722Y-59844371D01*
X37817001Y-59843129D01*
X37761126Y-59823507D01*
X37753922Y-59823224D01*
X37753751Y-59823191D01*
X37746903Y-59821025D01*
X37740232Y-59820500D01*
X37687062Y-59820500D01*
X37682116Y-59820403D01*
X37681224Y-59820368D01*
X37624563Y-59818142D01*
X37617408Y-59820039D01*
X37609033Y-59820500D01*
X35876000Y-59820500D01*
X35807879Y-59800498D01*
X35761386Y-59746842D01*
X35750000Y-59694500D01*
X35750000Y-58222431D01*
X35770002Y-58154310D01*
X35796969Y-58126252D01*
X35797129Y-58126177D01*
X35876177Y-58047129D01*
X35880837Y-58037136D01*
X35919348Y-57954549D01*
X35919349Y-57954546D01*
X35923422Y-57945811D01*
X35925078Y-57933232D01*
X35926493Y-57930034D01*
X35927377Y-57927000D01*
X35927783Y-57927118D01*
X35953800Y-57868305D01*
X36013065Y-57829213D01*
X36084057Y-57828368D01*
X36144235Y-57866038D01*
X36172140Y-57927141D01*
X36172623Y-57927000D01*
X36173588Y-57930311D01*
X36174922Y-57933232D01*
X36176578Y-57945811D01*
X36180651Y-57954546D01*
X36180652Y-57954549D01*
X36219163Y-58037136D01*
X36223823Y-58047129D01*
X36302871Y-58126177D01*
X36312863Y-58130836D01*
X36312864Y-58130837D01*
X36395451Y-58169348D01*
X36395454Y-58169349D01*
X36404189Y-58173422D01*
X36413746Y-58174680D01*
X36413749Y-58174681D01*
X36446269Y-58178962D01*
X36450356Y-58179500D01*
X36640296Y-58179500D01*
X36708417Y-58199502D01*
X36735239Y-58230456D01*
X36750000Y-58243247D01*
X36750000Y-58250000D01*
X37624000Y-58250000D01*
X37692121Y-58270002D01*
X37738614Y-58323658D01*
X37750000Y-58376000D01*
X37750000Y-59250000D01*
X38037597Y-59250000D01*
X38105718Y-59270002D01*
X38138423Y-59300435D01*
X38202074Y-59385364D01*
X38202077Y-59385367D01*
X38207456Y-59392544D01*
X38214633Y-59397923D01*
X38310183Y-59469535D01*
X38310186Y-59469537D01*
X38317365Y-59474917D01*
X38325769Y-59478067D01*
X38325770Y-59478068D01*
X38438581Y-59520358D01*
X38438582Y-59520358D01*
X38445976Y-59523130D01*
X38453826Y-59523983D01*
X38453827Y-59523983D01*
X38501205Y-59529130D01*
X38504611Y-59529500D01*
X38774920Y-59529500D01*
X39045388Y-59529499D01*
X39048782Y-59529130D01*
X39048788Y-59529130D01*
X39096166Y-59523984D01*
X39096170Y-59523983D01*
X39104024Y-59523130D01*
X39196665Y-59488401D01*
X39224230Y-59478068D01*
X39224231Y-59478067D01*
X39232635Y-59474917D01*
X39239814Y-59469537D01*
X39239817Y-59469535D01*
X39335367Y-59397923D01*
X39342544Y-59392544D01*
X39347923Y-59385367D01*
X39347926Y-59385364D01*
X39411577Y-59300435D01*
X39468436Y-59257920D01*
X39512403Y-59250000D01*
X43000000Y-59250000D01*
X43000000Y-49750000D01*
X38303529Y-49750000D01*
X38235408Y-49729998D01*
X38214434Y-49713095D01*
X38036905Y-49535566D01*
X38002879Y-49473254D01*
X38000000Y-49446471D01*
X38000000Y-48505500D01*
X38020002Y-48437379D01*
X38073658Y-48390886D01*
X38126000Y-48379500D01*
X38553413Y-48379499D01*
X38579314Y-48379499D01*
X38582262Y-48379220D01*
X38582271Y-48379220D01*
X38603478Y-48377216D01*
X38603480Y-48377216D01*
X38611127Y-48376493D01*
X38740076Y-48331209D01*
X38763780Y-48313701D01*
X38816653Y-48274649D01*
X38883331Y-48250266D01*
X38891512Y-48250000D01*
X41019500Y-48250000D01*
X41087621Y-48270002D01*
X41134114Y-48323658D01*
X41145500Y-48376000D01*
X41145500Y-48931834D01*
X41160502Y-49026555D01*
X41218674Y-49140723D01*
X41309277Y-49231326D01*
X41423445Y-49289498D01*
X41518166Y-49304500D01*
X41881834Y-49304500D01*
X41976555Y-49289498D01*
X42090723Y-49231326D01*
X42181326Y-49140723D01*
X42239498Y-49026555D01*
X42254500Y-48931834D01*
X42254500Y-48540450D01*
X42274502Y-48472329D01*
X42291405Y-48451355D01*
X42705855Y-48036905D01*
X42768167Y-48002879D01*
X42794950Y-48000000D01*
X44374272Y-48000000D01*
X44442393Y-48020002D01*
G37*
G04 #@! TD.AperFunction*
G04 #@! TD*
G04 #@! TA.AperFunction,Conductor*
G04 #@! TO.N,/SWO*
G36*
X42692121Y-50020002D02*
G01*
X42738614Y-50073658D01*
X42750000Y-50126000D01*
X42750000Y-58874000D01*
X42729998Y-58942121D01*
X42676342Y-58988614D01*
X42624000Y-59000000D01*
X39626000Y-59000000D01*
X39557879Y-58979998D01*
X39511386Y-58926342D01*
X39500000Y-58874000D01*
X39500000Y-56000000D01*
X38761713Y-56000000D01*
X38693592Y-55979998D01*
X38647518Y-55927250D01*
X38605837Y-55837864D01*
X38605836Y-55837863D01*
X38601177Y-55827871D01*
X38522129Y-55748823D01*
X38512136Y-55744163D01*
X38429544Y-55705650D01*
X38429543Y-55705650D01*
X38420811Y-55701578D01*
X38413952Y-55700675D01*
X38355386Y-55663202D01*
X38325764Y-55598680D01*
X38335728Y-55528386D01*
X38382115Y-55474638D01*
X38450446Y-55454500D01*
X38871080Y-55454500D01*
X38895028Y-55457049D01*
X38896693Y-55457128D01*
X38906876Y-55459320D01*
X38917217Y-55458096D01*
X38940223Y-55455373D01*
X38946154Y-55455023D01*
X38946146Y-55454928D01*
X38951324Y-55454500D01*
X38956524Y-55454500D01*
X38961653Y-55453646D01*
X38961656Y-55453646D01*
X38975565Y-55451331D01*
X38981443Y-55450494D01*
X39022001Y-55445694D01*
X39022002Y-55445694D01*
X39032341Y-55444470D01*
X39040593Y-55440507D01*
X39049626Y-55439004D01*
X39058795Y-55434057D01*
X39058797Y-55434056D01*
X39094732Y-55414666D01*
X39100025Y-55411969D01*
X39139082Y-55393215D01*
X39139086Y-55393212D01*
X39146232Y-55389781D01*
X39150508Y-55386186D01*
X39152431Y-55384263D01*
X39154363Y-55382491D01*
X39154442Y-55382448D01*
X39154555Y-55382572D01*
X39155095Y-55382096D01*
X39160814Y-55379010D01*
X39197417Y-55339413D01*
X39200846Y-55335848D01*
X39249789Y-55286905D01*
X39312101Y-55252879D01*
X39338884Y-55250000D01*
X40000000Y-55250000D01*
X40000000Y-50126000D01*
X40020002Y-50057879D01*
X40073658Y-50011386D01*
X40126000Y-50000000D01*
X42624000Y-50000000D01*
X42692121Y-50020002D01*
G37*
G04 #@! TD.AperFunction*
G04 #@! TD*
G04 #@! TA.AperFunction,Conductor*
G04 #@! TO.N,GND*
G36*
X45627671Y-29074502D02*
G01*
X45648645Y-29091405D01*
X45708595Y-29151355D01*
X45742621Y-29213667D01*
X45745500Y-29240450D01*
X45745500Y-35765544D01*
X45744627Y-35780353D01*
X45740593Y-35814438D01*
X45742285Y-35823702D01*
X45742285Y-35823705D01*
X45751229Y-35872680D01*
X45751878Y-35876582D01*
X45759284Y-35925836D01*
X45760685Y-35935151D01*
X45763838Y-35941718D01*
X45765147Y-35948883D01*
X45792462Y-36001467D01*
X45794205Y-36004957D01*
X45819846Y-36058353D01*
X45824741Y-36063648D01*
X45824834Y-36063787D01*
X45828148Y-36070166D01*
X45832494Y-36075254D01*
X45870076Y-36112836D01*
X45873506Y-36116401D01*
X45912617Y-36158712D01*
X45919017Y-36162430D01*
X45925277Y-36168037D01*
X45963095Y-36205855D01*
X45997121Y-36268167D01*
X46000000Y-36294950D01*
X46000000Y-40064521D01*
X45979998Y-40132642D01*
X45963882Y-40152640D01*
X45957456Y-40157456D01*
X45952074Y-40164637D01*
X45952073Y-40164638D01*
X45880465Y-40260183D01*
X45880463Y-40260186D01*
X45875083Y-40267365D01*
X45826870Y-40395976D01*
X45820500Y-40454611D01*
X45820501Y-41045388D01*
X45820870Y-41048782D01*
X45820870Y-41048788D01*
X45826870Y-41104024D01*
X45825215Y-41104204D01*
X45822005Y-41165746D01*
X45780563Y-41223392D01*
X45714534Y-41249482D01*
X45703122Y-41250000D01*
X44750000Y-41250000D01*
X44750000Y-44144462D01*
X44729334Y-44213563D01*
X44723499Y-44220170D01*
X44719685Y-44228293D01*
X44719684Y-44228295D01*
X44690024Y-44291469D01*
X44662083Y-44350982D01*
X44639850Y-44493773D01*
X44658588Y-44637065D01*
X44716789Y-44769339D01*
X44722563Y-44776208D01*
X44727309Y-44783833D01*
X44725414Y-44785012D01*
X44748971Y-44838705D01*
X44750000Y-44854771D01*
X44750000Y-45750000D01*
X45250000Y-46000000D01*
X46874000Y-46000000D01*
X46942121Y-46020002D01*
X46988614Y-46073658D01*
X47000000Y-46126000D01*
X47000000Y-57100000D01*
X47412232Y-57457267D01*
X47736309Y-57738135D01*
X47736310Y-57738136D01*
X47750000Y-57750000D01*
X49419500Y-57750000D01*
X49487621Y-57770002D01*
X49534114Y-57823658D01*
X49545500Y-57876000D01*
X49545500Y-58874000D01*
X49525498Y-58942121D01*
X49471842Y-58988614D01*
X49419500Y-59000000D01*
X47313000Y-59000000D01*
X47244879Y-58979998D01*
X47212200Y-58949600D01*
X46679700Y-58239599D01*
X46654829Y-58173101D01*
X46654500Y-58163999D01*
X46654499Y-57081123D01*
X46654499Y-57074934D01*
X46639734Y-57000699D01*
X46583484Y-56916516D01*
X46499301Y-56860266D01*
X46425067Y-56845500D01*
X45647690Y-56845500D01*
X45579569Y-56825498D01*
X45558595Y-56808595D01*
X44786905Y-56036905D01*
X44752879Y-55974593D01*
X44750000Y-55947810D01*
X44750000Y-48000000D01*
X44251890Y-47637738D01*
X44208563Y-47581495D01*
X44200000Y-47535837D01*
X44200000Y-45660100D01*
X44202421Y-45635519D01*
X44203293Y-45631135D01*
X44204500Y-45625067D01*
X44204499Y-41874934D01*
X44202421Y-41864486D01*
X44200000Y-41839907D01*
X44200000Y-41238149D01*
X44221162Y-41168257D01*
X44489652Y-40765523D01*
X44489653Y-40765521D01*
X44500000Y-40750000D01*
X44500000Y-38446879D01*
X44520002Y-38378758D01*
X44573658Y-38332265D01*
X44643541Y-38322217D01*
X44645976Y-38323130D01*
X44704611Y-38329500D01*
X44999956Y-38329500D01*
X45295388Y-38329499D01*
X45298782Y-38329130D01*
X45298788Y-38329130D01*
X45346166Y-38323984D01*
X45346170Y-38323983D01*
X45354024Y-38323130D01*
X45482635Y-38274917D01*
X45489814Y-38269537D01*
X45489817Y-38269535D01*
X45585367Y-38197923D01*
X45592544Y-38192544D01*
X45661903Y-38100000D01*
X45669535Y-38089817D01*
X45669537Y-38089814D01*
X45674917Y-38082635D01*
X45723130Y-37954024D01*
X45729500Y-37895389D01*
X45729499Y-37354612D01*
X45723130Y-37295976D01*
X45674917Y-37167365D01*
X45669537Y-37160186D01*
X45669535Y-37160183D01*
X45597923Y-37064633D01*
X45592544Y-37057456D01*
X45585367Y-37052077D01*
X45489817Y-36980465D01*
X45489814Y-36980463D01*
X45482635Y-36975083D01*
X45474230Y-36971932D01*
X45361419Y-36929642D01*
X45361418Y-36929642D01*
X45354024Y-36926870D01*
X45346174Y-36926017D01*
X45346173Y-36926017D01*
X45298770Y-36920867D01*
X45298764Y-36920867D01*
X45295389Y-36920500D01*
X45292353Y-36920500D01*
X45225479Y-36896864D01*
X45210142Y-36883803D01*
X44536905Y-36210566D01*
X44502879Y-36148254D01*
X44500000Y-36121471D01*
X44500000Y-29180500D01*
X44520002Y-29112379D01*
X44573658Y-29065886D01*
X44626000Y-29054500D01*
X45559550Y-29054500D01*
X45627671Y-29074502D01*
G37*
G04 #@! TD.AperFunction*
G04 #@! TD*
G04 #@! TA.AperFunction,Conductor*
G04 #@! TO.N,+3V3*
G36*
X46215931Y-28220002D02*
G01*
X46236905Y-28236905D01*
X46963095Y-28963095D01*
X46997121Y-29025407D01*
X47000000Y-29052190D01*
X47000000Y-45624000D01*
X46979998Y-45692121D01*
X46926342Y-45738614D01*
X46874000Y-45750000D01*
X45194950Y-45750000D01*
X45126829Y-45729998D01*
X45105855Y-45713095D01*
X45036905Y-45644145D01*
X45002879Y-45581833D01*
X45000000Y-45555050D01*
X45000000Y-41626000D01*
X45020002Y-41557879D01*
X45073658Y-41511386D01*
X45126000Y-41500000D01*
X46250000Y-41500000D01*
X46250000Y-38598648D01*
X46270002Y-38530527D01*
X46274649Y-38523789D01*
X46275135Y-38523131D01*
X46275138Y-38523126D01*
X46280729Y-38515556D01*
X46283143Y-38508683D01*
X46287284Y-38502691D01*
X46305149Y-38446202D01*
X46306400Y-38442453D01*
X46320325Y-38402802D01*
X46326013Y-38386606D01*
X46326296Y-38379402D01*
X46326329Y-38379231D01*
X46328495Y-38372383D01*
X46329020Y-38365712D01*
X46329020Y-38312542D01*
X46329117Y-38307596D01*
X46330401Y-38274917D01*
X46331378Y-38250043D01*
X46329481Y-38242888D01*
X46329020Y-38234513D01*
X46329020Y-36433976D01*
X46329893Y-36419167D01*
X46332820Y-36394435D01*
X46333927Y-36385082D01*
X46323381Y-36327334D01*
X46323291Y-36326840D01*
X46322642Y-36322938D01*
X46315236Y-36273684D01*
X46315235Y-36273681D01*
X46313835Y-36264369D01*
X46310682Y-36257802D01*
X46309373Y-36250637D01*
X46282058Y-36198053D01*
X46280308Y-36194550D01*
X46262417Y-36157292D01*
X46250000Y-36102750D01*
X46250000Y-29000000D01*
X46236571Y-28995117D01*
X46236570Y-28995116D01*
X45973460Y-28899440D01*
X45700000Y-28800000D01*
X45466991Y-28800000D01*
X45417261Y-28789067D01*
X45413790Y-28786817D01*
X45405193Y-28784246D01*
X45405191Y-28784245D01*
X45283938Y-28747982D01*
X45283936Y-28747982D01*
X45275337Y-28745410D01*
X45266363Y-28745355D01*
X45266361Y-28745355D01*
X45203082Y-28744969D01*
X45130827Y-28744528D01*
X45122196Y-28746995D01*
X45122194Y-28746995D01*
X45000510Y-28781772D01*
X45000508Y-28781773D01*
X44991879Y-28784239D01*
X44984302Y-28789020D01*
X44932864Y-28800000D01*
X43824190Y-28800000D01*
X43756069Y-28779998D01*
X43709576Y-28726342D01*
X43699472Y-28656068D01*
X43728966Y-28591488D01*
X43735095Y-28584905D01*
X44083095Y-28236905D01*
X44145407Y-28202879D01*
X44172190Y-28200000D01*
X46147810Y-28200000D01*
X46215931Y-28220002D01*
G37*
G04 #@! TD.AperFunction*
G04 #@! TD*
M02*
