G04 #@! TF.GenerationSoftware,KiCad,Pcbnew,(6.0.4)*
G04 #@! TF.CreationDate,2022-10-30T16:37:21+13:00*
G04 #@! TF.ProjectId,LAN-Module,4c414e2d-4d6f-4647-956c-652e6b696361,rev?*
G04 #@! TF.SameCoordinates,Original*
G04 #@! TF.FileFunction,Legend,Bot*
G04 #@! TF.FilePolarity,Positive*
%FSLAX46Y46*%
G04 Gerber Fmt 4.6, Leading zero omitted, Abs format (unit mm)*
G04 Created by KiCad (PCBNEW (6.0.4)) date 2022-10-30 16:37:21*
%MOMM*%
%LPD*%
G01*
G04 APERTURE LIST*
G04 Aperture macros list*
%AMRoundRect*
0 Rectangle with rounded corners*
0 $1 Rounding radius*
0 $2 $3 $4 $5 $6 $7 $8 $9 X,Y pos of 4 corners*
0 Add a 4 corners polygon primitive as box body*
4,1,4,$2,$3,$4,$5,$6,$7,$8,$9,$2,$3,0*
0 Add four circle primitives for the rounded corners*
1,1,$1+$1,$2,$3*
1,1,$1+$1,$4,$5*
1,1,$1+$1,$6,$7*
1,1,$1+$1,$8,$9*
0 Add four rect primitives between the rounded corners*
20,1,$1+$1,$2,$3,$4,$5,0*
20,1,$1+$1,$4,$5,$6,$7,0*
20,1,$1+$1,$6,$7,$8,$9,0*
20,1,$1+$1,$8,$9,$2,$3,0*%
G04 Aperture macros list end*
%ADD10C,2.500000*%
%ADD11C,1.500000*%
%ADD12RoundRect,0.250500X-0.499500X-0.499500X0.499500X-0.499500X0.499500X0.499500X-0.499500X0.499500X0*%
%ADD13C,3.250000*%
%ADD14R,1.651000X1.600000*%
%ADD15C,1.600000*%
G04 APERTURE END LIST*
%LPC*%
D10*
G04 #@! TO.C,J2*
X43305000Y-67857500D03*
X27815000Y-67857500D03*
D11*
X42185000Y-75807500D03*
X39645000Y-75807500D03*
X31475000Y-75807500D03*
X28935000Y-75807500D03*
X40000000Y-62007500D03*
X38740000Y-64547500D03*
X37460000Y-62007500D03*
X36200000Y-64547500D03*
X34920000Y-62007500D03*
X33660000Y-64547500D03*
X32380000Y-62007500D03*
D12*
X31120000Y-64547500D03*
D13*
X41275000Y-70907500D03*
X29845000Y-70907500D03*
G04 #@! TD*
D14*
G04 #@! TO.C,J20*
X49085500Y-38100000D03*
D15*
X48260000Y-38100000D03*
X49911000Y-38100000D03*
G04 #@! TD*
G04 #@! TO.C,J10*
X22860000Y-48260000D03*
X21209000Y-48260000D03*
D14*
X22034500Y-48260000D03*
G04 #@! TD*
G04 #@! TO.C,J23*
X49085500Y-45720000D03*
D15*
X49911000Y-45720000D03*
X48260000Y-45720000D03*
G04 #@! TD*
G04 #@! TO.C,J4*
X22860000Y-33020000D03*
X21209000Y-33020000D03*
D14*
X22034500Y-33020000D03*
G04 #@! TD*
G04 #@! TO.C,J7*
X22034500Y-40640000D03*
D15*
X22860000Y-40640000D03*
X21209000Y-40640000D03*
G04 #@! TD*
D14*
G04 #@! TO.C,J25*
X49085500Y-50800000D03*
D15*
X48260000Y-50800000D03*
X49911000Y-50800000D03*
G04 #@! TD*
D14*
G04 #@! TO.C,J27*
X49085500Y-58420000D03*
D15*
X48260000Y-58420000D03*
X49911000Y-58420000D03*
G04 #@! TD*
D14*
G04 #@! TO.C,J8*
X22034500Y-43180000D03*
D15*
X22860000Y-43180000D03*
X21209000Y-43180000D03*
G04 #@! TD*
D14*
G04 #@! TO.C,J17*
X49085500Y-30480000D03*
D15*
X48260000Y-30480000D03*
X49911000Y-30480000D03*
G04 #@! TD*
G04 #@! TO.C,J26*
X48260000Y-53340000D03*
D14*
X49085500Y-53340000D03*
D15*
X49911000Y-53340000D03*
G04 #@! TD*
G04 #@! TO.C,J14*
X22860000Y-58420000D03*
X21209000Y-58420000D03*
D14*
X22034500Y-58420000D03*
G04 #@! TD*
G04 #@! TO.C,J19*
X49085500Y-35560000D03*
D15*
X49911000Y-35560000D03*
X48260000Y-35560000D03*
G04 #@! TD*
G04 #@! TO.C,J12*
X21209000Y-53340000D03*
X22860000Y-53340000D03*
D14*
X22034500Y-53340000D03*
G04 #@! TD*
G04 #@! TO.C,J22*
X49085500Y-43180000D03*
D15*
X49911000Y-43180000D03*
X48260000Y-43180000D03*
G04 #@! TD*
G04 #@! TO.C,J3*
X22860000Y-30480000D03*
D14*
X22034500Y-30480000D03*
D15*
X21209000Y-30480000D03*
G04 #@! TD*
G04 #@! TO.C,J16*
X21209000Y-60960000D03*
D14*
X22034500Y-60960000D03*
D15*
X22860000Y-60960000D03*
G04 #@! TD*
G04 #@! TO.C,J24*
X48260000Y-48260000D03*
X49911000Y-48260000D03*
D14*
X49085500Y-48260000D03*
G04 #@! TD*
D15*
G04 #@! TO.C,J13*
X22860000Y-55880000D03*
D14*
X22034500Y-55880000D03*
D15*
X21209000Y-55880000D03*
G04 #@! TD*
G04 #@! TO.C,J5*
X21209000Y-35560000D03*
X22860000Y-35560000D03*
D14*
X22034500Y-35560000D03*
G04 #@! TD*
D15*
G04 #@! TO.C,J28*
X48260000Y-60960000D03*
X49911000Y-60960000D03*
D14*
X49085500Y-60960000D03*
G04 #@! TD*
D15*
G04 #@! TO.C,J21*
X48260000Y-40640000D03*
D14*
X49085500Y-40640000D03*
D15*
X49911000Y-40640000D03*
G04 #@! TD*
D14*
G04 #@! TO.C,J15*
X49085500Y-55880000D03*
D15*
X48260000Y-55880000D03*
X49911000Y-55880000D03*
G04 #@! TD*
D14*
G04 #@! TO.C,J6*
X22034500Y-38100000D03*
D15*
X21209000Y-38100000D03*
X22860000Y-38100000D03*
G04 #@! TD*
G04 #@! TO.C,J18*
X48260000Y-33020000D03*
X49911000Y-33020000D03*
D14*
X49085500Y-33020000D03*
G04 #@! TD*
D15*
G04 #@! TO.C,J9*
X22860000Y-45720000D03*
D14*
X22034500Y-45720000D03*
D15*
X21209000Y-45720000D03*
G04 #@! TD*
G04 #@! TO.C,J11*
X22860000Y-50800000D03*
X21209000Y-50800000D03*
D14*
X22034500Y-50800000D03*
G04 #@! TD*
M02*
