G04 #@! TF.GenerationSoftware,KiCad,Pcbnew,(6.0.9)*
G04 #@! TF.CreationDate,2022-11-21T00:29:48+13:00*
G04 #@! TF.ProjectId,LAN-Module-PoE,4c414e2d-4d6f-4647-956c-652d506f452e,rev?*
G04 #@! TF.SameCoordinates,Original*
G04 #@! TF.FileFunction,Copper,L1,Top*
G04 #@! TF.FilePolarity,Positive*
%FSLAX46Y46*%
G04 Gerber Fmt 4.6, Leading zero omitted, Abs format (unit mm)*
G04 Created by KiCad (PCBNEW (6.0.9)) date 2022-11-21 00:29:48*
%MOMM*%
%LPD*%
G01*
G04 APERTURE LIST*
G04 Aperture macros list*
%AMRoundRect*
0 Rectangle with rounded corners*
0 $1 Rounding radius*
0 $2 $3 $4 $5 $6 $7 $8 $9 X,Y pos of 4 corners*
0 Add a 4 corners polygon primitive as box body*
4,1,4,$2,$3,$4,$5,$6,$7,$8,$9,$2,$3,0*
0 Add four circle primitives for the rounded corners*
1,1,$1+$1,$2,$3*
1,1,$1+$1,$4,$5*
1,1,$1+$1,$6,$7*
1,1,$1+$1,$8,$9*
0 Add four rect primitives between the rounded corners*
20,1,$1+$1,$2,$3,$4,$5,0*
20,1,$1+$1,$4,$5,$6,$7,0*
20,1,$1+$1,$6,$7,$8,$9,0*
20,1,$1+$1,$8,$9,$2,$3,0*%
G04 Aperture macros list end*
G04 #@! TA.AperFunction,SMDPad,CuDef*
%ADD10RoundRect,0.250000X0.475000X-0.250000X0.475000X0.250000X-0.475000X0.250000X-0.475000X-0.250000X0*%
G04 #@! TD*
G04 #@! TA.AperFunction,SMDPad,CuDef*
%ADD11R,1.600000X5.700000*%
G04 #@! TD*
G04 #@! TA.AperFunction,SMDPad,CuDef*
%ADD12R,3.100000X7.700000*%
G04 #@! TD*
G04 #@! TA.AperFunction,SMDPad,CuDef*
%ADD13RoundRect,0.225000X0.225000X0.250000X-0.225000X0.250000X-0.225000X-0.250000X0.225000X-0.250000X0*%
G04 #@! TD*
G04 #@! TA.AperFunction,SMDPad,CuDef*
%ADD14RoundRect,0.062500X-0.062500X0.362500X-0.062500X-0.362500X0.062500X-0.362500X0.062500X0.362500X0*%
G04 #@! TD*
G04 #@! TA.AperFunction,SMDPad,CuDef*
%ADD15RoundRect,0.062500X-0.362500X0.062500X-0.362500X-0.062500X0.362500X-0.062500X0.362500X0.062500X0*%
G04 #@! TD*
G04 #@! TA.AperFunction,SMDPad,CuDef*
%ADD16R,2.600000X2.600000*%
G04 #@! TD*
G04 #@! TA.AperFunction,SMDPad,CuDef*
%ADD17RoundRect,0.200000X0.200000X0.275000X-0.200000X0.275000X-0.200000X-0.275000X0.200000X-0.275000X0*%
G04 #@! TD*
G04 #@! TA.AperFunction,ComponentPad*
%ADD18C,1.600000*%
G04 #@! TD*
G04 #@! TA.AperFunction,SMDPad,CuDef*
%ADD19R,0.900000X1.200000*%
G04 #@! TD*
G04 #@! TA.AperFunction,SMDPad,CuDef*
%ADD20RoundRect,0.150000X-0.512500X-0.150000X0.512500X-0.150000X0.512500X0.150000X-0.512500X0.150000X0*%
G04 #@! TD*
G04 #@! TA.AperFunction,SMDPad,CuDef*
%ADD21RoundRect,0.200000X-0.200000X-0.275000X0.200000X-0.275000X0.200000X0.275000X-0.200000X0.275000X0*%
G04 #@! TD*
G04 #@! TA.AperFunction,SMDPad,CuDef*
%ADD22RoundRect,0.250000X0.450000X-0.262500X0.450000X0.262500X-0.450000X0.262500X-0.450000X-0.262500X0*%
G04 #@! TD*
G04 #@! TA.AperFunction,SMDPad,CuDef*
%ADD23RoundRect,0.225000X0.250000X-0.225000X0.250000X0.225000X-0.250000X0.225000X-0.250000X-0.225000X0*%
G04 #@! TD*
G04 #@! TA.AperFunction,SMDPad,CuDef*
%ADD24RoundRect,0.200000X-0.275000X0.200000X-0.275000X-0.200000X0.275000X-0.200000X0.275000X0.200000X0*%
G04 #@! TD*
G04 #@! TA.AperFunction,SMDPad,CuDef*
%ADD25RoundRect,0.225000X-0.225000X-0.250000X0.225000X-0.250000X0.225000X0.250000X-0.225000X0.250000X0*%
G04 #@! TD*
G04 #@! TA.AperFunction,SMDPad,CuDef*
%ADD26RoundRect,0.200000X0.275000X-0.200000X0.275000X0.200000X-0.275000X0.200000X-0.275000X-0.200000X0*%
G04 #@! TD*
G04 #@! TA.AperFunction,SMDPad,CuDef*
%ADD27R,1.200000X3.700000*%
G04 #@! TD*
G04 #@! TA.AperFunction,SMDPad,CuDef*
%ADD28RoundRect,0.225000X-0.250000X0.225000X-0.250000X-0.225000X0.250000X-0.225000X0.250000X0.225000X0*%
G04 #@! TD*
G04 #@! TA.AperFunction,SMDPad,CuDef*
%ADD29R,2.500000X1.800000*%
G04 #@! TD*
G04 #@! TA.AperFunction,SMDPad,CuDef*
%ADD30RoundRect,0.062500X0.062500X-0.375000X0.062500X0.375000X-0.062500X0.375000X-0.062500X-0.375000X0*%
G04 #@! TD*
G04 #@! TA.AperFunction,SMDPad,CuDef*
%ADD31RoundRect,0.062500X0.375000X-0.062500X0.375000X0.062500X-0.375000X0.062500X-0.375000X-0.062500X0*%
G04 #@! TD*
G04 #@! TA.AperFunction,SMDPad,CuDef*
%ADD32R,3.100000X3.100000*%
G04 #@! TD*
G04 #@! TA.AperFunction,SMDPad,CuDef*
%ADD33RoundRect,0.200000X0.200000X0.800000X-0.200000X0.800000X-0.200000X-0.800000X0.200000X-0.800000X0*%
G04 #@! TD*
G04 #@! TA.AperFunction,SMDPad,CuDef*
%ADD34C,1.000000*%
G04 #@! TD*
G04 #@! TA.AperFunction,SMDPad,CuDef*
%ADD35RoundRect,0.218750X-0.256250X0.218750X-0.256250X-0.218750X0.256250X-0.218750X0.256250X0.218750X0*%
G04 #@! TD*
G04 #@! TA.AperFunction,SMDPad,CuDef*
%ADD36RoundRect,0.250000X1.412500X0.550000X-1.412500X0.550000X-1.412500X-0.550000X1.412500X-0.550000X0*%
G04 #@! TD*
G04 #@! TA.AperFunction,ComponentPad*
%ADD37R,1.500000X1.500000*%
G04 #@! TD*
G04 #@! TA.AperFunction,ComponentPad*
%ADD38C,1.500000*%
G04 #@! TD*
G04 #@! TA.AperFunction,ComponentPad*
%ADD39C,2.200000*%
G04 #@! TD*
G04 #@! TA.AperFunction,SMDPad,CuDef*
%ADD40RoundRect,0.050000X0.350000X0.050000X-0.350000X0.050000X-0.350000X-0.050000X0.350000X-0.050000X0*%
G04 #@! TD*
G04 #@! TA.AperFunction,SMDPad,CuDef*
%ADD41RoundRect,0.050000X0.050000X0.350000X-0.050000X0.350000X-0.050000X-0.350000X0.050000X-0.350000X0*%
G04 #@! TD*
G04 #@! TA.AperFunction,ComponentPad*
%ADD42C,0.500000*%
G04 #@! TD*
G04 #@! TA.AperFunction,SMDPad,CuDef*
%ADD43R,3.700000X3.700000*%
G04 #@! TD*
G04 #@! TA.AperFunction,SMDPad,CuDef*
%ADD44R,1.400000X1.200000*%
G04 #@! TD*
G04 #@! TA.AperFunction,ViaPad*
%ADD45C,0.500000*%
G04 #@! TD*
G04 #@! TA.AperFunction,Conductor*
%ADD46C,0.400000*%
G04 #@! TD*
G04 #@! TA.AperFunction,Conductor*
%ADD47C,0.250000*%
G04 #@! TD*
G04 #@! TA.AperFunction,Conductor*
%ADD48C,0.800000*%
G04 #@! TD*
G04 #@! TA.AperFunction,Conductor*
%ADD49C,0.200000*%
G04 #@! TD*
G04 APERTURE END LIST*
G04 #@! TO.C,LOGO1*
G36*
X30667123Y-88191000D02*
G01*
X30764123Y-88250000D01*
X30864123Y-88332000D01*
X30997123Y-88492000D01*
X31075123Y-88668000D01*
X31098123Y-88862000D01*
X31068123Y-89075000D01*
X30983123Y-89310000D01*
X30875123Y-89512000D01*
X30748123Y-89684000D01*
X30601123Y-89826000D01*
X30430123Y-89942000D01*
X30235123Y-90033000D01*
X30007123Y-90096000D01*
X29803123Y-90105000D01*
X29635123Y-90062000D01*
X29513123Y-89968000D01*
X29454123Y-89822000D01*
X29427123Y-89602000D01*
X29431123Y-89346000D01*
X29465123Y-89095000D01*
X29530123Y-88886000D01*
X29616123Y-88735000D01*
X29735123Y-88580000D01*
X29876123Y-88433000D01*
X30025123Y-88307000D01*
X30170123Y-88214000D01*
X30333123Y-88164000D01*
X30513123Y-88155000D01*
X30667123Y-88191000D01*
G37*
G36*
X30796123Y-90129000D02*
G01*
X30957123Y-90228000D01*
X31098123Y-90396000D01*
X31168123Y-90615000D01*
X31176123Y-90799000D01*
X31149123Y-91008000D01*
X31088123Y-91232000D01*
X30995123Y-91463000D01*
X30873123Y-91694000D01*
X30713123Y-91930000D01*
X30558123Y-92091000D01*
X30407123Y-92177000D01*
X30259123Y-92190000D01*
X30091123Y-92127000D01*
X29964123Y-91996000D01*
X29872123Y-91789000D01*
X29811123Y-91498000D01*
X29776123Y-91188000D01*
X29770123Y-90932000D01*
X29794123Y-90722000D01*
X29851123Y-90548000D01*
X29942123Y-90403000D01*
X30069123Y-90275000D01*
X30249123Y-90157000D01*
X30435123Y-90094000D01*
X30620123Y-90084000D01*
X30796123Y-90129000D01*
G37*
G36*
X31868123Y-87172000D02*
G01*
X32017123Y-87223000D01*
X32182123Y-87308000D01*
X32380123Y-87435000D01*
X32564123Y-87556000D01*
X32724123Y-87647000D01*
X32881123Y-87718000D01*
X33056123Y-87780000D01*
X33270123Y-87842000D01*
X33550123Y-87924000D01*
X33725123Y-87998000D01*
X33855123Y-88090000D01*
X34028123Y-88266000D01*
X34131123Y-88445000D01*
X34173123Y-88642000D01*
X34168123Y-88799000D01*
X34111123Y-88961000D01*
X34014123Y-89124000D01*
X33883123Y-89253000D01*
X33715123Y-89349000D01*
X33507123Y-89414000D01*
X33257123Y-89449000D01*
X33032123Y-89484000D01*
X32862123Y-89560000D01*
X32705123Y-89697000D01*
X32507123Y-89881000D01*
X32334123Y-89969000D01*
X32123123Y-89993000D01*
X31965123Y-89977000D01*
X31793123Y-89913000D01*
X31626123Y-89821000D01*
X31500123Y-89691000D01*
X31399123Y-89537000D01*
X31355123Y-89375000D01*
X31357123Y-89172000D01*
X31369123Y-88957000D01*
X31349123Y-88797000D01*
X31284123Y-88650000D01*
X31164123Y-88476000D01*
X31039123Y-88282000D01*
X30960123Y-88092000D01*
X30926123Y-87905000D01*
X30937123Y-87722000D01*
X30994123Y-87543000D01*
X31077123Y-87394000D01*
X31193123Y-87287000D01*
X31350123Y-87200000D01*
X31529123Y-87152000D01*
X31717123Y-87147000D01*
X31868123Y-87172000D01*
G37*
G36*
X32291123Y-90807000D02*
G01*
X32440123Y-90905000D01*
X32553123Y-91055000D01*
X32625123Y-91231000D01*
X32654123Y-91423000D01*
X32638123Y-91622000D01*
X32577123Y-91815000D01*
X32504123Y-91951000D01*
X32408123Y-92068000D01*
X32260123Y-92195000D01*
X32034123Y-92359000D01*
X31773123Y-92528000D01*
X31571123Y-92628000D01*
X31404123Y-92666000D01*
X31250123Y-92652000D01*
X31101123Y-92582000D01*
X31007123Y-92458000D01*
X30969123Y-92281000D01*
X30986123Y-92052000D01*
X31059123Y-91771000D01*
X31141123Y-91557000D01*
X31239123Y-91359000D01*
X31350123Y-91181000D01*
X31471123Y-91029000D01*
X31599123Y-90905000D01*
X31730123Y-90816000D01*
X31908123Y-90759000D01*
X32104123Y-90757000D01*
X32291123Y-90807000D01*
G37*
G36*
X33795123Y-89623000D02*
G01*
X33922123Y-89684000D01*
X34023123Y-89788000D01*
X34097123Y-89905000D01*
X34146123Y-90024000D01*
X34174123Y-90218000D01*
X34174123Y-90431000D01*
X34145123Y-90647000D01*
X34092123Y-90848000D01*
X34015123Y-91020000D01*
X33894123Y-91191000D01*
X33737123Y-91360000D01*
X33567123Y-91509000D01*
X33404123Y-91618000D01*
X33272123Y-91668000D01*
X33118123Y-91647000D01*
X32970123Y-91551000D01*
X32837123Y-91389000D01*
X32730123Y-91169000D01*
X32666123Y-90950000D01*
X32643123Y-90736000D01*
X32661123Y-90521000D01*
X32720123Y-90300000D01*
X32821123Y-90066000D01*
X32940123Y-89853000D01*
X33056123Y-89736000D01*
X33223123Y-89636000D01*
X33407123Y-89584000D01*
X33600123Y-89579000D01*
X33795123Y-89623000D01*
G37*
G04 #@! TD*
D10*
G04 #@! TO.P,C4,1*
G04 #@! TO.N,/12V*
X42100000Y-74050000D03*
G04 #@! TO.P,C4,2*
G04 #@! TO.N,/VSS*
X42100000Y-72150000D03*
G04 #@! TD*
D11*
G04 #@! TO.P,L5,1*
G04 #@! TO.N,/SWO*
X44850000Y-67100000D03*
G04 #@! TO.P,L5,2*
G04 #@! TO.N,GND*
X49550000Y-67100000D03*
G04 #@! TD*
D12*
G04 #@! TO.P,L4,1*
G04 #@! TO.N,/SWO*
X43750000Y-67200000D03*
G04 #@! TO.P,L4,2*
G04 #@! TO.N,GND*
X50650000Y-67200000D03*
G04 #@! TD*
D10*
G04 #@! TO.P,C29,1*
G04 #@! TO.N,/12V*
X49500000Y-61650000D03*
G04 #@! TO.P,C29,2*
G04 #@! TO.N,GND*
X49500000Y-59750000D03*
G04 #@! TD*
D13*
G04 #@! TO.P,C11,1*
G04 #@! TO.N,GND*
X50875000Y-40500000D03*
G04 #@! TO.P,C11,2*
G04 #@! TO.N,+3V3*
X49325000Y-40500000D03*
G04 #@! TD*
D10*
G04 #@! TO.P,C18,1*
G04 #@! TO.N,/12V*
X51300000Y-61650000D03*
G04 #@! TO.P,C18,2*
G04 #@! TO.N,GND*
X51300000Y-59750000D03*
G04 #@! TD*
D14*
G04 #@! TO.P,U2,1,ISNS*
G04 #@! TO.N,/VIN_NEG*
X39300000Y-68681233D03*
G04 #@! TO.P,U2,2,FBH*
G04 #@! TO.N,/FBH*
X38800000Y-68681233D03*
G04 #@! TO.P,U2,3,EROUT*
G04 #@! TO.N,/COMP*
X38300000Y-68681233D03*
G04 #@! TO.P,U2,4,FBL*
G04 #@! TO.N,/VSS*
X37800000Y-68681233D03*
G04 #@! TO.P,U2,5,VDD*
G04 #@! TO.N,Net-(C20-Pad1)*
X37300000Y-68681233D03*
D15*
G04 #@! TO.P,U2,6,RDET*
G04 #@! TO.N,Net-(R6-Pad2)*
X36375000Y-69606233D03*
G04 #@! TO.P,U2,7,NC*
G04 #@! TO.N,/POE_NEG*
X36375000Y-70106233D03*
G04 #@! TO.P,U2,8,HSO*
G04 #@! TO.N,/VIN_NEG*
X36375000Y-70606233D03*
G04 #@! TO.P,U2,9,RCLASS*
G04 #@! TO.N,Net-(R7-Pad2)*
X36375000Y-71106233D03*
G04 #@! TO.P,U2,10,RFREQ*
G04 #@! TO.N,Net-(R19-Pad2)*
X36375000Y-71606233D03*
D14*
G04 #@! TO.P,U2,11,NC*
G04 #@! TO.N,/POE_NEG*
X37300000Y-72531233D03*
G04 #@! TO.P,U2,12,NC*
X37800000Y-72531233D03*
G04 #@! TO.P,U2,13,VPOS*
G04 #@! TO.N,/12V*
X38300000Y-72531233D03*
G04 #@! TO.P,U2,14,NC*
G04 #@! TO.N,/POE_NEG*
X38800000Y-72531233D03*
G04 #@! TO.P,U2,15,NC*
X39300000Y-72531233D03*
D15*
G04 #@! TO.P,U2,16,VT15*
G04 #@! TO.N,unconnected-(U2-Pad16)*
X40225000Y-71606233D03*
G04 #@! TO.P,U2,17*
G04 #@! TO.N,N/C*
X40225000Y-71106233D03*
G04 #@! TO.P,U2,18,SWO*
G04 #@! TO.N,/SWO*
X40225000Y-70606233D03*
G04 #@! TO.P,U2,19,VSS*
G04 #@! TO.N,/VSS*
X40225000Y-70106233D03*
G04 #@! TO.P,U2,20,NC*
G04 #@! TO.N,/POE_NEG*
X40225000Y-69606233D03*
D16*
G04 #@! TO.P,U2,21,VNEG*
X38300000Y-70606233D03*
G04 #@! TD*
D17*
G04 #@! TO.P,R14,1*
G04 #@! TO.N,/LAN_3P3V*
X38332500Y-58950000D03*
G04 #@! TO.P,R14,2*
G04 #@! TO.N,/MDI0_N*
X36682500Y-58950000D03*
G04 #@! TD*
D18*
G04 #@! TO.P,J20,1,1*
G04 #@! TO.N,/IO32*
X53340000Y-45720000D03*
G04 #@! TD*
D13*
G04 #@! TO.P,C2,1*
G04 #@! TO.N,GND*
X50850000Y-42200000D03*
G04 #@! TO.P,C2,2*
G04 #@! TO.N,+3V3*
X49300000Y-42200000D03*
G04 #@! TD*
D19*
G04 #@! TO.P,D2,1,K*
G04 #@! TO.N,Net-(C17-Pad2)*
X48350000Y-57600000D03*
G04 #@! TO.P,D2,2,A*
G04 #@! TO.N,GND*
X51650000Y-57600000D03*
G04 #@! TD*
D20*
G04 #@! TO.P,U3,1,CB*
G04 #@! TO.N,Net-(C17-Pad1)*
X45562500Y-59550000D03*
G04 #@! TO.P,U3,2,GND*
G04 #@! TO.N,GND*
X45562500Y-60500000D03*
G04 #@! TO.P,U3,3,FB*
G04 #@! TO.N,Net-(R26-Pad1)*
X45562500Y-61450000D03*
G04 #@! TO.P,U3,4,~{SHDN}*
G04 #@! TO.N,/12V*
X47837500Y-61450000D03*
G04 #@! TO.P,U3,5,VIN*
X47837500Y-60500000D03*
G04 #@! TO.P,U3,6,SW*
G04 #@! TO.N,Net-(C17-Pad2)*
X47837500Y-59550000D03*
G04 #@! TD*
D18*
G04 #@! TO.P,J10,1,1*
G04 #@! TO.N,/IO4*
X30480000Y-55880000D03*
G04 #@! TD*
G04 #@! TO.P,J23,1,1*
G04 #@! TO.N,/S_VN*
X53340000Y-53340000D03*
G04 #@! TD*
D21*
G04 #@! TO.P,R8,1*
G04 #@! TO.N,GND*
X32745000Y-55450000D03*
G04 #@! TO.P,R8,2*
G04 #@! TO.N,/RSET*
X34395000Y-55450000D03*
G04 #@! TD*
G04 #@! TO.P,R17,1*
G04 #@! TO.N,/LAN_3P3V*
X39682500Y-58950000D03*
G04 #@! TO.P,R17,2*
G04 #@! TO.N,/MDI1_P*
X41332500Y-58950000D03*
G04 #@! TD*
D17*
G04 #@! TO.P,C22,1*
G04 #@! TO.N,/AVDD10*
X34395000Y-56950000D03*
G04 #@! TO.P,C22,2*
G04 #@! TO.N,GND*
X32745000Y-56950000D03*
G04 #@! TD*
D22*
G04 #@! TO.P,R20,1*
G04 #@! TO.N,/VSS*
X41200000Y-68512500D03*
G04 #@! TO.P,R20,2*
G04 #@! TO.N,/VIN_NEG*
X41200000Y-66687500D03*
G04 #@! TD*
D17*
G04 #@! TO.P,R32,1*
G04 #@! TO.N,/ETH_CLK*
X38025000Y-40000000D03*
G04 #@! TO.P,R32,2*
G04 #@! TO.N,Net-(R32-Pad2)*
X36375000Y-40000000D03*
G04 #@! TD*
D23*
G04 #@! TO.P,C3,1*
G04 #@! TO.N,GND*
X31100000Y-76975000D03*
G04 #@! TO.P,C3,2*
G04 #@! TO.N,/MDI0_CT*
X31100000Y-75425000D03*
G04 #@! TD*
D24*
G04 #@! TO.P,R2,1*
G04 #@! TO.N,GND*
X36275000Y-36750000D03*
G04 #@! TO.P,R2,2*
G04 #@! TO.N,/VDD_SDIO*
X36275000Y-38400000D03*
G04 #@! TD*
D25*
G04 #@! TO.P,C10,1*
G04 #@! TO.N,GND*
X37525000Y-34000000D03*
G04 #@! TO.P,C10,2*
G04 #@! TO.N,/EN*
X39075000Y-34000000D03*
G04 #@! TD*
D26*
G04 #@! TO.P,R11,1*
G04 #@! TO.N,/RTL_LED1*
X52600000Y-81225000D03*
G04 #@! TO.P,R11,2*
G04 #@! TO.N,GND*
X52600000Y-79575000D03*
G04 #@! TD*
D24*
G04 #@! TO.P,R10,1*
G04 #@! TO.N,+3V3*
X36100000Y-44875000D03*
G04 #@! TO.P,R10,2*
G04 #@! TO.N,/ETH_RST*
X36100000Y-46525000D03*
G04 #@! TD*
D27*
G04 #@! TO.P,L2,1*
G04 #@! TO.N,Net-(C17-Pad2)*
X48800000Y-54200000D03*
G04 #@! TO.P,L2,2*
G04 #@! TO.N,+3V3*
X51600000Y-54200000D03*
G04 #@! TD*
D18*
G04 #@! TO.P,J4,1,1*
G04 #@! TO.N,/EN*
X30480000Y-40780000D03*
G04 #@! TD*
D28*
G04 #@! TO.P,C13,1*
G04 #@! TO.N,/XTAL_P*
X48600000Y-47625000D03*
G04 #@! TO.P,C13,2*
G04 #@! TO.N,GND*
X48600000Y-49175000D03*
G04 #@! TD*
D18*
G04 #@! TO.P,J7,1,1*
G04 #@! TO.N,/IO16*
X30480000Y-48400000D03*
G04 #@! TD*
D13*
G04 #@! TO.P,C21,1*
G04 #@! TO.N,+3V3*
X51675000Y-51200000D03*
G04 #@! TO.P,C21,2*
G04 #@! TO.N,GND*
X50125000Y-51200000D03*
G04 #@! TD*
D21*
G04 #@! TO.P,R23,1*
G04 #@! TO.N,/FBH*
X42350000Y-62200000D03*
G04 #@! TO.P,R23,2*
G04 #@! TO.N,/12V*
X44000000Y-62200000D03*
G04 #@! TD*
D18*
G04 #@! TO.P,J25,1,1*
G04 #@! TO.N,/IO37*
X53340000Y-58420000D03*
G04 #@! TD*
D17*
G04 #@! TO.P,R13,1*
G04 #@! TO.N,/LAN_3P3V*
X38395000Y-57450000D03*
G04 #@! TO.P,R13,2*
G04 #@! TO.N,/MDI0_P*
X36745000Y-57450000D03*
G04 #@! TD*
D29*
G04 #@! TO.P,D1,1,K*
G04 #@! TO.N,/12V*
X50230000Y-73031233D03*
G04 #@! TO.P,D1,2,A*
G04 #@! TO.N,/SWO*
X46230000Y-73031233D03*
G04 #@! TD*
D18*
G04 #@! TO.P,J27,1,1*
G04 #@! TO.N,GND*
X53340000Y-66040000D03*
G04 #@! TD*
D26*
G04 #@! TO.P,R6,1*
G04 #@! TO.N,/12V*
X32970000Y-72425000D03*
G04 #@! TO.P,R6,2*
G04 #@! TO.N,Net-(R6-Pad2)*
X32970000Y-70775000D03*
G04 #@! TD*
D21*
G04 #@! TO.P,R19,1*
G04 #@! TO.N,/12V*
X33825000Y-73831233D03*
G04 #@! TO.P,R19,2*
G04 #@! TO.N,Net-(R19-Pad2)*
X35475000Y-73831233D03*
G04 #@! TD*
D26*
G04 #@! TO.P,R29,1*
G04 #@! TO.N,/ETH_RXD0*
X45500000Y-36925000D03*
G04 #@! TO.P,R29,2*
G04 #@! TO.N,/RXD0*
X45500000Y-35275000D03*
G04 #@! TD*
D18*
G04 #@! TO.P,J8,1,1*
G04 #@! TO.N,/IO15*
X30480000Y-50800000D03*
G04 #@! TD*
G04 #@! TO.P,J17,1,1*
G04 #@! TO.N,/U0TXD*
X53340000Y-38100000D03*
G04 #@! TD*
G04 #@! TO.P,J26,1,1*
G04 #@! TO.N,/S_VP*
X53340000Y-60960000D03*
G04 #@! TD*
D21*
G04 #@! TO.P,R18,1*
G04 #@! TO.N,/LAN_3P3V*
X39682500Y-57450000D03*
G04 #@! TO.P,R18,2*
G04 #@! TO.N,/MDI1_N*
X41332500Y-57450000D03*
G04 #@! TD*
D13*
G04 #@! TO.P,C20,1*
G04 #@! TO.N,Net-(C20-Pad1)*
X34575000Y-69100000D03*
G04 #@! TO.P,C20,2*
G04 #@! TO.N,/VSS*
X33025000Y-69100000D03*
G04 #@! TD*
D26*
G04 #@! TO.P,C8,1*
G04 #@! TO.N,GND*
X37925000Y-46550000D03*
G04 #@! TO.P,C8,2*
G04 #@! TO.N,+3V3*
X37925000Y-44900000D03*
G04 #@! TD*
D25*
G04 #@! TO.P,C24,1*
G04 #@! TO.N,/LAN_3P3V*
X43295000Y-56200000D03*
G04 #@! TO.P,C24,2*
G04 #@! TO.N,GND*
X44845000Y-56200000D03*
G04 #@! TD*
D17*
G04 #@! TO.P,R3,1*
G04 #@! TO.N,GND*
X50925000Y-44200000D03*
G04 #@! TO.P,R3,2*
G04 #@! TO.N,/CAP2*
X49275000Y-44200000D03*
G04 #@! TD*
D26*
G04 #@! TO.P,R12,1*
G04 #@! TO.N,/RTL_LED0*
X31200000Y-81225000D03*
G04 #@! TO.P,R12,2*
G04 #@! TO.N,GND*
X31200000Y-79575000D03*
G04 #@! TD*
G04 #@! TO.P,R26,1*
G04 #@! TO.N,Net-(R26-Pad1)*
X46900000Y-53525000D03*
G04 #@! TO.P,R26,2*
G04 #@! TO.N,+3V3*
X46900000Y-51875000D03*
G04 #@! TD*
D30*
G04 #@! TO.P,U4,1,RSET*
G04 #@! TO.N,/RSET*
X36820000Y-54887500D03*
G04 #@! TO.P,U4,2,AVDD10OUT*
G04 #@! TO.N,/AVDD10*
X37320000Y-54887500D03*
G04 #@! TO.P,U4,3,MDI0_P*
G04 #@! TO.N,/MDI0_P*
X37820000Y-54887500D03*
G04 #@! TO.P,U4,4,MDI0_N*
G04 #@! TO.N,/MDI0_N*
X38320000Y-54887500D03*
G04 #@! TO.P,U4,5,MDI1_P*
G04 #@! TO.N,/MDI1_P*
X38820000Y-54887500D03*
G04 #@! TO.P,U4,6,MDI1_N*
G04 #@! TO.N,/MDI1_N*
X39320000Y-54887500D03*
G04 #@! TO.P,U4,7,AVDD33*
G04 #@! TO.N,/LAN_3P3V*
X39820000Y-54887500D03*
G04 #@! TO.P,U4,8,RXDV*
G04 #@! TO.N,/RXDV*
X40320000Y-54887500D03*
D31*
G04 #@! TO.P,U4,9,RXD0*
G04 #@! TO.N,/RXD0*
X41007500Y-54200000D03*
G04 #@! TO.P,U4,10,RXD1*
G04 #@! TO.N,/RXD1*
X41007500Y-53700000D03*
G04 #@! TO.P,U4,11,RXD2_INTB*
G04 #@! TO.N,unconnected-(U4-Pad11)*
X41007500Y-53200000D03*
G04 #@! TO.P,U4,12,RXD3_CLK_CTL*
G04 #@! TO.N,unconnected-(U4-Pad12)*
X41007500Y-52700000D03*
G04 #@! TO.P,U4,13,RXC*
G04 #@! TO.N,unconnected-(U4-Pad13)*
X41007500Y-52200000D03*
G04 #@! TO.P,U4,14,DVDD33*
G04 #@! TO.N,/LAN_3P3V*
X41007500Y-51700000D03*
G04 #@! TO.P,U4,15,TXC*
G04 #@! TO.N,unconnected-(U4-Pad15)*
X41007500Y-51200000D03*
G04 #@! TO.P,U4,16,TXD0*
G04 #@! TO.N,/ETH_TXD0*
X41007500Y-50700000D03*
D30*
G04 #@! TO.P,U4,17,TXD1*
G04 #@! TO.N,/ETH_TXD1*
X40320000Y-50012500D03*
G04 #@! TO.P,U4,18,TXD2*
G04 #@! TO.N,unconnected-(U4-Pad18)*
X39820000Y-50012500D03*
G04 #@! TO.P,U4,19,TXD3*
G04 #@! TO.N,unconnected-(U4-Pad19)*
X39320000Y-50012500D03*
G04 #@! TO.P,U4,20,TXEN*
G04 #@! TO.N,/ETH_TXEN*
X38820000Y-50012500D03*
G04 #@! TO.P,U4,21,PHYRSTB*
G04 #@! TO.N,/ETH_RST*
X38320000Y-50012500D03*
G04 #@! TO.P,U4,22,MDC*
G04 #@! TO.N,/ETH_MDC*
X37820000Y-50012500D03*
G04 #@! TO.P,U4,23,MDIO*
G04 #@! TO.N,/ETH_MDIO*
X37320000Y-50012500D03*
G04 #@! TO.P,U4,24,LED0_PHYAD0*
G04 #@! TO.N,/RTL_LED0*
X36820000Y-50012500D03*
D31*
G04 #@! TO.P,U4,25,LED1_PHYAD1*
G04 #@! TO.N,/RTL_LED1*
X36132500Y-50700000D03*
G04 #@! TO.P,U4,26,CRS_DV*
G04 #@! TO.N,/CRS_DV*
X36132500Y-51200000D03*
G04 #@! TO.P,U4,27,COL*
G04 #@! TO.N,unconnected-(U4-Pad27)*
X36132500Y-51700000D03*
G04 #@! TO.P,U4,28,RXER_FXEN*
G04 #@! TO.N,unconnected-(U4-Pad28)*
X36132500Y-52200000D03*
G04 #@! TO.P,U4,29,DVDD10OUT*
G04 #@! TO.N,/DVDD10*
X36132500Y-52700000D03*
G04 #@! TO.P,U4,30,AVDD33*
G04 #@! TO.N,/LAN_3P3V*
X36132500Y-53200000D03*
G04 #@! TO.P,U4,31,CKXTAL1*
G04 #@! TO.N,GND*
X36132500Y-53700000D03*
G04 #@! TO.P,U4,32,CKXTAL2*
G04 #@! TO.N,Net-(R32-Pad2)*
X36132500Y-54200000D03*
D32*
G04 #@! TO.P,U4,33,GND*
G04 #@! TO.N,GND*
X38570000Y-52450000D03*
G04 #@! TD*
D26*
G04 #@! TO.P,R5,1*
G04 #@! TO.N,/IO12*
X33800000Y-46525000D03*
G04 #@! TO.P,R5,2*
G04 #@! TO.N,+3V3*
X33800000Y-44875000D03*
G04 #@! TD*
D13*
G04 #@! TO.P,C16,1*
G04 #@! TO.N,GND*
X47850000Y-44300000D03*
G04 #@! TO.P,C16,2*
G04 #@! TO.N,/CAP1*
X46300000Y-44300000D03*
G04 #@! TD*
D18*
G04 #@! TO.P,J14,1,1*
G04 #@! TO.N,GND*
X30480000Y-66040000D03*
G04 #@! TD*
D33*
G04 #@! TO.P,SW1,1,1*
G04 #@! TO.N,GND*
X36000000Y-34400000D03*
G04 #@! TO.P,SW1,2,2*
G04 #@! TO.N,/EN*
X31800000Y-34400000D03*
G04 #@! TD*
D34*
G04 #@! TO.P,TP1,1,1*
G04 #@! TO.N,/ETH_RST*
X39900000Y-47600000D03*
G04 #@! TD*
D18*
G04 #@! TO.P,J19,1,1*
G04 #@! TO.N,/IO33*
X53340000Y-43180000D03*
G04 #@! TD*
D17*
G04 #@! TO.P,R4,1*
G04 #@! TO.N,/U0TXD*
X48925000Y-35400000D03*
G04 #@! TO.P,R4,2*
G04 #@! TO.N,Net-(R4-Pad2)*
X47275000Y-35400000D03*
G04 #@! TD*
D18*
G04 #@! TO.P,J12,1,1*
G04 #@! TO.N,/IO14*
X30480000Y-60960000D03*
G04 #@! TD*
G04 #@! TO.P,J22,1,1*
G04 #@! TO.N,/IO34*
X53340000Y-50800000D03*
G04 #@! TD*
D24*
G04 #@! TO.P,R25,1*
G04 #@! TO.N,/LAN_3P3V*
X31100000Y-72175000D03*
G04 #@! TO.P,R25,2*
G04 #@! TO.N,/MDI0_CT*
X31100000Y-73825000D03*
G04 #@! TD*
D23*
G04 #@! TO.P,C6,1*
G04 #@! TO.N,Net-(C6-Pad1)*
X32800000Y-66275000D03*
G04 #@! TO.P,C6,2*
G04 #@! TO.N,/VSS*
X32800000Y-64725000D03*
G04 #@! TD*
D35*
G04 #@! TO.P,D3,1,K*
G04 #@! TO.N,Net-(D3-Pad1)*
X52500000Y-34312500D03*
G04 #@! TO.P,D3,2,A*
G04 #@! TO.N,+3V3*
X52500000Y-35887500D03*
G04 #@! TD*
D18*
G04 #@! TO.P,J29,1,1*
G04 #@! TO.N,/VIN_NEG*
X53340000Y-76260000D03*
G04 #@! TD*
D17*
G04 #@! TO.P,L3,1*
G04 #@! TO.N,+3V3*
X44795000Y-53200000D03*
G04 #@! TO.P,L3,2*
G04 #@! TO.N,/LAN_3P3V*
X43145000Y-53200000D03*
G04 #@! TD*
D18*
G04 #@! TO.P,J3,1,1*
G04 #@! TO.N,GND*
X30480000Y-38010000D03*
G04 #@! TD*
D13*
G04 #@! TO.P,C7,1*
G04 #@! TO.N,/12V*
X37775000Y-64050000D03*
G04 #@! TO.P,C7,2*
G04 #@! TO.N,/VSS*
X36225000Y-64050000D03*
G04 #@! TD*
D25*
G04 #@! TO.P,C26,1*
G04 #@! TO.N,/LAN_3P3V*
X43195000Y-51600000D03*
G04 #@! TO.P,C26,2*
G04 #@! TO.N,GND*
X44745000Y-51600000D03*
G04 #@! TD*
D26*
G04 #@! TO.P,R27,1*
G04 #@! TO.N,GND*
X46900000Y-56525000D03*
G04 #@! TO.P,R27,2*
G04 #@! TO.N,Net-(R26-Pad1)*
X46900000Y-54875000D03*
G04 #@! TD*
D18*
G04 #@! TO.P,J16,1,1*
G04 #@! TO.N,GND*
X30480000Y-68580000D03*
G04 #@! TD*
D26*
G04 #@! TO.P,R28,1*
G04 #@! TO.N,GND*
X50800000Y-35925000D03*
G04 #@! TO.P,R28,2*
G04 #@! TO.N,Net-(D3-Pad1)*
X50800000Y-34275000D03*
G04 #@! TD*
D25*
G04 #@! TO.P,C12,1*
G04 #@! TO.N,/XTAL_N*
X44725000Y-49855000D03*
G04 #@! TO.P,C12,2*
G04 #@! TO.N,GND*
X46275000Y-49855000D03*
G04 #@! TD*
D18*
G04 #@! TO.P,J24,1,1*
G04 #@! TO.N,/IO38*
X53340000Y-55880000D03*
G04 #@! TD*
D21*
G04 #@! TO.P,R21,1*
G04 #@! TO.N,Net-(C6-Pad1)*
X32975000Y-67600000D03*
G04 #@! TO.P,R21,2*
G04 #@! TO.N,/COMP*
X34625000Y-67600000D03*
G04 #@! TD*
D25*
G04 #@! TO.P,C5,1*
G04 #@! TO.N,GND*
X50125000Y-49700000D03*
G04 #@! TO.P,C5,2*
G04 #@! TO.N,+3V3*
X51675000Y-49700000D03*
G04 #@! TD*
D17*
G04 #@! TO.P,R24,1*
G04 #@! TO.N,GND*
X44000000Y-60850000D03*
G04 #@! TO.P,R24,2*
G04 #@! TO.N,/FBH*
X42350000Y-60850000D03*
G04 #@! TD*
D18*
G04 #@! TO.P,J13,1,1*
G04 #@! TO.N,/IO5*
X30480000Y-63500000D03*
G04 #@! TD*
D13*
G04 #@! TO.P,C15,1*
G04 #@! TO.N,GND*
X50875000Y-45800000D03*
G04 #@! TO.P,C15,2*
G04 #@! TO.N,/CAP2*
X49325000Y-45800000D03*
G04 #@! TD*
G04 #@! TO.P,C25,1*
G04 #@! TO.N,/LAN_3P3V*
X34345000Y-53200000D03*
G04 #@! TO.P,C25,2*
G04 #@! TO.N,GND*
X32795000Y-53200000D03*
G04 #@! TD*
D18*
G04 #@! TO.P,J5,1,1*
G04 #@! TO.N,/BOOT*
X30480000Y-43320000D03*
G04 #@! TD*
D13*
G04 #@! TO.P,C1,1*
G04 #@! TO.N,/12V*
X38575000Y-73831233D03*
G04 #@! TO.P,C1,2*
G04 #@! TO.N,/POE_NEG*
X37025000Y-73831233D03*
G04 #@! TD*
G04 #@! TO.P,C28,1*
G04 #@! TO.N,/12V*
X37775000Y-62600000D03*
G04 #@! TO.P,C28,2*
G04 #@! TO.N,/VSS*
X36225000Y-62600000D03*
G04 #@! TD*
D24*
G04 #@! TO.P,R15,1*
G04 #@! TO.N,/RTL_LED0*
X31200000Y-82575000D03*
G04 #@! TO.P,R15,2*
G04 #@! TO.N,/ETH_LED0*
X31200000Y-84225000D03*
G04 #@! TD*
D36*
G04 #@! TO.P,C27,1*
G04 #@! TO.N,/12V*
X39600000Y-63400000D03*
G04 #@! TO.P,C27,2*
G04 #@! TO.N,/VSS*
X34525000Y-63400000D03*
G04 #@! TD*
D21*
G04 #@! TO.P,R1,1*
G04 #@! TO.N,/EN*
X40575000Y-34000000D03*
G04 #@! TO.P,R1,2*
G04 #@! TO.N,+3V3*
X42225000Y-34000000D03*
G04 #@! TD*
D17*
G04 #@! TO.P,R22,1*
G04 #@! TO.N,/U0RXD*
X48925000Y-33900000D03*
G04 #@! TO.P,R22,2*
G04 #@! TO.N,Net-(R22-Pad2)*
X47275000Y-33900000D03*
G04 #@! TD*
D23*
G04 #@! TO.P,C9,1*
G04 #@! TO.N,GND*
X42475000Y-48550000D03*
G04 #@! TO.P,C9,2*
G04 #@! TO.N,+3V3*
X42475000Y-47000000D03*
G04 #@! TD*
D37*
G04 #@! TO.P,J1,1,RD+*
G04 #@! TO.N,/MDI1_P*
X36150000Y-77031233D03*
D38*
G04 #@! TO.P,J1,2,RD-*
G04 #@! TO.N,/MDI1_N*
X37420000Y-79571233D03*
G04 #@! TO.P,J1,3,RCT*
G04 #@! TO.N,/MDI0_CT*
X38690000Y-77031233D03*
G04 #@! TO.P,J1,4,TCT*
X39960000Y-79571233D03*
G04 #@! TO.P,J1,5,TD+*
G04 #@! TO.N,/MDI0_P*
X41230000Y-77031233D03*
G04 #@! TO.P,J1,6,TD-*
G04 #@! TO.N,/MDI0_N*
X42500000Y-79571233D03*
G04 #@! TO.P,J1,7*
G04 #@! TO.N,N/C*
X43770000Y-77031233D03*
G04 #@! TO.P,J1,8*
X45040000Y-79571233D03*
G04 #@! TO.P,J1,9,V+*
G04 #@! TO.N,/12V*
X46310000Y-77031233D03*
G04 #@! TO.P,J1,10,V-*
G04 #@! TO.N,/POE_NEG*
X47580000Y-79571233D03*
D18*
G04 #@! TO.P,J1,11,LEDG_A*
G04 #@! TO.N,/ETH_LED0*
X35235000Y-90001233D03*
G04 #@! TO.P,J1,12,LEDG_K*
G04 #@! TO.N,GND*
X37775000Y-90001233D03*
G04 #@! TO.P,J1,13,LEDY_A*
G04 #@! TO.N,/ETH_LED1*
X45955000Y-90001233D03*
G04 #@! TO.P,J1,14,LEDY_K*
G04 #@! TO.N,GND*
X48495000Y-90001233D03*
D39*
G04 #@! TO.P,J1,SH,SHIELD*
X34120000Y-82871233D03*
X49610000Y-82871233D03*
G04 #@! TD*
D17*
G04 #@! TO.P,R9,1*
G04 #@! TO.N,+3V3*
X44795000Y-54700000D03*
G04 #@! TO.P,R9,2*
G04 #@! TO.N,/RXDV*
X43145000Y-54700000D03*
G04 #@! TD*
D18*
G04 #@! TO.P,J28,1,1*
G04 #@! TO.N,/12V*
X53340000Y-68580000D03*
G04 #@! TD*
G04 #@! TO.P,J21,1,1*
G04 #@! TO.N,/IO35*
X53340000Y-48260000D03*
G04 #@! TD*
D25*
G04 #@! TO.P,C19,1*
G04 #@! TO.N,+3V3*
X44125000Y-33700000D03*
G04 #@! TO.P,C19,2*
G04 #@! TO.N,GND*
X45675000Y-33700000D03*
G04 #@! TD*
D18*
G04 #@! TO.P,J15,1,1*
G04 #@! TO.N,+3V3*
X53340000Y-63500000D03*
G04 #@! TD*
D24*
G04 #@! TO.P,R16,1*
G04 #@! TO.N,/RTL_LED1*
X52600000Y-82575000D03*
G04 #@! TO.P,R16,2*
G04 #@! TO.N,/ETH_LED1*
X52600000Y-84225000D03*
G04 #@! TD*
D21*
G04 #@! TO.P,L1,1*
G04 #@! TO.N,/VDD3P3*
X46250000Y-42575000D03*
G04 #@! TO.P,L1,2*
G04 #@! TO.N,+3V3*
X47900000Y-42575000D03*
G04 #@! TD*
D28*
G04 #@! TO.P,C14,1*
G04 #@! TO.N,GND*
X37675000Y-36800000D03*
G04 #@! TO.P,C14,2*
G04 #@! TO.N,/VDD_SDIO*
X37675000Y-38350000D03*
G04 #@! TD*
D18*
G04 #@! TO.P,J6,1,1*
G04 #@! TO.N,/IO13*
X30480000Y-45860000D03*
G04 #@! TD*
D40*
G04 #@! TO.P,U1,1,VDDA*
G04 #@! TO.N,+3V3*
X44425000Y-43283333D03*
G04 #@! TO.P,U1,2,LNA_IN*
G04 #@! TO.N,unconnected-(U1-Pad2)*
X44425000Y-42933333D03*
G04 #@! TO.P,U1,3,VDD3P3*
G04 #@! TO.N,/VDD3P3*
X44425000Y-42583333D03*
G04 #@! TO.P,U1,4,VDD3P3*
X44425000Y-42233333D03*
G04 #@! TO.P,U1,5,SENSOR_VP*
G04 #@! TO.N,/S_VP*
X44425000Y-41883333D03*
G04 #@! TO.P,U1,6,SENSOR_CAPP*
G04 #@! TO.N,/IO37*
X44425000Y-41533333D03*
G04 #@! TO.P,U1,7,SENSOR_CAPN*
G04 #@! TO.N,/IO38*
X44425000Y-41183333D03*
G04 #@! TO.P,U1,8,SENSOR_VN*
G04 #@! TO.N,/S_VN*
X44425000Y-40833333D03*
G04 #@! TO.P,U1,9,CHIP_PU*
G04 #@! TO.N,/EN*
X44425000Y-40483333D03*
G04 #@! TO.P,U1,10,VDET_1*
G04 #@! TO.N,/IO34*
X44425000Y-40133333D03*
G04 #@! TO.P,U1,11,VDET_2*
G04 #@! TO.N,/IO35*
X44425000Y-39783333D03*
G04 #@! TO.P,U1,12,32K_XP*
G04 #@! TO.N,/IO32*
X44425000Y-39433333D03*
G04 #@! TO.P,U1,13,32K_XIN*
G04 #@! TO.N,/IO33*
X44425000Y-39083333D03*
G04 #@! TO.P,U1,14,GPIO25*
G04 #@! TO.N,/ETH_RXD0*
X44425000Y-38733333D03*
D41*
G04 #@! TO.P,U1,15,GPIO26*
G04 #@! TO.N,/ETH_RXD1*
X43550000Y-38558333D03*
G04 #@! TO.P,U1,16,GPIO27*
G04 #@! TO.N,/ETH_CRS_DV*
X43200000Y-38558333D03*
G04 #@! TO.P,U1,17,MTMS*
G04 #@! TO.N,/IO14*
X42850000Y-38558333D03*
G04 #@! TO.P,U1,18,MTDI*
G04 #@! TO.N,/IO12*
X42500000Y-38558333D03*
G04 #@! TO.P,U1,19,VDD3P3_RTC*
G04 #@! TO.N,+3V3*
X42150000Y-38558333D03*
G04 #@! TO.P,U1,20,MTCK*
G04 #@! TO.N,/IO13*
X41800000Y-38558333D03*
G04 #@! TO.P,U1,21,MTDO*
G04 #@! TO.N,/IO15*
X41450000Y-38558333D03*
G04 #@! TO.P,U1,22,GPIO2*
G04 #@! TO.N,/IO2*
X41100000Y-38558333D03*
G04 #@! TO.P,U1,23,GPIO0*
G04 #@! TO.N,/BOOT*
X40750000Y-38558333D03*
G04 #@! TO.P,U1,24,GPIO4*
G04 #@! TO.N,/IO4*
X40400000Y-38558333D03*
D40*
G04 #@! TO.P,U1,25,GPIO16*
G04 #@! TO.N,/IO16*
X39525000Y-38733333D03*
G04 #@! TO.P,U1,26,VDD_SDIO*
G04 #@! TO.N,/VDD_SDIO*
X39525000Y-39083333D03*
G04 #@! TO.P,U1,27,GPIO17*
G04 #@! TO.N,/ETH_CLK*
X39525000Y-39433333D03*
G04 #@! TO.P,U1,28,SD_DATA_2*
G04 #@! TO.N,/SDD2*
X39525000Y-39783333D03*
G04 #@! TO.P,U1,29,SD_DATA_3*
G04 #@! TO.N,/SDD3*
X39525000Y-40133333D03*
G04 #@! TO.P,U1,30,SD_CMD*
G04 #@! TO.N,/SDCS*
X39525000Y-40483333D03*
G04 #@! TO.P,U1,31,SD_CLK*
G04 #@! TO.N,/SDCK*
X39525000Y-40833333D03*
G04 #@! TO.P,U1,32,SD_DATA_0*
G04 #@! TO.N,/SDD0*
X39525000Y-41183333D03*
G04 #@! TO.P,U1,33,SD_DATA_1*
G04 #@! TO.N,/SDD1*
X39525000Y-41533333D03*
G04 #@! TO.P,U1,34,GPIO5*
G04 #@! TO.N,/IO5*
X39525000Y-41883333D03*
G04 #@! TO.P,U1,35,GPIO18*
G04 #@! TO.N,/ETH_MDIO*
X39525000Y-42233333D03*
G04 #@! TO.P,U1,36,GPIO23*
G04 #@! TO.N,/ETH_MDC*
X39525000Y-42583333D03*
G04 #@! TO.P,U1,37,VDD3P3_CPU*
G04 #@! TO.N,+3V3*
X39525000Y-42933333D03*
G04 #@! TO.P,U1,38,GPIO19*
G04 #@! TO.N,/ETH_TXD0*
X39525000Y-43283333D03*
D41*
G04 #@! TO.P,U1,39,GPIO22*
G04 #@! TO.N,/ETH_TXD1*
X40400000Y-43458333D03*
G04 #@! TO.P,U1,40,U0RXD*
G04 #@! TO.N,Net-(R22-Pad2)*
X40750000Y-43458333D03*
G04 #@! TO.P,U1,41,U0TXD*
G04 #@! TO.N,Net-(R4-Pad2)*
X41100000Y-43458333D03*
G04 #@! TO.P,U1,42,GPIO21*
G04 #@! TO.N,/ETH_TXEN*
X41450000Y-43458333D03*
G04 #@! TO.P,U1,43,VDDA*
G04 #@! TO.N,+3V3*
X41800000Y-43458333D03*
G04 #@! TO.P,U1,44,XTAL_N*
G04 #@! TO.N,/XTAL_N*
X42150000Y-43458333D03*
G04 #@! TO.P,U1,45,XTAL_P*
G04 #@! TO.N,/XTAL_P*
X42500000Y-43458333D03*
G04 #@! TO.P,U1,46,VDDA*
G04 #@! TO.N,+3V3*
X42850000Y-43458333D03*
G04 #@! TO.P,U1,47,CAP2*
G04 #@! TO.N,/CAP2*
X43200000Y-43458333D03*
G04 #@! TO.P,U1,48,CAP1*
G04 #@! TO.N,/CAP1*
X43550000Y-43458333D03*
D42*
G04 #@! TO.P,U1,49,GND*
G04 #@! TO.N,GND*
X41441667Y-40475000D03*
X43575000Y-41541666D03*
X42508333Y-40475000D03*
X40375000Y-41541666D03*
X40375000Y-40475000D03*
D43*
X41975000Y-41008333D03*
D42*
X42508333Y-41541666D03*
X41441667Y-39408333D03*
X42508333Y-42608333D03*
X41441667Y-42608333D03*
X43575000Y-39408333D03*
X42508333Y-39408333D03*
X40375000Y-42608333D03*
X41441667Y-41541666D03*
X43575000Y-42608333D03*
X40375000Y-39408333D03*
X43575000Y-40475000D03*
G04 #@! TD*
D18*
G04 #@! TO.P,J2,1,1*
G04 #@! TO.N,/12V*
X53340000Y-73660000D03*
G04 #@! TD*
G04 #@! TO.P,J18,1,1*
G04 #@! TO.N,/U0RXD*
X53340000Y-40640000D03*
G04 #@! TD*
D24*
G04 #@! TO.P,R7,1*
G04 #@! TO.N,/POE_NEG*
X34650000Y-70775000D03*
G04 #@! TO.P,R7,2*
G04 #@! TO.N,Net-(R7-Pad2)*
X34650000Y-72425000D03*
G04 #@! TD*
D18*
G04 #@! TO.P,J9,1,1*
G04 #@! TO.N,/IO12*
X30480000Y-53340000D03*
G04 #@! TD*
D13*
G04 #@! TO.P,C23,1*
G04 #@! TO.N,/DVDD10*
X34345000Y-51700000D03*
G04 #@! TO.P,C23,2*
G04 #@! TO.N,GND*
X32795000Y-51700000D03*
G04 #@! TD*
D21*
G04 #@! TO.P,R31,1*
G04 #@! TO.N,/ETH_CRS_DV*
X32745000Y-50200000D03*
G04 #@! TO.P,R31,2*
G04 #@! TO.N,/CRS_DV*
X34395000Y-50200000D03*
G04 #@! TD*
D25*
G04 #@! TO.P,C17,1*
G04 #@! TO.N,Net-(C17-Pad1)*
X45325000Y-58000000D03*
G04 #@! TO.P,C17,2*
G04 #@! TO.N,Net-(C17-Pad2)*
X46875000Y-58000000D03*
G04 #@! TD*
D18*
G04 #@! TO.P,J11,1,1*
G04 #@! TO.N,/IO2*
X30480000Y-58420000D03*
G04 #@! TD*
D26*
G04 #@! TO.P,R30,1*
G04 #@! TO.N,/ETH_RXD1*
X44000000Y-36925000D03*
G04 #@! TO.P,R30,2*
G04 #@! TO.N,/RXD1*
X44000000Y-35275000D03*
G04 #@! TD*
D44*
G04 #@! TO.P,Y1,1,1*
G04 #@! TO.N,/XTAL_N*
X44625000Y-48325000D03*
G04 #@! TO.P,Y1,2,2*
G04 #@! TO.N,GND*
X46825000Y-48325000D03*
G04 #@! TO.P,Y1,3,3*
G04 #@! TO.N,/XTAL_P*
X46825000Y-46625000D03*
G04 #@! TO.P,Y1,4,4*
G04 #@! TO.N,GND*
X44625000Y-46625000D03*
G04 #@! TD*
D45*
G04 #@! TO.N,GND*
X49600000Y-58700000D03*
X49600000Y-60500000D03*
G04 #@! TO.N,/VSS*
X43900000Y-72200000D03*
G04 #@! TO.N,/12V*
X40600000Y-74000000D03*
G04 #@! TO.N,GND*
X45686214Y-55497098D03*
X46903200Y-55674500D03*
X44000000Y-60100000D03*
G04 #@! TO.N,+3V3*
X50600000Y-55500000D03*
X50590000Y-52900000D03*
X46900000Y-51100000D03*
G04 #@! TO.N,GND*
X39700000Y-52400000D03*
X38600000Y-51300000D03*
X37500000Y-51300000D03*
X37500000Y-52400000D03*
X38600000Y-52400000D03*
X39700000Y-53600000D03*
X38600000Y-53600000D03*
G04 #@! TO.N,/ETH_CRS_DV*
X34700000Y-48900000D03*
G04 #@! TO.N,/LAN_3P3V*
X34345000Y-53200000D03*
G04 #@! TO.N,/VIN_NEG*
X41200000Y-65700000D03*
G04 #@! TO.N,/12V*
X48000000Y-63400000D03*
X40700000Y-63400000D03*
X36944002Y-74875000D03*
G04 #@! TO.N,/VSS*
X37600000Y-66800000D03*
G04 #@! TO.N,/VIN_NEG*
X40050000Y-67831233D03*
G04 #@! TO.N,/VSS*
X41200000Y-67800000D03*
X38200000Y-65200000D03*
G04 #@! TO.N,GND*
X49600000Y-57600000D03*
X35200000Y-33597987D03*
X50700000Y-64600000D03*
X51500000Y-79500000D03*
X38075000Y-41275000D03*
X50800000Y-70100000D03*
X50800000Y-35100000D03*
X45775000Y-47575000D03*
X32675000Y-36375000D03*
X47925000Y-49925000D03*
X46400000Y-33700000D03*
X50200000Y-48800000D03*
X47149500Y-44400000D03*
X43325000Y-48525000D03*
X37925000Y-46500000D03*
X30480000Y-77980000D03*
X37470000Y-53600000D03*
X50200000Y-40500000D03*
G04 #@! TO.N,/EN*
X41427337Y-35000000D03*
X46075000Y-40333833D03*
G04 #@! TO.N,/ETH_MDC*
X36200000Y-43998043D03*
X37800000Y-48700000D03*
G04 #@! TO.N,/S_VP*
X47075000Y-41775000D03*
G04 #@! TO.N,/S_VN*
X48075000Y-39975000D03*
G04 #@! TO.N,/IO34*
X47683579Y-38536672D03*
G04 #@! TO.N,/ETH_TXD1*
X39775000Y-44875000D03*
X41500000Y-49400000D03*
G04 #@! TO.N,/IO35*
X47975450Y-37956444D03*
G04 #@! TO.N,/IO32*
X47465834Y-37456944D03*
G04 #@! TO.N,/ETH_CRS_DV*
X43349500Y-37600000D03*
G04 #@! TO.N,+3V3*
X42600000Y-46169609D03*
X43575000Y-44975000D03*
X39475000Y-43975000D03*
X38375000Y-43175000D03*
X45283333Y-43283333D03*
X44795000Y-53975000D03*
G04 #@! TO.N,/IO33*
X47800000Y-36900000D03*
G04 #@! TO.N,/U0RXD*
X49700000Y-34000000D03*
G04 #@! TO.N,Net-(R4-Pad2)*
X34200000Y-33100000D03*
X34024500Y-35100000D03*
X48100000Y-35400000D03*
X32800000Y-38700000D03*
G04 #@! TO.N,/ETH_TXD0*
X39075000Y-44975000D03*
X41970000Y-50700000D03*
G04 #@! TO.N,/ETH_MDIO*
X36171800Y-43271800D03*
X35700000Y-48000000D03*
G04 #@! TO.N,/BOOT*
X39600000Y-35500000D03*
X32649500Y-37390450D03*
G04 #@! TO.N,/IO14*
X43123419Y-36502033D03*
G04 #@! TO.N,/IO12*
X42474500Y-36474500D03*
X31900000Y-51300000D03*
G04 #@! TO.N,/IO13*
X41197209Y-35607367D03*
G04 #@! TO.N,/U0TXD*
X51053200Y-37046800D03*
G04 #@! TO.N,/RTL_LED1*
X35370000Y-50200000D03*
X32200000Y-80500000D03*
G04 #@! TO.N,/RTL_LED0*
X35092708Y-49472249D03*
X32100000Y-81400000D03*
G04 #@! TO.N,/MDI0_P*
X35820000Y-57450000D03*
G04 #@! TO.N,/MDI0_N*
X35851222Y-58950000D03*
G04 #@! TO.N,/ETH_LED1*
X50300000Y-88100000D03*
G04 #@! TO.N,/MDI1_P*
X41970878Y-58950000D03*
G04 #@! TO.N,/MDI1_N*
X42020000Y-57450000D03*
G04 #@! TO.N,/IO15*
X40400000Y-35499500D03*
G04 #@! TO.N,/IO2*
X40276617Y-36953233D03*
G04 #@! TO.N,/IO4*
X39075500Y-36900000D03*
G04 #@! TO.N,/IO16*
X38300000Y-35500000D03*
G04 #@! TO.N,/IO5*
X34425000Y-44225000D03*
G04 #@! TO.N,/IO37*
X48075000Y-41074000D03*
G04 #@! TO.N,/IO38*
X47475000Y-40524500D03*
G04 #@! TO.N,Net-(R22-Pad2)*
X34600446Y-35400233D03*
X33400000Y-38200000D03*
G04 #@! TO.N,/LAN_3P3V*
X33570000Y-54700000D03*
G04 #@! TO.N,/VIN_NEG*
X48100000Y-75800000D03*
X35650000Y-70631233D03*
G04 #@! TO.N,/POE_NEG*
X39370000Y-69800000D03*
X39370000Y-71400000D03*
X38500000Y-70606233D03*
X38520000Y-71400000D03*
X37570000Y-70600000D03*
X37570000Y-69800000D03*
X37570000Y-71400000D03*
X39370000Y-70600000D03*
X38470000Y-69800000D03*
G04 #@! TO.N,/RXD0*
X45500000Y-36100000D03*
X42270000Y-54200000D03*
G04 #@! TO.N,/RXD1*
X42270000Y-53400000D03*
X44000000Y-36100000D03*
G04 #@! TO.N,Net-(R32-Pad2)*
X35833556Y-54963556D03*
X37200000Y-40000000D03*
G04 #@! TD*
D46*
G04 #@! TO.N,/VSS*
X42325000Y-72200000D02*
X42100000Y-72425000D01*
X43900000Y-72200000D02*
X42325000Y-72200000D01*
G04 #@! TO.N,/POE_NEG*
X37300000Y-71606233D02*
X37300000Y-73556233D01*
D47*
X37300000Y-72531233D02*
X37300000Y-71606233D01*
X37570000Y-71336233D02*
X37570000Y-71400000D01*
X37300000Y-71606233D02*
X38300000Y-70606233D01*
X38300000Y-70606233D02*
X37570000Y-71336233D01*
D46*
X37300000Y-73556233D02*
X37025000Y-73831233D01*
D47*
X37300000Y-72531233D02*
X37300000Y-73556233D01*
X37800000Y-71106233D02*
X38300000Y-70606233D01*
X37800000Y-72531233D02*
X37800000Y-71106233D01*
G04 #@! TO.N,/12V*
X38300000Y-73556233D02*
X38575000Y-73831233D01*
X38300000Y-72531233D02*
X38300000Y-73556233D01*
G04 #@! TO.N,/POE_NEG*
X38800000Y-71106233D02*
X38300000Y-70606233D01*
X38800000Y-72531233D02*
X38800000Y-71106233D01*
X39300000Y-71606233D02*
X38300000Y-70606233D01*
X39300000Y-72531233D02*
X39300000Y-71606233D01*
G04 #@! TO.N,/VSS*
X37700000Y-67800000D02*
X37800000Y-67700000D01*
X36100000Y-67800000D02*
X37700000Y-67800000D01*
X37800000Y-68681233D02*
X37800000Y-67700000D01*
X37800000Y-67700000D02*
X37800000Y-67600000D01*
G04 #@! TO.N,/FBH*
X41700000Y-62850000D02*
X42350000Y-62200000D01*
X38800000Y-66400000D02*
X40300000Y-64900000D01*
X41200000Y-64900000D02*
X41700000Y-64400000D01*
X41700000Y-64400000D02*
X41700000Y-62850000D01*
X38800000Y-68681233D02*
X38800000Y-66400000D01*
X40300000Y-64900000D02*
X41200000Y-64900000D01*
G04 #@! TO.N,/COMP*
X38300000Y-66550000D02*
X38025000Y-66275000D01*
X38300000Y-68681233D02*
X38300000Y-66550000D01*
D46*
G04 #@! TO.N,/VSS*
X37800000Y-67000000D02*
X37800000Y-67600000D01*
X37600000Y-66800000D02*
X37800000Y-67000000D01*
D47*
G04 #@! TO.N,/VIN_NEG*
X39300000Y-68200000D02*
X39500000Y-68000000D01*
X39300000Y-68681233D02*
X39300000Y-68200000D01*
G04 #@! TO.N,Net-(C20-Pad1)*
X37300000Y-68300000D02*
X37300000Y-68681233D01*
X37200000Y-68200000D02*
X37300000Y-68300000D01*
X36400000Y-68200000D02*
X37200000Y-68200000D01*
D48*
G04 #@! TO.N,/12V*
X42825000Y-74700000D02*
X42100000Y-73975000D01*
X46700000Y-74700000D02*
X42825000Y-74700000D01*
X50230000Y-74170000D02*
X50230000Y-73031233D01*
X49700000Y-74700000D02*
X50230000Y-74170000D01*
X46700000Y-74700000D02*
X49700000Y-74700000D01*
X46310000Y-75090000D02*
X46700000Y-74700000D01*
X46310000Y-77031233D02*
X46310000Y-75090000D01*
D46*
G04 #@! TO.N,GND*
X49600000Y-59850000D02*
X49500000Y-59750000D01*
X49600000Y-60500000D02*
X49600000Y-59850000D01*
D48*
X49500000Y-59750000D02*
X51300000Y-59750000D01*
D46*
G04 #@! TO.N,/12V*
X48600000Y-60500000D02*
X49100000Y-61000000D01*
X48137500Y-60500000D02*
X48600000Y-60500000D01*
X49100000Y-61000000D02*
X49100000Y-61650000D01*
D48*
G04 #@! TO.N,/VSS*
X32800000Y-64625000D02*
X32800000Y-64000000D01*
D47*
G04 #@! TO.N,/FBH*
X42350000Y-60850000D02*
X42350000Y-62200000D01*
D46*
G04 #@! TO.N,GND*
X50125000Y-51200000D02*
X50125000Y-52175000D01*
D48*
X49840000Y-57360000D02*
X49600000Y-57600000D01*
D46*
X49840000Y-56440000D02*
X49840000Y-56860000D01*
X49840000Y-52460000D02*
X49840000Y-56440000D01*
D48*
X49840000Y-56440000D02*
X49840000Y-57360000D01*
D46*
G04 #@! TO.N,/12V*
X40600000Y-74000000D02*
X40625000Y-73975000D01*
X42100000Y-73975000D02*
X40625000Y-73975000D01*
X40625000Y-73975000D02*
X38718767Y-73975000D01*
X38718767Y-73975000D02*
X38575000Y-73831233D01*
G04 #@! TO.N,/LAN_3P3V*
X35050000Y-59200000D02*
X35625000Y-59775000D01*
X33620000Y-59200000D02*
X35050000Y-59200000D01*
X35625000Y-59775000D02*
X39175000Y-59775000D01*
X31800000Y-60450000D02*
X31800000Y-69200000D01*
X33050000Y-59200000D02*
X31800000Y-60450000D01*
X33620000Y-59200000D02*
X33050000Y-59200000D01*
X33570000Y-59150000D02*
X33620000Y-59200000D01*
X31800000Y-69200000D02*
X31100000Y-69900000D01*
X31100000Y-69900000D02*
X31100000Y-72175000D01*
G04 #@! TO.N,+3V3*
X50600000Y-55500000D02*
X51000000Y-55500000D01*
X50590000Y-52900000D02*
X51000000Y-52900000D01*
G04 #@! TO.N,GND*
X50125000Y-52175000D02*
X49840000Y-52460000D01*
D48*
X50125000Y-49700000D02*
X50125000Y-51200000D01*
X50875000Y-47225000D02*
X50125000Y-47975000D01*
X50125000Y-47975000D02*
X50125000Y-49700000D01*
X50875000Y-45800000D02*
X50875000Y-47225000D01*
X50875000Y-40500000D02*
X50875000Y-45800000D01*
D49*
G04 #@! TO.N,/CAP1*
X46075000Y-44300000D02*
X46300000Y-44075000D01*
X44300000Y-44300000D02*
X46075000Y-44300000D01*
X43825000Y-44125000D02*
X44125000Y-44125000D01*
X43550000Y-43850000D02*
X43825000Y-44125000D01*
X44125000Y-44125000D02*
X44300000Y-44300000D01*
X43550000Y-43458333D02*
X43550000Y-43850000D01*
G04 #@! TO.N,GND*
X47249500Y-44300000D02*
X47850000Y-44300000D01*
X47149500Y-44400000D02*
X47249500Y-44300000D01*
D46*
G04 #@! TO.N,+3V3*
X45400000Y-43400000D02*
X45283333Y-43283333D01*
X47600000Y-43400000D02*
X45400000Y-43400000D01*
X47900000Y-43100000D02*
X47600000Y-43400000D01*
X47900000Y-42575000D02*
X47900000Y-43100000D01*
D47*
X45283333Y-43283333D02*
X45325000Y-43325000D01*
D48*
X48925000Y-42575000D02*
X49300000Y-42200000D01*
X47900000Y-42575000D02*
X48925000Y-42575000D01*
D46*
X49325000Y-39125000D02*
X49500000Y-39300000D01*
X49325000Y-37576471D02*
X49325000Y-39125000D01*
D48*
X51900000Y-49475000D02*
X51675000Y-49700000D01*
X49500000Y-39300000D02*
X51900000Y-39300000D01*
X49325000Y-40500000D02*
X49325000Y-39475000D01*
X49325000Y-39475000D02*
X49500000Y-39300000D01*
X51900000Y-39300000D02*
X51900000Y-49475000D01*
X49300000Y-40525000D02*
X49325000Y-40500000D01*
X49300000Y-42200000D02*
X49300000Y-40525000D01*
D46*
X49325000Y-42175000D02*
X49300000Y-42200000D01*
X51675000Y-54125000D02*
X51600000Y-54200000D01*
X51675000Y-51200000D02*
X51675000Y-54125000D01*
G04 #@! TO.N,Net-(C17-Pad2)*
X48350000Y-57600000D02*
X48350000Y-59337500D01*
X48350000Y-59337500D02*
X48137500Y-59550000D01*
X47950000Y-58000000D02*
X48350000Y-57600000D01*
X46875000Y-58000000D02*
X47950000Y-58000000D01*
X48350000Y-56750000D02*
X48350000Y-57600000D01*
X48800000Y-56300000D02*
X48350000Y-56750000D01*
X48800000Y-54200000D02*
X48800000Y-56300000D01*
G04 #@! TO.N,GND*
X46900000Y-55677700D02*
X46900000Y-56525000D01*
X46903200Y-55674500D02*
X46900000Y-55677700D01*
G04 #@! TO.N,+3V3*
X46900000Y-51875000D02*
X46900000Y-51100000D01*
G04 #@! TO.N,GND*
X45689116Y-55500000D02*
X45686214Y-55497098D01*
X45700000Y-55500000D02*
X45700000Y-51700000D01*
X45700000Y-55500000D02*
X45689116Y-55500000D01*
X45700000Y-56100000D02*
X45700000Y-55500000D01*
X45700000Y-51700000D02*
X45600000Y-51600000D01*
X45600000Y-56200000D02*
X45700000Y-56100000D01*
X45600000Y-51600000D02*
X44745000Y-51600000D01*
X44845000Y-56200000D02*
X45600000Y-56200000D01*
D49*
G04 #@! TO.N,Net-(R26-Pad1)*
X46175000Y-55600000D02*
X46900000Y-54875000D01*
X46900000Y-59200000D02*
X46175000Y-58475000D01*
X46900000Y-60900000D02*
X46900000Y-59200000D01*
X46350000Y-61450000D02*
X46900000Y-60900000D01*
X45862500Y-61450000D02*
X46350000Y-61450000D01*
X46175000Y-58475000D02*
X46175000Y-55600000D01*
D46*
G04 #@! TO.N,GND*
X44600000Y-60100000D02*
X44000000Y-60100000D01*
X45000000Y-60500000D02*
X44600000Y-60100000D01*
X45862500Y-60500000D02*
X45000000Y-60500000D01*
X44000000Y-60850000D02*
X44000000Y-60100000D01*
G04 #@! TO.N,/12V*
X48300000Y-62500000D02*
X48550000Y-62750000D01*
X44800000Y-62200000D02*
X45100000Y-62500000D01*
X44000000Y-62200000D02*
X44800000Y-62200000D01*
D48*
X48550000Y-62750000D02*
X48000000Y-63300000D01*
D46*
X45100000Y-62500000D02*
X48300000Y-62500000D01*
D48*
X49100000Y-62200000D02*
X48550000Y-62750000D01*
X49631233Y-73031233D02*
X50230000Y-73031233D01*
X48000000Y-71400000D02*
X49631233Y-73031233D01*
X48000000Y-63300000D02*
X48000000Y-71400000D01*
X49100000Y-61650000D02*
X49100000Y-62200000D01*
D46*
X48900000Y-61450000D02*
X49100000Y-61650000D01*
X48137500Y-61450000D02*
X48900000Y-61450000D01*
D48*
X50900000Y-61650000D02*
X49100000Y-61650000D01*
G04 #@! TO.N,GND*
X50900000Y-57900000D02*
X50600000Y-57600000D01*
X50900000Y-59750000D02*
X50900000Y-57900000D01*
X50600000Y-57600000D02*
X49600000Y-57600000D01*
X51650000Y-57600000D02*
X50600000Y-57600000D01*
D49*
X49600000Y-57600000D02*
X49780500Y-57780500D01*
G04 #@! TO.N,Net-(C17-Pad1)*
X45325000Y-59012500D02*
X45862500Y-59550000D01*
X45325000Y-58000000D02*
X45325000Y-59012500D01*
G04 #@! TO.N,Net-(R26-Pad1)*
X46900000Y-54875000D02*
X46900000Y-53525000D01*
G04 #@! TO.N,/ETH_TXD1*
X40500000Y-49400000D02*
X41500000Y-49400000D01*
X40320000Y-49580000D02*
X40500000Y-49400000D01*
X40320000Y-50012500D02*
X40320000Y-49580000D01*
G04 #@! TO.N,/ETH_TXEN*
X39100000Y-48800000D02*
X40900000Y-48800000D01*
X38820000Y-49080000D02*
X39100000Y-48800000D01*
X40900000Y-48800000D02*
X41250000Y-48450000D01*
X38820000Y-50012500D02*
X38820000Y-49080000D01*
X41450000Y-48250000D02*
X41250000Y-48450000D01*
G04 #@! TO.N,/ETH_RST*
X39275000Y-47600000D02*
X39900000Y-47600000D01*
X38920000Y-47955000D02*
X39275000Y-47600000D01*
X38320000Y-47990000D02*
X38355000Y-47955000D01*
X38320000Y-50012500D02*
X38320000Y-47990000D01*
X36455000Y-47955000D02*
X38355000Y-47955000D01*
X38355000Y-47955000D02*
X38920000Y-47955000D01*
G04 #@! TO.N,/ETH_MDIO*
X36200000Y-48500000D02*
X35700000Y-48000000D01*
X36600000Y-48500000D02*
X36200000Y-48500000D01*
X37320000Y-49220000D02*
X36600000Y-48500000D01*
X37320000Y-50012500D02*
X37320000Y-49220000D01*
G04 #@! TO.N,/ETH_MDC*
X37820000Y-48720000D02*
X37800000Y-48700000D01*
X37820000Y-50012500D02*
X37820000Y-48720000D01*
G04 #@! TO.N,/IO12*
X31900000Y-49500000D02*
X33800000Y-47600000D01*
X33800000Y-47600000D02*
X33800000Y-46525000D01*
X31900000Y-51300000D02*
X31900000Y-49500000D01*
G04 #@! TO.N,/ETH_CRS_DV*
X33300000Y-48900000D02*
X32745000Y-49455000D01*
X32745000Y-49455000D02*
X32745000Y-50200000D01*
X34700000Y-48900000D02*
X33300000Y-48900000D01*
D48*
G04 #@! TO.N,/SWO*
X43750000Y-69150000D02*
X43750000Y-67200000D01*
X46230000Y-71630000D02*
X43750000Y-69150000D01*
X46230000Y-73031233D02*
X46230000Y-71630000D01*
G04 #@! TO.N,/VSS*
X41200000Y-67800000D02*
X41200000Y-68512500D01*
G04 #@! TO.N,/VIN_NEG*
X41200000Y-65700000D02*
X41200000Y-66687500D01*
D47*
G04 #@! TO.N,/VSS*
X35550000Y-68350000D02*
X36100000Y-67800000D01*
X33950000Y-68350000D02*
X35550000Y-68350000D01*
X33025000Y-69100000D02*
X33200000Y-69100000D01*
X33200000Y-69100000D02*
X33950000Y-68350000D01*
G04 #@! TO.N,/COMP*
X36725000Y-66275000D02*
X35400000Y-67600000D01*
X38025000Y-66275000D02*
X36725000Y-66275000D01*
X35400000Y-67600000D02*
X34625000Y-67600000D01*
G04 #@! TO.N,/POE_NEG*
X37550000Y-70106233D02*
X36575000Y-70106233D01*
X37550000Y-69631233D02*
X37550000Y-70106233D01*
X35350000Y-70106233D02*
X34650000Y-70806233D01*
X36575000Y-70106233D02*
X35350000Y-70106233D01*
D48*
G04 #@! TO.N,/12V*
X50798767Y-73600000D02*
X50230000Y-73031233D01*
X53280000Y-73600000D02*
X50798767Y-73600000D01*
X53340000Y-73660000D02*
X53280000Y-73600000D01*
D46*
X34868767Y-74875000D02*
X33825000Y-73831233D01*
X36944002Y-74875000D02*
X34868767Y-74875000D01*
G04 #@! TO.N,/MDI0_CT*
X32225000Y-75425000D02*
X32600000Y-75800000D01*
X31100000Y-75425000D02*
X32225000Y-75425000D01*
X32600000Y-75800000D02*
X37458767Y-75800000D01*
X37458767Y-75800000D02*
X38690000Y-77031233D01*
G04 #@! TO.N,/POE_NEG*
X39655000Y-75136233D02*
X38330000Y-75136233D01*
X38330000Y-75136233D02*
X37025000Y-73831233D01*
G04 #@! TO.N,/SWO*
X42193767Y-70606233D02*
X42200000Y-70600000D01*
X41993767Y-70606233D02*
X42193767Y-70606233D01*
D47*
X41993767Y-70606233D02*
X42200000Y-70400000D01*
D46*
X41106233Y-70606233D02*
X41993767Y-70606233D01*
D47*
X40425000Y-70606233D02*
X41106233Y-70606233D01*
D46*
G04 #@! TO.N,/VIN_NEG*
X40018767Y-67800000D02*
X40050000Y-67831233D01*
X39700000Y-67800000D02*
X40018767Y-67800000D01*
X39500000Y-68000000D02*
X39700000Y-67800000D01*
X40412500Y-66687500D02*
X41200000Y-66687500D01*
X40100000Y-67000000D02*
X40412500Y-66687500D01*
X40100000Y-67781233D02*
X40100000Y-67000000D01*
X40050000Y-67831233D02*
X40100000Y-67781233D01*
D47*
G04 #@! TO.N,/VSS*
X32800000Y-64000000D02*
X33400000Y-63400000D01*
X33400000Y-63400000D02*
X34525000Y-63400000D01*
G04 #@! TO.N,Net-(C6-Pad1)*
X32975000Y-66875000D02*
X32975000Y-67600000D01*
X32800000Y-66700000D02*
X32975000Y-66875000D01*
X32800000Y-66175000D02*
X32800000Y-66700000D01*
G04 #@! TO.N,Net-(C20-Pad1)*
X35500000Y-69100000D02*
X34575000Y-69100000D01*
X36400000Y-68200000D02*
X35500000Y-69100000D01*
G04 #@! TO.N,Net-(R6-Pad2)*
X32970000Y-70300000D02*
X32970000Y-70775000D01*
X33370000Y-69900000D02*
X32970000Y-70300000D01*
X34990547Y-69900000D02*
X33370000Y-69900000D01*
X35284314Y-69606233D02*
X34990547Y-69900000D01*
X36575000Y-69606233D02*
X35284314Y-69606233D01*
D48*
G04 #@! TO.N,/VSS*
X34525000Y-64325000D02*
X34525000Y-63400000D01*
X38200000Y-65200000D02*
X35400000Y-65200000D01*
X35400000Y-65200000D02*
X34525000Y-64325000D01*
D49*
G04 #@! TO.N,/VIN_NEG*
X41200000Y-65800000D02*
X41400000Y-65600000D01*
X41200000Y-66687500D02*
X41200000Y-65800000D01*
X40050000Y-67831233D02*
X40056267Y-67831233D01*
G04 #@! TO.N,/LAN_3P3V*
X39000000Y-59600000D02*
X39175000Y-59775000D01*
X39000000Y-59020000D02*
X39000000Y-59600000D01*
X39070000Y-58950000D02*
X39000000Y-59020000D01*
D46*
X39175000Y-59775000D02*
X42195000Y-59775000D01*
X42195000Y-59775000D02*
X42485000Y-59485000D01*
X42645000Y-59325000D02*
X42485000Y-59485000D01*
X33570000Y-59150000D02*
X33570000Y-54700000D01*
G04 #@! TO.N,/VSS*
X41075000Y-70056233D02*
X41025000Y-70056233D01*
X41200000Y-69931233D02*
X41075000Y-70056233D01*
X41200000Y-68512500D02*
X41200000Y-69931233D01*
D49*
G04 #@! TO.N,/XTAL_P*
X42500000Y-44500000D02*
X42500000Y-43458333D01*
X42875000Y-44875000D02*
X42500000Y-44500000D01*
X43300000Y-45600000D02*
X42875000Y-45175000D01*
X45799038Y-45600000D02*
X43300000Y-45600000D01*
X45799519Y-45599519D02*
X45799038Y-45600000D01*
X46825000Y-46625000D02*
X45799519Y-45599519D01*
X42875000Y-45175000D02*
X42875000Y-44875000D01*
G04 #@! TO.N,/XTAL_N*
X43400000Y-46200000D02*
X43400000Y-47100000D01*
X42474520Y-45274520D02*
X43400000Y-46200000D01*
X43400000Y-47100000D02*
X44625000Y-48325000D01*
X42474520Y-44975000D02*
X42474520Y-45274520D01*
D46*
G04 #@! TO.N,/MDI0_CT*
X39960000Y-78301233D02*
X38690000Y-77031233D01*
X39960000Y-79571233D02*
X39960000Y-78301233D01*
X31100000Y-73825000D02*
X31100000Y-75425000D01*
D48*
G04 #@! TO.N,GND*
X53340000Y-66040000D02*
X51378767Y-66040000D01*
D46*
X35175000Y-40175000D02*
X35175000Y-36825000D01*
D47*
X36132500Y-53700000D02*
X35097138Y-53700000D01*
D49*
X39055000Y-91281233D02*
X37775000Y-90001233D01*
D46*
X34000000Y-36800000D02*
X35200000Y-36800000D01*
X36275000Y-36750000D02*
X37625000Y-36750000D01*
D49*
X42475000Y-48550000D02*
X43300000Y-48550000D01*
X43300000Y-48550000D02*
X43325000Y-48525000D01*
X36000000Y-34100000D02*
X36000000Y-34400000D01*
D46*
X38075000Y-41275000D02*
X36275000Y-41275000D01*
X45675000Y-33700000D02*
X46400000Y-33700000D01*
D49*
X36400000Y-34000000D02*
X36000000Y-34400000D01*
X47855000Y-49855000D02*
X47925000Y-49925000D01*
X51506233Y-79506233D02*
X51500000Y-79500000D01*
X31100000Y-76975000D02*
X31100000Y-78450000D01*
D46*
X36225000Y-36800000D02*
X36275000Y-36750000D01*
D49*
X37525000Y-34000000D02*
X36400000Y-34000000D01*
X48495000Y-90001233D02*
X49610000Y-88886233D01*
D46*
X32675000Y-36375000D02*
X33100000Y-36800000D01*
D49*
X52450000Y-79506233D02*
X51506233Y-79506233D01*
D46*
X36275000Y-41275000D02*
X35175000Y-40175000D01*
X33100000Y-36800000D02*
X34000000Y-36800000D01*
D47*
X35097138Y-53700000D02*
X34672138Y-54125000D01*
D49*
X50800000Y-35925000D02*
X50800000Y-35100000D01*
D46*
X50875000Y-40500000D02*
X50200000Y-40500000D01*
X31100000Y-79475000D02*
X31200000Y-79575000D01*
X30970000Y-77980000D02*
X31100000Y-77850000D01*
D47*
X34672138Y-54125000D02*
X32795000Y-54125000D01*
D49*
X32795000Y-51700000D02*
X32795000Y-56950000D01*
X44000000Y-60850000D02*
X43951233Y-60850000D01*
X48625000Y-49225000D02*
X47925000Y-49925000D01*
D47*
X36132500Y-53700000D02*
X37320000Y-53700000D01*
D49*
X35200000Y-33597987D02*
X35497987Y-33597987D01*
X44825000Y-46625000D02*
X46525000Y-48325000D01*
D46*
X30480000Y-77980000D02*
X30970000Y-77980000D01*
X31100000Y-76975000D02*
X31100000Y-79475000D01*
D49*
X47215000Y-91281233D02*
X39055000Y-91281233D01*
D46*
X35175000Y-36825000D02*
X35200000Y-36800000D01*
D49*
X46111123Y-49855000D02*
X47855000Y-49855000D01*
X31100000Y-77850000D02*
X31100000Y-79656233D01*
X31100000Y-79656233D02*
X31050000Y-79706233D01*
X35497987Y-33597987D02*
X36000000Y-34100000D01*
D46*
X35200000Y-36800000D02*
X36225000Y-36800000D01*
D49*
X49610000Y-88886233D02*
X49610000Y-82871233D01*
X48495000Y-90001233D02*
X47215000Y-91281233D01*
G04 #@! TO.N,/EN*
X33000000Y-35700000D02*
X31800000Y-35700000D01*
X33200233Y-35900233D02*
X33000000Y-35700000D01*
X34600233Y-35900233D02*
X36299767Y-35900233D01*
X34600233Y-35900233D02*
X34117626Y-35900233D01*
X34600233Y-35900233D02*
X33200233Y-35900233D01*
X39800000Y-34900000D02*
X39700000Y-35000000D01*
X37900000Y-35000000D02*
X38000000Y-35000000D01*
X45066667Y-40483333D02*
X45275000Y-40483333D01*
X44425000Y-40483333D02*
X45066667Y-40483333D01*
X31800000Y-35000000D02*
X31800000Y-33700000D01*
X36299767Y-35900233D02*
X37200000Y-35000000D01*
X30480000Y-40780000D02*
X31800000Y-39460000D01*
X41427337Y-35000000D02*
X39700000Y-35000000D01*
X31800000Y-35700000D02*
X31800000Y-35000000D01*
X38700000Y-35000000D02*
X39700000Y-35000000D01*
X40575000Y-34000000D02*
X39800000Y-34000000D01*
X39800000Y-34000000D02*
X39075000Y-34000000D01*
X38000000Y-35000000D02*
X38700000Y-35000000D01*
X45066667Y-40483333D02*
X45925500Y-40483333D01*
X45925500Y-40483333D02*
X46075000Y-40333833D01*
X37200000Y-35000000D02*
X38700000Y-35000000D01*
X31800000Y-39460000D02*
X31800000Y-35700000D01*
X39800000Y-34000000D02*
X39800000Y-34900000D01*
G04 #@! TO.N,/ETH_MDC*
X36975000Y-43175000D02*
X37664948Y-43175000D01*
X37664948Y-43175000D02*
X38256615Y-42583333D01*
X36200000Y-43950000D02*
X36475000Y-43675000D01*
X36475000Y-43675000D02*
X36975000Y-43175000D01*
X36200000Y-43998043D02*
X36200000Y-43950000D01*
X38256615Y-42583333D02*
X39525000Y-42583333D01*
G04 #@! TO.N,/S_VP*
X47075000Y-41775000D02*
X46966667Y-41883333D01*
X46966667Y-41883333D02*
X44425000Y-41883333D01*
G04 #@! TO.N,/S_VN*
X47177944Y-39975000D02*
X48075000Y-39975000D01*
X46319611Y-40833333D02*
X47177944Y-39975000D01*
X44425000Y-40833333D02*
X46319611Y-40833333D01*
G04 #@! TO.N,/IO34*
X46825000Y-38825000D02*
X45516667Y-40133333D01*
X45516667Y-40133333D02*
X44425000Y-40133333D01*
X47683579Y-38536672D02*
X47395251Y-38825000D01*
X47395251Y-38825000D02*
X46825000Y-38825000D01*
G04 #@! TO.N,/ETH_TXD1*
X40400000Y-44650000D02*
X40175000Y-44875000D01*
X40400000Y-43458333D02*
X40400000Y-44650000D01*
X40175000Y-44875000D02*
X39775000Y-44875000D01*
G04 #@! TO.N,/IO35*
X46175000Y-38475000D02*
X45942497Y-38707503D01*
X45301661Y-39783333D02*
X44425000Y-39783333D01*
X47485530Y-37956444D02*
X46966974Y-38475000D01*
X45942497Y-39142497D02*
X45301661Y-39783333D01*
X45942497Y-38707503D02*
X45942497Y-39142497D01*
X46966974Y-38475000D02*
X46175000Y-38475000D01*
X47975450Y-37956444D02*
X47485530Y-37956444D01*
G04 #@! TO.N,/IO32*
X45575000Y-38475000D02*
X45575000Y-38944988D01*
X47465834Y-37456944D02*
X47465834Y-37481166D01*
X46822000Y-38125000D02*
X45925000Y-38125000D01*
X45086655Y-39433333D02*
X44425000Y-39433333D01*
X45925000Y-38125000D02*
X45575000Y-38475000D01*
X47465834Y-37481166D02*
X46822000Y-38125000D01*
X45575000Y-38944988D02*
X45086655Y-39433333D01*
G04 #@! TO.N,/ETH_CRS_DV*
X43200000Y-37950000D02*
X43200000Y-38558333D01*
X43200000Y-37749500D02*
X43349500Y-37600000D01*
X43200000Y-37950000D02*
X43200000Y-37749500D01*
G04 #@! TO.N,/ETH_RXD1*
X43624500Y-38025500D02*
X43550000Y-38100000D01*
X44000000Y-37656607D02*
X44000000Y-36925000D01*
X43550000Y-38100000D02*
X43556607Y-38100000D01*
X43550000Y-38100000D02*
X43550000Y-38558333D01*
X43556607Y-38100000D02*
X44000000Y-37656607D01*
G04 #@! TO.N,/ETH_RXD0*
X44800000Y-38700000D02*
X44800000Y-37625000D01*
X44800000Y-37625000D02*
X45500000Y-36925000D01*
X44425000Y-38733333D02*
X44766667Y-38733333D01*
X44766667Y-38733333D02*
X44800000Y-38700000D01*
G04 #@! TO.N,+3V3*
X41800000Y-43458333D02*
X41800000Y-44945026D01*
D46*
X44125000Y-34525000D02*
X43075000Y-34525000D01*
X49325000Y-37576471D02*
X48048529Y-36300000D01*
D49*
X42475000Y-46375000D02*
X42475000Y-47000000D01*
X51700000Y-37500000D02*
X51700000Y-39800000D01*
X36100000Y-44875000D02*
X37900000Y-44875000D01*
D46*
X42829308Y-34525000D02*
X42300000Y-35054308D01*
D49*
X42850000Y-44250000D02*
X43575000Y-44975000D01*
X39116667Y-42933333D02*
X38916667Y-42933333D01*
D46*
X49275000Y-42375000D02*
X49300000Y-42400000D01*
D49*
X42150000Y-37450000D02*
X42150000Y-37357107D01*
X44795000Y-53975000D02*
X44795000Y-54700000D01*
X38375000Y-43175000D02*
X38616667Y-42933333D01*
D46*
X49300000Y-42400000D02*
X49320000Y-42380000D01*
D49*
X43100000Y-34200000D02*
X43100000Y-34500000D01*
X37900000Y-44875000D02*
X37925000Y-44900000D01*
D46*
X46325000Y-35925000D02*
X46325000Y-34847183D01*
D49*
X39525000Y-42933333D02*
X39116667Y-42933333D01*
X42075000Y-45220026D02*
X42075000Y-45644609D01*
X42225000Y-34000000D02*
X42900000Y-34000000D01*
X33800000Y-44875000D02*
X36100000Y-44875000D01*
X42150000Y-37450000D02*
X42150000Y-37050000D01*
X52500000Y-35887500D02*
X52500000Y-36700000D01*
X42075000Y-45644609D02*
X42600000Y-46169609D01*
X44425000Y-43283333D02*
X45283333Y-43283333D01*
X42150000Y-38558333D02*
X42150000Y-37450000D01*
D46*
X46325000Y-34847183D02*
X46002817Y-34525000D01*
D49*
X45283333Y-43283333D02*
X45350000Y-43350000D01*
D46*
X46700000Y-36300000D02*
X46325000Y-35925000D01*
D49*
X44795000Y-53200000D02*
X44795000Y-53975000D01*
D46*
X48048529Y-36300000D02*
X46700000Y-36300000D01*
D49*
X41800000Y-44945026D02*
X42075000Y-45220026D01*
X37925000Y-44950000D02*
X37925000Y-43625000D01*
D46*
X43075000Y-34525000D02*
X42829308Y-34525000D01*
X42300000Y-35054308D02*
X42300000Y-35725000D01*
X46002817Y-34525000D02*
X44125000Y-34525000D01*
D49*
X37925000Y-43625000D02*
X38375000Y-43175000D01*
X42850000Y-43458333D02*
X42850000Y-44250000D01*
X41975000Y-36875000D02*
X41975000Y-36050000D01*
D46*
X44125000Y-33700000D02*
X44125000Y-34525000D01*
D49*
X42150000Y-37050000D02*
X41975000Y-36875000D01*
X41975000Y-36050000D02*
X42300000Y-35725000D01*
X43100000Y-34500000D02*
X43075000Y-34525000D01*
X52500000Y-36700000D02*
X51700000Y-37500000D01*
X42600000Y-46169609D02*
X42594609Y-46175000D01*
X38616667Y-42933333D02*
X39116667Y-42933333D01*
X42900000Y-34000000D02*
X43100000Y-34200000D01*
G04 #@! TO.N,/IO33*
X47800000Y-36900000D02*
X46644974Y-36900000D01*
X46644974Y-36900000D02*
X45162507Y-38382467D01*
X45162507Y-38382467D02*
X45162507Y-38862507D01*
X44941681Y-39083333D02*
X44425000Y-39083333D01*
X45162507Y-38862507D02*
X44941681Y-39083333D01*
G04 #@! TO.N,/XTAL_P*
X47600000Y-46625000D02*
X48600000Y-47625000D01*
X46825000Y-46625000D02*
X47600000Y-46625000D01*
G04 #@! TO.N,/U0RXD*
X49025000Y-34000000D02*
X48925000Y-33900000D01*
X49700000Y-34000000D02*
X49025000Y-34000000D01*
G04 #@! TO.N,/XTAL_N*
X42474520Y-44975000D02*
X42475000Y-44974520D01*
X44625000Y-50125000D02*
X44625000Y-48325000D01*
X42150000Y-44650480D02*
X42474520Y-44975000D01*
X42150000Y-43458333D02*
X42150000Y-44650480D01*
G04 #@! TO.N,/VDD3P3*
X46108333Y-42233333D02*
X46250000Y-42375000D01*
X44425000Y-42233333D02*
X46108333Y-42233333D01*
X46041667Y-42583333D02*
X46250000Y-42375000D01*
X44425000Y-42583333D02*
X46041667Y-42583333D01*
G04 #@! TO.N,/ETH_TXEN*
X41450000Y-43458333D02*
X41450000Y-48250000D01*
G04 #@! TO.N,Net-(R4-Pad2)*
X32805026Y-45900000D02*
X32550000Y-45644974D01*
X48100000Y-35400000D02*
X47275000Y-35400000D01*
X32550000Y-45644974D02*
X32550000Y-43150000D01*
X40504969Y-46140006D02*
X39485052Y-46140006D01*
X32550000Y-43150000D02*
X32900000Y-42800000D01*
X39485052Y-46140006D02*
X39245046Y-45900000D01*
X34024500Y-35100000D02*
X34024500Y-33175500D01*
X39245046Y-45900000D02*
X32805026Y-45900000D01*
X41100000Y-45544974D02*
X40504969Y-46140006D01*
X41100000Y-43458333D02*
X41100000Y-45544974D01*
X34024500Y-33175500D02*
X34100000Y-33100000D01*
X32900000Y-38800000D02*
X32800000Y-38700000D01*
X32900000Y-42800000D02*
X32900000Y-38800000D01*
X34100000Y-33100000D02*
X34200000Y-33100000D01*
G04 #@! TO.N,/ETH_TXD0*
X41970000Y-50700000D02*
X41007500Y-50700000D01*
X39525000Y-43283333D02*
X39061641Y-43283333D01*
X38897487Y-43447487D02*
X38897487Y-44797487D01*
X38897487Y-44797487D02*
X39075000Y-44975000D01*
X39061641Y-43283333D02*
X38897487Y-43447487D01*
G04 #@! TO.N,/ETH_MDIO*
X36171800Y-43233225D02*
X36630025Y-42775000D01*
X37569974Y-42775000D02*
X38111641Y-42233333D01*
X36630025Y-42775000D02*
X37569974Y-42775000D01*
X36171800Y-43271800D02*
X36171800Y-43233225D01*
X38111641Y-42233333D02*
X39525000Y-42233333D01*
G04 #@! TO.N,/BOOT*
X39600000Y-36150000D02*
X39600000Y-35500000D01*
X40067893Y-37775000D02*
X40575000Y-37775000D01*
X32200000Y-37839950D02*
X32649500Y-37390450D01*
X39575000Y-36175000D02*
X39575000Y-37282107D01*
X30480000Y-43320000D02*
X32200000Y-41600000D01*
X39575000Y-37282107D02*
X40067893Y-37775000D01*
X40750000Y-37950000D02*
X40750000Y-38558333D01*
X32200000Y-41600000D02*
X32200000Y-37839950D01*
X40575000Y-37775000D02*
X40750000Y-37950000D01*
X39575000Y-36175000D02*
X39600000Y-36150000D01*
G04 #@! TO.N,/ETH_CLK*
X39525000Y-39433333D02*
X38591667Y-39433333D01*
X38591667Y-39433333D02*
X38025000Y-40000000D01*
G04 #@! TO.N,/IO14*
X42850000Y-36806107D02*
X42850000Y-38558333D01*
X42974500Y-36650952D02*
X42974500Y-36681607D01*
X42974500Y-36681607D02*
X42850000Y-36806107D01*
X43123419Y-36502033D02*
X42974500Y-36650952D01*
G04 #@! TO.N,/VDD_SDIO*
X38408333Y-39083333D02*
X37675000Y-38350000D01*
X36075000Y-38200000D02*
X37525000Y-38200000D01*
X39525000Y-39083333D02*
X38408333Y-39083333D01*
G04 #@! TO.N,/IO12*
X42474500Y-36474500D02*
X42500000Y-36500000D01*
X42500000Y-36500000D02*
X42500000Y-38558333D01*
G04 #@! TO.N,/IO13*
X41800000Y-37194975D02*
X41800000Y-38558333D01*
X41197209Y-36592184D02*
X41800000Y-37194975D01*
X41197209Y-35607367D02*
X41197209Y-36592184D01*
G04 #@! TO.N,/AVDD10*
X37320000Y-54887500D02*
X37320000Y-55350000D01*
X35570000Y-56200000D02*
X34820000Y-56950000D01*
X34820000Y-56950000D02*
X34245000Y-56950000D01*
X36470000Y-56200000D02*
X35570000Y-56200000D01*
X37320000Y-55350000D02*
X36470000Y-56200000D01*
G04 #@! TO.N,/DVDD10*
X35095000Y-52700000D02*
X34345000Y-51950000D01*
X36070000Y-52700000D02*
X35095000Y-52700000D01*
G04 #@! TO.N,/U0TXD*
X48925000Y-36125000D02*
X48925000Y-35400000D01*
X51053200Y-37046800D02*
X49846800Y-37046800D01*
X49846800Y-37046800D02*
X48925000Y-36125000D01*
G04 #@! TO.N,/RSET*
X36404994Y-55700000D02*
X35870000Y-55700000D01*
X36320000Y-55700000D02*
X35870000Y-55700000D01*
X36820000Y-54887500D02*
X36820000Y-55284994D01*
X36820000Y-55284994D02*
X36404994Y-55700000D01*
X35870000Y-55700000D02*
X34645000Y-55700000D01*
G04 #@! TO.N,/RXDV*
X42757500Y-55200000D02*
X41320000Y-55200000D01*
X41320000Y-55200000D02*
X41007500Y-54887500D01*
X43257500Y-54700000D02*
X42757500Y-55200000D01*
X41007500Y-54887500D02*
X40320000Y-54887500D01*
G04 #@! TO.N,/ETH_RST*
X36100000Y-47600000D02*
X36455000Y-47955000D01*
X36100000Y-46525000D02*
X36100000Y-47600000D01*
G04 #@! TO.N,/RTL_LED1*
X35570000Y-50700000D02*
X35370000Y-50500000D01*
X52325000Y-81031233D02*
X52600000Y-81306233D01*
X52600000Y-82356233D02*
X52450000Y-82506233D01*
X52600000Y-81306233D02*
X52600000Y-82356233D01*
X32900000Y-80500000D02*
X33431233Y-81031233D01*
X35370000Y-50500000D02*
X35370000Y-50200000D01*
X36132500Y-50700000D02*
X35570000Y-50700000D01*
X33431233Y-81031233D02*
X52325000Y-81031233D01*
X32200000Y-80500000D02*
X32900000Y-80500000D01*
G04 #@! TO.N,/RTL_LED0*
X32100000Y-81400000D02*
X31093767Y-81400000D01*
X36745026Y-49470000D02*
X36820000Y-49544974D01*
X31200000Y-81506233D02*
X31200000Y-82556233D01*
X35092708Y-49472249D02*
X35094957Y-49470000D01*
X35094957Y-49470000D02*
X36745026Y-49470000D01*
X31093767Y-81400000D02*
X31200000Y-81506233D01*
X31200000Y-82556233D02*
X31050000Y-82706233D01*
X36820000Y-49544974D02*
X36820000Y-50012500D01*
G04 #@! TO.N,/MDI0_P*
X36745000Y-56775000D02*
X36745000Y-57450000D01*
X37820000Y-55700000D02*
X36745000Y-56775000D01*
X36745000Y-57450000D02*
X35820000Y-57450000D01*
X37820000Y-54887500D02*
X37820000Y-55700000D01*
G04 #@! TO.N,/MDI0_N*
X37570000Y-58062500D02*
X36682500Y-58950000D01*
X38320000Y-54887500D02*
X38320000Y-55950000D01*
X37570000Y-56700000D02*
X37570000Y-58062500D01*
X38320000Y-55950000D02*
X37570000Y-56700000D01*
X36682500Y-58950000D02*
X35851222Y-58950000D01*
G04 #@! TO.N,/ETH_LED0*
X35235000Y-88235000D02*
X35235000Y-90001233D01*
X31050000Y-84356233D02*
X31356233Y-84356233D01*
X31356233Y-84356233D02*
X35235000Y-88235000D01*
G04 #@! TO.N,/ETH_LED1*
X50300000Y-85200000D02*
X50300000Y-88100000D01*
X52450000Y-84156233D02*
X51343767Y-84156233D01*
X50600000Y-84900000D02*
X50300000Y-85200000D01*
X51343767Y-84156233D02*
X50600000Y-84900000D01*
G04 #@! TO.N,/MDI1_P*
X40570000Y-58187500D02*
X41332500Y-58950000D01*
X39619040Y-56499040D02*
X40369040Y-56499040D01*
X40570000Y-56700000D02*
X40570000Y-58187500D01*
X40369040Y-56499040D02*
X40570000Y-56700000D01*
X41970878Y-58950000D02*
X41332500Y-58950000D01*
X38820000Y-55700000D02*
X39619040Y-56499040D01*
X38820000Y-54887500D02*
X38820000Y-55700000D01*
G04 #@! TO.N,/MDI1_N*
X41332500Y-56527506D02*
X41332500Y-57450000D01*
X40904514Y-56099520D02*
X41332500Y-56527506D01*
X39320000Y-54887500D02*
X39320000Y-55515006D01*
X42020000Y-57450000D02*
X41332500Y-57450000D01*
X39320000Y-55515006D02*
X39904514Y-56099520D01*
X39904514Y-56099520D02*
X40904514Y-56099520D01*
G04 #@! TO.N,/IO15*
X40400000Y-35499500D02*
X40400000Y-35517265D01*
X40796800Y-35914065D02*
X40796800Y-36686749D01*
X40400000Y-35517265D02*
X40796800Y-35914065D01*
X41450000Y-37339949D02*
X41450000Y-38558333D01*
X40796800Y-36686749D02*
X41450000Y-37339949D01*
G04 #@! TO.N,/IO2*
X41100000Y-37805026D02*
X41100000Y-38558333D01*
X40276617Y-36981643D02*
X41100000Y-37805026D01*
X40276617Y-36953233D02*
X40276617Y-36981643D01*
G04 #@! TO.N,/IO4*
X40400000Y-38200000D02*
X40325000Y-38125000D01*
X39825000Y-38125000D02*
X40275000Y-38125000D01*
X40275000Y-38125000D02*
X40400000Y-38250000D01*
X40325000Y-38125000D02*
X40225000Y-38125000D01*
X40400000Y-38558333D02*
X40400000Y-38200000D01*
X39075500Y-37375500D02*
X39825000Y-38125000D01*
X39075500Y-36900000D02*
X39075500Y-37375500D01*
X40400000Y-38250000D02*
X40400000Y-38558333D01*
G04 #@! TO.N,/IO16*
X38475000Y-38175000D02*
X38475000Y-36425000D01*
X38300000Y-35500000D02*
X38475000Y-35675000D01*
X39033333Y-38733333D02*
X38475000Y-38175000D01*
X39525000Y-38733333D02*
X39033333Y-38733333D01*
X38475000Y-36425000D02*
X38475000Y-36175000D01*
X38475000Y-35675000D02*
X38475000Y-36425000D01*
G04 #@! TO.N,/IO5*
X34975000Y-42375000D02*
X34425000Y-42925000D01*
X34425000Y-42925000D02*
X34425000Y-44225000D01*
X37475000Y-42375000D02*
X34975000Y-42375000D01*
X39525000Y-41883333D02*
X37966667Y-41883333D01*
X37966667Y-41883333D02*
X37475000Y-42375000D01*
G04 #@! TO.N,/IO37*
X46867893Y-41275000D02*
X47874000Y-41275000D01*
X44425000Y-41533333D02*
X46609560Y-41533333D01*
X46609560Y-41533333D02*
X46867893Y-41275000D01*
X47874000Y-41275000D02*
X48075000Y-41074000D01*
G04 #@! TO.N,/IO38*
X46464585Y-41183333D02*
X47123418Y-40524500D01*
X47123418Y-40524500D02*
X47475000Y-40524500D01*
X44425000Y-41183333D02*
X46464585Y-41183333D01*
G04 #@! TO.N,Net-(R22-Pad2)*
X43925000Y-32975000D02*
X35032107Y-32975000D01*
X32950000Y-45550000D02*
X32900000Y-45500000D01*
X34600446Y-33406661D02*
X34600446Y-33800446D01*
X39630026Y-45790006D02*
X39390020Y-45550000D01*
X35032107Y-32975000D02*
X34600446Y-33406661D01*
X47275000Y-33867893D02*
X46382107Y-32975000D01*
X32900000Y-45500000D02*
X32900000Y-43400000D01*
X47275000Y-33900000D02*
X47275000Y-33867893D01*
X32900000Y-43400000D02*
X33400000Y-42900000D01*
X40750000Y-43458333D02*
X40750000Y-45400000D01*
X39390020Y-45550000D02*
X32950000Y-45550000D01*
X46382107Y-32975000D02*
X43925000Y-32975000D01*
X40750000Y-45400000D02*
X40359994Y-45790006D01*
X40359994Y-45790006D02*
X39630026Y-45790006D01*
X34600446Y-33800446D02*
X34600446Y-35400233D01*
X43925000Y-32975000D02*
X43420974Y-32975000D01*
X33400000Y-42900000D02*
X33400000Y-38200000D01*
G04 #@! TO.N,/LAN_3P3V*
X34970000Y-53200000D02*
X34345000Y-53200000D01*
D46*
X43895000Y-53950000D02*
X43895000Y-55600000D01*
D49*
X38332500Y-57450000D02*
X38332500Y-58950000D01*
D47*
X39820000Y-55350000D02*
X40194520Y-55724520D01*
X41544520Y-55724520D02*
X42645000Y-56825000D01*
D46*
X42645000Y-56825000D02*
X42645000Y-59325000D01*
D49*
X39070000Y-58950000D02*
X38332500Y-58950000D01*
D46*
X43145000Y-53200000D02*
X43895000Y-53950000D01*
D49*
X39682500Y-57450000D02*
X39682500Y-58950000D01*
D47*
X39007500Y-57450000D02*
X39682500Y-57450000D01*
D46*
X42645000Y-56825000D02*
X43270000Y-56200000D01*
D47*
X40194520Y-55724520D02*
X41544520Y-55724520D01*
D49*
X33598877Y-54770000D02*
X33598877Y-54728877D01*
X34970000Y-53200000D02*
X34595000Y-53200000D01*
D46*
X43195000Y-53150000D02*
X43145000Y-53200000D01*
D49*
X33598877Y-54728877D02*
X33570000Y-54700000D01*
D47*
X39820000Y-54887500D02*
X39820000Y-55350000D01*
D46*
X43195000Y-51600000D02*
X43195000Y-53150000D01*
X43270000Y-56200000D02*
X43295000Y-56200000D01*
D47*
X41007500Y-51700000D02*
X43095000Y-51700000D01*
X43095000Y-51700000D02*
X43195000Y-51600000D01*
D49*
X39682500Y-58950000D02*
X39070000Y-58950000D01*
D46*
X43895000Y-55600000D02*
X43295000Y-56200000D01*
D49*
X36070000Y-53200000D02*
X34970000Y-53200000D01*
D47*
X39007500Y-57450000D02*
X38332500Y-57450000D01*
D49*
G04 #@! TO.N,/CAP2*
X48975000Y-45750000D02*
X49025000Y-45800000D01*
X48300000Y-45175000D02*
X49275000Y-44200000D01*
X43782107Y-44475000D02*
X44482107Y-45175000D01*
X43575000Y-44475000D02*
X43782107Y-44475000D01*
X43200000Y-43458333D02*
X43200000Y-44100000D01*
X44482107Y-45175000D02*
X48300000Y-45175000D01*
X43200000Y-44100000D02*
X43575000Y-44475000D01*
X49675000Y-45975000D02*
X49449500Y-45749500D01*
X49275000Y-44200000D02*
X49275000Y-45750000D01*
D47*
G04 #@! TO.N,/VIN_NEG*
X35650000Y-70631233D02*
X35900000Y-70606233D01*
X35900000Y-70606233D02*
X36575000Y-70606233D01*
D48*
X53340000Y-76260000D02*
X48560000Y-76260000D01*
X48560000Y-76260000D02*
X48100000Y-75800000D01*
D47*
G04 #@! TO.N,/VSS*
X40425000Y-70106233D02*
X41025000Y-70106233D01*
G04 #@! TO.N,/FBH*
X42426233Y-62200000D02*
X42350000Y-62200000D01*
D49*
G04 #@! TO.N,Net-(D3-Pad1)*
X50837500Y-34312500D02*
X50800000Y-34275000D01*
X52500000Y-34312500D02*
X50837500Y-34312500D01*
D47*
G04 #@! TO.N,/12V*
X32970000Y-72425000D02*
X32970000Y-73751233D01*
X32970000Y-73751233D02*
X33050000Y-73831233D01*
D48*
X53340000Y-68580000D02*
X53340000Y-73660000D01*
D46*
X33050000Y-73831233D02*
X33825000Y-73831233D01*
D47*
G04 #@! TO.N,/POE_NEG*
X40425000Y-69606233D02*
X39500000Y-69606233D01*
D46*
X39655000Y-75136233D02*
X40280000Y-75761233D01*
X45000000Y-77600000D02*
X46883035Y-79483035D01*
X40280000Y-75761233D02*
X44390617Y-75761233D01*
X44390617Y-75761233D02*
X45000000Y-76370616D01*
X45000000Y-76370616D02*
X45000000Y-77600000D01*
X46883035Y-79483035D02*
X47491802Y-79483035D01*
D49*
G04 #@! TO.N,/RXD0*
X45500000Y-35275000D02*
X45500000Y-36100000D01*
X42270000Y-54200000D02*
X41007500Y-54200000D01*
G04 #@! TO.N,/RXD1*
X42270000Y-53400000D02*
X41870000Y-53400000D01*
X41870000Y-53400000D02*
X41570000Y-53700000D01*
X44000000Y-35275000D02*
X44000000Y-36100000D01*
X41570000Y-53700000D02*
X41007500Y-53700000D01*
G04 #@! TO.N,/CRS_DV*
X35395000Y-51200000D02*
X36132500Y-51200000D01*
X34395000Y-50200000D02*
X35395000Y-51200000D01*
G04 #@! TO.N,Net-(R32-Pad2)*
X35570000Y-54200000D02*
X35570000Y-54700000D01*
X35570000Y-54700000D02*
X35833556Y-54963556D01*
X36132500Y-54200000D02*
X35570000Y-54200000D01*
X36375000Y-40000000D02*
X37200000Y-40000000D01*
D47*
G04 #@! TO.N,Net-(R7-Pad2)*
X36575000Y-71106233D02*
X36000000Y-71106233D01*
X36000000Y-71106233D02*
X34650000Y-72456233D01*
G04 #@! TO.N,Net-(R19-Pad2)*
X36135718Y-71606233D02*
X35475000Y-72266951D01*
X35475000Y-72266951D02*
X35475000Y-73831233D01*
X36575000Y-71606233D02*
X36135718Y-71606233D01*
G04 #@! TD*
G04 #@! TA.AperFunction,Conductor*
G04 #@! TO.N,+3V3*
G36*
X52242121Y-40020002D02*
G01*
X52288614Y-40073658D01*
X52300000Y-40126000D01*
X52300000Y-40444324D01*
X52299215Y-40458369D01*
X52281188Y-40619081D01*
X52280501Y-40625206D01*
X52297806Y-40831278D01*
X52298341Y-40833145D01*
X52300000Y-40851369D01*
X52300000Y-42984324D01*
X52299215Y-42998369D01*
X52280501Y-43165206D01*
X52297806Y-43371278D01*
X52298341Y-43373145D01*
X52300000Y-43391369D01*
X52300000Y-45524324D01*
X52299215Y-45538369D01*
X52280501Y-45705206D01*
X52297806Y-45911278D01*
X52298341Y-45913145D01*
X52300000Y-45931369D01*
X52300000Y-48064324D01*
X52299215Y-48078369D01*
X52280501Y-48245206D01*
X52297806Y-48451278D01*
X52298341Y-48453145D01*
X52300000Y-48471369D01*
X52300000Y-50604324D01*
X52299215Y-50618369D01*
X52280501Y-50785206D01*
X52297806Y-50991278D01*
X52298341Y-50993145D01*
X52300000Y-51011369D01*
X52300000Y-53144324D01*
X52299215Y-53158369D01*
X52280501Y-53325206D01*
X52297806Y-53531278D01*
X52298341Y-53533145D01*
X52300000Y-53551369D01*
X52300000Y-55684324D01*
X52299215Y-55698369D01*
X52280501Y-55865206D01*
X52281017Y-55871349D01*
X52297149Y-56063456D01*
X52282918Y-56133012D01*
X52233341Y-56183832D01*
X52171591Y-56200000D01*
X51326000Y-56200000D01*
X51257879Y-56179998D01*
X51211386Y-56126342D01*
X51200000Y-56074000D01*
X51200000Y-47877793D01*
X51220002Y-47809672D01*
X51236905Y-47788698D01*
X51280148Y-47745455D01*
X51288852Y-47737535D01*
X51295510Y-47733309D01*
X51343728Y-47681962D01*
X51346482Y-47679121D01*
X51366919Y-47658684D01*
X51369601Y-47655226D01*
X51377307Y-47646204D01*
X51403284Y-47618541D01*
X51408710Y-47612763D01*
X51418952Y-47594133D01*
X51429802Y-47577616D01*
X51437977Y-47567076D01*
X51442833Y-47560816D01*
X51461054Y-47518710D01*
X51466270Y-47508063D01*
X51488375Y-47467853D01*
X51493663Y-47447258D01*
X51500064Y-47428563D01*
X51505361Y-47416321D01*
X51508507Y-47409051D01*
X51515683Y-47363740D01*
X51518091Y-47352117D01*
X51527529Y-47315360D01*
X51527529Y-47315359D01*
X51529500Y-47307683D01*
X51529500Y-47286426D01*
X51531051Y-47266715D01*
X51533136Y-47253551D01*
X51534376Y-47245722D01*
X51530059Y-47200052D01*
X51529500Y-47188195D01*
X51529500Y-46293249D01*
X51537517Y-46249023D01*
X51573130Y-46154024D01*
X51579500Y-46095389D01*
X51579499Y-45504612D01*
X51573130Y-45445976D01*
X51537517Y-45350977D01*
X51529500Y-45306751D01*
X51529500Y-44716423D01*
X51536618Y-44674674D01*
X51573948Y-44568374D01*
X51576493Y-44561127D01*
X51579500Y-44529315D01*
X51579499Y-43870686D01*
X51576493Y-43838873D01*
X51536618Y-43725326D01*
X51529500Y-43683577D01*
X51529500Y-42626560D01*
X51537518Y-42582334D01*
X51548130Y-42554024D01*
X51554500Y-42495389D01*
X51554499Y-41904612D01*
X51548130Y-41845976D01*
X51537518Y-41817666D01*
X51529500Y-41773440D01*
X51529500Y-40993249D01*
X51537517Y-40949023D01*
X51573130Y-40854024D01*
X51579500Y-40795389D01*
X51579499Y-40204612D01*
X51573130Y-40145976D01*
X51574785Y-40145796D01*
X51577995Y-40084254D01*
X51619437Y-40026608D01*
X51685466Y-40000518D01*
X51696878Y-40000000D01*
X52174000Y-40000000D01*
X52242121Y-40020002D01*
G37*
G04 #@! TD.AperFunction*
G04 #@! TD*
G04 #@! TA.AperFunction,Conductor*
G04 #@! TO.N,GND*
G36*
X52242121Y-56520002D02*
G01*
X52288614Y-56573658D01*
X52300000Y-56626000D01*
X52300000Y-58224324D01*
X52299215Y-58238369D01*
X52280501Y-58405206D01*
X52297806Y-58611278D01*
X52298341Y-58613145D01*
X52300000Y-58631369D01*
X52300000Y-60674000D01*
X52279998Y-60742121D01*
X52226342Y-60788614D01*
X52174000Y-60800000D01*
X49584834Y-60800000D01*
X49516713Y-60779998D01*
X49481062Y-60740900D01*
X49480077Y-60741564D01*
X49475259Y-60736352D01*
X49475165Y-60736213D01*
X49471852Y-60729834D01*
X49467506Y-60724746D01*
X49429924Y-60687164D01*
X49426494Y-60683598D01*
X49393774Y-60648202D01*
X49387383Y-60641288D01*
X49380983Y-60637570D01*
X49374723Y-60631963D01*
X48945749Y-60202989D01*
X48935894Y-60191900D01*
X48934835Y-60190556D01*
X48914641Y-60164941D01*
X48889762Y-60147746D01*
X48865906Y-60131258D01*
X48862713Y-60128976D01*
X48815076Y-60093791D01*
X48808203Y-60091377D01*
X48802211Y-60087236D01*
X48788007Y-60082744D01*
X48729088Y-60043132D01*
X48700938Y-59977955D01*
X48700000Y-59962608D01*
X48700000Y-59934325D01*
X48713733Y-59877123D01*
X48734996Y-59835392D01*
X48734997Y-59835388D01*
X48739498Y-59826555D01*
X48754500Y-59731834D01*
X48754500Y-59582601D01*
X48764326Y-59540205D01*
X48762764Y-59539711D01*
X48780636Y-59483199D01*
X48781866Y-59479515D01*
X48798371Y-59432516D01*
X48798372Y-59432512D01*
X48801492Y-59423627D01*
X48801775Y-59416427D01*
X48801809Y-59416251D01*
X48803975Y-59409403D01*
X48804500Y-59402732D01*
X48804500Y-59349552D01*
X48804597Y-59344605D01*
X48806488Y-59296475D01*
X48806858Y-59287063D01*
X48804961Y-59279908D01*
X48804500Y-59271533D01*
X48804500Y-58560571D01*
X48824502Y-58492450D01*
X48882284Y-58444161D01*
X48887126Y-58442156D01*
X48899301Y-58439734D01*
X48909621Y-58432839D01*
X48909622Y-58432838D01*
X48973168Y-58390377D01*
X48983484Y-58383484D01*
X49039734Y-58299301D01*
X49054500Y-58225067D01*
X49054499Y-56974934D01*
X49044270Y-56923504D01*
X49042156Y-56912874D01*
X49042155Y-56912872D01*
X49039734Y-56900699D01*
X49018006Y-56868181D01*
X48996791Y-56800428D01*
X49015574Y-56731961D01*
X49033676Y-56709084D01*
X49097011Y-56645749D01*
X49108100Y-56635894D01*
X49120650Y-56626000D01*
X49135059Y-56614641D01*
X49168742Y-56565906D01*
X49171043Y-56562687D01*
X49179570Y-56551142D01*
X49236130Y-56508230D01*
X49280922Y-56500000D01*
X52174000Y-56500000D01*
X52242121Y-56520002D01*
G37*
G04 #@! TD.AperFunction*
G04 #@! TD*
G04 #@! TA.AperFunction,Conductor*
G04 #@! TO.N,+3V3*
G36*
X52200000Y-56100000D02*
G01*
X50938149Y-56100000D01*
X50868257Y-56078838D01*
X50356108Y-55737405D01*
X50310523Y-55682976D01*
X50300000Y-55632567D01*
X50300000Y-52759015D01*
X50320002Y-52690894D01*
X50345337Y-52662219D01*
X50864955Y-52229204D01*
X50930092Y-52200960D01*
X50945618Y-52200000D01*
X52200000Y-52200000D01*
X52200000Y-56100000D01*
G37*
G04 #@! TD.AperFunction*
G04 #@! TD*
M02*
