G04 #@! TF.GenerationSoftware,KiCad,Pcbnew,(6.0.9)*
G04 #@! TF.CreationDate,2022-11-21T00:29:48+13:00*
G04 #@! TF.ProjectId,LAN-Module-PoE,4c414e2d-4d6f-4647-956c-652d506f452e,rev?*
G04 #@! TF.SameCoordinates,Original*
G04 #@! TF.FileFunction,Soldermask,Top*
G04 #@! TF.FilePolarity,Negative*
%FSLAX46Y46*%
G04 Gerber Fmt 4.6, Leading zero omitted, Abs format (unit mm)*
G04 Created by KiCad (PCBNEW (6.0.9)) date 2022-11-21 00:29:48*
%MOMM*%
%LPD*%
G01*
G04 APERTURE LIST*
G04 Aperture macros list*
%AMRoundRect*
0 Rectangle with rounded corners*
0 $1 Rounding radius*
0 $2 $3 $4 $5 $6 $7 $8 $9 X,Y pos of 4 corners*
0 Add a 4 corners polygon primitive as box body*
4,1,4,$2,$3,$4,$5,$6,$7,$8,$9,$2,$3,0*
0 Add four circle primitives for the rounded corners*
1,1,$1+$1,$2,$3*
1,1,$1+$1,$4,$5*
1,1,$1+$1,$6,$7*
1,1,$1+$1,$8,$9*
0 Add four rect primitives between the rounded corners*
20,1,$1+$1,$2,$3,$4,$5,0*
20,1,$1+$1,$4,$5,$6,$7,0*
20,1,$1+$1,$6,$7,$8,$9,0*
20,1,$1+$1,$8,$9,$2,$3,0*%
G04 Aperture macros list end*
%ADD10C,0.264583*%
%ADD11RoundRect,0.250000X0.475000X-0.250000X0.475000X0.250000X-0.475000X0.250000X-0.475000X-0.250000X0*%
%ADD12R,1.600000X5.700000*%
%ADD13R,3.100000X7.700000*%
%ADD14RoundRect,0.225000X0.225000X0.250000X-0.225000X0.250000X-0.225000X-0.250000X0.225000X-0.250000X0*%
%ADD15RoundRect,0.062500X-0.062500X0.362500X-0.062500X-0.362500X0.062500X-0.362500X0.062500X0.362500X0*%
%ADD16RoundRect,0.062500X-0.362500X0.062500X-0.362500X-0.062500X0.362500X-0.062500X0.362500X0.062500X0*%
%ADD17R,2.600000X2.600000*%
%ADD18RoundRect,0.200000X0.200000X0.275000X-0.200000X0.275000X-0.200000X-0.275000X0.200000X-0.275000X0*%
%ADD19C,1.600000*%
%ADD20R,0.900000X1.200000*%
%ADD21RoundRect,0.150000X-0.512500X-0.150000X0.512500X-0.150000X0.512500X0.150000X-0.512500X0.150000X0*%
%ADD22RoundRect,0.200000X-0.200000X-0.275000X0.200000X-0.275000X0.200000X0.275000X-0.200000X0.275000X0*%
%ADD23RoundRect,0.250000X0.450000X-0.262500X0.450000X0.262500X-0.450000X0.262500X-0.450000X-0.262500X0*%
%ADD24RoundRect,0.225000X0.250000X-0.225000X0.250000X0.225000X-0.250000X0.225000X-0.250000X-0.225000X0*%
%ADD25RoundRect,0.200000X-0.275000X0.200000X-0.275000X-0.200000X0.275000X-0.200000X0.275000X0.200000X0*%
%ADD26RoundRect,0.225000X-0.225000X-0.250000X0.225000X-0.250000X0.225000X0.250000X-0.225000X0.250000X0*%
%ADD27RoundRect,0.200000X0.275000X-0.200000X0.275000X0.200000X-0.275000X0.200000X-0.275000X-0.200000X0*%
%ADD28R,1.200000X3.700000*%
%ADD29RoundRect,0.225000X-0.250000X0.225000X-0.250000X-0.225000X0.250000X-0.225000X0.250000X0.225000X0*%
%ADD30R,2.500000X1.800000*%
%ADD31RoundRect,0.062500X0.062500X-0.375000X0.062500X0.375000X-0.062500X0.375000X-0.062500X-0.375000X0*%
%ADD32RoundRect,0.062500X0.375000X-0.062500X0.375000X0.062500X-0.375000X0.062500X-0.375000X-0.062500X0*%
%ADD33R,3.100000X3.100000*%
%ADD34RoundRect,0.200000X0.200000X0.800000X-0.200000X0.800000X-0.200000X-0.800000X0.200000X-0.800000X0*%
%ADD35C,1.000000*%
%ADD36RoundRect,0.218750X-0.256250X0.218750X-0.256250X-0.218750X0.256250X-0.218750X0.256250X0.218750X0*%
%ADD37RoundRect,0.250000X1.412500X0.550000X-1.412500X0.550000X-1.412500X-0.550000X1.412500X-0.550000X0*%
%ADD38C,3.250000*%
%ADD39R,1.500000X1.500000*%
%ADD40C,1.500000*%
%ADD41C,2.200000*%
%ADD42RoundRect,0.050000X0.350000X0.050000X-0.350000X0.050000X-0.350000X-0.050000X0.350000X-0.050000X0*%
%ADD43RoundRect,0.050000X0.050000X0.350000X-0.050000X0.350000X-0.050000X-0.350000X0.050000X-0.350000X0*%
%ADD44R,3.700000X3.700000*%
%ADD45R,1.400000X1.200000*%
G04 APERTURE END LIST*
G04 #@! TO.C,LOGO1*
G36*
X33795123Y-89623000D02*
G01*
X33922123Y-89684000D01*
X34023123Y-89788000D01*
X34097123Y-89905000D01*
X34146123Y-90024000D01*
X34174123Y-90218000D01*
X34174123Y-90431000D01*
X34145123Y-90647000D01*
X34092123Y-90848000D01*
X34015123Y-91020000D01*
X33894123Y-91191000D01*
X33737123Y-91360000D01*
X33567123Y-91509000D01*
X33404123Y-91618000D01*
X33272123Y-91668000D01*
X33118123Y-91647000D01*
X32970123Y-91551000D01*
X32837123Y-91389000D01*
X32730123Y-91169000D01*
X32666123Y-90950000D01*
X32643123Y-90736000D01*
X32661123Y-90521000D01*
X32720123Y-90300000D01*
X32821123Y-90066000D01*
X32940123Y-89853000D01*
X33056123Y-89736000D01*
X33223123Y-89636000D01*
X33407123Y-89584000D01*
X33600123Y-89579000D01*
X33795123Y-89623000D01*
G37*
D10*
X33795123Y-89623000D02*
X33922123Y-89684000D01*
X34023123Y-89788000D01*
X34097123Y-89905000D01*
X34146123Y-90024000D01*
X34174123Y-90218000D01*
X34174123Y-90431000D01*
X34145123Y-90647000D01*
X34092123Y-90848000D01*
X34015123Y-91020000D01*
X33894123Y-91191000D01*
X33737123Y-91360000D01*
X33567123Y-91509000D01*
X33404123Y-91618000D01*
X33272123Y-91668000D01*
X33118123Y-91647000D01*
X32970123Y-91551000D01*
X32837123Y-91389000D01*
X32730123Y-91169000D01*
X32666123Y-90950000D01*
X32643123Y-90736000D01*
X32661123Y-90521000D01*
X32720123Y-90300000D01*
X32821123Y-90066000D01*
X32940123Y-89853000D01*
X33056123Y-89736000D01*
X33223123Y-89636000D01*
X33407123Y-89584000D01*
X33600123Y-89579000D01*
X33795123Y-89623000D01*
G36*
X31868123Y-87172000D02*
G01*
X32017123Y-87223000D01*
X32182123Y-87308000D01*
X32380123Y-87435000D01*
X32564123Y-87556000D01*
X32724123Y-87647000D01*
X32881123Y-87718000D01*
X33056123Y-87780000D01*
X33270123Y-87842000D01*
X33550123Y-87924000D01*
X33725123Y-87998000D01*
X33855123Y-88090000D01*
X34028123Y-88266000D01*
X34131123Y-88445000D01*
X34173123Y-88642000D01*
X34168123Y-88799000D01*
X34111123Y-88961000D01*
X34014123Y-89124000D01*
X33883123Y-89253000D01*
X33715123Y-89349000D01*
X33507123Y-89414000D01*
X33257123Y-89449000D01*
X33032123Y-89484000D01*
X32862123Y-89560000D01*
X32705123Y-89697000D01*
X32507123Y-89881000D01*
X32334123Y-89969000D01*
X32123123Y-89993000D01*
X31965123Y-89977000D01*
X31793123Y-89913000D01*
X31626123Y-89821000D01*
X31500123Y-89691000D01*
X31399123Y-89537000D01*
X31355123Y-89375000D01*
X31357123Y-89172000D01*
X31369123Y-88957000D01*
X31349123Y-88797000D01*
X31284123Y-88650000D01*
X31164123Y-88476000D01*
X31039123Y-88282000D01*
X30960123Y-88092000D01*
X30926123Y-87905000D01*
X30937123Y-87722000D01*
X30994123Y-87543000D01*
X31077123Y-87394000D01*
X31193123Y-87287000D01*
X31350123Y-87200000D01*
X31529123Y-87152000D01*
X31717123Y-87147000D01*
X31868123Y-87172000D01*
G37*
X31868123Y-87172000D02*
X32017123Y-87223000D01*
X32182123Y-87308000D01*
X32380123Y-87435000D01*
X32564123Y-87556000D01*
X32724123Y-87647000D01*
X32881123Y-87718000D01*
X33056123Y-87780000D01*
X33270123Y-87842000D01*
X33550123Y-87924000D01*
X33725123Y-87998000D01*
X33855123Y-88090000D01*
X34028123Y-88266000D01*
X34131123Y-88445000D01*
X34173123Y-88642000D01*
X34168123Y-88799000D01*
X34111123Y-88961000D01*
X34014123Y-89124000D01*
X33883123Y-89253000D01*
X33715123Y-89349000D01*
X33507123Y-89414000D01*
X33257123Y-89449000D01*
X33032123Y-89484000D01*
X32862123Y-89560000D01*
X32705123Y-89697000D01*
X32507123Y-89881000D01*
X32334123Y-89969000D01*
X32123123Y-89993000D01*
X31965123Y-89977000D01*
X31793123Y-89913000D01*
X31626123Y-89821000D01*
X31500123Y-89691000D01*
X31399123Y-89537000D01*
X31355123Y-89375000D01*
X31357123Y-89172000D01*
X31369123Y-88957000D01*
X31349123Y-88797000D01*
X31284123Y-88650000D01*
X31164123Y-88476000D01*
X31039123Y-88282000D01*
X30960123Y-88092000D01*
X30926123Y-87905000D01*
X30937123Y-87722000D01*
X30994123Y-87543000D01*
X31077123Y-87394000D01*
X31193123Y-87287000D01*
X31350123Y-87200000D01*
X31529123Y-87152000D01*
X31717123Y-87147000D01*
X31868123Y-87172000D01*
G36*
X30667123Y-88191000D02*
G01*
X30764123Y-88250000D01*
X30864123Y-88332000D01*
X30997123Y-88492000D01*
X31075123Y-88668000D01*
X31098123Y-88862000D01*
X31068123Y-89075000D01*
X30983123Y-89310000D01*
X30875123Y-89512000D01*
X30748123Y-89684000D01*
X30601123Y-89826000D01*
X30430123Y-89942000D01*
X30235123Y-90033000D01*
X30007123Y-90096000D01*
X29803123Y-90105000D01*
X29635123Y-90062000D01*
X29513123Y-89968000D01*
X29454123Y-89822000D01*
X29427123Y-89602000D01*
X29431123Y-89346000D01*
X29465123Y-89095000D01*
X29530123Y-88886000D01*
X29616123Y-88735000D01*
X29735123Y-88580000D01*
X29876123Y-88433000D01*
X30025123Y-88307000D01*
X30170123Y-88214000D01*
X30333123Y-88164000D01*
X30513123Y-88155000D01*
X30667123Y-88191000D01*
G37*
X30667123Y-88191000D02*
X30764123Y-88250000D01*
X30864123Y-88332000D01*
X30997123Y-88492000D01*
X31075123Y-88668000D01*
X31098123Y-88862000D01*
X31068123Y-89075000D01*
X30983123Y-89310000D01*
X30875123Y-89512000D01*
X30748123Y-89684000D01*
X30601123Y-89826000D01*
X30430123Y-89942000D01*
X30235123Y-90033000D01*
X30007123Y-90096000D01*
X29803123Y-90105000D01*
X29635123Y-90062000D01*
X29513123Y-89968000D01*
X29454123Y-89822000D01*
X29427123Y-89602000D01*
X29431123Y-89346000D01*
X29465123Y-89095000D01*
X29530123Y-88886000D01*
X29616123Y-88735000D01*
X29735123Y-88580000D01*
X29876123Y-88433000D01*
X30025123Y-88307000D01*
X30170123Y-88214000D01*
X30333123Y-88164000D01*
X30513123Y-88155000D01*
X30667123Y-88191000D01*
G36*
X33042123Y-91783000D02*
G01*
X33255123Y-91838000D01*
X33369123Y-91914000D01*
X33260123Y-92035000D01*
X33075123Y-92173000D01*
X32898123Y-92263000D01*
X32753123Y-92255000D01*
X32776123Y-92109000D01*
X32840123Y-91893000D01*
X32899123Y-91760000D01*
X33042123Y-91783000D01*
G37*
G36*
X32291123Y-90807000D02*
G01*
X32440123Y-90905000D01*
X32553123Y-91055000D01*
X32625123Y-91231000D01*
X32654123Y-91423000D01*
X32638123Y-91622000D01*
X32577123Y-91815000D01*
X32504123Y-91951000D01*
X32408123Y-92068000D01*
X32260123Y-92195000D01*
X32034123Y-92359000D01*
X31773123Y-92528000D01*
X31571123Y-92628000D01*
X31404123Y-92666000D01*
X31250123Y-92652000D01*
X31101123Y-92582000D01*
X31007123Y-92458000D01*
X30969123Y-92281000D01*
X30986123Y-92052000D01*
X31059123Y-91771000D01*
X31141123Y-91557000D01*
X31239123Y-91359000D01*
X31350123Y-91181000D01*
X31471123Y-91029000D01*
X31599123Y-90905000D01*
X31730123Y-90816000D01*
X31908123Y-90759000D01*
X32104123Y-90757000D01*
X32291123Y-90807000D01*
G37*
X32291123Y-90807000D02*
X32440123Y-90905000D01*
X32553123Y-91055000D01*
X32625123Y-91231000D01*
X32654123Y-91423000D01*
X32638123Y-91622000D01*
X32577123Y-91815000D01*
X32504123Y-91951000D01*
X32408123Y-92068000D01*
X32260123Y-92195000D01*
X32034123Y-92359000D01*
X31773123Y-92528000D01*
X31571123Y-92628000D01*
X31404123Y-92666000D01*
X31250123Y-92652000D01*
X31101123Y-92582000D01*
X31007123Y-92458000D01*
X30969123Y-92281000D01*
X30986123Y-92052000D01*
X31059123Y-91771000D01*
X31141123Y-91557000D01*
X31239123Y-91359000D01*
X31350123Y-91181000D01*
X31471123Y-91029000D01*
X31599123Y-90905000D01*
X31730123Y-90816000D01*
X31908123Y-90759000D01*
X32104123Y-90757000D01*
X32291123Y-90807000D01*
G36*
X29390123Y-90079000D02*
G01*
X29565123Y-90198000D01*
X29678123Y-90300000D01*
X29610123Y-90438000D01*
X29483123Y-90631000D01*
X29391123Y-90738000D01*
X29319123Y-90667000D01*
X29260123Y-90462000D01*
X29232123Y-90221000D01*
X29254123Y-90041000D01*
X29390123Y-90079000D01*
G37*
G36*
X30796123Y-90129000D02*
G01*
X30957123Y-90228000D01*
X31098123Y-90396000D01*
X31168123Y-90615000D01*
X31176123Y-90799000D01*
X31149123Y-91008000D01*
X31088123Y-91232000D01*
X30995123Y-91463000D01*
X30873123Y-91694000D01*
X30713123Y-91930000D01*
X30558123Y-92091000D01*
X30407123Y-92177000D01*
X30259123Y-92190000D01*
X30091123Y-92127000D01*
X29964123Y-91996000D01*
X29872123Y-91789000D01*
X29811123Y-91498000D01*
X29776123Y-91188000D01*
X29770123Y-90932000D01*
X29794123Y-90722000D01*
X29851123Y-90548000D01*
X29942123Y-90403000D01*
X30069123Y-90275000D01*
X30249123Y-90157000D01*
X30435123Y-90094000D01*
X30620123Y-90084000D01*
X30796123Y-90129000D01*
G37*
X30796123Y-90129000D02*
X30957123Y-90228000D01*
X31098123Y-90396000D01*
X31168123Y-90615000D01*
X31176123Y-90799000D01*
X31149123Y-91008000D01*
X31088123Y-91232000D01*
X30995123Y-91463000D01*
X30873123Y-91694000D01*
X30713123Y-91930000D01*
X30558123Y-92091000D01*
X30407123Y-92177000D01*
X30259123Y-92190000D01*
X30091123Y-92127000D01*
X29964123Y-91996000D01*
X29872123Y-91789000D01*
X29811123Y-91498000D01*
X29776123Y-91188000D01*
X29770123Y-90932000D01*
X29794123Y-90722000D01*
X29851123Y-90548000D01*
X29942123Y-90403000D01*
X30069123Y-90275000D01*
X30249123Y-90157000D01*
X30435123Y-90094000D01*
X30620123Y-90084000D01*
X30796123Y-90129000D01*
G36*
X29999123Y-92244000D02*
G01*
X30200123Y-92319000D01*
X30370123Y-92401000D01*
X30337123Y-92513000D01*
X30262123Y-92715000D01*
X30166123Y-92938000D01*
X30114123Y-92962000D01*
X30041123Y-92845000D01*
X29963123Y-92621000D01*
X29916123Y-92394000D01*
X29916123Y-92212000D01*
X29999123Y-92244000D01*
G37*
G36*
X31041123Y-92705000D02*
G01*
X31215123Y-92798000D01*
X31296123Y-92841000D01*
X31159123Y-92960000D01*
X30962123Y-93072000D01*
X30741123Y-93162000D01*
X30608123Y-93186000D01*
X30582123Y-93117000D01*
X30696123Y-92886000D01*
X30832123Y-92658000D01*
X30923123Y-92610000D01*
X31041123Y-92705000D01*
G37*
G04 #@! TD*
D11*
G04 #@! TO.C,C4*
X42100000Y-74050000D03*
X42100000Y-72150000D03*
G04 #@! TD*
D12*
G04 #@! TO.C,L5*
X44850000Y-67100000D03*
X49550000Y-67100000D03*
G04 #@! TD*
D13*
G04 #@! TO.C,L4*
X43750000Y-67200000D03*
X50650000Y-67200000D03*
G04 #@! TD*
D11*
G04 #@! TO.C,C29*
X49500000Y-61650000D03*
X49500000Y-59750000D03*
G04 #@! TD*
D14*
G04 #@! TO.C,C11*
X50875000Y-40500000D03*
X49325000Y-40500000D03*
G04 #@! TD*
D11*
G04 #@! TO.C,C18*
X51300000Y-61650000D03*
X51300000Y-59750000D03*
G04 #@! TD*
D15*
G04 #@! TO.C,U2*
X39300000Y-68681233D03*
X38800000Y-68681233D03*
X38300000Y-68681233D03*
X37800000Y-68681233D03*
X37300000Y-68681233D03*
D16*
X36375000Y-69606233D03*
X36375000Y-70106233D03*
X36375000Y-70606233D03*
X36375000Y-71106233D03*
X36375000Y-71606233D03*
D15*
X37300000Y-72531233D03*
X37800000Y-72531233D03*
X38300000Y-72531233D03*
X38800000Y-72531233D03*
X39300000Y-72531233D03*
D16*
X40225000Y-71606233D03*
X40225000Y-71106233D03*
X40225000Y-70606233D03*
X40225000Y-70106233D03*
X40225000Y-69606233D03*
D17*
X38300000Y-70606233D03*
G04 #@! TD*
D18*
G04 #@! TO.C,R14*
X38332500Y-58950000D03*
X36682500Y-58950000D03*
G04 #@! TD*
D19*
G04 #@! TO.C,J20*
X53340000Y-45720000D03*
G04 #@! TD*
D14*
G04 #@! TO.C,C2*
X50850000Y-42200000D03*
X49300000Y-42200000D03*
G04 #@! TD*
D20*
G04 #@! TO.C,D2*
X48350000Y-57600000D03*
X51650000Y-57600000D03*
G04 #@! TD*
D21*
G04 #@! TO.C,U3*
X45562500Y-59550000D03*
X45562500Y-60500000D03*
X45562500Y-61450000D03*
X47837500Y-61450000D03*
X47837500Y-60500000D03*
X47837500Y-59550000D03*
G04 #@! TD*
D19*
G04 #@! TO.C,J10*
X30480000Y-55880000D03*
G04 #@! TD*
G04 #@! TO.C,J23*
X53340000Y-53340000D03*
G04 #@! TD*
D22*
G04 #@! TO.C,R8*
X32745000Y-55450000D03*
X34395000Y-55450000D03*
G04 #@! TD*
G04 #@! TO.C,R17*
X39682500Y-58950000D03*
X41332500Y-58950000D03*
G04 #@! TD*
D18*
G04 #@! TO.C,C22*
X34395000Y-56950000D03*
X32745000Y-56950000D03*
G04 #@! TD*
D23*
G04 #@! TO.C,R20*
X41200000Y-68512500D03*
X41200000Y-66687500D03*
G04 #@! TD*
D18*
G04 #@! TO.C,R32*
X38025000Y-40000000D03*
X36375000Y-40000000D03*
G04 #@! TD*
D24*
G04 #@! TO.C,C3*
X31100000Y-76975000D03*
X31100000Y-75425000D03*
G04 #@! TD*
D25*
G04 #@! TO.C,R2*
X36275000Y-36750000D03*
X36275000Y-38400000D03*
G04 #@! TD*
D26*
G04 #@! TO.C,C10*
X37525000Y-34000000D03*
X39075000Y-34000000D03*
G04 #@! TD*
D27*
G04 #@! TO.C,R11*
X52600000Y-81225000D03*
X52600000Y-79575000D03*
G04 #@! TD*
D25*
G04 #@! TO.C,R10*
X36100000Y-44875000D03*
X36100000Y-46525000D03*
G04 #@! TD*
D28*
G04 #@! TO.C,L2*
X48800000Y-54200000D03*
X51600000Y-54200000D03*
G04 #@! TD*
D19*
G04 #@! TO.C,J4*
X30480000Y-40780000D03*
G04 #@! TD*
D29*
G04 #@! TO.C,C13*
X48600000Y-47625000D03*
X48600000Y-49175000D03*
G04 #@! TD*
D19*
G04 #@! TO.C,J7*
X30480000Y-48400000D03*
G04 #@! TD*
D14*
G04 #@! TO.C,C21*
X51675000Y-51200000D03*
X50125000Y-51200000D03*
G04 #@! TD*
D22*
G04 #@! TO.C,R23*
X42350000Y-62200000D03*
X44000000Y-62200000D03*
G04 #@! TD*
D19*
G04 #@! TO.C,J25*
X53340000Y-58420000D03*
G04 #@! TD*
D18*
G04 #@! TO.C,R13*
X38395000Y-57450000D03*
X36745000Y-57450000D03*
G04 #@! TD*
D30*
G04 #@! TO.C,D1*
X50230000Y-73031233D03*
X46230000Y-73031233D03*
G04 #@! TD*
D19*
G04 #@! TO.C,J27*
X53340000Y-66040000D03*
G04 #@! TD*
D27*
G04 #@! TO.C,R6*
X32970000Y-72425000D03*
X32970000Y-70775000D03*
G04 #@! TD*
D22*
G04 #@! TO.C,R19*
X33825000Y-73831233D03*
X35475000Y-73831233D03*
G04 #@! TD*
D27*
G04 #@! TO.C,R29*
X45500000Y-36925000D03*
X45500000Y-35275000D03*
G04 #@! TD*
D19*
G04 #@! TO.C,J8*
X30480000Y-50800000D03*
G04 #@! TD*
G04 #@! TO.C,J17*
X53340000Y-38100000D03*
G04 #@! TD*
G04 #@! TO.C,J26*
X53340000Y-60960000D03*
G04 #@! TD*
D22*
G04 #@! TO.C,R18*
X39682500Y-57450000D03*
X41332500Y-57450000D03*
G04 #@! TD*
D14*
G04 #@! TO.C,C20*
X34575000Y-69100000D03*
X33025000Y-69100000D03*
G04 #@! TD*
D27*
G04 #@! TO.C,C8*
X37925000Y-46550000D03*
X37925000Y-44900000D03*
G04 #@! TD*
D26*
G04 #@! TO.C,C24*
X43295000Y-56200000D03*
X44845000Y-56200000D03*
G04 #@! TD*
D18*
G04 #@! TO.C,R3*
X50925000Y-44200000D03*
X49275000Y-44200000D03*
G04 #@! TD*
D27*
G04 #@! TO.C,R12*
X31200000Y-81225000D03*
X31200000Y-79575000D03*
G04 #@! TD*
G04 #@! TO.C,R26*
X46900000Y-53525000D03*
X46900000Y-51875000D03*
G04 #@! TD*
D31*
G04 #@! TO.C,U4*
X36820000Y-54887500D03*
X37320000Y-54887500D03*
X37820000Y-54887500D03*
X38320000Y-54887500D03*
X38820000Y-54887500D03*
X39320000Y-54887500D03*
X39820000Y-54887500D03*
X40320000Y-54887500D03*
D32*
X41007500Y-54200000D03*
X41007500Y-53700000D03*
X41007500Y-53200000D03*
X41007500Y-52700000D03*
X41007500Y-52200000D03*
X41007500Y-51700000D03*
X41007500Y-51200000D03*
X41007500Y-50700000D03*
D31*
X40320000Y-50012500D03*
X39820000Y-50012500D03*
X39320000Y-50012500D03*
X38820000Y-50012500D03*
X38320000Y-50012500D03*
X37820000Y-50012500D03*
X37320000Y-50012500D03*
X36820000Y-50012500D03*
D32*
X36132500Y-50700000D03*
X36132500Y-51200000D03*
X36132500Y-51700000D03*
X36132500Y-52200000D03*
X36132500Y-52700000D03*
X36132500Y-53200000D03*
X36132500Y-53700000D03*
X36132500Y-54200000D03*
D33*
X38570000Y-52450000D03*
G04 #@! TD*
D27*
G04 #@! TO.C,R5*
X33800000Y-46525000D03*
X33800000Y-44875000D03*
G04 #@! TD*
D14*
G04 #@! TO.C,C16*
X47850000Y-44300000D03*
X46300000Y-44300000D03*
G04 #@! TD*
D19*
G04 #@! TO.C,J14*
X30480000Y-66040000D03*
G04 #@! TD*
D34*
G04 #@! TO.C,SW1*
X36000000Y-34400000D03*
X31800000Y-34400000D03*
G04 #@! TD*
D35*
G04 #@! TO.C,TP1*
X39900000Y-47600000D03*
G04 #@! TD*
D19*
G04 #@! TO.C,J19*
X53340000Y-43180000D03*
G04 #@! TD*
D18*
G04 #@! TO.C,R4*
X48925000Y-35400000D03*
X47275000Y-35400000D03*
G04 #@! TD*
D19*
G04 #@! TO.C,J12*
X30480000Y-60960000D03*
G04 #@! TD*
G04 #@! TO.C,J22*
X53340000Y-50800000D03*
G04 #@! TD*
D25*
G04 #@! TO.C,R25*
X31100000Y-72175000D03*
X31100000Y-73825000D03*
G04 #@! TD*
D24*
G04 #@! TO.C,C6*
X32800000Y-66275000D03*
X32800000Y-64725000D03*
G04 #@! TD*
D36*
G04 #@! TO.C,D3*
X52500000Y-34312500D03*
X52500000Y-35887500D03*
G04 #@! TD*
D19*
G04 #@! TO.C,J29*
X53340000Y-76260000D03*
G04 #@! TD*
D18*
G04 #@! TO.C,L3*
X44795000Y-53200000D03*
X43145000Y-53200000D03*
G04 #@! TD*
D19*
G04 #@! TO.C,J3*
X30480000Y-38010000D03*
G04 #@! TD*
D14*
G04 #@! TO.C,C7*
X37775000Y-64050000D03*
X36225000Y-64050000D03*
G04 #@! TD*
D26*
G04 #@! TO.C,C26*
X43195000Y-51600000D03*
X44745000Y-51600000D03*
G04 #@! TD*
D27*
G04 #@! TO.C,R27*
X46900000Y-56525000D03*
X46900000Y-54875000D03*
G04 #@! TD*
D19*
G04 #@! TO.C,J16*
X30480000Y-68580000D03*
G04 #@! TD*
D27*
G04 #@! TO.C,R28*
X50800000Y-35925000D03*
X50800000Y-34275000D03*
G04 #@! TD*
D26*
G04 #@! TO.C,C12*
X44725000Y-49855000D03*
X46275000Y-49855000D03*
G04 #@! TD*
D19*
G04 #@! TO.C,J24*
X53340000Y-55880000D03*
G04 #@! TD*
D22*
G04 #@! TO.C,R21*
X32975000Y-67600000D03*
X34625000Y-67600000D03*
G04 #@! TD*
D26*
G04 #@! TO.C,C5*
X50125000Y-49700000D03*
X51675000Y-49700000D03*
G04 #@! TD*
D18*
G04 #@! TO.C,R24*
X44000000Y-60850000D03*
X42350000Y-60850000D03*
G04 #@! TD*
D19*
G04 #@! TO.C,J13*
X30480000Y-63500000D03*
G04 #@! TD*
D14*
G04 #@! TO.C,C15*
X50875000Y-45800000D03*
X49325000Y-45800000D03*
G04 #@! TD*
G04 #@! TO.C,C25*
X34345000Y-53200000D03*
X32795000Y-53200000D03*
G04 #@! TD*
D19*
G04 #@! TO.C,J5*
X30480000Y-43320000D03*
G04 #@! TD*
D14*
G04 #@! TO.C,C1*
X38575000Y-73831233D03*
X37025000Y-73831233D03*
G04 #@! TD*
G04 #@! TO.C,C28*
X37775000Y-62600000D03*
X36225000Y-62600000D03*
G04 #@! TD*
D25*
G04 #@! TO.C,R15*
X31200000Y-82575000D03*
X31200000Y-84225000D03*
G04 #@! TD*
D37*
G04 #@! TO.C,C27*
X39600000Y-63400000D03*
X34525000Y-63400000D03*
G04 #@! TD*
D22*
G04 #@! TO.C,R1*
X40575000Y-34000000D03*
X42225000Y-34000000D03*
G04 #@! TD*
D18*
G04 #@! TO.C,R22*
X48925000Y-33900000D03*
X47275000Y-33900000D03*
G04 #@! TD*
D24*
G04 #@! TO.C,C9*
X42475000Y-48550000D03*
X42475000Y-47000000D03*
G04 #@! TD*
D38*
G04 #@! TO.C,J1*
X36150000Y-85921233D03*
X47580000Y-85921233D03*
D39*
X36150000Y-77031233D03*
D40*
X37420000Y-79571233D03*
X38690000Y-77031233D03*
X39960000Y-79571233D03*
X41230000Y-77031233D03*
X42500000Y-79571233D03*
X43770000Y-77031233D03*
X45040000Y-79571233D03*
X46310000Y-77031233D03*
X47580000Y-79571233D03*
D19*
X35235000Y-90001233D03*
X37775000Y-90001233D03*
X45955000Y-90001233D03*
X48495000Y-90001233D03*
D41*
X34120000Y-82871233D03*
X49610000Y-82871233D03*
G04 #@! TD*
D18*
G04 #@! TO.C,R9*
X44795000Y-54700000D03*
X43145000Y-54700000D03*
G04 #@! TD*
D19*
G04 #@! TO.C,J28*
X53340000Y-68580000D03*
G04 #@! TD*
G04 #@! TO.C,J21*
X53340000Y-48260000D03*
G04 #@! TD*
D26*
G04 #@! TO.C,C19*
X44125000Y-33700000D03*
X45675000Y-33700000D03*
G04 #@! TD*
D19*
G04 #@! TO.C,J15*
X53340000Y-63500000D03*
G04 #@! TD*
D25*
G04 #@! TO.C,R16*
X52600000Y-82575000D03*
X52600000Y-84225000D03*
G04 #@! TD*
D22*
G04 #@! TO.C,L1*
X46250000Y-42575000D03*
X47900000Y-42575000D03*
G04 #@! TD*
D29*
G04 #@! TO.C,C14*
X37675000Y-36800000D03*
X37675000Y-38350000D03*
G04 #@! TD*
D19*
G04 #@! TO.C,J6*
X30480000Y-45860000D03*
G04 #@! TD*
D42*
G04 #@! TO.C,U1*
X44425000Y-43283333D03*
X44425000Y-42933333D03*
X44425000Y-42583333D03*
X44425000Y-42233333D03*
X44425000Y-41883333D03*
X44425000Y-41533333D03*
X44425000Y-41183333D03*
X44425000Y-40833333D03*
X44425000Y-40483333D03*
X44425000Y-40133333D03*
X44425000Y-39783333D03*
X44425000Y-39433333D03*
X44425000Y-39083333D03*
X44425000Y-38733333D03*
D43*
X43550000Y-38558333D03*
X43200000Y-38558333D03*
X42850000Y-38558333D03*
X42500000Y-38558333D03*
X42150000Y-38558333D03*
X41800000Y-38558333D03*
X41450000Y-38558333D03*
X41100000Y-38558333D03*
X40750000Y-38558333D03*
X40400000Y-38558333D03*
D42*
X39525000Y-38733333D03*
X39525000Y-39083333D03*
X39525000Y-39433333D03*
X39525000Y-39783333D03*
X39525000Y-40133333D03*
X39525000Y-40483333D03*
X39525000Y-40833333D03*
X39525000Y-41183333D03*
X39525000Y-41533333D03*
X39525000Y-41883333D03*
X39525000Y-42233333D03*
X39525000Y-42583333D03*
X39525000Y-42933333D03*
X39525000Y-43283333D03*
D43*
X40400000Y-43458333D03*
X40750000Y-43458333D03*
X41100000Y-43458333D03*
X41450000Y-43458333D03*
X41800000Y-43458333D03*
X42150000Y-43458333D03*
X42500000Y-43458333D03*
X42850000Y-43458333D03*
X43200000Y-43458333D03*
X43550000Y-43458333D03*
D44*
X41975000Y-41008333D03*
G04 #@! TD*
D19*
G04 #@! TO.C,J2*
X53340000Y-73660000D03*
G04 #@! TD*
G04 #@! TO.C,J18*
X53340000Y-40640000D03*
G04 #@! TD*
D25*
G04 #@! TO.C,R7*
X34650000Y-70775000D03*
X34650000Y-72425000D03*
G04 #@! TD*
D19*
G04 #@! TO.C,J9*
X30480000Y-53340000D03*
G04 #@! TD*
D14*
G04 #@! TO.C,C23*
X34345000Y-51700000D03*
X32795000Y-51700000D03*
G04 #@! TD*
D22*
G04 #@! TO.C,R31*
X32745000Y-50200000D03*
X34395000Y-50200000D03*
G04 #@! TD*
D26*
G04 #@! TO.C,C17*
X45325000Y-58000000D03*
X46875000Y-58000000D03*
G04 #@! TD*
D19*
G04 #@! TO.C,J11*
X30480000Y-58420000D03*
G04 #@! TD*
D27*
G04 #@! TO.C,R30*
X44000000Y-36925000D03*
X44000000Y-35275000D03*
G04 #@! TD*
D45*
G04 #@! TO.C,Y1*
X44625000Y-48325000D03*
X46825000Y-48325000D03*
X46825000Y-46625000D03*
X44625000Y-46625000D03*
G04 #@! TD*
M02*
