M48
; DRILL file {KiCad (6.0.4)} date Sun Oct 30 16:15:59 2022
; FORMAT={-:-/ absolute / metric / decimal}
; #@! TF.CreationDate,2022-10-30T16:15:59+13:00
; #@! TF.GenerationSoftware,Kicad,Pcbnew,(6.0.4)
; #@! TF.FileFunction,Plated,1,2,PTH
FMAT,2
METRIC
; #@! TA.AperFunction,Plated,PTH,ViaDrill
T1C0.300
; #@! TA.AperFunction,Plated,PTH,ComponentDrill
T2C0.900
; #@! TA.AperFunction,Plated,PTH,ComponentDrill
T3C1.000
; #@! TA.AperFunction,Plated,PTH,ComponentDrill
T4C1.020
; #@! TA.AperFunction,Plated,PTH,ComponentDrill
T5C1.630
%
G90
G05
T1
X23.175Y-28.4
X25.2Y-56.8
X25.25Y-54.25
X25.4Y-43.2
X25.4Y-44.0
X26.2Y-50.2
X26.6Y-41.6
X26.6Y-45.0
X26.8Y-53.0
X27.2Y-44.4
X27.75Y-49.5
X28.2Y-57.0
X28.5Y-48.75
X29.0Y-36.2
X29.0Y-45.2
X29.0Y-48.2
X30.2Y-38.4
X30.2Y-39.1
X31.0Y-36.2
X31.0Y-45.6
X31.0Y-52.25
X31.438Y-57.25
X31.8Y-45.2
X32.2Y-41.2
X32.2Y-48.6
X32.4Y-32.75
X33.0Y-42.0
X33.334Y-48.259
X33.4Y-34.0
X33.6Y-44.2
X33.6Y-46.0
X33.8Y-48.8
X34.4Y-54.0
X34.55Y-34.2
X34.6Y-33.4
X34.659Y-35.91
X34.75Y-53.2
X34.8Y-27.0
X34.8Y-39.0
X35.0Y-32.0
X35.2Y-28.5
X35.6Y-43.4
X35.8Y-36.0
X35.9Y-28.5
X35.975Y-56.775
X36.4Y-46.4
X36.6Y-33.6
X36.6Y-36.0
X37.0Y-39.0
X37.5Y-50.5
X37.6Y-33.6
X37.6Y-36.0
X38.0Y-43.8
X38.0Y-59.0
X38.5Y-32.75
X38.6Y-41.625
X39.45Y-34.0
X39.6Y-29.0
X39.6Y-30.25
X39.6Y-31.25
X39.6Y-32.4
X39.8Y-26.2
X39.8Y-49.0
X40.75Y-55.662
X40.8Y-38.6
X41.0Y-33.6
X41.4Y-35.352
X41.4Y-36.45
X41.4Y-37.549
X42.0Y-31.8
X42.0Y-34.8
X42.0Y-35.901
X42.0Y-37.0
X42.0Y-38.099
X42.25Y-41.0
X42.251Y-33.6
X42.95Y-33.6
X43.4Y-27.8
X43.8Y-31.8
X43.85Y-45.55
X44.0Y-49.0
X44.8Y-35.249
X45.0Y-59.8
X45.0Y-63.0
X45.5Y-53.25
X46.0Y-31.6
X47.0Y-27.2
T2
X31.12Y-64.547
X32.38Y-62.008
X33.66Y-64.547
X34.92Y-62.008
X36.2Y-64.547
X37.46Y-62.008
X38.74Y-64.547
X40.0Y-62.008
T3
X21.209Y-30.48
X21.209Y-33.02
X21.209Y-35.56
X21.209Y-38.1
X21.209Y-40.64
X21.209Y-43.18
X21.209Y-45.72
X21.209Y-48.26
X21.209Y-50.8
X21.209Y-53.34
X21.209Y-55.88
X21.209Y-58.42
X21.209Y-60.96
X22.86Y-30.48
X22.86Y-33.02
X22.86Y-35.56
X22.86Y-38.1
X22.86Y-40.64
X22.86Y-43.18
X22.86Y-45.72
X22.86Y-48.26
X22.86Y-50.8
X22.86Y-53.34
X22.86Y-55.88
X22.86Y-58.42
X22.86Y-60.96
X48.26Y-30.48
X48.26Y-33.02
X48.26Y-35.56
X48.26Y-38.1
X48.26Y-40.64
X48.26Y-43.18
X48.26Y-45.72
X48.26Y-48.26
X48.26Y-50.8
X48.26Y-53.34
X48.26Y-55.88
X48.26Y-58.42
X48.26Y-60.96
X49.911Y-30.48
X49.911Y-33.02
X49.911Y-35.56
X49.911Y-38.1
X49.911Y-40.64
X49.911Y-43.18
X49.911Y-45.72
X49.911Y-48.26
X49.911Y-50.8
X49.911Y-53.34
X49.911Y-55.88
X49.911Y-58.42
X49.911Y-60.96
T4
X28.935Y-75.807
X31.475Y-75.807
X39.645Y-75.807
X42.185Y-75.807
T5
X27.815Y-67.858
X43.305Y-67.858
T0
M30
