%FSLAX45Y45*%
G04 Gerber Fmt 4.5, Leading zero omitted, Abs format (unit mm)*
G04 Created by KiCad (PCBNEW (6.0.4)) date 2022-11-09 23:24:06*
%MOMM*%
%LPD*%
G01*
G04 APERTURE LIST*
%TA.AperFunction,Profile*%
%ADD10C,0.100000*%
%TD*%
%ADD11C,0.200000*%
%ADD12C,0.030000*%
%ADD13C,0.090000*%
%ADD14C,0.100000*%
%ADD15C,0.102000*%
%ADD16C,0.160000*%
G04 APERTURE END LIST*
D10*
X4726000Y-2540000D02*
X2374000Y-2540000D01*
X2374000Y-2540000D02*
G75*
G03*
X2120000Y-2794000I0J-254000D01*
G01*
X4980000Y-2794000D02*
G75*
G03*
X4726000Y-2540000I-254000J0D01*
G01*
X4726000Y-7874000D02*
G75*
G03*
X4980000Y-7620000I0J254000D01*
G01*
X2120000Y-7620000D02*
G75*
G03*
X2374000Y-7874000I254000J0D01*
G01*
X2120000Y-2794000D02*
X2120000Y-7620000D01*
X2374000Y-7874000D02*
X4726000Y-7874000D01*
X4980000Y-7620000D02*
X4980000Y-2794000D01*
D11*
D12*
X2425000Y-3740050D02*
X2455000Y-3770050D01*
X2455000Y-3740050D02*
X2425000Y-3770050D01*
X2485000Y-6035000D02*
X2515000Y-6065000D01*
X2515000Y-6035000D02*
X2485000Y-6065000D01*
X2527500Y-2926910D02*
X2557500Y-2956910D01*
X2557500Y-2926910D02*
X2527500Y-2956910D01*
X2585000Y-4435000D02*
X2615000Y-4465000D01*
X2615000Y-4435000D02*
X2585000Y-4465000D01*
X2605244Y-3765000D02*
X2635244Y-3795000D01*
X2635244Y-3765000D02*
X2605244Y-3795000D01*
X2660000Y-4035000D02*
X2690000Y-4065000D01*
X2690000Y-4035000D02*
X2660000Y-4065000D01*
X2660000Y-4892550D02*
X2690000Y-4922550D01*
X2690000Y-4892550D02*
X2660000Y-4922550D01*
X2660194Y-3855000D02*
X2690194Y-3885000D01*
X2690194Y-3855000D02*
X2660194Y-3885000D01*
X2665000Y-2725000D02*
X2695000Y-2755000D01*
X2695000Y-2725000D02*
X2665000Y-2755000D01*
X2665000Y-4285000D02*
X2695000Y-4315000D01*
X2695000Y-4285000D02*
X2665000Y-4315000D01*
X2685000Y-3415000D02*
X2715000Y-3445000D01*
X2715000Y-3415000D02*
X2685000Y-3445000D01*
X2765000Y-2925000D02*
X2795000Y-2955000D01*
X2795000Y-2925000D02*
X2765000Y-2955000D01*
X2810000Y-4710000D02*
X2840000Y-4740000D01*
X2840000Y-4710000D02*
X2810000Y-4740000D01*
X2811356Y-4461356D02*
X2841356Y-4491356D01*
X2841356Y-4461356D02*
X2811356Y-4491356D01*
X2813122Y-4860000D02*
X2843122Y-4890000D01*
X2843122Y-4860000D02*
X2813122Y-4890000D01*
X2860000Y-3510000D02*
X2890000Y-3540000D01*
X2890000Y-3510000D02*
X2860000Y-3540000D01*
X2875000Y-2945000D02*
X2905000Y-2975000D01*
X2905000Y-2945000D02*
X2875000Y-2975000D01*
X2878644Y-3188644D02*
X2908644Y-3218644D01*
X2908644Y-3188644D02*
X2878644Y-3218644D01*
X3045000Y-5865000D02*
X3075000Y-5895000D01*
X3075000Y-5865000D02*
X3045000Y-5895000D01*
X3085000Y-4210000D02*
X3115000Y-4240000D01*
X3115000Y-4210000D02*
X3085000Y-4240000D01*
X3151167Y-3259545D02*
X3181167Y-3289545D01*
X3181167Y-3259545D02*
X3151167Y-3289545D01*
X3160000Y-3060000D02*
X3190000Y-3090000D01*
X3190000Y-3060000D02*
X3160000Y-3090000D01*
X3160000Y-3835000D02*
X3190000Y-3865000D01*
X3190000Y-3835000D02*
X3160000Y-3865000D01*
X3165000Y-3475000D02*
X3195000Y-3505000D01*
X3195000Y-3475000D02*
X3165000Y-3505000D01*
X3185000Y-5160000D02*
X3215000Y-5190000D01*
X3215000Y-5160000D02*
X3185000Y-5190000D01*
X3225000Y-3215000D02*
X3255000Y-3245000D01*
X3255000Y-3215000D02*
X3225000Y-3245000D01*
X3270050Y-3735000D02*
X3300050Y-3765000D01*
X3300050Y-3735000D02*
X3270050Y-3765000D01*
X3285000Y-2685000D02*
X3315000Y-2715000D01*
X3315000Y-2685000D02*
X3285000Y-2715000D01*
X3285000Y-3885000D02*
X3315000Y-3915000D01*
X3315000Y-3885000D02*
X3285000Y-3915000D01*
X3305000Y-5545000D02*
X3335000Y-5575000D01*
X3335000Y-5545000D02*
X3305000Y-5575000D01*
X3365000Y-2785000D02*
X3395000Y-2815000D01*
X3395000Y-2785000D02*
X3365000Y-2815000D01*
X3425000Y-4385000D02*
X3455000Y-4415000D01*
X3455000Y-4385000D02*
X3425000Y-4415000D01*
X3435000Y-2675000D02*
X3465000Y-2705000D01*
X3465000Y-2675000D02*
X3435000Y-2705000D01*
X3435000Y-4710000D02*
X3465000Y-4740000D01*
X3465000Y-4710000D02*
X3435000Y-4740000D01*
X3435000Y-4860000D02*
X3465000Y-4890000D01*
X3465000Y-4860000D02*
X3435000Y-4890000D01*
X3448051Y-5133389D02*
X3478051Y-5163389D01*
X3478051Y-5133389D02*
X3448051Y-5163389D01*
X3455000Y-4305000D02*
X3485000Y-4335000D01*
X3485000Y-4305000D02*
X3455000Y-4335000D01*
X3460000Y-3660000D02*
X3490000Y-3690000D01*
X3490000Y-3660000D02*
X3460000Y-3690000D01*
X3479950Y-2805000D02*
X3509950Y-2835000D01*
X3509950Y-2805000D02*
X3479950Y-2835000D01*
X3486354Y-3883815D02*
X3516354Y-3913815D01*
X3516354Y-3883815D02*
X3486354Y-3913815D01*
X3490859Y-2975985D02*
X3520859Y-3005985D01*
X3520859Y-2975985D02*
X3490859Y-3005985D01*
X3505000Y-3285000D02*
X3535000Y-3315000D01*
X3535000Y-3285000D02*
X3505000Y-3315000D01*
X3517519Y-3706580D02*
X3547519Y-3736580D01*
X3547519Y-3706580D02*
X3517519Y-3736580D01*
X3545000Y-2620050D02*
X3575000Y-2650050D01*
X3575000Y-2620050D02*
X3545000Y-2650050D01*
X3585000Y-3725000D02*
X3615000Y-3755000D01*
X3615000Y-3725000D02*
X3585000Y-3755000D01*
X3605000Y-2985000D02*
X3635000Y-3015000D01*
X3635000Y-2985000D02*
X3605000Y-3015000D01*
X3645000Y-5865000D02*
X3675000Y-5895000D01*
X3675000Y-5865000D02*
X3645000Y-5895000D01*
X3665000Y-4025000D02*
X3695000Y-4055000D01*
X3695000Y-4025000D02*
X3665000Y-4055000D01*
X3685000Y-2985000D02*
X3715000Y-3015000D01*
X3715000Y-2985000D02*
X3685000Y-3015000D01*
X3705000Y-2745000D02*
X3735000Y-2775000D01*
X3735000Y-2745000D02*
X3705000Y-2775000D01*
X3705000Y-4365000D02*
X3735000Y-4395000D01*
X3735000Y-4365000D02*
X3705000Y-4395000D01*
X3725000Y-3285000D02*
X3755000Y-3315000D01*
X3755000Y-3285000D02*
X3725000Y-3315000D01*
X3735000Y-4035000D02*
X3765000Y-4065000D01*
X3765000Y-4035000D02*
X3735000Y-4065000D01*
X3745000Y-5265000D02*
X3775000Y-5295000D01*
X3775000Y-5265000D02*
X3745000Y-5295000D01*
X3785000Y-2985000D02*
X3815000Y-3015000D01*
X3815000Y-2985000D02*
X3785000Y-3015000D01*
X3845000Y-4515000D02*
X3875000Y-4545000D01*
X3875000Y-4515000D02*
X3845000Y-4545000D01*
X3865000Y-5785000D02*
X3895000Y-5815000D01*
X3895000Y-5785000D02*
X3865000Y-5815000D01*
X3875000Y-2660000D02*
X3905000Y-2690000D01*
X3905000Y-2660000D02*
X3875000Y-2690000D01*
X3875200Y-2730050D02*
X3905200Y-2760050D01*
X3905200Y-2730050D02*
X3875200Y-2760050D01*
X3885000Y-3547550D02*
X3915000Y-3577550D01*
X3915000Y-3547550D02*
X3885000Y-3577550D01*
X3905000Y-5430000D02*
X3935000Y-5460000D01*
X3935000Y-5430000D02*
X3905000Y-5460000D01*
X3945000Y-4285000D02*
X3975000Y-4315000D01*
X3975000Y-4285000D02*
X3945000Y-4315000D01*
X3970050Y-2785000D02*
X4000050Y-2815000D01*
X4000050Y-2785000D02*
X3970050Y-2815000D01*
X3988856Y-2611144D02*
X4018856Y-2641144D01*
X4018856Y-2611144D02*
X3988856Y-2641144D01*
X4025000Y-3845000D02*
X4055000Y-3875000D01*
X4055000Y-3845000D02*
X4025000Y-3875000D01*
X4028232Y-2746169D02*
X4058232Y-2776169D01*
X4058232Y-2746169D02*
X4028232Y-2776169D01*
X4060000Y-4685000D02*
X4090000Y-4715000D01*
X4090000Y-4685000D02*
X4060000Y-4715000D01*
X4105000Y-3245000D02*
X4135000Y-3275000D01*
X4135000Y-3245000D02*
X4105000Y-3275000D01*
X4165000Y-2920150D02*
X4195000Y-2950150D01*
X4195000Y-2920150D02*
X4165000Y-2950150D01*
X4165000Y-3030050D02*
X4195000Y-3060050D01*
X4195000Y-3030050D02*
X4165000Y-3060050D01*
X4165000Y-3139950D02*
X4195000Y-3169950D01*
X4195000Y-3139950D02*
X4165000Y-3169950D01*
X4225000Y-2865000D02*
X4255000Y-2895000D01*
X4255000Y-2865000D02*
X4225000Y-2895000D01*
X4225000Y-2975100D02*
X4255000Y-3005100D01*
X4255000Y-2975100D02*
X4225000Y-3005100D01*
X4225000Y-3085000D02*
X4255000Y-3115000D01*
X4255000Y-3085000D02*
X4225000Y-3115000D01*
X4225000Y-3194900D02*
X4255000Y-3224900D01*
X4255000Y-3194900D02*
X4225000Y-3224900D01*
X4240000Y-4080000D02*
X4270000Y-4110000D01*
X4270000Y-4080000D02*
X4240000Y-4110000D01*
X4284768Y-3662450D02*
X4314768Y-3692450D01*
X4314768Y-3662450D02*
X4284768Y-3692450D01*
X4345000Y-2735099D02*
X4375000Y-2765099D01*
X4375000Y-2735099D02*
X4345000Y-2765099D01*
X4385000Y-6017498D02*
X4415000Y-6047498D01*
X4415000Y-6017498D02*
X4385000Y-6047498D01*
X4435000Y-4685000D02*
X4465000Y-4715000D01*
X4465000Y-4685000D02*
X4435000Y-4715000D01*
X4460000Y-2610000D02*
X4490000Y-2640000D01*
X4490000Y-2610000D02*
X4460000Y-2640000D01*
X4499950Y-4435000D02*
X4529950Y-4465000D01*
X4529950Y-4435000D02*
X4499950Y-4465000D01*
X4505000Y-2909950D02*
X4535000Y-2939950D01*
X4535000Y-2909950D02*
X4505000Y-2939950D01*
X4510000Y-2735000D02*
X4540000Y-2765000D01*
X4540000Y-2735000D02*
X4510000Y-2765000D01*
D13*
X3025000Y-6200000D02*
G75*
G03*
X3025000Y-6200000I-45000J0D01*
G01*
X3152000Y-6454000D02*
G75*
G03*
X3152000Y-6454000I-45000J0D01*
G01*
X3279000Y-6200000D02*
G75*
G03*
X3279000Y-6200000I-45000J0D01*
G01*
X3406000Y-6454000D02*
G75*
G03*
X3406000Y-6454000I-45000J0D01*
G01*
X3533000Y-6200000D02*
G75*
G03*
X3533000Y-6200000I-45000J0D01*
G01*
X3660000Y-6454000D02*
G75*
G03*
X3660000Y-6454000I-45000J0D01*
G01*
X3787000Y-6200000D02*
G75*
G03*
X3787000Y-6200000I-45000J0D01*
G01*
X3914000Y-6454000D02*
G75*
G03*
X3914000Y-6454000I-45000J0D01*
G01*
X4041000Y-6200000D02*
G75*
G03*
X4041000Y-6200000I-45000J0D01*
G01*
X4168000Y-6454000D02*
G75*
G03*
X4168000Y-6454000I-45000J0D01*
G01*
D14*
X2286000Y-2998000D02*
X2286000Y-3098000D01*
X2236000Y-3048000D02*
X2336000Y-3048000D01*
X2286000Y-3252000D02*
X2286000Y-3352000D01*
X2236000Y-3302000D02*
X2336000Y-3302000D01*
X2286000Y-3506000D02*
X2286000Y-3606000D01*
X2236000Y-3556000D02*
X2336000Y-3556000D01*
X2286000Y-3760000D02*
X2286000Y-3860000D01*
X2236000Y-3810000D02*
X2336000Y-3810000D01*
X2286000Y-4014000D02*
X2286000Y-4114000D01*
X2236000Y-4064000D02*
X2336000Y-4064000D01*
X2286000Y-4268000D02*
X2286000Y-4368000D01*
X2236000Y-4318000D02*
X2336000Y-4318000D01*
X2286000Y-4522000D02*
X2286000Y-4622000D01*
X2236000Y-4572000D02*
X2336000Y-4572000D01*
X2286000Y-4776000D02*
X2286000Y-4876000D01*
X2236000Y-4826000D02*
X2336000Y-4826000D01*
X2286000Y-5030000D02*
X2286000Y-5130000D01*
X2236000Y-5080000D02*
X2336000Y-5080000D01*
X2286000Y-5284000D02*
X2286000Y-5384000D01*
X2236000Y-5334000D02*
X2336000Y-5334000D01*
X2286000Y-5538000D02*
X2286000Y-5638000D01*
X2236000Y-5588000D02*
X2336000Y-5588000D01*
X2286000Y-5792000D02*
X2286000Y-5892000D01*
X2236000Y-5842000D02*
X2336000Y-5842000D01*
X2286000Y-6046000D02*
X2286000Y-6146000D01*
X2236000Y-6096000D02*
X2336000Y-6096000D01*
X4826000Y-2998000D02*
X4826000Y-3098000D01*
X4776000Y-3048000D02*
X4876000Y-3048000D01*
X4826000Y-3252000D02*
X4826000Y-3352000D01*
X4776000Y-3302000D02*
X4876000Y-3302000D01*
X4826000Y-3506000D02*
X4826000Y-3606000D01*
X4776000Y-3556000D02*
X4876000Y-3556000D01*
X4826000Y-3760000D02*
X4826000Y-3860000D01*
X4776000Y-3810000D02*
X4876000Y-3810000D01*
X4826000Y-4014000D02*
X4826000Y-4114000D01*
X4776000Y-4064000D02*
X4876000Y-4064000D01*
X4826000Y-4268000D02*
X4826000Y-4368000D01*
X4776000Y-4318000D02*
X4876000Y-4318000D01*
X4826000Y-4522000D02*
X4826000Y-4622000D01*
X4776000Y-4572000D02*
X4876000Y-4572000D01*
X4826000Y-4776000D02*
X4826000Y-4876000D01*
X4776000Y-4826000D02*
X4876000Y-4826000D01*
X4826000Y-5030000D02*
X4826000Y-5130000D01*
X4776000Y-5080000D02*
X4876000Y-5080000D01*
X4826000Y-5284000D02*
X4826000Y-5384000D01*
X4776000Y-5334000D02*
X4876000Y-5334000D01*
X4826000Y-5538000D02*
X4826000Y-5638000D01*
X4776000Y-5588000D02*
X4876000Y-5588000D01*
X4826000Y-5792000D02*
X4826000Y-5892000D01*
X4776000Y-5842000D02*
X4876000Y-5842000D01*
X4826000Y-6046000D02*
X4826000Y-6146000D01*
X4776000Y-6096000D02*
X4876000Y-6096000D01*
D15*
X2924563Y-7533063D02*
X2924563Y-7460937D01*
X2852437Y-7460937D01*
X2852437Y-7533063D01*
X2924563Y-7533063D01*
X3178563Y-7533063D02*
X3178563Y-7460937D01*
X3106437Y-7460937D01*
X3106437Y-7533063D01*
X3178563Y-7533063D01*
X3996563Y-7533063D02*
X3996563Y-7460937D01*
X3924437Y-7460937D01*
X3924437Y-7533063D01*
X3996563Y-7533063D01*
X4250563Y-7533063D02*
X4250563Y-7460937D01*
X4178437Y-7460937D01*
X4178437Y-7533063D01*
X4250563Y-7533063D01*
D16*
X2777000Y-6864000D02*
X2857000Y-6784000D01*
X2777000Y-6704000D01*
X2697000Y-6784000D01*
X2777000Y-6864000D01*
X4326000Y-6864000D02*
X4406000Y-6784000D01*
X4326000Y-6704000D01*
X4246000Y-6784000D01*
X4326000Y-6864000D01*
D11*
X2372619Y-8189476D02*
X2372619Y-7989476D01*
X2420238Y-7989476D01*
X2448810Y-7999000D01*
X2467857Y-8018048D01*
X2477381Y-8037095D01*
X2486905Y-8075190D01*
X2486905Y-8103762D01*
X2477381Y-8141857D01*
X2467857Y-8160905D01*
X2448810Y-8179952D01*
X2420238Y-8189476D01*
X2372619Y-8189476D01*
X2572619Y-8189476D02*
X2572619Y-8056143D01*
X2572619Y-8094238D02*
X2582143Y-8075190D01*
X2591667Y-8065667D01*
X2610714Y-8056143D01*
X2629762Y-8056143D01*
X2696429Y-8189476D02*
X2696429Y-8056143D01*
X2696429Y-7989476D02*
X2686905Y-7999000D01*
X2696429Y-8008524D01*
X2705952Y-7999000D01*
X2696429Y-7989476D01*
X2696429Y-8008524D01*
X2820238Y-8189476D02*
X2801190Y-8179952D01*
X2791667Y-8160905D01*
X2791667Y-7989476D01*
X2925000Y-8189476D02*
X2905952Y-8179952D01*
X2896428Y-8160905D01*
X2896428Y-7989476D01*
X3153571Y-8189476D02*
X3153571Y-7989476D01*
X3220238Y-8132333D01*
X3286905Y-7989476D01*
X3286905Y-8189476D01*
X3467857Y-8189476D02*
X3467857Y-8084714D01*
X3458333Y-8065667D01*
X3439286Y-8056143D01*
X3401190Y-8056143D01*
X3382143Y-8065667D01*
X3467857Y-8179952D02*
X3448809Y-8189476D01*
X3401190Y-8189476D01*
X3382143Y-8179952D01*
X3372619Y-8160905D01*
X3372619Y-8141857D01*
X3382143Y-8122809D01*
X3401190Y-8113286D01*
X3448809Y-8113286D01*
X3467857Y-8103762D01*
X3563095Y-8056143D02*
X3563095Y-8256143D01*
X3563095Y-8065667D02*
X3582143Y-8056143D01*
X3620238Y-8056143D01*
X3639286Y-8065667D01*
X3648809Y-8075190D01*
X3658333Y-8094238D01*
X3658333Y-8151381D01*
X3648809Y-8170428D01*
X3639286Y-8179952D01*
X3620238Y-8189476D01*
X3582143Y-8189476D01*
X3563095Y-8179952D01*
X3744048Y-8170428D02*
X3753571Y-8179952D01*
X3744048Y-8189476D01*
X3734524Y-8179952D01*
X3744048Y-8170428D01*
X3744048Y-8189476D01*
X3744048Y-8065667D02*
X3753571Y-8075190D01*
X3744048Y-8084714D01*
X3734524Y-8075190D01*
X3744048Y-8065667D01*
X3744048Y-8084714D01*
D12*
X2085000Y-8504000D02*
X2115000Y-8534000D01*
X2115000Y-8504000D02*
X2085000Y-8534000D01*
D11*
X2410714Y-8409476D02*
X2429762Y-8409476D01*
X2448810Y-8419000D01*
X2458333Y-8428524D01*
X2467857Y-8447571D01*
X2477381Y-8485667D01*
X2477381Y-8533286D01*
X2467857Y-8571381D01*
X2458333Y-8590429D01*
X2448810Y-8599952D01*
X2429762Y-8609476D01*
X2410714Y-8609476D01*
X2391667Y-8599952D01*
X2382143Y-8590429D01*
X2372619Y-8571381D01*
X2363095Y-8533286D01*
X2363095Y-8485667D01*
X2372619Y-8447571D01*
X2382143Y-8428524D01*
X2391667Y-8419000D01*
X2410714Y-8409476D01*
X2563095Y-8590429D02*
X2572619Y-8599952D01*
X2563095Y-8609476D01*
X2553571Y-8599952D01*
X2563095Y-8590429D01*
X2563095Y-8609476D01*
X2639286Y-8409476D02*
X2763095Y-8409476D01*
X2696429Y-8485667D01*
X2725000Y-8485667D01*
X2744048Y-8495190D01*
X2753571Y-8504714D01*
X2763095Y-8523762D01*
X2763095Y-8571381D01*
X2753571Y-8590429D01*
X2744048Y-8599952D01*
X2725000Y-8609476D01*
X2667857Y-8609476D01*
X2648810Y-8599952D01*
X2639286Y-8590429D01*
X2886905Y-8409476D02*
X2905952Y-8409476D01*
X2925000Y-8419000D01*
X2934524Y-8428524D01*
X2944048Y-8447571D01*
X2953571Y-8485667D01*
X2953571Y-8533286D01*
X2944048Y-8571381D01*
X2934524Y-8590429D01*
X2925000Y-8599952D01*
X2905952Y-8609476D01*
X2886905Y-8609476D01*
X2867857Y-8599952D01*
X2858333Y-8590429D01*
X2848809Y-8571381D01*
X2839286Y-8533286D01*
X2839286Y-8485667D01*
X2848809Y-8447571D01*
X2858333Y-8428524D01*
X2867857Y-8419000D01*
X2886905Y-8409476D01*
X3077381Y-8409476D02*
X3096428Y-8409476D01*
X3115476Y-8419000D01*
X3125000Y-8428524D01*
X3134524Y-8447571D01*
X3144048Y-8485667D01*
X3144048Y-8533286D01*
X3134524Y-8571381D01*
X3125000Y-8590429D01*
X3115476Y-8599952D01*
X3096428Y-8609476D01*
X3077381Y-8609476D01*
X3058333Y-8599952D01*
X3048809Y-8590429D01*
X3039286Y-8571381D01*
X3029762Y-8533286D01*
X3029762Y-8485667D01*
X3039286Y-8447571D01*
X3048809Y-8428524D01*
X3058333Y-8419000D01*
X3077381Y-8409476D01*
X3229762Y-8609476D02*
X3229762Y-8476143D01*
X3229762Y-8495190D02*
X3239286Y-8485667D01*
X3258333Y-8476143D01*
X3286905Y-8476143D01*
X3305952Y-8485667D01*
X3315476Y-8504714D01*
X3315476Y-8609476D01*
X3315476Y-8504714D02*
X3325000Y-8485667D01*
X3344048Y-8476143D01*
X3372619Y-8476143D01*
X3391667Y-8485667D01*
X3401190Y-8504714D01*
X3401190Y-8609476D01*
X3496428Y-8609476D02*
X3496428Y-8476143D01*
X3496428Y-8495190D02*
X3505952Y-8485667D01*
X3525000Y-8476143D01*
X3553571Y-8476143D01*
X3572619Y-8485667D01*
X3582143Y-8504714D01*
X3582143Y-8609476D01*
X3582143Y-8504714D02*
X3591667Y-8485667D01*
X3610714Y-8476143D01*
X3639286Y-8476143D01*
X3658333Y-8485667D01*
X3667857Y-8504714D01*
X3667857Y-8609476D01*
X4058333Y-8399952D02*
X3886905Y-8657095D01*
X4315476Y-8409476D02*
X4334524Y-8409476D01*
X4353571Y-8419000D01*
X4363095Y-8428524D01*
X4372619Y-8447571D01*
X4382143Y-8485667D01*
X4382143Y-8533286D01*
X4372619Y-8571381D01*
X4363095Y-8590429D01*
X4353571Y-8599952D01*
X4334524Y-8609476D01*
X4315476Y-8609476D01*
X4296429Y-8599952D01*
X4286905Y-8590429D01*
X4277381Y-8571381D01*
X4267857Y-8533286D01*
X4267857Y-8485667D01*
X4277381Y-8447571D01*
X4286905Y-8428524D01*
X4296429Y-8419000D01*
X4315476Y-8409476D01*
X4467857Y-8590429D02*
X4477381Y-8599952D01*
X4467857Y-8609476D01*
X4458333Y-8599952D01*
X4467857Y-8590429D01*
X4467857Y-8609476D01*
X4601190Y-8409476D02*
X4620238Y-8409476D01*
X4639286Y-8419000D01*
X4648810Y-8428524D01*
X4658333Y-8447571D01*
X4667857Y-8485667D01*
X4667857Y-8533286D01*
X4658333Y-8571381D01*
X4648810Y-8590429D01*
X4639286Y-8599952D01*
X4620238Y-8609476D01*
X4601190Y-8609476D01*
X4582143Y-8599952D01*
X4572619Y-8590429D01*
X4563095Y-8571381D01*
X4553571Y-8533286D01*
X4553571Y-8485667D01*
X4563095Y-8447571D01*
X4572619Y-8428524D01*
X4582143Y-8419000D01*
X4601190Y-8409476D01*
X4858333Y-8609476D02*
X4744048Y-8609476D01*
X4801190Y-8609476D02*
X4801190Y-8409476D01*
X4782143Y-8438048D01*
X4763095Y-8457095D01*
X4744048Y-8466619D01*
X5048810Y-8609476D02*
X4934524Y-8609476D01*
X4991667Y-8609476D02*
X4991667Y-8409476D01*
X4972619Y-8438048D01*
X4953571Y-8457095D01*
X4934524Y-8466619D01*
X5163095Y-8495190D02*
X5144048Y-8485667D01*
X5134524Y-8476143D01*
X5125000Y-8457095D01*
X5125000Y-8447571D01*
X5134524Y-8428524D01*
X5144048Y-8419000D01*
X5163095Y-8409476D01*
X5201190Y-8409476D01*
X5220238Y-8419000D01*
X5229762Y-8428524D01*
X5239286Y-8447571D01*
X5239286Y-8457095D01*
X5229762Y-8476143D01*
X5220238Y-8485667D01*
X5201190Y-8495190D01*
X5163095Y-8495190D01*
X5144048Y-8504714D01*
X5134524Y-8514238D01*
X5125000Y-8533286D01*
X5125000Y-8571381D01*
X5134524Y-8590429D01*
X5144048Y-8599952D01*
X5163095Y-8609476D01*
X5201190Y-8609476D01*
X5220238Y-8599952D01*
X5229762Y-8590429D01*
X5239286Y-8571381D01*
X5239286Y-8533286D01*
X5229762Y-8514238D01*
X5220238Y-8504714D01*
X5201190Y-8495190D01*
X5315476Y-8409476D02*
X5315476Y-8447571D01*
X5391667Y-8409476D02*
X5391667Y-8447571D01*
X5686905Y-8685667D02*
X5677381Y-8676143D01*
X5658333Y-8647571D01*
X5648809Y-8628524D01*
X5639286Y-8599952D01*
X5629762Y-8552333D01*
X5629762Y-8514238D01*
X5639286Y-8466619D01*
X5648809Y-8438048D01*
X5658333Y-8419000D01*
X5677381Y-8390429D01*
X5686905Y-8380905D01*
X5791667Y-8495190D02*
X5772619Y-8485667D01*
X5763095Y-8476143D01*
X5753571Y-8457095D01*
X5753571Y-8447571D01*
X5763095Y-8428524D01*
X5772619Y-8419000D01*
X5791667Y-8409476D01*
X5829762Y-8409476D01*
X5848809Y-8419000D01*
X5858333Y-8428524D01*
X5867857Y-8447571D01*
X5867857Y-8457095D01*
X5858333Y-8476143D01*
X5848809Y-8485667D01*
X5829762Y-8495190D01*
X5791667Y-8495190D01*
X5772619Y-8504714D01*
X5763095Y-8514238D01*
X5753571Y-8533286D01*
X5753571Y-8571381D01*
X5763095Y-8590429D01*
X5772619Y-8599952D01*
X5791667Y-8609476D01*
X5829762Y-8609476D01*
X5848809Y-8599952D01*
X5858333Y-8590429D01*
X5867857Y-8571381D01*
X5867857Y-8533286D01*
X5858333Y-8514238D01*
X5848809Y-8504714D01*
X5829762Y-8495190D01*
X6039286Y-8476143D02*
X6039286Y-8609476D01*
X5991667Y-8399952D02*
X5944048Y-8542810D01*
X6067857Y-8542810D01*
X6296428Y-8609476D02*
X6296428Y-8409476D01*
X6382143Y-8609476D02*
X6382143Y-8504714D01*
X6372619Y-8485667D01*
X6353571Y-8476143D01*
X6325000Y-8476143D01*
X6305952Y-8485667D01*
X6296428Y-8495190D01*
X6505952Y-8609476D02*
X6486905Y-8599952D01*
X6477381Y-8590429D01*
X6467857Y-8571381D01*
X6467857Y-8514238D01*
X6477381Y-8495190D01*
X6486905Y-8485667D01*
X6505952Y-8476143D01*
X6534524Y-8476143D01*
X6553571Y-8485667D01*
X6563095Y-8495190D01*
X6572619Y-8514238D01*
X6572619Y-8571381D01*
X6563095Y-8590429D01*
X6553571Y-8599952D01*
X6534524Y-8609476D01*
X6505952Y-8609476D01*
X6686905Y-8609476D02*
X6667857Y-8599952D01*
X6658333Y-8580905D01*
X6658333Y-8409476D01*
X6839286Y-8599952D02*
X6820238Y-8609476D01*
X6782143Y-8609476D01*
X6763095Y-8599952D01*
X6753571Y-8580905D01*
X6753571Y-8504714D01*
X6763095Y-8485667D01*
X6782143Y-8476143D01*
X6820238Y-8476143D01*
X6839286Y-8485667D01*
X6848809Y-8504714D01*
X6848809Y-8523762D01*
X6753571Y-8542810D01*
X6925000Y-8599952D02*
X6944048Y-8609476D01*
X6982143Y-8609476D01*
X7001190Y-8599952D01*
X7010714Y-8580905D01*
X7010714Y-8571381D01*
X7001190Y-8552333D01*
X6982143Y-8542810D01*
X6953571Y-8542810D01*
X6934524Y-8533286D01*
X6925000Y-8514238D01*
X6925000Y-8504714D01*
X6934524Y-8485667D01*
X6953571Y-8476143D01*
X6982143Y-8476143D01*
X7001190Y-8485667D01*
X7077381Y-8685667D02*
X7086905Y-8676143D01*
X7105952Y-8647571D01*
X7115476Y-8628524D01*
X7125000Y-8599952D01*
X7134524Y-8552333D01*
X7134524Y-8514238D01*
X7125000Y-8466619D01*
X7115476Y-8438048D01*
X7105952Y-8419000D01*
X7086905Y-8390429D01*
X7077381Y-8380905D01*
D13*
X2115000Y-8783000D02*
G75*
G03*
X2115000Y-8783000I-45000J0D01*
G01*
D11*
X2410714Y-8673476D02*
X2429762Y-8673476D01*
X2448810Y-8683000D01*
X2458333Y-8692524D01*
X2467857Y-8711571D01*
X2477381Y-8749667D01*
X2477381Y-8797286D01*
X2467857Y-8835381D01*
X2458333Y-8854429D01*
X2448810Y-8863952D01*
X2429762Y-8873476D01*
X2410714Y-8873476D01*
X2391667Y-8863952D01*
X2382143Y-8854429D01*
X2372619Y-8835381D01*
X2363095Y-8797286D01*
X2363095Y-8749667D01*
X2372619Y-8711571D01*
X2382143Y-8692524D01*
X2391667Y-8683000D01*
X2410714Y-8673476D01*
X2563095Y-8854429D02*
X2572619Y-8863952D01*
X2563095Y-8873476D01*
X2553571Y-8863952D01*
X2563095Y-8854429D01*
X2563095Y-8873476D01*
X2667857Y-8873476D02*
X2705952Y-8873476D01*
X2725000Y-8863952D01*
X2734524Y-8854429D01*
X2753571Y-8825857D01*
X2763095Y-8787762D01*
X2763095Y-8711571D01*
X2753571Y-8692524D01*
X2744048Y-8683000D01*
X2725000Y-8673476D01*
X2686905Y-8673476D01*
X2667857Y-8683000D01*
X2658333Y-8692524D01*
X2648810Y-8711571D01*
X2648810Y-8759190D01*
X2658333Y-8778238D01*
X2667857Y-8787762D01*
X2686905Y-8797286D01*
X2725000Y-8797286D01*
X2744048Y-8787762D01*
X2753571Y-8778238D01*
X2763095Y-8759190D01*
X2886905Y-8673476D02*
X2905952Y-8673476D01*
X2925000Y-8683000D01*
X2934524Y-8692524D01*
X2944048Y-8711571D01*
X2953571Y-8749667D01*
X2953571Y-8797286D01*
X2944048Y-8835381D01*
X2934524Y-8854429D01*
X2925000Y-8863952D01*
X2905952Y-8873476D01*
X2886905Y-8873476D01*
X2867857Y-8863952D01*
X2858333Y-8854429D01*
X2848809Y-8835381D01*
X2839286Y-8797286D01*
X2839286Y-8749667D01*
X2848809Y-8711571D01*
X2858333Y-8692524D01*
X2867857Y-8683000D01*
X2886905Y-8673476D01*
X3077381Y-8673476D02*
X3096428Y-8673476D01*
X3115476Y-8683000D01*
X3125000Y-8692524D01*
X3134524Y-8711571D01*
X3144048Y-8749667D01*
X3144048Y-8797286D01*
X3134524Y-8835381D01*
X3125000Y-8854429D01*
X3115476Y-8863952D01*
X3096428Y-8873476D01*
X3077381Y-8873476D01*
X3058333Y-8863952D01*
X3048809Y-8854429D01*
X3039286Y-8835381D01*
X3029762Y-8797286D01*
X3029762Y-8749667D01*
X3039286Y-8711571D01*
X3048809Y-8692524D01*
X3058333Y-8683000D01*
X3077381Y-8673476D01*
X3229762Y-8873476D02*
X3229762Y-8740143D01*
X3229762Y-8759190D02*
X3239286Y-8749667D01*
X3258333Y-8740143D01*
X3286905Y-8740143D01*
X3305952Y-8749667D01*
X3315476Y-8768714D01*
X3315476Y-8873476D01*
X3315476Y-8768714D02*
X3325000Y-8749667D01*
X3344048Y-8740143D01*
X3372619Y-8740143D01*
X3391667Y-8749667D01*
X3401190Y-8768714D01*
X3401190Y-8873476D01*
X3496428Y-8873476D02*
X3496428Y-8740143D01*
X3496428Y-8759190D02*
X3505952Y-8749667D01*
X3525000Y-8740143D01*
X3553571Y-8740143D01*
X3572619Y-8749667D01*
X3582143Y-8768714D01*
X3582143Y-8873476D01*
X3582143Y-8768714D02*
X3591667Y-8749667D01*
X3610714Y-8740143D01*
X3639286Y-8740143D01*
X3658333Y-8749667D01*
X3667857Y-8768714D01*
X3667857Y-8873476D01*
X4058333Y-8663952D02*
X3886905Y-8921095D01*
X4315476Y-8673476D02*
X4334524Y-8673476D01*
X4353571Y-8683000D01*
X4363095Y-8692524D01*
X4372619Y-8711571D01*
X4382143Y-8749667D01*
X4382143Y-8797286D01*
X4372619Y-8835381D01*
X4363095Y-8854429D01*
X4353571Y-8863952D01*
X4334524Y-8873476D01*
X4315476Y-8873476D01*
X4296429Y-8863952D01*
X4286905Y-8854429D01*
X4277381Y-8835381D01*
X4267857Y-8797286D01*
X4267857Y-8749667D01*
X4277381Y-8711571D01*
X4286905Y-8692524D01*
X4296429Y-8683000D01*
X4315476Y-8673476D01*
X4467857Y-8854429D02*
X4477381Y-8863952D01*
X4467857Y-8873476D01*
X4458333Y-8863952D01*
X4467857Y-8854429D01*
X4467857Y-8873476D01*
X4601190Y-8673476D02*
X4620238Y-8673476D01*
X4639286Y-8683000D01*
X4648810Y-8692524D01*
X4658333Y-8711571D01*
X4667857Y-8749667D01*
X4667857Y-8797286D01*
X4658333Y-8835381D01*
X4648810Y-8854429D01*
X4639286Y-8863952D01*
X4620238Y-8873476D01*
X4601190Y-8873476D01*
X4582143Y-8863952D01*
X4572619Y-8854429D01*
X4563095Y-8835381D01*
X4553571Y-8797286D01*
X4553571Y-8749667D01*
X4563095Y-8711571D01*
X4572619Y-8692524D01*
X4582143Y-8683000D01*
X4601190Y-8673476D01*
X4734524Y-8673476D02*
X4858333Y-8673476D01*
X4791667Y-8749667D01*
X4820238Y-8749667D01*
X4839286Y-8759190D01*
X4848810Y-8768714D01*
X4858333Y-8787762D01*
X4858333Y-8835381D01*
X4848810Y-8854429D01*
X4839286Y-8863952D01*
X4820238Y-8873476D01*
X4763095Y-8873476D01*
X4744048Y-8863952D01*
X4734524Y-8854429D01*
X5039286Y-8673476D02*
X4944048Y-8673476D01*
X4934524Y-8768714D01*
X4944048Y-8759190D01*
X4963095Y-8749667D01*
X5010714Y-8749667D01*
X5029762Y-8759190D01*
X5039286Y-8768714D01*
X5048810Y-8787762D01*
X5048810Y-8835381D01*
X5039286Y-8854429D01*
X5029762Y-8863952D01*
X5010714Y-8873476D01*
X4963095Y-8873476D01*
X4944048Y-8863952D01*
X4934524Y-8854429D01*
X5220238Y-8740143D02*
X5220238Y-8873476D01*
X5172619Y-8663952D02*
X5125000Y-8806810D01*
X5248810Y-8806810D01*
X5315476Y-8673476D02*
X5315476Y-8711571D01*
X5391667Y-8673476D02*
X5391667Y-8711571D01*
X5686905Y-8949667D02*
X5677381Y-8940143D01*
X5658333Y-8911571D01*
X5648809Y-8892524D01*
X5639286Y-8863952D01*
X5629762Y-8816333D01*
X5629762Y-8778238D01*
X5639286Y-8730619D01*
X5648809Y-8702048D01*
X5658333Y-8683000D01*
X5677381Y-8654429D01*
X5686905Y-8644905D01*
X5867857Y-8873476D02*
X5753571Y-8873476D01*
X5810714Y-8873476D02*
X5810714Y-8673476D01*
X5791667Y-8702048D01*
X5772619Y-8721095D01*
X5753571Y-8730619D01*
X5991667Y-8673476D02*
X6010714Y-8673476D01*
X6029762Y-8683000D01*
X6039286Y-8692524D01*
X6048809Y-8711571D01*
X6058333Y-8749667D01*
X6058333Y-8797286D01*
X6048809Y-8835381D01*
X6039286Y-8854429D01*
X6029762Y-8863952D01*
X6010714Y-8873476D01*
X5991667Y-8873476D01*
X5972619Y-8863952D01*
X5963095Y-8854429D01*
X5953571Y-8835381D01*
X5944048Y-8797286D01*
X5944048Y-8749667D01*
X5953571Y-8711571D01*
X5963095Y-8692524D01*
X5972619Y-8683000D01*
X5991667Y-8673476D01*
X6296428Y-8873476D02*
X6296428Y-8673476D01*
X6382143Y-8873476D02*
X6382143Y-8768714D01*
X6372619Y-8749667D01*
X6353571Y-8740143D01*
X6325000Y-8740143D01*
X6305952Y-8749667D01*
X6296428Y-8759190D01*
X6505952Y-8873476D02*
X6486905Y-8863952D01*
X6477381Y-8854429D01*
X6467857Y-8835381D01*
X6467857Y-8778238D01*
X6477381Y-8759190D01*
X6486905Y-8749667D01*
X6505952Y-8740143D01*
X6534524Y-8740143D01*
X6553571Y-8749667D01*
X6563095Y-8759190D01*
X6572619Y-8778238D01*
X6572619Y-8835381D01*
X6563095Y-8854429D01*
X6553571Y-8863952D01*
X6534524Y-8873476D01*
X6505952Y-8873476D01*
X6686905Y-8873476D02*
X6667857Y-8863952D01*
X6658333Y-8844905D01*
X6658333Y-8673476D01*
X6839286Y-8863952D02*
X6820238Y-8873476D01*
X6782143Y-8873476D01*
X6763095Y-8863952D01*
X6753571Y-8844905D01*
X6753571Y-8768714D01*
X6763095Y-8749667D01*
X6782143Y-8740143D01*
X6820238Y-8740143D01*
X6839286Y-8749667D01*
X6848809Y-8768714D01*
X6848809Y-8787762D01*
X6753571Y-8806810D01*
X6925000Y-8863952D02*
X6944048Y-8873476D01*
X6982143Y-8873476D01*
X7001190Y-8863952D01*
X7010714Y-8844905D01*
X7010714Y-8835381D01*
X7001190Y-8816333D01*
X6982143Y-8806810D01*
X6953571Y-8806810D01*
X6934524Y-8797286D01*
X6925000Y-8778238D01*
X6925000Y-8768714D01*
X6934524Y-8749667D01*
X6953571Y-8740143D01*
X6982143Y-8740143D01*
X7001190Y-8749667D01*
X7077381Y-8949667D02*
X7086905Y-8940143D01*
X7105952Y-8911571D01*
X7115476Y-8892524D01*
X7125000Y-8863952D01*
X7134524Y-8816333D01*
X7134524Y-8778238D01*
X7125000Y-8730619D01*
X7115476Y-8702048D01*
X7105952Y-8683000D01*
X7086905Y-8654429D01*
X7077381Y-8644905D01*
D14*
X2065000Y-8997000D02*
X2065000Y-9097000D01*
X2015000Y-9047000D02*
X2115000Y-9047000D01*
D11*
X2477381Y-9137476D02*
X2363095Y-9137476D01*
X2420238Y-9137476D02*
X2420238Y-8937476D01*
X2401190Y-8966048D01*
X2382143Y-8985095D01*
X2363095Y-8994619D01*
X2563095Y-9118429D02*
X2572619Y-9127952D01*
X2563095Y-9137476D01*
X2553571Y-9127952D01*
X2563095Y-9118429D01*
X2563095Y-9137476D01*
X2696429Y-8937476D02*
X2715476Y-8937476D01*
X2734524Y-8947000D01*
X2744048Y-8956524D01*
X2753571Y-8975571D01*
X2763095Y-9013667D01*
X2763095Y-9061286D01*
X2753571Y-9099381D01*
X2744048Y-9118429D01*
X2734524Y-9127952D01*
X2715476Y-9137476D01*
X2696429Y-9137476D01*
X2677381Y-9127952D01*
X2667857Y-9118429D01*
X2658333Y-9099381D01*
X2648810Y-9061286D01*
X2648810Y-9013667D01*
X2658333Y-8975571D01*
X2667857Y-8956524D01*
X2677381Y-8947000D01*
X2696429Y-8937476D01*
X2886905Y-8937476D02*
X2905952Y-8937476D01*
X2925000Y-8947000D01*
X2934524Y-8956524D01*
X2944048Y-8975571D01*
X2953571Y-9013667D01*
X2953571Y-9061286D01*
X2944048Y-9099381D01*
X2934524Y-9118429D01*
X2925000Y-9127952D01*
X2905952Y-9137476D01*
X2886905Y-9137476D01*
X2867857Y-9127952D01*
X2858333Y-9118429D01*
X2848809Y-9099381D01*
X2839286Y-9061286D01*
X2839286Y-9013667D01*
X2848809Y-8975571D01*
X2858333Y-8956524D01*
X2867857Y-8947000D01*
X2886905Y-8937476D01*
X3077381Y-8937476D02*
X3096428Y-8937476D01*
X3115476Y-8947000D01*
X3125000Y-8956524D01*
X3134524Y-8975571D01*
X3144048Y-9013667D01*
X3144048Y-9061286D01*
X3134524Y-9099381D01*
X3125000Y-9118429D01*
X3115476Y-9127952D01*
X3096428Y-9137476D01*
X3077381Y-9137476D01*
X3058333Y-9127952D01*
X3048809Y-9118429D01*
X3039286Y-9099381D01*
X3029762Y-9061286D01*
X3029762Y-9013667D01*
X3039286Y-8975571D01*
X3048809Y-8956524D01*
X3058333Y-8947000D01*
X3077381Y-8937476D01*
X3229762Y-9137476D02*
X3229762Y-9004143D01*
X3229762Y-9023190D02*
X3239286Y-9013667D01*
X3258333Y-9004143D01*
X3286905Y-9004143D01*
X3305952Y-9013667D01*
X3315476Y-9032714D01*
X3315476Y-9137476D01*
X3315476Y-9032714D02*
X3325000Y-9013667D01*
X3344048Y-9004143D01*
X3372619Y-9004143D01*
X3391667Y-9013667D01*
X3401190Y-9032714D01*
X3401190Y-9137476D01*
X3496428Y-9137476D02*
X3496428Y-9004143D01*
X3496428Y-9023190D02*
X3505952Y-9013667D01*
X3525000Y-9004143D01*
X3553571Y-9004143D01*
X3572619Y-9013667D01*
X3582143Y-9032714D01*
X3582143Y-9137476D01*
X3582143Y-9032714D02*
X3591667Y-9013667D01*
X3610714Y-9004143D01*
X3639286Y-9004143D01*
X3658333Y-9013667D01*
X3667857Y-9032714D01*
X3667857Y-9137476D01*
X4058333Y-8927952D02*
X3886905Y-9185095D01*
X4315476Y-8937476D02*
X4334524Y-8937476D01*
X4353571Y-8947000D01*
X4363095Y-8956524D01*
X4372619Y-8975571D01*
X4382143Y-9013667D01*
X4382143Y-9061286D01*
X4372619Y-9099381D01*
X4363095Y-9118429D01*
X4353571Y-9127952D01*
X4334524Y-9137476D01*
X4315476Y-9137476D01*
X4296429Y-9127952D01*
X4286905Y-9118429D01*
X4277381Y-9099381D01*
X4267857Y-9061286D01*
X4267857Y-9013667D01*
X4277381Y-8975571D01*
X4286905Y-8956524D01*
X4296429Y-8947000D01*
X4315476Y-8937476D01*
X4467857Y-9118429D02*
X4477381Y-9127952D01*
X4467857Y-9137476D01*
X4458333Y-9127952D01*
X4467857Y-9118429D01*
X4467857Y-9137476D01*
X4601190Y-8937476D02*
X4620238Y-8937476D01*
X4639286Y-8947000D01*
X4648810Y-8956524D01*
X4658333Y-8975571D01*
X4667857Y-9013667D01*
X4667857Y-9061286D01*
X4658333Y-9099381D01*
X4648810Y-9118429D01*
X4639286Y-9127952D01*
X4620238Y-9137476D01*
X4601190Y-9137476D01*
X4582143Y-9127952D01*
X4572619Y-9118429D01*
X4563095Y-9099381D01*
X4553571Y-9061286D01*
X4553571Y-9013667D01*
X4563095Y-8975571D01*
X4572619Y-8956524D01*
X4582143Y-8947000D01*
X4601190Y-8937476D01*
X4734524Y-8937476D02*
X4858333Y-8937476D01*
X4791667Y-9013667D01*
X4820238Y-9013667D01*
X4839286Y-9023190D01*
X4848810Y-9032714D01*
X4858333Y-9051762D01*
X4858333Y-9099381D01*
X4848810Y-9118429D01*
X4839286Y-9127952D01*
X4820238Y-9137476D01*
X4763095Y-9137476D01*
X4744048Y-9127952D01*
X4734524Y-9118429D01*
X4953571Y-9137476D02*
X4991667Y-9137476D01*
X5010714Y-9127952D01*
X5020238Y-9118429D01*
X5039286Y-9089857D01*
X5048810Y-9051762D01*
X5048810Y-8975571D01*
X5039286Y-8956524D01*
X5029762Y-8947000D01*
X5010714Y-8937476D01*
X4972619Y-8937476D01*
X4953571Y-8947000D01*
X4944048Y-8956524D01*
X4934524Y-8975571D01*
X4934524Y-9023190D01*
X4944048Y-9042238D01*
X4953571Y-9051762D01*
X4972619Y-9061286D01*
X5010714Y-9061286D01*
X5029762Y-9051762D01*
X5039286Y-9042238D01*
X5048810Y-9023190D01*
X5220238Y-9004143D02*
X5220238Y-9137476D01*
X5172619Y-8927952D02*
X5125000Y-9070810D01*
X5248810Y-9070810D01*
X5315476Y-8937476D02*
X5315476Y-8975571D01*
X5391667Y-8937476D02*
X5391667Y-8975571D01*
X5686905Y-9213667D02*
X5677381Y-9204143D01*
X5658333Y-9175571D01*
X5648809Y-9156524D01*
X5639286Y-9127952D01*
X5629762Y-9080333D01*
X5629762Y-9042238D01*
X5639286Y-8994619D01*
X5648809Y-8966048D01*
X5658333Y-8947000D01*
X5677381Y-8918429D01*
X5686905Y-8908905D01*
X5753571Y-8956524D02*
X5763095Y-8947000D01*
X5782143Y-8937476D01*
X5829762Y-8937476D01*
X5848809Y-8947000D01*
X5858333Y-8956524D01*
X5867857Y-8975571D01*
X5867857Y-8994619D01*
X5858333Y-9023190D01*
X5744048Y-9137476D01*
X5867857Y-9137476D01*
X6039286Y-8937476D02*
X6001190Y-8937476D01*
X5982143Y-8947000D01*
X5972619Y-8956524D01*
X5953571Y-8985095D01*
X5944048Y-9023190D01*
X5944048Y-9099381D01*
X5953571Y-9118429D01*
X5963095Y-9127952D01*
X5982143Y-9137476D01*
X6020238Y-9137476D01*
X6039286Y-9127952D01*
X6048809Y-9118429D01*
X6058333Y-9099381D01*
X6058333Y-9051762D01*
X6048809Y-9032714D01*
X6039286Y-9023190D01*
X6020238Y-9013667D01*
X5982143Y-9013667D01*
X5963095Y-9023190D01*
X5953571Y-9032714D01*
X5944048Y-9051762D01*
X6296428Y-9137476D02*
X6296428Y-8937476D01*
X6382143Y-9137476D02*
X6382143Y-9032714D01*
X6372619Y-9013667D01*
X6353571Y-9004143D01*
X6325000Y-9004143D01*
X6305952Y-9013667D01*
X6296428Y-9023190D01*
X6505952Y-9137476D02*
X6486905Y-9127952D01*
X6477381Y-9118429D01*
X6467857Y-9099381D01*
X6467857Y-9042238D01*
X6477381Y-9023190D01*
X6486905Y-9013667D01*
X6505952Y-9004143D01*
X6534524Y-9004143D01*
X6553571Y-9013667D01*
X6563095Y-9023190D01*
X6572619Y-9042238D01*
X6572619Y-9099381D01*
X6563095Y-9118429D01*
X6553571Y-9127952D01*
X6534524Y-9137476D01*
X6505952Y-9137476D01*
X6686905Y-9137476D02*
X6667857Y-9127952D01*
X6658333Y-9108905D01*
X6658333Y-8937476D01*
X6839286Y-9127952D02*
X6820238Y-9137476D01*
X6782143Y-9137476D01*
X6763095Y-9127952D01*
X6753571Y-9108905D01*
X6753571Y-9032714D01*
X6763095Y-9013667D01*
X6782143Y-9004143D01*
X6820238Y-9004143D01*
X6839286Y-9013667D01*
X6848809Y-9032714D01*
X6848809Y-9051762D01*
X6753571Y-9070810D01*
X6925000Y-9127952D02*
X6944048Y-9137476D01*
X6982143Y-9137476D01*
X7001190Y-9127952D01*
X7010714Y-9108905D01*
X7010714Y-9099381D01*
X7001190Y-9080333D01*
X6982143Y-9070810D01*
X6953571Y-9070810D01*
X6934524Y-9061286D01*
X6925000Y-9042238D01*
X6925000Y-9032714D01*
X6934524Y-9013667D01*
X6953571Y-9004143D01*
X6982143Y-9004143D01*
X7001190Y-9013667D01*
X7077381Y-9213667D02*
X7086905Y-9204143D01*
X7105952Y-9175571D01*
X7115476Y-9156524D01*
X7125000Y-9127952D01*
X7134524Y-9080333D01*
X7134524Y-9042238D01*
X7125000Y-8994619D01*
X7115476Y-8966048D01*
X7105952Y-8947000D01*
X7086905Y-8918429D01*
X7077381Y-8908905D01*
D15*
X2100063Y-9347063D02*
X2100063Y-9274937D01*
X2027937Y-9274937D01*
X2027937Y-9347063D01*
X2100063Y-9347063D01*
D11*
X2477381Y-9401476D02*
X2363095Y-9401476D01*
X2420238Y-9401476D02*
X2420238Y-9201476D01*
X2401190Y-9230048D01*
X2382143Y-9249095D01*
X2363095Y-9258619D01*
X2563095Y-9382429D02*
X2572619Y-9391952D01*
X2563095Y-9401476D01*
X2553571Y-9391952D01*
X2563095Y-9382429D01*
X2563095Y-9401476D01*
X2696429Y-9201476D02*
X2715476Y-9201476D01*
X2734524Y-9211000D01*
X2744048Y-9220524D01*
X2753571Y-9239571D01*
X2763095Y-9277667D01*
X2763095Y-9325286D01*
X2753571Y-9363381D01*
X2744048Y-9382429D01*
X2734524Y-9391952D01*
X2715476Y-9401476D01*
X2696429Y-9401476D01*
X2677381Y-9391952D01*
X2667857Y-9382429D01*
X2658333Y-9363381D01*
X2648810Y-9325286D01*
X2648810Y-9277667D01*
X2658333Y-9239571D01*
X2667857Y-9220524D01*
X2677381Y-9211000D01*
X2696429Y-9201476D01*
X2839286Y-9220524D02*
X2848809Y-9211000D01*
X2867857Y-9201476D01*
X2915476Y-9201476D01*
X2934524Y-9211000D01*
X2944048Y-9220524D01*
X2953571Y-9239571D01*
X2953571Y-9258619D01*
X2944048Y-9287190D01*
X2829762Y-9401476D01*
X2953571Y-9401476D01*
X3077381Y-9201476D02*
X3096428Y-9201476D01*
X3115476Y-9211000D01*
X3125000Y-9220524D01*
X3134524Y-9239571D01*
X3144048Y-9277667D01*
X3144048Y-9325286D01*
X3134524Y-9363381D01*
X3125000Y-9382429D01*
X3115476Y-9391952D01*
X3096428Y-9401476D01*
X3077381Y-9401476D01*
X3058333Y-9391952D01*
X3048809Y-9382429D01*
X3039286Y-9363381D01*
X3029762Y-9325286D01*
X3029762Y-9277667D01*
X3039286Y-9239571D01*
X3048809Y-9220524D01*
X3058333Y-9211000D01*
X3077381Y-9201476D01*
X3229762Y-9401476D02*
X3229762Y-9268143D01*
X3229762Y-9287190D02*
X3239286Y-9277667D01*
X3258333Y-9268143D01*
X3286905Y-9268143D01*
X3305952Y-9277667D01*
X3315476Y-9296714D01*
X3315476Y-9401476D01*
X3315476Y-9296714D02*
X3325000Y-9277667D01*
X3344048Y-9268143D01*
X3372619Y-9268143D01*
X3391667Y-9277667D01*
X3401190Y-9296714D01*
X3401190Y-9401476D01*
X3496428Y-9401476D02*
X3496428Y-9268143D01*
X3496428Y-9287190D02*
X3505952Y-9277667D01*
X3525000Y-9268143D01*
X3553571Y-9268143D01*
X3572619Y-9277667D01*
X3582143Y-9296714D01*
X3582143Y-9401476D01*
X3582143Y-9296714D02*
X3591667Y-9277667D01*
X3610714Y-9268143D01*
X3639286Y-9268143D01*
X3658333Y-9277667D01*
X3667857Y-9296714D01*
X3667857Y-9401476D01*
X4058333Y-9191952D02*
X3886905Y-9449095D01*
X4315476Y-9201476D02*
X4334524Y-9201476D01*
X4353571Y-9211000D01*
X4363095Y-9220524D01*
X4372619Y-9239571D01*
X4382143Y-9277667D01*
X4382143Y-9325286D01*
X4372619Y-9363381D01*
X4363095Y-9382429D01*
X4353571Y-9391952D01*
X4334524Y-9401476D01*
X4315476Y-9401476D01*
X4296429Y-9391952D01*
X4286905Y-9382429D01*
X4277381Y-9363381D01*
X4267857Y-9325286D01*
X4267857Y-9277667D01*
X4277381Y-9239571D01*
X4286905Y-9220524D01*
X4296429Y-9211000D01*
X4315476Y-9201476D01*
X4467857Y-9382429D02*
X4477381Y-9391952D01*
X4467857Y-9401476D01*
X4458333Y-9391952D01*
X4467857Y-9382429D01*
X4467857Y-9401476D01*
X4601190Y-9201476D02*
X4620238Y-9201476D01*
X4639286Y-9211000D01*
X4648810Y-9220524D01*
X4658333Y-9239571D01*
X4667857Y-9277667D01*
X4667857Y-9325286D01*
X4658333Y-9363381D01*
X4648810Y-9382429D01*
X4639286Y-9391952D01*
X4620238Y-9401476D01*
X4601190Y-9401476D01*
X4582143Y-9391952D01*
X4572619Y-9382429D01*
X4563095Y-9363381D01*
X4553571Y-9325286D01*
X4553571Y-9277667D01*
X4563095Y-9239571D01*
X4572619Y-9220524D01*
X4582143Y-9211000D01*
X4601190Y-9201476D01*
X4839286Y-9268143D02*
X4839286Y-9401476D01*
X4791667Y-9191952D02*
X4744048Y-9334810D01*
X4867857Y-9334810D01*
X4982143Y-9201476D02*
X5001190Y-9201476D01*
X5020238Y-9211000D01*
X5029762Y-9220524D01*
X5039286Y-9239571D01*
X5048810Y-9277667D01*
X5048810Y-9325286D01*
X5039286Y-9363381D01*
X5029762Y-9382429D01*
X5020238Y-9391952D01*
X5001190Y-9401476D01*
X4982143Y-9401476D01*
X4963095Y-9391952D01*
X4953571Y-9382429D01*
X4944048Y-9363381D01*
X4934524Y-9325286D01*
X4934524Y-9277667D01*
X4944048Y-9239571D01*
X4953571Y-9220524D01*
X4963095Y-9211000D01*
X4982143Y-9201476D01*
X5125000Y-9220524D02*
X5134524Y-9211000D01*
X5153571Y-9201476D01*
X5201190Y-9201476D01*
X5220238Y-9211000D01*
X5229762Y-9220524D01*
X5239286Y-9239571D01*
X5239286Y-9258619D01*
X5229762Y-9287190D01*
X5115476Y-9401476D01*
X5239286Y-9401476D01*
X5315476Y-9201476D02*
X5315476Y-9239571D01*
X5391667Y-9201476D02*
X5391667Y-9239571D01*
X5686905Y-9477667D02*
X5677381Y-9468143D01*
X5658333Y-9439571D01*
X5648809Y-9420524D01*
X5639286Y-9391952D01*
X5629762Y-9344333D01*
X5629762Y-9306238D01*
X5639286Y-9258619D01*
X5648809Y-9230048D01*
X5658333Y-9211000D01*
X5677381Y-9182429D01*
X5686905Y-9172905D01*
X5848809Y-9268143D02*
X5848809Y-9401476D01*
X5801190Y-9191952D02*
X5753571Y-9334810D01*
X5877381Y-9334810D01*
X6105952Y-9401476D02*
X6105952Y-9201476D01*
X6191667Y-9401476D02*
X6191667Y-9296714D01*
X6182143Y-9277667D01*
X6163095Y-9268143D01*
X6134524Y-9268143D01*
X6115476Y-9277667D01*
X6105952Y-9287190D01*
X6315476Y-9401476D02*
X6296428Y-9391952D01*
X6286905Y-9382429D01*
X6277381Y-9363381D01*
X6277381Y-9306238D01*
X6286905Y-9287190D01*
X6296428Y-9277667D01*
X6315476Y-9268143D01*
X6344048Y-9268143D01*
X6363095Y-9277667D01*
X6372619Y-9287190D01*
X6382143Y-9306238D01*
X6382143Y-9363381D01*
X6372619Y-9382429D01*
X6363095Y-9391952D01*
X6344048Y-9401476D01*
X6315476Y-9401476D01*
X6496428Y-9401476D02*
X6477381Y-9391952D01*
X6467857Y-9372905D01*
X6467857Y-9201476D01*
X6648809Y-9391952D02*
X6629762Y-9401476D01*
X6591667Y-9401476D01*
X6572619Y-9391952D01*
X6563095Y-9372905D01*
X6563095Y-9296714D01*
X6572619Y-9277667D01*
X6591667Y-9268143D01*
X6629762Y-9268143D01*
X6648809Y-9277667D01*
X6658333Y-9296714D01*
X6658333Y-9315762D01*
X6563095Y-9334810D01*
X6734524Y-9391952D02*
X6753571Y-9401476D01*
X6791667Y-9401476D01*
X6810714Y-9391952D01*
X6820238Y-9372905D01*
X6820238Y-9363381D01*
X6810714Y-9344333D01*
X6791667Y-9334810D01*
X6763095Y-9334810D01*
X6744048Y-9325286D01*
X6734524Y-9306238D01*
X6734524Y-9296714D01*
X6744048Y-9277667D01*
X6763095Y-9268143D01*
X6791667Y-9268143D01*
X6810714Y-9277667D01*
X6886905Y-9477667D02*
X6896428Y-9468143D01*
X6915476Y-9439571D01*
X6925000Y-9420524D01*
X6934524Y-9391952D01*
X6944048Y-9344333D01*
X6944048Y-9306238D01*
X6934524Y-9258619D01*
X6925000Y-9230048D01*
X6915476Y-9211000D01*
X6896428Y-9182429D01*
X6886905Y-9172905D01*
D16*
X2035000Y-9655000D02*
X2115000Y-9575000D01*
X2035000Y-9495000D01*
X1955000Y-9575000D01*
X2035000Y-9655000D01*
D11*
X2477381Y-9665476D02*
X2363095Y-9665476D01*
X2420238Y-9665476D02*
X2420238Y-9465476D01*
X2401190Y-9494048D01*
X2382143Y-9513095D01*
X2363095Y-9522619D01*
X2563095Y-9646429D02*
X2572619Y-9655952D01*
X2563095Y-9665476D01*
X2553571Y-9655952D01*
X2563095Y-9646429D01*
X2563095Y-9665476D01*
X2744048Y-9465476D02*
X2705952Y-9465476D01*
X2686905Y-9475000D01*
X2677381Y-9484524D01*
X2658333Y-9513095D01*
X2648810Y-9551190D01*
X2648810Y-9627381D01*
X2658333Y-9646429D01*
X2667857Y-9655952D01*
X2686905Y-9665476D01*
X2725000Y-9665476D01*
X2744048Y-9655952D01*
X2753571Y-9646429D01*
X2763095Y-9627381D01*
X2763095Y-9579762D01*
X2753571Y-9560714D01*
X2744048Y-9551190D01*
X2725000Y-9541667D01*
X2686905Y-9541667D01*
X2667857Y-9551190D01*
X2658333Y-9560714D01*
X2648810Y-9579762D01*
X2886905Y-9465476D02*
X2905952Y-9465476D01*
X2925000Y-9475000D01*
X2934524Y-9484524D01*
X2944048Y-9503571D01*
X2953571Y-9541667D01*
X2953571Y-9589286D01*
X2944048Y-9627381D01*
X2934524Y-9646429D01*
X2925000Y-9655952D01*
X2905952Y-9665476D01*
X2886905Y-9665476D01*
X2867857Y-9655952D01*
X2858333Y-9646429D01*
X2848809Y-9627381D01*
X2839286Y-9589286D01*
X2839286Y-9541667D01*
X2848809Y-9503571D01*
X2858333Y-9484524D01*
X2867857Y-9475000D01*
X2886905Y-9465476D01*
X3077381Y-9465476D02*
X3096428Y-9465476D01*
X3115476Y-9475000D01*
X3125000Y-9484524D01*
X3134524Y-9503571D01*
X3144048Y-9541667D01*
X3144048Y-9589286D01*
X3134524Y-9627381D01*
X3125000Y-9646429D01*
X3115476Y-9655952D01*
X3096428Y-9665476D01*
X3077381Y-9665476D01*
X3058333Y-9655952D01*
X3048809Y-9646429D01*
X3039286Y-9627381D01*
X3029762Y-9589286D01*
X3029762Y-9541667D01*
X3039286Y-9503571D01*
X3048809Y-9484524D01*
X3058333Y-9475000D01*
X3077381Y-9465476D01*
X3229762Y-9665476D02*
X3229762Y-9532143D01*
X3229762Y-9551190D02*
X3239286Y-9541667D01*
X3258333Y-9532143D01*
X3286905Y-9532143D01*
X3305952Y-9541667D01*
X3315476Y-9560714D01*
X3315476Y-9665476D01*
X3315476Y-9560714D02*
X3325000Y-9541667D01*
X3344048Y-9532143D01*
X3372619Y-9532143D01*
X3391667Y-9541667D01*
X3401190Y-9560714D01*
X3401190Y-9665476D01*
X3496428Y-9665476D02*
X3496428Y-9532143D01*
X3496428Y-9551190D02*
X3505952Y-9541667D01*
X3525000Y-9532143D01*
X3553571Y-9532143D01*
X3572619Y-9541667D01*
X3582143Y-9560714D01*
X3582143Y-9665476D01*
X3582143Y-9560714D02*
X3591667Y-9541667D01*
X3610714Y-9532143D01*
X3639286Y-9532143D01*
X3658333Y-9541667D01*
X3667857Y-9560714D01*
X3667857Y-9665476D01*
X4058333Y-9455952D02*
X3886905Y-9713095D01*
X4315476Y-9465476D02*
X4334524Y-9465476D01*
X4353571Y-9475000D01*
X4363095Y-9484524D01*
X4372619Y-9503571D01*
X4382143Y-9541667D01*
X4382143Y-9589286D01*
X4372619Y-9627381D01*
X4363095Y-9646429D01*
X4353571Y-9655952D01*
X4334524Y-9665476D01*
X4315476Y-9665476D01*
X4296429Y-9655952D01*
X4286905Y-9646429D01*
X4277381Y-9627381D01*
X4267857Y-9589286D01*
X4267857Y-9541667D01*
X4277381Y-9503571D01*
X4286905Y-9484524D01*
X4296429Y-9475000D01*
X4315476Y-9465476D01*
X4467857Y-9646429D02*
X4477381Y-9655952D01*
X4467857Y-9665476D01*
X4458333Y-9655952D01*
X4467857Y-9646429D01*
X4467857Y-9665476D01*
X4601190Y-9465476D02*
X4620238Y-9465476D01*
X4639286Y-9475000D01*
X4648810Y-9484524D01*
X4658333Y-9503571D01*
X4667857Y-9541667D01*
X4667857Y-9589286D01*
X4658333Y-9627381D01*
X4648810Y-9646429D01*
X4639286Y-9655952D01*
X4620238Y-9665476D01*
X4601190Y-9665476D01*
X4582143Y-9655952D01*
X4572619Y-9646429D01*
X4563095Y-9627381D01*
X4553571Y-9589286D01*
X4553571Y-9541667D01*
X4563095Y-9503571D01*
X4572619Y-9484524D01*
X4582143Y-9475000D01*
X4601190Y-9465476D01*
X4839286Y-9465476D02*
X4801190Y-9465476D01*
X4782143Y-9475000D01*
X4772619Y-9484524D01*
X4753571Y-9513095D01*
X4744048Y-9551190D01*
X4744048Y-9627381D01*
X4753571Y-9646429D01*
X4763095Y-9655952D01*
X4782143Y-9665476D01*
X4820238Y-9665476D01*
X4839286Y-9655952D01*
X4848810Y-9646429D01*
X4858333Y-9627381D01*
X4858333Y-9579762D01*
X4848810Y-9560714D01*
X4839286Y-9551190D01*
X4820238Y-9541667D01*
X4782143Y-9541667D01*
X4763095Y-9551190D01*
X4753571Y-9560714D01*
X4744048Y-9579762D01*
X4925000Y-9465476D02*
X5048810Y-9465476D01*
X4982143Y-9541667D01*
X5010714Y-9541667D01*
X5029762Y-9551190D01*
X5039286Y-9560714D01*
X5048810Y-9579762D01*
X5048810Y-9627381D01*
X5039286Y-9646429D01*
X5029762Y-9655952D01*
X5010714Y-9665476D01*
X4953571Y-9665476D01*
X4934524Y-9655952D01*
X4925000Y-9646429D01*
X5172619Y-9465476D02*
X5191667Y-9465476D01*
X5210714Y-9475000D01*
X5220238Y-9484524D01*
X5229762Y-9503571D01*
X5239286Y-9541667D01*
X5239286Y-9589286D01*
X5229762Y-9627381D01*
X5220238Y-9646429D01*
X5210714Y-9655952D01*
X5191667Y-9665476D01*
X5172619Y-9665476D01*
X5153571Y-9655952D01*
X5144048Y-9646429D01*
X5134524Y-9627381D01*
X5125000Y-9589286D01*
X5125000Y-9541667D01*
X5134524Y-9503571D01*
X5144048Y-9484524D01*
X5153571Y-9475000D01*
X5172619Y-9465476D01*
X5315476Y-9465476D02*
X5315476Y-9503571D01*
X5391667Y-9465476D02*
X5391667Y-9503571D01*
X5686905Y-9741667D02*
X5677381Y-9732143D01*
X5658333Y-9703571D01*
X5648809Y-9684524D01*
X5639286Y-9655952D01*
X5629762Y-9608333D01*
X5629762Y-9570238D01*
X5639286Y-9522619D01*
X5648809Y-9494048D01*
X5658333Y-9475000D01*
X5677381Y-9446429D01*
X5686905Y-9436905D01*
X5753571Y-9484524D02*
X5763095Y-9475000D01*
X5782143Y-9465476D01*
X5829762Y-9465476D01*
X5848809Y-9475000D01*
X5858333Y-9484524D01*
X5867857Y-9503571D01*
X5867857Y-9522619D01*
X5858333Y-9551190D01*
X5744048Y-9665476D01*
X5867857Y-9665476D01*
X6105952Y-9665476D02*
X6105952Y-9465476D01*
X6191667Y-9665476D02*
X6191667Y-9560714D01*
X6182143Y-9541667D01*
X6163095Y-9532143D01*
X6134524Y-9532143D01*
X6115476Y-9541667D01*
X6105952Y-9551190D01*
X6315476Y-9665476D02*
X6296428Y-9655952D01*
X6286905Y-9646429D01*
X6277381Y-9627381D01*
X6277381Y-9570238D01*
X6286905Y-9551190D01*
X6296428Y-9541667D01*
X6315476Y-9532143D01*
X6344048Y-9532143D01*
X6363095Y-9541667D01*
X6372619Y-9551190D01*
X6382143Y-9570238D01*
X6382143Y-9627381D01*
X6372619Y-9646429D01*
X6363095Y-9655952D01*
X6344048Y-9665476D01*
X6315476Y-9665476D01*
X6496428Y-9665476D02*
X6477381Y-9655952D01*
X6467857Y-9636905D01*
X6467857Y-9465476D01*
X6648809Y-9655952D02*
X6629762Y-9665476D01*
X6591667Y-9665476D01*
X6572619Y-9655952D01*
X6563095Y-9636905D01*
X6563095Y-9560714D01*
X6572619Y-9541667D01*
X6591667Y-9532143D01*
X6629762Y-9532143D01*
X6648809Y-9541667D01*
X6658333Y-9560714D01*
X6658333Y-9579762D01*
X6563095Y-9598810D01*
X6734524Y-9655952D02*
X6753571Y-9665476D01*
X6791667Y-9665476D01*
X6810714Y-9655952D01*
X6820238Y-9636905D01*
X6820238Y-9627381D01*
X6810714Y-9608333D01*
X6791667Y-9598810D01*
X6763095Y-9598810D01*
X6744048Y-9589286D01*
X6734524Y-9570238D01*
X6734524Y-9560714D01*
X6744048Y-9541667D01*
X6763095Y-9532143D01*
X6791667Y-9532143D01*
X6810714Y-9541667D01*
X6886905Y-9741667D02*
X6896428Y-9732143D01*
X6915476Y-9703571D01*
X6925000Y-9684524D01*
X6934524Y-9655952D01*
X6944048Y-9608333D01*
X6944048Y-9570238D01*
X6934524Y-9522619D01*
X6925000Y-9494048D01*
X6915476Y-9475000D01*
X6896428Y-9446429D01*
X6886905Y-9436905D01*
M02*
