G04 #@! TF.GenerationSoftware,KiCad,Pcbnew,(6.0.4)*
G04 #@! TF.CreationDate,2022-11-09T23:23:58+13:00*
G04 #@! TF.ProjectId,LAN-Module-PoE,4c414e2d-4d6f-4647-956c-652d506f452e,rev?*
G04 #@! TF.SameCoordinates,Original*
G04 #@! TF.FileFunction,Copper,L2,Bot*
G04 #@! TF.FilePolarity,Positive*
%FSLAX46Y46*%
G04 Gerber Fmt 4.6, Leading zero omitted, Abs format (unit mm)*
G04 Created by KiCad (PCBNEW (6.0.4)) date 2022-11-09 23:23:58*
%MOMM*%
%LPD*%
G01*
G04 APERTURE LIST*
G04 #@! TA.AperFunction,ComponentPad*
%ADD10C,1.600000*%
G04 #@! TD*
G04 #@! TA.AperFunction,ComponentPad*
%ADD11R,1.500000X1.500000*%
G04 #@! TD*
G04 #@! TA.AperFunction,ComponentPad*
%ADD12C,1.500000*%
G04 #@! TD*
G04 #@! TA.AperFunction,ComponentPad*
%ADD13C,2.200000*%
G04 #@! TD*
G04 #@! TA.AperFunction,ViaPad*
%ADD14C,0.500000*%
G04 #@! TD*
G04 #@! TA.AperFunction,Conductor*
%ADD15C,0.200000*%
G04 #@! TD*
G04 #@! TA.AperFunction,Conductor*
%ADD16C,0.250000*%
G04 #@! TD*
G04 #@! TA.AperFunction,Conductor*
%ADD17C,0.800000*%
G04 #@! TD*
G04 #@! TA.AperFunction,Conductor*
%ADD18C,0.400000*%
G04 #@! TD*
G04 APERTURE END LIST*
D10*
G04 #@! TO.P,J28,1,1*
G04 #@! TO.N,/12V*
X48260000Y-60960000D03*
G04 #@! TD*
G04 #@! TO.P,J27,1,1*
G04 #@! TO.N,GND*
X48260000Y-58420000D03*
G04 #@! TD*
G04 #@! TO.P,J26,1,1*
G04 #@! TO.N,/S_VP*
X48260000Y-53340000D03*
G04 #@! TD*
G04 #@! TO.P,J25,1,1*
G04 #@! TO.N,/IO37*
X48260000Y-50800000D03*
G04 #@! TD*
G04 #@! TO.P,J24,1,1*
G04 #@! TO.N,/IO38*
X48260000Y-48260000D03*
G04 #@! TD*
G04 #@! TO.P,J23,1,1*
G04 #@! TO.N,/S_VN*
X48260000Y-45720000D03*
G04 #@! TD*
G04 #@! TO.P,J22,1,1*
G04 #@! TO.N,/IO34*
X48260000Y-43180000D03*
G04 #@! TD*
G04 #@! TO.P,J21,1,1*
G04 #@! TO.N,/IO35*
X48260000Y-40640000D03*
G04 #@! TD*
G04 #@! TO.P,J20,1,1*
G04 #@! TO.N,/IO32*
X48260000Y-38100000D03*
G04 #@! TD*
G04 #@! TO.P,J19,1,1*
G04 #@! TO.N,/IO33*
X48260000Y-35560000D03*
G04 #@! TD*
G04 #@! TO.P,J18,1,1*
G04 #@! TO.N,/U0RXD*
X48260000Y-33020000D03*
G04 #@! TD*
G04 #@! TO.P,J17,1,1*
G04 #@! TO.N,/U0TXD*
X48260000Y-30480000D03*
G04 #@! TD*
G04 #@! TO.P,J16,1,1*
G04 #@! TO.N,GND*
X22860000Y-60960000D03*
G04 #@! TD*
G04 #@! TO.P,J15,1,1*
G04 #@! TO.N,+3V3*
X48260000Y-55880000D03*
G04 #@! TD*
G04 #@! TO.P,J14,1,1*
G04 #@! TO.N,GND*
X22860000Y-58420000D03*
G04 #@! TD*
G04 #@! TO.P,J13,1,1*
G04 #@! TO.N,/IO5*
X22860000Y-55880000D03*
G04 #@! TD*
G04 #@! TO.P,J12,1,1*
G04 #@! TO.N,/IO14*
X22860000Y-53340000D03*
G04 #@! TD*
G04 #@! TO.P,J11,1,1*
G04 #@! TO.N,/IO2*
X22860000Y-50800000D03*
G04 #@! TD*
G04 #@! TO.P,J10,1,1*
G04 #@! TO.N,/IO4*
X22860000Y-48260000D03*
G04 #@! TD*
G04 #@! TO.P,J9,1,1*
G04 #@! TO.N,/IO12*
X22860000Y-45720000D03*
G04 #@! TD*
G04 #@! TO.P,J8,1,1*
G04 #@! TO.N,/IO15*
X22860000Y-43180000D03*
G04 #@! TD*
G04 #@! TO.P,J7,1,1*
G04 #@! TO.N,/IO16*
X22860000Y-40640000D03*
G04 #@! TD*
G04 #@! TO.P,J6,1,1*
G04 #@! TO.N,/IO13*
X22860000Y-38100000D03*
G04 #@! TD*
G04 #@! TO.P,J5,1,1*
G04 #@! TO.N,/BOOT*
X22860000Y-35560000D03*
G04 #@! TD*
G04 #@! TO.P,J4,1,1*
G04 #@! TO.N,/EN*
X22860000Y-33020000D03*
G04 #@! TD*
G04 #@! TO.P,J3,1,1*
G04 #@! TO.N,GND*
X22860000Y-30480000D03*
G04 #@! TD*
D11*
G04 #@! TO.P,J1,1,RD+*
G04 #@! TO.N,/MDI1_P*
X29800000Y-62000000D03*
D12*
G04 #@! TO.P,J1,2,RD-*
G04 #@! TO.N,/MDI1_N*
X31070000Y-64540000D03*
G04 #@! TO.P,J1,3,RCT*
G04 #@! TO.N,/MDI0_CT*
X32340000Y-62000000D03*
G04 #@! TO.P,J1,4,TCT*
X33610000Y-64540000D03*
G04 #@! TO.P,J1,5,TD+*
G04 #@! TO.N,/MDI0_P*
X34880000Y-62000000D03*
G04 #@! TO.P,J1,6,TD-*
G04 #@! TO.N,/MDI0_N*
X36150000Y-64540000D03*
G04 #@! TO.P,J1,7*
G04 #@! TO.N,N/C*
X37420000Y-62000000D03*
G04 #@! TO.P,J1,8*
X38690000Y-64540000D03*
G04 #@! TO.P,J1,9,V+*
G04 #@! TO.N,/12V*
X39960000Y-62000000D03*
G04 #@! TO.P,J1,10,V-*
G04 #@! TO.N,/POE_NEG*
X41230000Y-64540000D03*
D10*
G04 #@! TO.P,J1,11,LEDG_A*
G04 #@! TO.N,/ETH_LED0*
X28885000Y-74970000D03*
G04 #@! TO.P,J1,12,LEDG_K*
G04 #@! TO.N,GND*
X31425000Y-74970000D03*
G04 #@! TO.P,J1,13,LEDY_A*
G04 #@! TO.N,/ETH_LED1*
X39605000Y-74970000D03*
G04 #@! TO.P,J1,14,LEDY_K*
G04 #@! TO.N,GND*
X42145000Y-74970000D03*
D13*
G04 #@! TO.P,J1,SH,SHIELD*
X27770000Y-67840000D03*
X43260000Y-67840000D03*
G04 #@! TD*
D14*
G04 #@! TO.N,GND*
X45250000Y-27500000D03*
G04 #@! TO.N,/MDI0_CT*
X26750000Y-49075500D03*
G04 #@! TO.N,GND*
X27000000Y-34300000D03*
X28900000Y-29600000D03*
X35200000Y-33000000D03*
X45200000Y-29249500D03*
X32400000Y-32300000D03*
X38600000Y-45300000D03*
X37400000Y-33000000D03*
X39000000Y-35625500D03*
X42997679Y-36774500D03*
X40400000Y-38600000D03*
X44000000Y-60324980D03*
X25000000Y-60500000D03*
X42550000Y-40950000D03*
X26800000Y-27400000D03*
X36800000Y-40400000D03*
X32850500Y-37500000D03*
X40750000Y-47000000D03*
X44500000Y-47000000D03*
X31000000Y-42250000D03*
X37500000Y-40500000D03*
X38900000Y-26750000D03*
G04 #@! TO.N,/EN*
X35600000Y-26350500D03*
X38000000Y-30000000D03*
G04 #@! TO.N,/S_VP*
X41200000Y-32600000D03*
G04 #@! TO.N,/S_VN*
X42400000Y-31000000D03*
G04 #@! TO.N,/IO34*
X41800000Y-30450500D03*
G04 #@! TO.N,/ETH_TXD1*
X33000000Y-39000000D03*
X35013542Y-38988152D03*
G04 #@! TO.N,/IO35*
X42400000Y-29901000D03*
G04 #@! TO.N,/IO32*
X41800000Y-29351500D03*
G04 #@! TO.N,/ETH_CRS_DV*
X26750000Y-40500000D03*
X37200000Y-27600000D03*
G04 #@! TO.N,/ETH_RXD1*
X34700000Y-43200000D03*
X38901997Y-27450500D03*
G04 #@! TO.N,/ETH_RXD0*
X34400000Y-44000000D03*
X39850500Y-28000000D03*
G04 #@! TO.N,+3V3*
X31800000Y-34900000D03*
X45149500Y-44500000D03*
X37200000Y-43800000D03*
X31661670Y-32745453D03*
X39600000Y-43000000D03*
G04 #@! TO.N,/IO33*
X42400000Y-28800000D03*
G04 #@! TO.N,/U0RXD*
X40038556Y-26261444D03*
G04 #@! TO.N,/ETH_TXEN*
X36000000Y-37400000D03*
X31750000Y-38500000D03*
G04 #@! TO.N,Net-(R4-Pad2)*
X35325186Y-37215796D03*
X43600000Y-27500989D03*
G04 #@! TO.N,/ETH_CLK*
X28263556Y-44763556D03*
X31750000Y-30750000D03*
G04 #@! TO.N,/IO14*
X37000000Y-30000000D03*
G04 #@! TO.N,/IO12*
X27800000Y-29400000D03*
X25425000Y-29419104D03*
X36200000Y-30000000D03*
G04 #@! TO.N,/IO13*
X26202441Y-37800000D03*
X34500000Y-26900000D03*
G04 #@! TO.N,/U0TXD*
X44750000Y-26250000D03*
G04 #@! TO.N,/MDI0_P*
X28250000Y-47250000D03*
G04 #@! TO.N,/MDI0_N*
X28281222Y-48750000D03*
G04 #@! TO.N,/MDI1_P*
X34500000Y-48750000D03*
G04 #@! TO.N,/MDI1_N*
X34500000Y-47250000D03*
G04 #@! TO.N,/IO15*
X24400000Y-37550500D03*
X28936444Y-32036444D03*
X35058588Y-29909854D03*
G04 #@! TO.N,/IO2*
X34949500Y-28200000D03*
G04 #@! TO.N,/IO4*
X33800000Y-28000000D03*
G04 #@! TO.N,/IO16*
X33000000Y-27000000D03*
X26751941Y-38700000D03*
G04 #@! TO.N,/IO5*
X28750000Y-35250000D03*
G04 #@! TO.N,/IO37*
X42400000Y-32099000D03*
G04 #@! TO.N,/IO38*
X41800000Y-31549500D03*
G04 #@! TO.N,Net-(R22-Pad2)*
X34750000Y-36750000D03*
X40432322Y-27611687D03*
G04 #@! TO.N,/LAN_3P3V*
X26000000Y-44500000D03*
X26800000Y-43000000D03*
G04 #@! TO.N,/VIN_NEG*
X33200000Y-55600000D03*
X37600000Y-52800000D03*
G04 #@! TO.N,/VSS*
X38800000Y-58000000D03*
X32000000Y-51750000D03*
X39200000Y-54450000D03*
X34630506Y-51483892D03*
G04 #@! TO.N,/12V*
X30600000Y-58800000D03*
X36600000Y-58800000D03*
G04 #@! TD*
D15*
G04 #@! TO.N,GND*
X44250000Y-27500000D02*
X44150489Y-27400489D01*
X45250000Y-27500000D02*
X44250000Y-27500000D01*
X44150489Y-27400489D02*
X44150489Y-28150489D01*
X44150489Y-27150489D02*
X44150489Y-27400489D01*
G04 #@! TO.N,/U0RXD*
X45549511Y-26799511D02*
X45900000Y-27150000D01*
X44022874Y-26300000D02*
X44522385Y-26799511D01*
X45900000Y-27150000D02*
X45900000Y-30500000D01*
X40077112Y-26300000D02*
X44022874Y-26300000D01*
X44522385Y-26799511D02*
X45549511Y-26799511D01*
X40038556Y-26261444D02*
X40077112Y-26300000D01*
X45900000Y-30500000D02*
X48260000Y-32860000D01*
G04 #@! TO.N,/U0TXD*
X46880000Y-30480000D02*
X48260000Y-30480000D01*
X46300000Y-29900000D02*
X46880000Y-30480000D01*
X46300000Y-26800000D02*
X46300000Y-29900000D01*
X45750000Y-26250000D02*
X46300000Y-26800000D01*
X44750000Y-26250000D02*
X45750000Y-26250000D01*
G04 #@! TO.N,/MDI0_CT*
X26750000Y-47250000D02*
X28000000Y-46000000D01*
D16*
X33610000Y-64540000D02*
X32340000Y-63270000D01*
D15*
X34340000Y-60000000D02*
X39600000Y-60000000D01*
X32340000Y-62000000D02*
X34340000Y-60000000D01*
X26750000Y-47250000D02*
X26750000Y-49075500D01*
X37250000Y-46000000D02*
X28000000Y-46000000D01*
D16*
X32340000Y-63270000D02*
X32340000Y-62000000D01*
D15*
X40600000Y-49350000D02*
X37250000Y-46000000D01*
X39600000Y-60000000D02*
X40600000Y-59000000D01*
X40600000Y-59000000D02*
X40600000Y-49350000D01*
D17*
G04 #@! TO.N,GND*
X27770000Y-67840000D02*
X24240000Y-67840000D01*
D15*
X32950000Y-34150000D02*
X33250000Y-33850000D01*
D18*
X42082463Y-28150489D02*
X44150489Y-28150489D01*
D17*
X22860000Y-58420000D02*
X22860000Y-60960000D01*
D18*
X41000000Y-29232952D02*
X41000000Y-31000000D01*
D17*
X44500000Y-58250000D02*
X43260000Y-59490000D01*
D18*
X35200000Y-33000000D02*
X34100000Y-33000000D01*
D15*
X39600000Y-27000000D02*
X42800000Y-27000000D01*
X39350000Y-26750000D02*
X39600000Y-27000000D01*
X42024500Y-36774500D02*
X40875500Y-35625500D01*
D18*
X34100000Y-33000000D02*
X32950000Y-34150000D01*
D15*
X43000000Y-26800000D02*
X43800000Y-26800000D01*
D18*
X28900000Y-29600000D02*
X27000000Y-31500000D01*
X32750489Y-34349511D02*
X32950000Y-34150000D01*
X26800000Y-27400000D02*
X24000000Y-27400000D01*
D17*
X31000000Y-44800000D02*
X31000000Y-42250000D01*
X44500000Y-47000000D02*
X40750000Y-47000000D01*
D18*
X32750489Y-37399989D02*
X32750489Y-34349511D01*
D17*
X40300000Y-47000000D02*
X38600000Y-45300000D01*
D18*
X27000000Y-31500000D02*
X27000000Y-34300000D01*
D15*
X25000000Y-60500000D02*
X24540000Y-60960000D01*
D18*
X39000000Y-35625500D02*
X39000000Y-33000000D01*
X32850500Y-37500000D02*
X32750489Y-37399989D01*
D15*
X38900000Y-26750000D02*
X39350000Y-26750000D01*
X42997679Y-36774500D02*
X42024500Y-36774500D01*
X33400000Y-33700000D02*
X34100000Y-33000000D01*
D18*
X45200000Y-29249500D02*
X45200000Y-29200000D01*
D17*
X31500000Y-45300000D02*
X31000000Y-44800000D01*
D15*
X43425020Y-60324980D02*
X43260000Y-60490000D01*
D18*
X32400000Y-32300000D02*
X32400000Y-33000000D01*
D17*
X44500000Y-56500000D02*
X44500000Y-58250000D01*
D15*
X24540000Y-60960000D02*
X22860000Y-60960000D01*
D17*
X38600000Y-45300000D02*
X31500000Y-45300000D01*
X43260000Y-67840000D02*
X27770000Y-67840000D01*
X44500000Y-57540000D02*
X45380000Y-58420000D01*
D18*
X22860000Y-28540000D02*
X22860000Y-30480000D01*
X39000000Y-33000000D02*
X37400000Y-33000000D01*
X24000000Y-27400000D02*
X22860000Y-28540000D01*
D17*
X40750000Y-47000000D02*
X40300000Y-47000000D01*
X22860000Y-66460000D02*
X24240000Y-67840000D01*
X43260000Y-59490000D02*
X43260000Y-60490000D01*
D18*
X41000000Y-31000000D02*
X39000000Y-33000000D01*
D15*
X40875500Y-35625500D02*
X39000000Y-35625500D01*
D18*
X32400000Y-33000000D02*
X33250000Y-33850000D01*
D15*
X42800000Y-27000000D02*
X43000000Y-26800000D01*
D17*
X22860000Y-60960000D02*
X22860000Y-66460000D01*
D15*
X44000000Y-60324980D02*
X43425020Y-60324980D01*
X33250000Y-33850000D02*
X33400000Y-33700000D01*
D18*
X44150489Y-28150489D02*
X45200000Y-29200000D01*
D15*
X43800000Y-26800000D02*
X44150489Y-27150489D01*
D17*
X43260000Y-60490000D02*
X43260000Y-67840000D01*
X44500000Y-56500000D02*
X44500000Y-57540000D01*
X44500000Y-47000000D02*
X44500000Y-56500000D01*
D18*
X42082463Y-28150489D02*
X41000000Y-29232952D01*
D17*
X48260000Y-58420000D02*
X45380000Y-58420000D01*
D15*
G04 #@! TO.N,/EN*
X38000000Y-26800000D02*
X37550500Y-26350500D01*
X38000000Y-26800000D02*
X38000000Y-30000000D01*
X37550500Y-26350500D02*
X35600000Y-26350500D01*
G04 #@! TO.N,/S_VP*
X45961929Y-44131891D02*
X45961929Y-42906947D01*
X44100960Y-34063839D02*
X42685632Y-32648511D01*
X46200962Y-44370924D02*
X45961929Y-44131891D01*
X48260000Y-53340000D02*
X47140000Y-53340000D01*
X47140000Y-51205006D02*
X46600480Y-50665486D01*
X46600480Y-50665486D02*
X46600480Y-49000000D01*
X42048511Y-32648511D02*
X42000000Y-32600000D01*
X44100960Y-41045978D02*
X44100960Y-34063839D01*
X42685632Y-32648511D02*
X42048511Y-32648511D01*
X47140000Y-53340000D02*
X47140000Y-51205006D01*
X45961929Y-42906947D02*
X44100960Y-41045978D01*
X42000000Y-32600000D02*
X41200000Y-32600000D01*
X46600480Y-49000000D02*
X46200962Y-48600482D01*
X46200962Y-48600482D02*
X46200962Y-44370924D01*
G04 #@! TO.N,/S_VN*
X48000000Y-45460000D02*
X48000000Y-44474944D01*
X45300000Y-40550000D02*
X45300000Y-33000000D01*
X48000000Y-44474944D02*
X47160489Y-43635433D01*
X43300000Y-31000000D02*
X42400000Y-31000000D01*
X47160489Y-43635433D02*
X47160489Y-42410489D01*
X47160489Y-42410489D02*
X45300000Y-40550000D01*
X45300000Y-33000000D02*
X43300000Y-31000000D01*
G04 #@! TO.N,/IO34*
X43350500Y-30450500D02*
X45699520Y-32799520D01*
X45699520Y-32799520D02*
X45699520Y-40264526D01*
X45699520Y-40264526D02*
X46474513Y-41039519D01*
X46474513Y-41039519D02*
X46539519Y-41039519D01*
X46539519Y-41039519D02*
X48260000Y-42760000D01*
X41800000Y-30450500D02*
X43350500Y-30450500D01*
G04 #@! TO.N,/ETH_TXD1*
X33000000Y-39000000D02*
X35001694Y-39000000D01*
X35001694Y-39000000D02*
X35013542Y-38988152D01*
G04 #@! TO.N,/IO35*
X46640000Y-40640000D02*
X46100000Y-40100000D01*
X43366006Y-29901000D02*
X42400000Y-29901000D01*
X48260000Y-40640000D02*
X46640000Y-40640000D01*
X46100000Y-32634994D02*
X43366006Y-29901000D01*
X46100000Y-40100000D02*
X46100000Y-32634994D01*
G04 #@! TO.N,/IO32*
X41800000Y-29351500D02*
X43381512Y-29351500D01*
X46499520Y-32469508D02*
X46499520Y-37799520D01*
X46499520Y-37799520D02*
X46800000Y-38100000D01*
X43381512Y-29351500D02*
X46499520Y-32469508D01*
X46800000Y-38100000D02*
X48260000Y-38100000D01*
G04 #@! TO.N,/ETH_CRS_DV*
X25649520Y-30950480D02*
X25649520Y-39949520D01*
X26149520Y-30450480D02*
X25649520Y-30950480D01*
X26200000Y-40500000D02*
X26750000Y-40500000D01*
X34428096Y-26050969D02*
X29199031Y-26050969D01*
X26149520Y-29100480D02*
X26149520Y-30450480D01*
X37200000Y-27200000D02*
X36900000Y-26900000D01*
X25649520Y-39949520D02*
X26200000Y-40500000D01*
X37200000Y-27600000D02*
X37200000Y-27200000D01*
X35277127Y-26900000D02*
X34428096Y-26050969D01*
X29199031Y-26050969D02*
X26149520Y-29100480D01*
X36900000Y-26900000D02*
X35277127Y-26900000D01*
G04 #@! TO.N,/ETH_RXD1*
X32277127Y-31000000D02*
X38250000Y-31000000D01*
X34700000Y-43200000D02*
X34700000Y-42100000D01*
X31977616Y-31299511D02*
X32277127Y-31000000D01*
X38549511Y-30700489D02*
X38549511Y-27802986D01*
X31765495Y-31299511D02*
X31977616Y-31299511D01*
X30500000Y-40300000D02*
X30500000Y-32565006D01*
X31150000Y-40950000D02*
X30500000Y-40300000D01*
X38250000Y-31000000D02*
X38549511Y-30700489D01*
X33550000Y-40950000D02*
X31150000Y-40950000D01*
X30500000Y-32565006D02*
X31765495Y-31299511D01*
X38549511Y-27802986D02*
X38901997Y-27450500D01*
X34700000Y-42100000D02*
X33550000Y-40950000D01*
G04 #@! TO.N,/ETH_RXD0*
X34900000Y-44000000D02*
X35300000Y-43600000D01*
X38949030Y-30865976D02*
X38949030Y-28901470D01*
X30900000Y-32730012D02*
X31930981Y-31699031D01*
X32442613Y-31399520D02*
X38415486Y-31399520D01*
X31400000Y-40500000D02*
X30900000Y-40000000D01*
X30900000Y-40000000D02*
X30900000Y-32730012D01*
X38949030Y-28901470D02*
X39850500Y-28000000D01*
X32143103Y-31699030D02*
X32442613Y-31399520D01*
X38415486Y-31399520D02*
X38949030Y-30865976D01*
X31930981Y-31699031D02*
X32143103Y-31699030D01*
X33800000Y-40500000D02*
X31400000Y-40500000D01*
X35300000Y-42000000D02*
X33800000Y-40500000D01*
X34400000Y-44000000D02*
X34900000Y-44000000D01*
X35300000Y-43600000D02*
X35300000Y-42000000D01*
G04 #@! TO.N,+3V3*
X31800000Y-32883783D02*
X31661670Y-32745453D01*
X39600000Y-43000000D02*
X39600000Y-43700000D01*
D17*
X48260000Y-55880000D02*
X46380000Y-55880000D01*
X39500000Y-43800000D02*
X37200000Y-43800000D01*
X45149500Y-44500000D02*
X40900000Y-44500000D01*
X45500000Y-55000000D02*
X45500000Y-44850500D01*
X46380000Y-55880000D02*
X45500000Y-55000000D01*
X45500000Y-44850500D02*
X45149500Y-44500000D01*
X40200000Y-43800000D02*
X39500000Y-43800000D01*
D15*
X31800000Y-34900000D02*
X31800000Y-32883783D01*
X39600000Y-43700000D02*
X39500000Y-43800000D01*
D17*
X40900000Y-44500000D02*
X40200000Y-43800000D01*
D15*
G04 #@! TO.N,/IO33*
X43500000Y-28800000D02*
X42400000Y-28800000D01*
X46900000Y-35300000D02*
X46900000Y-32200000D01*
X48260000Y-35560000D02*
X47160000Y-35560000D01*
X47160000Y-35560000D02*
X46900000Y-35300000D01*
X46900000Y-32200000D02*
X43500000Y-28800000D01*
G04 #@! TO.N,/ETH_TXEN*
X36000000Y-37400000D02*
X35150000Y-38250000D01*
X32000000Y-38250000D02*
X31750000Y-38500000D01*
X35150000Y-38250000D02*
X32000000Y-38250000D01*
G04 #@! TO.N,Net-(R4-Pad2)*
X41899011Y-27500989D02*
X43600000Y-27500989D01*
X35325186Y-36739820D02*
X36149031Y-35915975D01*
X36149031Y-35915975D02*
X36149031Y-33050969D01*
X40500000Y-28900000D02*
X41899011Y-27500989D01*
X35325186Y-37215796D02*
X35325186Y-36739820D01*
X38645978Y-32299040D02*
X40500000Y-30445018D01*
X40500000Y-30445018D02*
X40500000Y-28900000D01*
X36900960Y-32299040D02*
X38645978Y-32299040D01*
X36149031Y-33050969D02*
X36900960Y-32299040D01*
G04 #@! TO.N,/ETH_CLK*
X31750000Y-30750000D02*
X29500000Y-33000000D01*
X29000000Y-44027112D02*
X28263556Y-44763556D01*
X29500000Y-33000000D02*
X29500000Y-38750000D01*
X29500000Y-38750000D02*
X29000000Y-39250000D01*
X29000000Y-39250000D02*
X29000000Y-44027112D01*
G04 #@! TO.N,/IO14*
X28100480Y-43584499D02*
X28100481Y-35122392D01*
X25600481Y-46576240D02*
X27314525Y-44862196D01*
X29649520Y-31665486D02*
X31315006Y-30000000D01*
X33584505Y-30549511D02*
X36450489Y-30549511D01*
X28750000Y-34472873D02*
X28750000Y-33000016D01*
X25600480Y-51899520D02*
X25600481Y-46576240D01*
X28750000Y-33000016D02*
X29649520Y-32100495D01*
X27314526Y-44370453D02*
X28100480Y-43584499D01*
X28100481Y-35122392D02*
X28750000Y-34472873D01*
X24160000Y-53340000D02*
X25600480Y-51899520D01*
X33034994Y-30000000D02*
X33584505Y-30549511D01*
X31315006Y-30000000D02*
X33034994Y-30000000D01*
X22860000Y-53340000D02*
X24160000Y-53340000D01*
X27314525Y-44862196D02*
X27314526Y-44370453D01*
X29649520Y-32100495D02*
X29649520Y-31665486D01*
X36450489Y-30549511D02*
X37000000Y-30000000D01*
G04 #@! TO.N,/IO12*
X36200000Y-28300000D02*
X35349511Y-27449511D01*
X35349511Y-27449511D02*
X33349510Y-27449511D01*
X27800000Y-29145018D02*
X27800000Y-29400000D01*
X33349510Y-27449511D02*
X33249510Y-27549511D01*
X25250000Y-30750000D02*
X25250000Y-42000000D01*
X24250000Y-43000000D02*
X24250000Y-45250000D01*
X33249510Y-27549511D02*
X32749511Y-27549511D01*
X25250000Y-42000000D02*
X24250000Y-43000000D01*
X32749511Y-27549511D02*
X32599520Y-27399520D01*
X24250000Y-45250000D02*
X23780000Y-45720000D01*
X25425000Y-30575000D02*
X25250000Y-30750000D01*
X25425000Y-29419104D02*
X25425000Y-30575000D01*
X29545498Y-27399520D02*
X27800000Y-29145018D01*
X32599520Y-27399520D02*
X29545498Y-27399520D01*
X36200000Y-30000000D02*
X36200000Y-28300000D01*
X23780000Y-45720000D02*
X22860000Y-45720000D01*
G04 #@! TO.N,/IO13*
X29364517Y-26450489D02*
X26549040Y-29265966D01*
X33700000Y-26900000D02*
X33250489Y-26450489D01*
X26549040Y-29265966D02*
X26549040Y-30615966D01*
X26049040Y-37646599D02*
X26202441Y-37800000D01*
X33250489Y-26450489D02*
X29364517Y-26450489D01*
X26049040Y-31115966D02*
X26049040Y-37646599D01*
X26549040Y-30615966D02*
X26049040Y-31115966D01*
X34500000Y-26900000D02*
X33700000Y-26900000D01*
G04 #@! TO.N,/MDI0_P*
X29250000Y-47250000D02*
X29750000Y-47750000D01*
X34880000Y-65870000D02*
X34500000Y-66250000D01*
X34500000Y-66250000D02*
X29500000Y-66250000D01*
X29750000Y-47750000D02*
X29750000Y-49315006D01*
X34880000Y-62000000D02*
X34880000Y-65870000D01*
X28754510Y-50310496D02*
X29750000Y-49315006D01*
X28313533Y-65063533D02*
X28313533Y-56658641D01*
X28313533Y-56658641D02*
X28754510Y-56217664D01*
X28754510Y-56217664D02*
X28754510Y-50310496D01*
X29500000Y-66250000D02*
X28313533Y-65063533D01*
X28250000Y-47250000D02*
X29250000Y-47250000D01*
G04 #@! TO.N,/MDI0_N*
X28281222Y-48750000D02*
X28500000Y-48750000D01*
X29149520Y-66649520D02*
X34665486Y-66649520D01*
X27914014Y-62864014D02*
X27914014Y-65414014D01*
X29161123Y-48468767D02*
X29346178Y-48653822D01*
X28354990Y-56052178D02*
X27914014Y-56493154D01*
X27398108Y-61314014D02*
X27614014Y-61314014D01*
X27398108Y-62514014D02*
X27614014Y-62514014D01*
X28781233Y-48468767D02*
X29161123Y-48468767D01*
X27914014Y-62814014D02*
X27914014Y-62864014D01*
X27614014Y-61914014D02*
X27398108Y-61914014D01*
X29346178Y-49153822D02*
X28354991Y-50145009D01*
X28354991Y-50145009D02*
X28354990Y-56052178D01*
X27914014Y-65414014D02*
X29149520Y-66649520D01*
X27914014Y-56493154D02*
X27914014Y-60414014D01*
X29346178Y-48653822D02*
X29346178Y-49153822D01*
X28500000Y-48750000D02*
X28781233Y-48468767D01*
X34665486Y-66649520D02*
X36150000Y-65165006D01*
X27614014Y-60714014D02*
X27398108Y-60714014D01*
X27913986Y-61614014D02*
G75*
G03*
X27614014Y-61314014I-299986J14D01*
G01*
X27614014Y-60714014D02*
G75*
G03*
X27914014Y-60414014I-14J300014D01*
G01*
X27913986Y-62814014D02*
G75*
G03*
X27614014Y-62514014I-299986J14D01*
G01*
X27398108Y-62513992D02*
G75*
G02*
X27098108Y-62214014I-8J299992D01*
G01*
X27398108Y-61313992D02*
G75*
G02*
X27098108Y-61014014I-8J299992D01*
G01*
X27098114Y-61014014D02*
G75*
G02*
X27398108Y-60714014I299986J14D01*
G01*
X27098114Y-62214014D02*
G75*
G02*
X27398108Y-61914014I299986J14D01*
G01*
X27614014Y-61914014D02*
G75*
G03*
X27914014Y-61614014I-14J300014D01*
G01*
G04 #@! TO.N,/MDI1_P*
X29600480Y-59415486D02*
X30670480Y-60485486D01*
X32866574Y-49350480D02*
X32849520Y-49350480D01*
X33458047Y-49159007D02*
X33458047Y-49159006D01*
X34500000Y-48750000D02*
X34500000Y-48500000D01*
X30670480Y-60485486D02*
X30670480Y-61129520D01*
X30670480Y-61129520D02*
X29800000Y-62000000D01*
X35000000Y-48250000D02*
X35217497Y-48467497D01*
X31584514Y-49350480D02*
X29600481Y-51334513D01*
X33058047Y-49159006D02*
X33058047Y-49159007D01*
X35217497Y-48967497D02*
X34834514Y-49350480D01*
X35217497Y-48467497D02*
X35217497Y-48967497D01*
X34500000Y-48500000D02*
X34750000Y-48250000D01*
X34834514Y-49350480D02*
X33649520Y-49350480D01*
X33266574Y-48967533D02*
X33249520Y-48967533D01*
X32849520Y-49350480D02*
X31584514Y-49350480D01*
X29600481Y-51334513D02*
X29600480Y-59415486D01*
X34750000Y-48250000D02*
X35000000Y-48250000D01*
X33266574Y-48967553D02*
G75*
G02*
X33458047Y-49159006I26J-191447D01*
G01*
X33458020Y-49159007D02*
G75*
G03*
X33649520Y-49350480I191480J7D01*
G01*
X32866574Y-49350447D02*
G75*
G03*
X33058047Y-49159007I26J191447D01*
G01*
X33058033Y-49159006D02*
G75*
G02*
X33249520Y-48967533I191467J6D01*
G01*
G04 #@! TO.N,/MDI1_N*
X31070000Y-64540000D02*
X31070000Y-60320000D01*
X30000000Y-51500000D02*
X31750000Y-49750000D01*
X30000000Y-59250000D02*
X30000000Y-51500000D01*
X31070000Y-60320000D02*
X30000000Y-59250000D01*
X35750000Y-48250000D02*
X34750000Y-47250000D01*
X35000000Y-49750000D02*
X35750000Y-49000000D01*
X31750000Y-49750000D02*
X35000000Y-49750000D01*
X35750000Y-49000000D02*
X35750000Y-48250000D01*
G04 #@! TO.N,/IO15*
X24400000Y-37550500D02*
X24400000Y-41640000D01*
X29250000Y-31500000D02*
X31149520Y-29600480D01*
X31149520Y-29600480D02*
X33200480Y-29600480D01*
X28936444Y-32036444D02*
X29250000Y-31722888D01*
X29250000Y-31722888D02*
X29250000Y-31500000D01*
X35058588Y-29909854D02*
X33509854Y-29909854D01*
X33200480Y-29600480D02*
X33509854Y-29909854D01*
X24400000Y-41640000D02*
X22860000Y-43180000D01*
G04 #@! TO.N,/IO2*
X34200000Y-28700000D02*
X31400000Y-28700000D01*
X25200961Y-49700961D02*
X24101922Y-50800000D01*
X34700000Y-28200000D02*
X34200000Y-28700000D01*
X25200960Y-46410755D02*
X25200961Y-49700961D01*
X27700962Y-34956905D02*
X27700960Y-43419012D01*
X28350480Y-31749520D02*
X28350480Y-34307387D01*
X26915006Y-44204966D02*
X26915006Y-44696709D01*
X34949500Y-28200000D02*
X34700000Y-28200000D01*
X28350480Y-34307387D02*
X27700962Y-34956905D01*
X24101922Y-50800000D02*
X22860000Y-50800000D01*
X31400000Y-28700000D02*
X28350480Y-31749520D01*
X26915006Y-44696709D02*
X25200960Y-46410755D01*
X27700960Y-43419012D02*
X26915006Y-44204966D01*
G04 #@! TO.N,/IO4*
X24750000Y-45315006D02*
X24000000Y-46065006D01*
X24000000Y-48000000D02*
X23740000Y-48260000D01*
X27950960Y-34141901D02*
X27301441Y-34791420D01*
X26250000Y-41750000D02*
X24750000Y-43250000D01*
X24750000Y-43250000D02*
X24750000Y-45315006D01*
X33800000Y-28000000D02*
X31500000Y-28000000D01*
X23740000Y-48260000D02*
X22860000Y-48260000D01*
X27950960Y-31549040D02*
X27950960Y-34141901D01*
X24000000Y-46065006D02*
X24000000Y-48000000D01*
X27301441Y-34791420D02*
X27301441Y-41198559D01*
X31500000Y-28000000D02*
X27950960Y-31549040D01*
X26750000Y-41750000D02*
X26250000Y-41750000D01*
X27301441Y-41198559D02*
X26750000Y-41750000D01*
G04 #@! TO.N,/IO16*
X29380012Y-27000000D02*
X33000000Y-27000000D01*
X26751941Y-37572373D02*
X26448560Y-37268992D01*
X26948560Y-29431452D02*
X29380012Y-27000000D01*
X26948560Y-30781452D02*
X26948560Y-29431452D01*
X26448560Y-37268992D02*
X26448560Y-31281452D01*
X26448560Y-31281452D02*
X26948560Y-30781452D01*
X26751941Y-38700000D02*
X26751941Y-37572373D01*
G04 #@! TO.N,/IO5*
X26000000Y-46741727D02*
X27714045Y-45027682D01*
X27714045Y-44535940D02*
X28500000Y-43749985D01*
X27714045Y-45027682D02*
X27714045Y-44535940D01*
X28500000Y-35500000D02*
X28750000Y-35250000D01*
X28500000Y-43749985D02*
X28500000Y-35500000D01*
X26000000Y-54250000D02*
X26000000Y-46741727D01*
X22860000Y-55880000D02*
X24370000Y-55880000D01*
X24370000Y-55880000D02*
X26000000Y-54250000D01*
G04 #@! TO.N,/IO37*
X44500480Y-33898353D02*
X42701127Y-32099000D01*
X47300000Y-50800000D02*
X47000000Y-50500000D01*
X46361449Y-42741461D02*
X44500480Y-40880492D01*
X46600481Y-48350481D02*
X46600481Y-44205437D01*
X46600481Y-44205437D02*
X46361449Y-43966405D01*
X47000000Y-50500000D02*
X47000000Y-48750000D01*
X44500480Y-40880492D02*
X44500480Y-33898353D01*
X48260000Y-50800000D02*
X47300000Y-50800000D01*
X42701127Y-32099000D02*
X42400000Y-32099000D01*
X46361449Y-43966405D02*
X46361449Y-42741461D01*
X47000000Y-48750000D02*
X46600481Y-48350481D01*
G04 #@! TO.N,/IO38*
X44900000Y-33400000D02*
X43049500Y-31549500D01*
X43049500Y-31549500D02*
X41800000Y-31549500D01*
X44900000Y-40715006D02*
X44900000Y-33400000D01*
X48260000Y-48260000D02*
X47260000Y-48260000D01*
X47260000Y-48260000D02*
X47000000Y-48000000D01*
X46760969Y-42575975D02*
X44900000Y-40715006D01*
X47000000Y-48000000D02*
X47000000Y-44039950D01*
X46760969Y-43800919D02*
X46760969Y-42575975D01*
X47000000Y-44039950D02*
X46760969Y-43800919D01*
G04 #@! TO.N,Net-(R22-Pad2)*
X38480492Y-31899520D02*
X36700480Y-31899520D01*
X35749511Y-32850489D02*
X35749511Y-35750489D01*
X40432322Y-27740073D02*
X40400011Y-27772384D01*
X40100000Y-30280012D02*
X38480492Y-31899520D01*
X40400011Y-28406050D02*
X40100000Y-28706061D01*
X35749511Y-35750489D02*
X34750000Y-36750000D01*
X40432322Y-27611687D02*
X40432322Y-27740073D01*
X36700480Y-31899520D02*
X35749511Y-32850489D01*
X40400011Y-27772384D02*
X40400011Y-28406050D01*
X40100000Y-28706061D02*
X40100000Y-30280012D01*
G04 #@! TO.N,/LAN_3P3V*
X26800000Y-43000000D02*
X26800000Y-43700000D01*
X26800000Y-43700000D02*
X26000000Y-44500000D01*
D17*
G04 #@! TO.N,/VIN_NEG*
X33200000Y-55600000D02*
X37000000Y-55600000D01*
X37600000Y-55000000D02*
X37000000Y-55600000D01*
X37600000Y-52800000D02*
X37600000Y-55000000D01*
G04 #@! TO.N,/VSS*
X32000000Y-51750000D02*
X34950000Y-51750000D01*
X37963534Y-51750000D02*
X38500000Y-52286466D01*
X34683892Y-51483892D02*
X34950000Y-51750000D01*
X34630506Y-51483892D02*
X34683892Y-51483892D01*
D16*
X38800000Y-54450000D02*
X38800000Y-58000000D01*
D17*
X38500000Y-52286466D02*
X38500000Y-52300000D01*
X34950000Y-51750000D02*
X37963534Y-51750000D01*
X38800000Y-54450000D02*
X39200000Y-54450000D01*
X38500000Y-52300000D02*
X38800000Y-52600000D01*
X38800000Y-52600000D02*
X38800000Y-58000000D01*
D16*
X38800000Y-52600000D02*
X38800000Y-54450000D01*
D17*
G04 #@! TO.N,/12V*
X36600000Y-58800000D02*
X30699520Y-58800000D01*
D18*
X36600000Y-58800000D02*
X30600000Y-58800000D01*
G04 #@! TD*
G04 #@! TA.AperFunction,Conductor*
G04 #@! TO.N,GND*
G36*
X38192121Y-34020002D02*
G01*
X38238614Y-34073658D01*
X38250000Y-34126000D01*
X38250000Y-35250000D01*
X43366460Y-35250000D01*
X43434581Y-35270002D01*
X43481074Y-35323658D01*
X43492460Y-35376000D01*
X43492460Y-40705350D01*
X43472458Y-40773471D01*
X43455555Y-40794445D01*
X42036905Y-42213095D01*
X41974593Y-42247121D01*
X41947810Y-42250000D01*
X39724190Y-42250000D01*
X39709272Y-42249114D01*
X39671699Y-42244634D01*
X39605329Y-42236720D01*
X39598326Y-42237456D01*
X39598325Y-42237456D01*
X39485540Y-42249310D01*
X39472370Y-42250000D01*
X37802190Y-42250000D01*
X37734069Y-42229998D01*
X37713095Y-42213095D01*
X36536905Y-41036905D01*
X36502879Y-40974593D01*
X36500000Y-40947810D01*
X36500000Y-38025322D01*
X36520002Y-37957201D01*
X36539108Y-37934077D01*
X36579614Y-37895504D01*
X36579621Y-37895496D01*
X36584721Y-37890639D01*
X36678891Y-37748902D01*
X36739319Y-37589825D01*
X36763001Y-37421313D01*
X36763299Y-37400000D01*
X36744331Y-37230892D01*
X36688368Y-37070189D01*
X36598192Y-36925879D01*
X36536593Y-36863848D01*
X36502787Y-36801419D01*
X36500000Y-36775066D01*
X36500000Y-36477745D01*
X36520002Y-36409624D01*
X36536905Y-36388650D01*
X36545265Y-36380290D01*
X36557656Y-36369423D01*
X36576468Y-36354988D01*
X36583018Y-36349962D01*
X36607505Y-36318050D01*
X36607509Y-36318046D01*
X36680555Y-36222851D01*
X36741869Y-36074826D01*
X36744422Y-36055432D01*
X36757531Y-35955860D01*
X36757531Y-35955855D01*
X36762781Y-35915975D01*
X36758609Y-35884282D01*
X36757531Y-35867839D01*
X36757531Y-34126000D01*
X36777533Y-34057879D01*
X36831189Y-34011386D01*
X36883531Y-34000000D01*
X38124000Y-34000000D01*
X38192121Y-34020002D01*
G37*
G04 #@! TD.AperFunction*
G04 #@! TD*
M02*
