G04 #@! TF.GenerationSoftware,KiCad,Pcbnew,(6.0.4)*
G04 #@! TF.CreationDate,2022-10-30T16:37:21+13:00*
G04 #@! TF.ProjectId,LAN-Module,4c414e2d-4d6f-4647-956c-652e6b696361,rev?*
G04 #@! TF.SameCoordinates,Original*
G04 #@! TF.FileFunction,Soldermask,Top*
G04 #@! TF.FilePolarity,Negative*
%FSLAX46Y46*%
G04 Gerber Fmt 4.6, Leading zero omitted, Abs format (unit mm)*
G04 Created by KiCad (PCBNEW (6.0.4)) date 2022-10-30 16:37:21*
%MOMM*%
%LPD*%
G01*
G04 APERTURE LIST*
G04 Aperture macros list*
%AMRoundRect*
0 Rectangle with rounded corners*
0 $1 Rounding radius*
0 $2 $3 $4 $5 $6 $7 $8 $9 X,Y pos of 4 corners*
0 Add a 4 corners polygon primitive as box body*
4,1,4,$2,$3,$4,$5,$6,$7,$8,$9,$2,$3,0*
0 Add four circle primitives for the rounded corners*
1,1,$1+$1,$2,$3*
1,1,$1+$1,$4,$5*
1,1,$1+$1,$6,$7*
1,1,$1+$1,$8,$9*
0 Add four rect primitives between the rounded corners*
20,1,$1+$1,$2,$3,$4,$5,0*
20,1,$1+$1,$4,$5,$6,$7,0*
20,1,$1+$1,$6,$7,$8,$9,0*
20,1,$1+$1,$8,$9,$2,$3,0*%
G04 Aperture macros list end*
%ADD10C,0.264583*%
%ADD11R,1.200000X0.900000*%
%ADD12R,0.900000X1.200000*%
%ADD13RoundRect,0.200000X-0.275000X0.200000X-0.275000X-0.200000X0.275000X-0.200000X0.275000X0.200000X0*%
%ADD14RoundRect,0.200000X0.200000X0.275000X-0.200000X0.275000X-0.200000X-0.275000X0.200000X-0.275000X0*%
%ADD15C,2.500000*%
%ADD16C,1.500000*%
%ADD17RoundRect,0.250500X-0.499500X-0.499500X0.499500X-0.499500X0.499500X0.499500X-0.499500X0.499500X0*%
%ADD18C,3.250000*%
%ADD19C,1.600000*%
%ADD20R,1.651000X1.600000*%
%ADD21RoundRect,0.225000X0.225000X0.250000X-0.225000X0.250000X-0.225000X-0.250000X0.225000X-0.250000X0*%
%ADD22R,3.700000X1.200000*%
%ADD23RoundRect,0.200000X-0.200000X-0.275000X0.200000X-0.275000X0.200000X0.275000X-0.200000X0.275000X0*%
%ADD24R,2.600000X2.600000*%
%ADD25RoundRect,0.062500X0.350000X-0.062500X0.350000X0.062500X-0.350000X0.062500X-0.350000X-0.062500X0*%
%ADD26RoundRect,0.062500X0.062500X-0.350000X0.062500X0.350000X-0.062500X0.350000X-0.062500X-0.350000X0*%
%ADD27RoundRect,0.225000X-0.225000X-0.250000X0.225000X-0.250000X0.225000X0.250000X-0.225000X0.250000X0*%
%ADD28RoundRect,0.200000X0.275000X-0.200000X0.275000X0.200000X-0.275000X0.200000X-0.275000X-0.200000X0*%
%ADD29RoundRect,0.225000X-0.250000X0.225000X-0.250000X-0.225000X0.250000X-0.225000X0.250000X0.225000X0*%
%ADD30RoundRect,0.250000X0.375000X0.625000X-0.375000X0.625000X-0.375000X-0.625000X0.375000X-0.625000X0*%
%ADD31RoundRect,0.150000X0.587500X0.150000X-0.587500X0.150000X-0.587500X-0.150000X0.587500X-0.150000X0*%
%ADD32RoundRect,0.225000X0.250000X-0.225000X0.250000X0.225000X-0.250000X0.225000X-0.250000X-0.225000X0*%
%ADD33R,3.100000X3.100000*%
%ADD34RoundRect,0.062500X0.375000X-0.062500X0.375000X0.062500X-0.375000X0.062500X-0.375000X-0.062500X0*%
%ADD35RoundRect,0.062500X0.062500X-0.375000X0.062500X0.375000X-0.062500X0.375000X-0.062500X-0.375000X0*%
%ADD36RoundRect,0.200000X0.200000X0.800000X-0.200000X0.800000X-0.200000X-0.800000X0.200000X-0.800000X0*%
%ADD37RoundRect,0.150000X-0.587500X-0.150000X0.587500X-0.150000X0.587500X0.150000X-0.587500X0.150000X0*%
%ADD38R,0.450000X1.380000*%
%ADD39R,1.800000X1.900000*%
%ADD40R,1.000000X1.900000*%
%ADD41R,1.425000X1.550000*%
%ADD42R,1.650000X1.300000*%
%ADD43RoundRect,0.150000X-0.150000X0.512500X-0.150000X-0.512500X0.150000X-0.512500X0.150000X0.512500X0*%
%ADD44RoundRect,0.150000X-0.150000X0.650000X-0.150000X-0.650000X0.150000X-0.650000X0.150000X0.650000X0*%
%ADD45O,0.850000X0.200000*%
%ADD46O,0.200000X0.850000*%
%ADD47RoundRect,0.102000X1.500000X1.500000X-1.500000X1.500000X-1.500000X-1.500000X1.500000X-1.500000X0*%
%ADD48RoundRect,0.250001X0.499999X-0.924999X0.499999X0.924999X-0.499999X0.924999X-0.499999X-0.924999X0*%
%ADD49R,1.400000X1.200000*%
G04 APERTURE END LIST*
G04 #@! TO.C,LOGO1*
G36*
X26094000Y-72953000D02*
G01*
X26221000Y-73014000D01*
X26322000Y-73118000D01*
X26396000Y-73235000D01*
X26445000Y-73354000D01*
X26473000Y-73548000D01*
X26473000Y-73761000D01*
X26444000Y-73977000D01*
X26391000Y-74178000D01*
X26314000Y-74350000D01*
X26193000Y-74521000D01*
X26036000Y-74690000D01*
X25866000Y-74839000D01*
X25703000Y-74948000D01*
X25571000Y-74998000D01*
X25417000Y-74977000D01*
X25269000Y-74881000D01*
X25136000Y-74719000D01*
X25029000Y-74499000D01*
X24965000Y-74280000D01*
X24942000Y-74066000D01*
X24960000Y-73851000D01*
X25019000Y-73630000D01*
X25120000Y-73396000D01*
X25239000Y-73183000D01*
X25355000Y-73066000D01*
X25522000Y-72966000D01*
X25706000Y-72914000D01*
X25899000Y-72909000D01*
X26094000Y-72953000D01*
G37*
D10*
X26094000Y-72953000D02*
X26221000Y-73014000D01*
X26322000Y-73118000D01*
X26396000Y-73235000D01*
X26445000Y-73354000D01*
X26473000Y-73548000D01*
X26473000Y-73761000D01*
X26444000Y-73977000D01*
X26391000Y-74178000D01*
X26314000Y-74350000D01*
X26193000Y-74521000D01*
X26036000Y-74690000D01*
X25866000Y-74839000D01*
X25703000Y-74948000D01*
X25571000Y-74998000D01*
X25417000Y-74977000D01*
X25269000Y-74881000D01*
X25136000Y-74719000D01*
X25029000Y-74499000D01*
X24965000Y-74280000D01*
X24942000Y-74066000D01*
X24960000Y-73851000D01*
X25019000Y-73630000D01*
X25120000Y-73396000D01*
X25239000Y-73183000D01*
X25355000Y-73066000D01*
X25522000Y-72966000D01*
X25706000Y-72914000D01*
X25899000Y-72909000D01*
X26094000Y-72953000D01*
G36*
X24167000Y-70502000D02*
G01*
X24316000Y-70553000D01*
X24481000Y-70638000D01*
X24679000Y-70765000D01*
X24863000Y-70886000D01*
X25023000Y-70977000D01*
X25180000Y-71048000D01*
X25355000Y-71110000D01*
X25569000Y-71172000D01*
X25849000Y-71254000D01*
X26024000Y-71328000D01*
X26154000Y-71420000D01*
X26327000Y-71596000D01*
X26430000Y-71775000D01*
X26472000Y-71972000D01*
X26467000Y-72129000D01*
X26410000Y-72291000D01*
X26313000Y-72454000D01*
X26182000Y-72583000D01*
X26014000Y-72679000D01*
X25806000Y-72744000D01*
X25556000Y-72779000D01*
X25331000Y-72814000D01*
X25161000Y-72890000D01*
X25004000Y-73027000D01*
X24806000Y-73211000D01*
X24633000Y-73299000D01*
X24422000Y-73323000D01*
X24264000Y-73307000D01*
X24092000Y-73243000D01*
X23925000Y-73151000D01*
X23799000Y-73021000D01*
X23698000Y-72867000D01*
X23654000Y-72705000D01*
X23656000Y-72502000D01*
X23668000Y-72287000D01*
X23648000Y-72127000D01*
X23583000Y-71980000D01*
X23463000Y-71806000D01*
X23338000Y-71612000D01*
X23259000Y-71422000D01*
X23225000Y-71235000D01*
X23236000Y-71052000D01*
X23293000Y-70873000D01*
X23376000Y-70724000D01*
X23492000Y-70617000D01*
X23649000Y-70530000D01*
X23828000Y-70482000D01*
X24016000Y-70477000D01*
X24167000Y-70502000D01*
G37*
X24167000Y-70502000D02*
X24316000Y-70553000D01*
X24481000Y-70638000D01*
X24679000Y-70765000D01*
X24863000Y-70886000D01*
X25023000Y-70977000D01*
X25180000Y-71048000D01*
X25355000Y-71110000D01*
X25569000Y-71172000D01*
X25849000Y-71254000D01*
X26024000Y-71328000D01*
X26154000Y-71420000D01*
X26327000Y-71596000D01*
X26430000Y-71775000D01*
X26472000Y-71972000D01*
X26467000Y-72129000D01*
X26410000Y-72291000D01*
X26313000Y-72454000D01*
X26182000Y-72583000D01*
X26014000Y-72679000D01*
X25806000Y-72744000D01*
X25556000Y-72779000D01*
X25331000Y-72814000D01*
X25161000Y-72890000D01*
X25004000Y-73027000D01*
X24806000Y-73211000D01*
X24633000Y-73299000D01*
X24422000Y-73323000D01*
X24264000Y-73307000D01*
X24092000Y-73243000D01*
X23925000Y-73151000D01*
X23799000Y-73021000D01*
X23698000Y-72867000D01*
X23654000Y-72705000D01*
X23656000Y-72502000D01*
X23668000Y-72287000D01*
X23648000Y-72127000D01*
X23583000Y-71980000D01*
X23463000Y-71806000D01*
X23338000Y-71612000D01*
X23259000Y-71422000D01*
X23225000Y-71235000D01*
X23236000Y-71052000D01*
X23293000Y-70873000D01*
X23376000Y-70724000D01*
X23492000Y-70617000D01*
X23649000Y-70530000D01*
X23828000Y-70482000D01*
X24016000Y-70477000D01*
X24167000Y-70502000D01*
G36*
X22966000Y-71521000D02*
G01*
X23063000Y-71580000D01*
X23163000Y-71662000D01*
X23296000Y-71822000D01*
X23374000Y-71998000D01*
X23397000Y-72192000D01*
X23367000Y-72405000D01*
X23282000Y-72640000D01*
X23174000Y-72842000D01*
X23047000Y-73014000D01*
X22900000Y-73156000D01*
X22729000Y-73272000D01*
X22534000Y-73363000D01*
X22306000Y-73426000D01*
X22102000Y-73435000D01*
X21934000Y-73392000D01*
X21812000Y-73298000D01*
X21753000Y-73152000D01*
X21726000Y-72932000D01*
X21730000Y-72676000D01*
X21764000Y-72425000D01*
X21829000Y-72216000D01*
X21915000Y-72065000D01*
X22034000Y-71910000D01*
X22175000Y-71763000D01*
X22324000Y-71637000D01*
X22469000Y-71544000D01*
X22632000Y-71494000D01*
X22812000Y-71485000D01*
X22966000Y-71521000D01*
G37*
X22966000Y-71521000D02*
X23063000Y-71580000D01*
X23163000Y-71662000D01*
X23296000Y-71822000D01*
X23374000Y-71998000D01*
X23397000Y-72192000D01*
X23367000Y-72405000D01*
X23282000Y-72640000D01*
X23174000Y-72842000D01*
X23047000Y-73014000D01*
X22900000Y-73156000D01*
X22729000Y-73272000D01*
X22534000Y-73363000D01*
X22306000Y-73426000D01*
X22102000Y-73435000D01*
X21934000Y-73392000D01*
X21812000Y-73298000D01*
X21753000Y-73152000D01*
X21726000Y-72932000D01*
X21730000Y-72676000D01*
X21764000Y-72425000D01*
X21829000Y-72216000D01*
X21915000Y-72065000D01*
X22034000Y-71910000D01*
X22175000Y-71763000D01*
X22324000Y-71637000D01*
X22469000Y-71544000D01*
X22632000Y-71494000D01*
X22812000Y-71485000D01*
X22966000Y-71521000D01*
G36*
X25341000Y-75113000D02*
G01*
X25554000Y-75168000D01*
X25668000Y-75244000D01*
X25559000Y-75365000D01*
X25374000Y-75503000D01*
X25197000Y-75593000D01*
X25052000Y-75585000D01*
X25075000Y-75439000D01*
X25139000Y-75223000D01*
X25198000Y-75090000D01*
X25341000Y-75113000D01*
G37*
G36*
X24590000Y-74137000D02*
G01*
X24739000Y-74235000D01*
X24852000Y-74385000D01*
X24924000Y-74561000D01*
X24953000Y-74753000D01*
X24937000Y-74952000D01*
X24876000Y-75145000D01*
X24803000Y-75281000D01*
X24707000Y-75398000D01*
X24559000Y-75525000D01*
X24333000Y-75689000D01*
X24072000Y-75858000D01*
X23870000Y-75958000D01*
X23703000Y-75996000D01*
X23549000Y-75982000D01*
X23400000Y-75912000D01*
X23306000Y-75788000D01*
X23268000Y-75611000D01*
X23285000Y-75382000D01*
X23358000Y-75101000D01*
X23440000Y-74887000D01*
X23538000Y-74689000D01*
X23649000Y-74511000D01*
X23770000Y-74359000D01*
X23898000Y-74235000D01*
X24029000Y-74146000D01*
X24207000Y-74089000D01*
X24403000Y-74087000D01*
X24590000Y-74137000D01*
G37*
X24590000Y-74137000D02*
X24739000Y-74235000D01*
X24852000Y-74385000D01*
X24924000Y-74561000D01*
X24953000Y-74753000D01*
X24937000Y-74952000D01*
X24876000Y-75145000D01*
X24803000Y-75281000D01*
X24707000Y-75398000D01*
X24559000Y-75525000D01*
X24333000Y-75689000D01*
X24072000Y-75858000D01*
X23870000Y-75958000D01*
X23703000Y-75996000D01*
X23549000Y-75982000D01*
X23400000Y-75912000D01*
X23306000Y-75788000D01*
X23268000Y-75611000D01*
X23285000Y-75382000D01*
X23358000Y-75101000D01*
X23440000Y-74887000D01*
X23538000Y-74689000D01*
X23649000Y-74511000D01*
X23770000Y-74359000D01*
X23898000Y-74235000D01*
X24029000Y-74146000D01*
X24207000Y-74089000D01*
X24403000Y-74087000D01*
X24590000Y-74137000D01*
G36*
X21689000Y-73409000D02*
G01*
X21864000Y-73528000D01*
X21977000Y-73630000D01*
X21909000Y-73768000D01*
X21782000Y-73961000D01*
X21690000Y-74068000D01*
X21618000Y-73997000D01*
X21559000Y-73792000D01*
X21531000Y-73551000D01*
X21553000Y-73371000D01*
X21689000Y-73409000D01*
G37*
G36*
X23095000Y-73459000D02*
G01*
X23256000Y-73558000D01*
X23397000Y-73726000D01*
X23467000Y-73945000D01*
X23475000Y-74129000D01*
X23448000Y-74338000D01*
X23387000Y-74562000D01*
X23294000Y-74793000D01*
X23172000Y-75024000D01*
X23012000Y-75260000D01*
X22857000Y-75421000D01*
X22706000Y-75507000D01*
X22558000Y-75520000D01*
X22390000Y-75457000D01*
X22263000Y-75326000D01*
X22171000Y-75119000D01*
X22110000Y-74828000D01*
X22075000Y-74518000D01*
X22069000Y-74262000D01*
X22093000Y-74052000D01*
X22150000Y-73878000D01*
X22241000Y-73733000D01*
X22368000Y-73605000D01*
X22548000Y-73487000D01*
X22734000Y-73424000D01*
X22919000Y-73414000D01*
X23095000Y-73459000D01*
G37*
X23095000Y-73459000D02*
X23256000Y-73558000D01*
X23397000Y-73726000D01*
X23467000Y-73945000D01*
X23475000Y-74129000D01*
X23448000Y-74338000D01*
X23387000Y-74562000D01*
X23294000Y-74793000D01*
X23172000Y-75024000D01*
X23012000Y-75260000D01*
X22857000Y-75421000D01*
X22706000Y-75507000D01*
X22558000Y-75520000D01*
X22390000Y-75457000D01*
X22263000Y-75326000D01*
X22171000Y-75119000D01*
X22110000Y-74828000D01*
X22075000Y-74518000D01*
X22069000Y-74262000D01*
X22093000Y-74052000D01*
X22150000Y-73878000D01*
X22241000Y-73733000D01*
X22368000Y-73605000D01*
X22548000Y-73487000D01*
X22734000Y-73424000D01*
X22919000Y-73414000D01*
X23095000Y-73459000D01*
G36*
X22298000Y-75574000D02*
G01*
X22499000Y-75649000D01*
X22669000Y-75731000D01*
X22636000Y-75843000D01*
X22561000Y-76045000D01*
X22465000Y-76268000D01*
X22413000Y-76292000D01*
X22340000Y-76175000D01*
X22262000Y-75951000D01*
X22215000Y-75724000D01*
X22215000Y-75542000D01*
X22298000Y-75574000D01*
G37*
G36*
X23340000Y-76035000D02*
G01*
X23514000Y-76128000D01*
X23595000Y-76171000D01*
X23458000Y-76290000D01*
X23261000Y-76402000D01*
X23040000Y-76492000D01*
X22907000Y-76516000D01*
X22881000Y-76447000D01*
X22995000Y-76216000D01*
X23131000Y-75988000D01*
X23222000Y-75940000D01*
X23340000Y-76035000D01*
G37*
G04 #@! TD*
D11*
G04 #@! TO.C,D1*
X42500000Y-52312500D03*
X42500000Y-49012500D03*
G04 #@! TD*
D12*
G04 #@! TO.C,D2*
X44650000Y-27200000D03*
X41350000Y-27200000D03*
G04 #@! TD*
D13*
G04 #@! TO.C,R24*
X26400000Y-33775000D03*
X26400000Y-35425000D03*
G04 #@! TD*
D14*
G04 #@! TO.C,R14*
X30762500Y-58750000D03*
X29112500Y-58750000D03*
G04 #@! TD*
D15*
G04 #@! TO.C,J2*
X43305000Y-67857500D03*
X27815000Y-67857500D03*
D16*
X42185000Y-75807500D03*
X39645000Y-75807500D03*
X31475000Y-75807500D03*
X28935000Y-75807500D03*
X40000000Y-62007500D03*
X38740000Y-64547500D03*
X37460000Y-62007500D03*
X36200000Y-64547500D03*
X34920000Y-62007500D03*
X33660000Y-64547500D03*
X32380000Y-62007500D03*
D17*
X31120000Y-64547500D03*
D18*
X41275000Y-70907500D03*
X29845000Y-70907500D03*
G04 #@! TD*
D19*
G04 #@! TO.C,J20*
X48260000Y-38100000D03*
X49911000Y-38100000D03*
D20*
X49085500Y-38100000D03*
G04 #@! TD*
D21*
G04 #@! TO.C,C2*
X44775000Y-40250000D03*
X43225000Y-40250000D03*
G04 #@! TD*
D19*
G04 #@! TO.C,J10*
X22860000Y-48260000D03*
D20*
X22034500Y-48260000D03*
D19*
X21209000Y-48260000D03*
G04 #@! TD*
D22*
G04 #@! TO.C,L2*
X44800000Y-57062500D03*
X44800000Y-54262500D03*
G04 #@! TD*
D20*
G04 #@! TO.C,J23*
X49085500Y-45720000D03*
D19*
X49911000Y-45720000D03*
X48260000Y-45720000D03*
G04 #@! TD*
D23*
G04 #@! TO.C,R8*
X25175000Y-56000000D03*
X26825000Y-56000000D03*
G04 #@! TD*
G04 #@! TO.C,R17*
X32112500Y-58750000D03*
X33762500Y-58750000D03*
G04 #@! TD*
D21*
G04 #@! TO.C,C22*
X26775000Y-57500000D03*
X25225000Y-57500000D03*
G04 #@! TD*
D24*
G04 #@! TO.C,U5*
X42750000Y-30800000D03*
D25*
X40812500Y-32050000D03*
X40812500Y-31550000D03*
X40812500Y-31050000D03*
X40812500Y-30550000D03*
X40812500Y-30050000D03*
X40812500Y-29550000D03*
D26*
X41500000Y-28862500D03*
X42000000Y-28862500D03*
X42500000Y-28862500D03*
X43000000Y-28862500D03*
X43500000Y-28862500D03*
X44000000Y-28862500D03*
D25*
X44687500Y-29550000D03*
X44687500Y-30050000D03*
X44687500Y-30550000D03*
X44687500Y-31050000D03*
X44687500Y-31550000D03*
X44687500Y-32050000D03*
D26*
X44000000Y-32737500D03*
X43500000Y-32737500D03*
X43000000Y-32737500D03*
X42500000Y-32737500D03*
X42000000Y-32737500D03*
X41500000Y-32737500D03*
G04 #@! TD*
D21*
G04 #@! TO.C,C7*
X44775000Y-38750000D03*
X43225000Y-38750000D03*
G04 #@! TD*
G04 #@! TO.C,C3*
X37175000Y-59000000D03*
X35625000Y-59000000D03*
G04 #@! TD*
D13*
G04 #@! TO.C,R2*
X30000000Y-33775000D03*
X30000000Y-35425000D03*
G04 #@! TD*
D27*
G04 #@! TO.C,C10*
X22425000Y-26800000D03*
X23975000Y-26800000D03*
G04 #@! TD*
D28*
G04 #@! TO.C,R11*
X45000000Y-62325000D03*
X45000000Y-60675000D03*
G04 #@! TD*
D13*
G04 #@! TO.C,R10*
X31000000Y-46375000D03*
X31000000Y-48025000D03*
G04 #@! TD*
G04 #@! TO.C,R7*
X38500000Y-54425000D03*
X38500000Y-56075000D03*
G04 #@! TD*
D19*
G04 #@! TO.C,J4*
X22860000Y-33020000D03*
X21209000Y-33020000D03*
D20*
X22034500Y-33020000D03*
G04 #@! TD*
D29*
G04 #@! TO.C,C13*
X43000000Y-44000000D03*
X43000000Y-45550000D03*
G04 #@! TD*
D20*
G04 #@! TO.C,J7*
X22034500Y-40640000D03*
D19*
X22860000Y-40640000D03*
X21209000Y-40640000D03*
G04 #@! TD*
D20*
G04 #@! TO.C,J25*
X49085500Y-50800000D03*
D19*
X48260000Y-50800000D03*
X49911000Y-50800000D03*
G04 #@! TD*
D14*
G04 #@! TO.C,R13*
X30825000Y-57250000D03*
X29175000Y-57250000D03*
G04 #@! TD*
G04 #@! TO.C,R20*
X47825000Y-26600000D03*
X46175000Y-26600000D03*
G04 #@! TD*
D19*
G04 #@! TO.C,J27*
X48260000Y-58420000D03*
X49911000Y-58420000D03*
D20*
X49085500Y-58420000D03*
G04 #@! TD*
G04 #@! TO.C,J8*
X22034500Y-43180000D03*
D19*
X22860000Y-43180000D03*
X21209000Y-43180000D03*
G04 #@! TD*
D30*
G04 #@! TO.C,F1*
X46000000Y-59000000D03*
X43200000Y-59000000D03*
G04 #@! TD*
D20*
G04 #@! TO.C,J17*
X49085500Y-30480000D03*
D19*
X48260000Y-30480000D03*
X49911000Y-30480000D03*
G04 #@! TD*
G04 #@! TO.C,J26*
X48260000Y-53340000D03*
D20*
X49085500Y-53340000D03*
D19*
X49911000Y-53340000D03*
G04 #@! TD*
D31*
G04 #@! TO.C,Q2*
X26937500Y-32350000D03*
X26937500Y-30450000D03*
X25062500Y-31400000D03*
G04 #@! TD*
D23*
G04 #@! TO.C,R18*
X32112500Y-57250000D03*
X33762500Y-57250000D03*
G04 #@! TD*
D32*
G04 #@! TO.C,C8*
X32000000Y-43975000D03*
X32000000Y-42425000D03*
G04 #@! TD*
D27*
G04 #@! TO.C,C24*
X35625000Y-56000000D03*
X37175000Y-56000000D03*
G04 #@! TD*
D14*
G04 #@! TO.C,R3*
X44825000Y-41750000D03*
X43175000Y-41750000D03*
G04 #@! TD*
D28*
G04 #@! TO.C,R12*
X26000000Y-62325000D03*
X26000000Y-60675000D03*
G04 #@! TD*
D33*
G04 #@! TO.C,U4*
X31000000Y-52250000D03*
D34*
X28562500Y-54000000D03*
X28562500Y-53500000D03*
X28562500Y-53000000D03*
X28562500Y-52500000D03*
X28562500Y-52000000D03*
X28562500Y-51500000D03*
X28562500Y-51000000D03*
X28562500Y-50500000D03*
D35*
X29250000Y-49812500D03*
X29750000Y-49812500D03*
X30250000Y-49812500D03*
X30750000Y-49812500D03*
X31250000Y-49812500D03*
X31750000Y-49812500D03*
X32250000Y-49812500D03*
X32750000Y-49812500D03*
D34*
X33437500Y-50500000D03*
X33437500Y-51000000D03*
X33437500Y-51500000D03*
X33437500Y-52000000D03*
X33437500Y-52500000D03*
X33437500Y-53000000D03*
X33437500Y-53500000D03*
X33437500Y-54000000D03*
D35*
X32750000Y-54687500D03*
X32250000Y-54687500D03*
X31750000Y-54687500D03*
X31250000Y-54687500D03*
X30750000Y-54687500D03*
X30250000Y-54687500D03*
X29750000Y-54687500D03*
X29250000Y-54687500D03*
G04 #@! TD*
D13*
G04 #@! TO.C,R5*
X26000000Y-48575000D03*
X26000000Y-50225000D03*
G04 #@! TD*
D21*
G04 #@! TO.C,C16*
X41775000Y-41000000D03*
X40225000Y-41000000D03*
G04 #@! TD*
D19*
G04 #@! TO.C,J14*
X22860000Y-58420000D03*
X21209000Y-58420000D03*
D20*
X22034500Y-58420000D03*
G04 #@! TD*
D36*
G04 #@! TO.C,SW1*
X29700000Y-27000000D03*
X25500000Y-27000000D03*
G04 #@! TD*
D13*
G04 #@! TO.C,R21*
X46000000Y-30775000D03*
X46000000Y-32425000D03*
G04 #@! TD*
D19*
G04 #@! TO.C,J19*
X49911000Y-35560000D03*
X48260000Y-35560000D03*
D20*
X49085500Y-35560000D03*
G04 #@! TD*
D23*
G04 #@! TO.C,R4*
X33575000Y-45000000D03*
X35225000Y-45000000D03*
G04 #@! TD*
D20*
G04 #@! TO.C,J12*
X22034500Y-53340000D03*
D19*
X21209000Y-53340000D03*
X22860000Y-53340000D03*
G04 #@! TD*
D20*
G04 #@! TO.C,J22*
X49085500Y-43180000D03*
D19*
X49911000Y-43180000D03*
X48260000Y-43180000D03*
G04 #@! TD*
D14*
G04 #@! TO.C,R19*
X47825000Y-28200000D03*
X46175000Y-28200000D03*
G04 #@! TD*
D23*
G04 #@! TO.C,R25*
X35575000Y-57500000D03*
X37225000Y-57500000D03*
G04 #@! TD*
D14*
G04 #@! TO.C,L3*
X37225000Y-53000000D03*
X35575000Y-53000000D03*
G04 #@! TD*
D19*
G04 #@! TO.C,J3*
X22860000Y-30480000D03*
D20*
X22034500Y-30480000D03*
D19*
X21209000Y-30480000D03*
G04 #@! TD*
D27*
G04 #@! TO.C,C26*
X35625000Y-51400000D03*
X37175000Y-51400000D03*
G04 #@! TD*
D19*
G04 #@! TO.C,J16*
X21209000Y-60960000D03*
X22860000Y-60960000D03*
D20*
X22034500Y-60960000D03*
G04 #@! TD*
D27*
G04 #@! TO.C,C12*
X39000000Y-47500000D03*
X40550000Y-47500000D03*
G04 #@! TD*
D19*
G04 #@! TO.C,J24*
X48260000Y-48260000D03*
D20*
X49085500Y-48260000D03*
D19*
X49911000Y-48260000D03*
G04 #@! TD*
D21*
G04 #@! TO.C,C5*
X44775000Y-37200000D03*
X43225000Y-37200000D03*
G04 #@! TD*
D13*
G04 #@! TO.C,R6*
X39000000Y-50925000D03*
X39000000Y-52575000D03*
G04 #@! TD*
D20*
G04 #@! TO.C,J13*
X22034500Y-55880000D03*
D19*
X22860000Y-55880000D03*
X21209000Y-55880000D03*
G04 #@! TD*
D13*
G04 #@! TO.C,R23*
X28000000Y-33775000D03*
X28000000Y-35425000D03*
G04 #@! TD*
D32*
G04 #@! TO.C,C15*
X44600000Y-45175000D03*
X44600000Y-43625000D03*
G04 #@! TD*
D37*
G04 #@! TO.C,Q1*
X29062500Y-30450000D03*
X29062500Y-32350000D03*
X30937500Y-31400000D03*
G04 #@! TD*
D21*
G04 #@! TO.C,C25*
X26775000Y-53000000D03*
X25225000Y-53000000D03*
G04 #@! TD*
D19*
G04 #@! TO.C,J5*
X21209000Y-35560000D03*
X22860000Y-35560000D03*
D20*
X22034500Y-35560000D03*
G04 #@! TD*
D13*
G04 #@! TO.C,R15*
X26000000Y-63675000D03*
X26000000Y-65325000D03*
G04 #@! TD*
D14*
G04 #@! TO.C,R1*
X24025000Y-28400000D03*
X22375000Y-28400000D03*
G04 #@! TD*
D23*
G04 #@! TO.C,R22*
X33575000Y-46800000D03*
X35225000Y-46800000D03*
G04 #@! TD*
D32*
G04 #@! TO.C,C9*
X36400000Y-45575000D03*
X36400000Y-44025000D03*
G04 #@! TD*
D38*
G04 #@! TO.C,J1*
X36600000Y-29660000D03*
X35950000Y-29660000D03*
X35300000Y-29660000D03*
X34650000Y-29660000D03*
X34000000Y-29660000D03*
D39*
X36450000Y-27000000D03*
D40*
X33750000Y-27000000D03*
D41*
X32812500Y-29575000D03*
D42*
X38675000Y-27000000D03*
D41*
X37787500Y-29575000D03*
D42*
X31925000Y-27000000D03*
G04 #@! TD*
D14*
G04 #@! TO.C,R9*
X37225000Y-54500000D03*
X35575000Y-54500000D03*
G04 #@! TD*
D20*
G04 #@! TO.C,J28*
X49085500Y-60960000D03*
D19*
X48260000Y-60960000D03*
X49911000Y-60960000D03*
G04 #@! TD*
D43*
G04 #@! TO.C,U3*
X41700000Y-54525000D03*
X40750000Y-54525000D03*
X39800000Y-54525000D03*
X39800000Y-56800000D03*
X40750000Y-56800000D03*
X41700000Y-56800000D03*
G04 #@! TD*
D20*
G04 #@! TO.C,J21*
X49085500Y-40640000D03*
D19*
X48260000Y-40640000D03*
X49911000Y-40640000D03*
G04 #@! TD*
D27*
G04 #@! TO.C,C19*
X36225000Y-32750000D03*
X37775000Y-32750000D03*
G04 #@! TD*
D20*
G04 #@! TO.C,J15*
X49085500Y-55880000D03*
D19*
X48260000Y-55880000D03*
X49911000Y-55880000D03*
G04 #@! TD*
D13*
G04 #@! TO.C,R16*
X45000000Y-63575000D03*
X45000000Y-65225000D03*
G04 #@! TD*
D23*
G04 #@! TO.C,L1*
X40175000Y-39400000D03*
X41825000Y-39400000D03*
G04 #@! TD*
D29*
G04 #@! TO.C,C14*
X31600000Y-33825000D03*
X31600000Y-35375000D03*
G04 #@! TD*
D21*
G04 #@! TO.C,C18*
X41025000Y-58750000D03*
X39475000Y-58750000D03*
G04 #@! TD*
D20*
G04 #@! TO.C,J6*
X22034500Y-38100000D03*
D19*
X21209000Y-38100000D03*
X22860000Y-38100000D03*
G04 #@! TD*
D44*
G04 #@! TO.C,U2*
X29105000Y-39400000D03*
X27835000Y-39400000D03*
X26565000Y-39400000D03*
X25295000Y-39400000D03*
X25295000Y-46600000D03*
X26565000Y-46600000D03*
X27835000Y-46600000D03*
X29105000Y-46600000D03*
G04 #@! TD*
D32*
G04 #@! TO.C,C20*
X40500000Y-52525000D03*
X40500000Y-50975000D03*
G04 #@! TD*
D45*
G04 #@! TO.C,U1*
X38700000Y-40200000D03*
X38700000Y-39800000D03*
X38700000Y-39400000D03*
X38700000Y-39000000D03*
X38700000Y-38600000D03*
X38700000Y-38200000D03*
X38700000Y-37800000D03*
X38700000Y-37400000D03*
X38700000Y-37000000D03*
X38700000Y-36600000D03*
X38700000Y-36200000D03*
X38700000Y-35800000D03*
D46*
X38000000Y-35100000D03*
X37600000Y-35100000D03*
X37200000Y-35100000D03*
X36800000Y-35100000D03*
X36400000Y-35100000D03*
X36000000Y-35100000D03*
X35600000Y-35100000D03*
X35200000Y-35100000D03*
X34800000Y-35100000D03*
X34400000Y-35100000D03*
X34000000Y-35100000D03*
X33600000Y-35100000D03*
D45*
X32900000Y-35800000D03*
X32900000Y-36200000D03*
X32900000Y-36600000D03*
X32900000Y-37000000D03*
X32900000Y-37400000D03*
X32900000Y-37800000D03*
X32900000Y-38200000D03*
X32900000Y-38600000D03*
X32900000Y-39000000D03*
X32900000Y-39400000D03*
X32900000Y-39800000D03*
X32900000Y-40200000D03*
D46*
X33600000Y-40900000D03*
X34000000Y-40900000D03*
X34400000Y-40900000D03*
X34800000Y-40900000D03*
X35200000Y-40900000D03*
X35600000Y-40900000D03*
X36000000Y-40900000D03*
X36400000Y-40900000D03*
X36800000Y-40900000D03*
X37200000Y-40900000D03*
X37600000Y-40900000D03*
X38000000Y-40900000D03*
D47*
X35800000Y-38000000D03*
G04 #@! TD*
D19*
G04 #@! TO.C,J18*
X48260000Y-33020000D03*
X49911000Y-33020000D03*
D20*
X49085500Y-33020000D03*
G04 #@! TD*
D21*
G04 #@! TO.C,C11*
X44775000Y-35800000D03*
X43225000Y-35800000D03*
G04 #@! TD*
D19*
G04 #@! TO.C,J9*
X22860000Y-45720000D03*
D20*
X22034500Y-45720000D03*
D19*
X21209000Y-45720000D03*
G04 #@! TD*
D48*
G04 #@! TO.C,C21*
X45500000Y-51987500D03*
X45500000Y-49337500D03*
G04 #@! TD*
D21*
G04 #@! TO.C,C23*
X26775000Y-51500000D03*
X25225000Y-51500000D03*
G04 #@! TD*
D20*
G04 #@! TO.C,J11*
X22034500Y-50800000D03*
D19*
X22860000Y-50800000D03*
X21209000Y-50800000D03*
G04 #@! TD*
D49*
G04 #@! TO.C,Y1*
X38850000Y-45550000D03*
X41050000Y-45550000D03*
X41050000Y-43850000D03*
X38850000Y-43850000D03*
G04 #@! TD*
M02*
