G04 #@! TF.GenerationSoftware,KiCad,Pcbnew,(6.0.9)*
G04 #@! TF.CreationDate,2022-11-21T00:29:48+13:00*
G04 #@! TF.ProjectId,LAN-Module-PoE,4c414e2d-4d6f-4647-956c-652d506f452e,rev?*
G04 #@! TF.SameCoordinates,Original*
G04 #@! TF.FileFunction,Legend,Top*
G04 #@! TF.FilePolarity,Positive*
%FSLAX46Y46*%
G04 Gerber Fmt 4.6, Leading zero omitted, Abs format (unit mm)*
G04 Created by KiCad (PCBNEW (6.0.9)) date 2022-11-21 00:29:48*
%MOMM*%
%LPD*%
G01*
G04 APERTURE LIST*
G04 Aperture macros list*
%AMRoundRect*
0 Rectangle with rounded corners*
0 $1 Rounding radius*
0 $2 $3 $4 $5 $6 $7 $8 $9 X,Y pos of 4 corners*
0 Add a 4 corners polygon primitive as box body*
4,1,4,$2,$3,$4,$5,$6,$7,$8,$9,$2,$3,0*
0 Add four circle primitives for the rounded corners*
1,1,$1+$1,$2,$3*
1,1,$1+$1,$4,$5*
1,1,$1+$1,$6,$7*
1,1,$1+$1,$8,$9*
0 Add four rect primitives between the rounded corners*
20,1,$1+$1,$2,$3,$4,$5,0*
20,1,$1+$1,$4,$5,$6,$7,0*
20,1,$1+$1,$6,$7,$8,$9,0*
20,1,$1+$1,$8,$9,$2,$3,0*%
G04 Aperture macros list end*
%ADD10C,0.150000*%
%ADD11C,0.100000*%
%ADD12C,0.120000*%
%ADD13C,0.264583*%
%ADD14RoundRect,0.250000X0.475000X-0.250000X0.475000X0.250000X-0.475000X0.250000X-0.475000X-0.250000X0*%
%ADD15R,1.600000X5.700000*%
%ADD16R,3.100000X7.700000*%
%ADD17RoundRect,0.225000X0.225000X0.250000X-0.225000X0.250000X-0.225000X-0.250000X0.225000X-0.250000X0*%
%ADD18RoundRect,0.062500X-0.062500X0.362500X-0.062500X-0.362500X0.062500X-0.362500X0.062500X0.362500X0*%
%ADD19RoundRect,0.062500X-0.362500X0.062500X-0.362500X-0.062500X0.362500X-0.062500X0.362500X0.062500X0*%
%ADD20R,2.600000X2.600000*%
%ADD21RoundRect,0.200000X0.200000X0.275000X-0.200000X0.275000X-0.200000X-0.275000X0.200000X-0.275000X0*%
%ADD22C,1.600000*%
%ADD23R,0.900000X1.200000*%
%ADD24RoundRect,0.150000X-0.512500X-0.150000X0.512500X-0.150000X0.512500X0.150000X-0.512500X0.150000X0*%
%ADD25RoundRect,0.200000X-0.200000X-0.275000X0.200000X-0.275000X0.200000X0.275000X-0.200000X0.275000X0*%
%ADD26RoundRect,0.250000X0.450000X-0.262500X0.450000X0.262500X-0.450000X0.262500X-0.450000X-0.262500X0*%
%ADD27RoundRect,0.225000X0.250000X-0.225000X0.250000X0.225000X-0.250000X0.225000X-0.250000X-0.225000X0*%
%ADD28RoundRect,0.200000X-0.275000X0.200000X-0.275000X-0.200000X0.275000X-0.200000X0.275000X0.200000X0*%
%ADD29RoundRect,0.225000X-0.225000X-0.250000X0.225000X-0.250000X0.225000X0.250000X-0.225000X0.250000X0*%
%ADD30RoundRect,0.200000X0.275000X-0.200000X0.275000X0.200000X-0.275000X0.200000X-0.275000X-0.200000X0*%
%ADD31R,1.200000X3.700000*%
%ADD32RoundRect,0.225000X-0.250000X0.225000X-0.250000X-0.225000X0.250000X-0.225000X0.250000X0.225000X0*%
%ADD33R,2.500000X1.800000*%
%ADD34RoundRect,0.062500X0.062500X-0.375000X0.062500X0.375000X-0.062500X0.375000X-0.062500X-0.375000X0*%
%ADD35RoundRect,0.062500X0.375000X-0.062500X0.375000X0.062500X-0.375000X0.062500X-0.375000X-0.062500X0*%
%ADD36R,3.100000X3.100000*%
%ADD37RoundRect,0.200000X0.200000X0.800000X-0.200000X0.800000X-0.200000X-0.800000X0.200000X-0.800000X0*%
%ADD38C,1.000000*%
%ADD39RoundRect,0.218750X-0.256250X0.218750X-0.256250X-0.218750X0.256250X-0.218750X0.256250X0.218750X0*%
%ADD40RoundRect,0.250000X1.412500X0.550000X-1.412500X0.550000X-1.412500X-0.550000X1.412500X-0.550000X0*%
%ADD41C,3.250000*%
%ADD42R,1.500000X1.500000*%
%ADD43C,1.500000*%
%ADD44C,2.200000*%
%ADD45RoundRect,0.050000X0.350000X0.050000X-0.350000X0.050000X-0.350000X-0.050000X0.350000X-0.050000X0*%
%ADD46RoundRect,0.050000X0.050000X0.350000X-0.050000X0.350000X-0.050000X-0.350000X0.050000X-0.350000X0*%
%ADD47R,3.700000X3.700000*%
%ADD48R,1.400000X1.200000*%
G04 APERTURE END LIST*
D10*
G36*
X48700000Y-73100000D02*
G01*
X47900000Y-73700000D01*
X47900000Y-72500000D01*
X48700000Y-73100000D01*
G37*
X48700000Y-73100000D02*
X47900000Y-73700000D01*
X47900000Y-72500000D01*
X48700000Y-73100000D01*
G36*
X52800000Y-35300000D02*
G01*
X52200000Y-35300000D01*
X52500000Y-34900000D01*
X52800000Y-35300000D01*
G37*
X52800000Y-35300000D02*
X52200000Y-35300000D01*
X52500000Y-34900000D01*
X52800000Y-35300000D01*
X52070000Y-72390000D02*
X54610000Y-72390000D01*
X54610000Y-72390000D02*
X54610000Y-77470000D01*
X54610000Y-77470000D02*
X52070000Y-77470000D01*
X52070000Y-77470000D02*
X52070000Y-72390000D01*
G36*
X52070000Y-72390000D02*
G01*
X54610000Y-72390000D01*
X54610000Y-77470000D01*
X52070000Y-77470000D01*
X52070000Y-72390000D01*
G37*
D11*
X40300000Y-66000000D02*
X42100000Y-66000000D01*
X42100000Y-66000000D02*
X42100000Y-69200000D01*
X42100000Y-69200000D02*
X40300000Y-69200000D01*
X40300000Y-69200000D02*
X40300000Y-66000000D01*
D10*
G36*
X50300000Y-58200000D02*
G01*
X49500000Y-57600000D01*
X50300000Y-57000000D01*
X50300000Y-58200000D01*
G37*
X50300000Y-58200000D02*
X49500000Y-57600000D01*
X50300000Y-57000000D01*
X50300000Y-58200000D01*
D11*
X33950000Y-70100000D02*
X35350000Y-70100000D01*
X35350000Y-70100000D02*
X35350000Y-73100000D01*
X35350000Y-73100000D02*
X33950000Y-73100000D01*
X33950000Y-73100000D02*
X33950000Y-70100000D01*
D10*
X30968928Y-39720000D02*
X31026071Y-39748571D01*
X31111785Y-39748571D01*
X31197500Y-39720000D01*
X31254642Y-39662857D01*
X31283214Y-39605714D01*
X31311785Y-39491428D01*
X31311785Y-39405714D01*
X31283214Y-39291428D01*
X31254642Y-39234285D01*
X31197500Y-39177142D01*
X31111785Y-39148571D01*
X31054642Y-39148571D01*
X30968928Y-39177142D01*
X30940357Y-39205714D01*
X30940357Y-39405714D01*
X31054642Y-39405714D01*
X30683214Y-39148571D02*
X30683214Y-39748571D01*
X30340357Y-39148571D01*
X30340357Y-39748571D01*
X30054642Y-39148571D02*
X30054642Y-39748571D01*
X29911785Y-39748571D01*
X29826071Y-39720000D01*
X29768928Y-39662857D01*
X29740357Y-39605714D01*
X29711785Y-39491428D01*
X29711785Y-39405714D01*
X29740357Y-39291428D01*
X29768928Y-39234285D01*
X29826071Y-39177142D01*
X29911785Y-39148571D01*
X30054642Y-39148571D01*
X31511785Y-49308571D02*
X31511785Y-49908571D01*
X31111785Y-49908571D02*
X30997500Y-49908571D01*
X30940357Y-49880000D01*
X30883214Y-49822857D01*
X30854642Y-49708571D01*
X30854642Y-49508571D01*
X30883214Y-49394285D01*
X30940357Y-49337142D01*
X30997500Y-49308571D01*
X31111785Y-49308571D01*
X31168928Y-49337142D01*
X31226071Y-49394285D01*
X31254642Y-49508571D01*
X31254642Y-49708571D01*
X31226071Y-49822857D01*
X31168928Y-49880000D01*
X31111785Y-49908571D01*
X30283214Y-49308571D02*
X30626071Y-49308571D01*
X30454642Y-49308571D02*
X30454642Y-49908571D01*
X30511785Y-49822857D01*
X30568928Y-49765714D01*
X30626071Y-49737142D01*
X29768928Y-49908571D02*
X29883214Y-49908571D01*
X29940357Y-49880000D01*
X29968928Y-49851428D01*
X30026071Y-49765714D01*
X30054642Y-49651428D01*
X30054642Y-49422857D01*
X30026071Y-49365714D01*
X29997500Y-49337142D01*
X29940357Y-49308571D01*
X29826071Y-49308571D01*
X29768928Y-49337142D01*
X29740357Y-49365714D01*
X29711785Y-49422857D01*
X29711785Y-49565714D01*
X29740357Y-49622857D01*
X29768928Y-49651428D01*
X29826071Y-49680000D01*
X29940357Y-49680000D01*
X29997500Y-49651428D01*
X30026071Y-49622857D01*
X30054642Y-49565714D01*
X54145357Y-39698571D02*
X53802500Y-39698571D01*
X53973928Y-39098571D02*
X53973928Y-39698571D01*
X53659642Y-39698571D02*
X53259642Y-39098571D01*
X53259642Y-39698571D02*
X53659642Y-39098571D01*
X30626071Y-42042857D02*
X30426071Y-42042857D01*
X30340357Y-41728571D02*
X30626071Y-41728571D01*
X30626071Y-42328571D01*
X30340357Y-42328571D01*
X30083214Y-41728571D02*
X30083214Y-42328571D01*
X29740357Y-41728571D01*
X29740357Y-42328571D01*
X38483333Y-47308333D02*
X38716666Y-47641666D01*
X38883333Y-47308333D02*
X38883333Y-48008333D01*
X38616666Y-48008333D01*
X38550000Y-47975000D01*
X38516666Y-47941666D01*
X38483333Y-47875000D01*
X38483333Y-47775000D01*
X38516666Y-47708333D01*
X38550000Y-47675000D01*
X38616666Y-47641666D01*
X38883333Y-47641666D01*
X38216666Y-47341666D02*
X38116666Y-47308333D01*
X37950000Y-47308333D01*
X37883333Y-47341666D01*
X37850000Y-47375000D01*
X37816666Y-47441666D01*
X37816666Y-47508333D01*
X37850000Y-47575000D01*
X37883333Y-47608333D01*
X37950000Y-47641666D01*
X38083333Y-47675000D01*
X38150000Y-47708333D01*
X38183333Y-47741666D01*
X38216666Y-47808333D01*
X38216666Y-47875000D01*
X38183333Y-47941666D01*
X38150000Y-47975000D01*
X38083333Y-48008333D01*
X37916666Y-48008333D01*
X37816666Y-47975000D01*
X37616666Y-48008333D02*
X37216666Y-48008333D01*
X37416666Y-47308333D02*
X37416666Y-48008333D01*
X31511785Y-62008571D02*
X31511785Y-62608571D01*
X31111785Y-62608571D02*
X30997500Y-62608571D01*
X30940357Y-62580000D01*
X30883214Y-62522857D01*
X30854642Y-62408571D01*
X30854642Y-62208571D01*
X30883214Y-62094285D01*
X30940357Y-62037142D01*
X30997500Y-62008571D01*
X31111785Y-62008571D01*
X31168928Y-62037142D01*
X31226071Y-62094285D01*
X31254642Y-62208571D01*
X31254642Y-62408571D01*
X31226071Y-62522857D01*
X31168928Y-62580000D01*
X31111785Y-62608571D01*
X30283214Y-62008571D02*
X30626071Y-62008571D01*
X30454642Y-62008571D02*
X30454642Y-62608571D01*
X30511785Y-62522857D01*
X30568928Y-62465714D01*
X30626071Y-62437142D01*
X29768928Y-62408571D02*
X29768928Y-62008571D01*
X29911785Y-62637142D02*
X30054642Y-62208571D01*
X29683214Y-62208571D01*
X51106428Y-77315357D02*
X51706428Y-77115357D01*
X51106428Y-76915357D01*
X51706428Y-76715357D02*
X51106428Y-76715357D01*
X51106428Y-76486785D01*
X51135000Y-76429642D01*
X51163571Y-76401071D01*
X51220714Y-76372500D01*
X51306428Y-76372500D01*
X51363571Y-76401071D01*
X51392142Y-76429642D01*
X51420714Y-76486785D01*
X51420714Y-76715357D01*
X51106428Y-76001071D02*
X51106428Y-75886785D01*
X51135000Y-75829642D01*
X51192142Y-75772500D01*
X51306428Y-75743928D01*
X51506428Y-75743928D01*
X51620714Y-75772500D01*
X51677857Y-75829642D01*
X51706428Y-75886785D01*
X51706428Y-76001071D01*
X51677857Y-76058214D01*
X51620714Y-76115357D01*
X51506428Y-76143928D01*
X51306428Y-76143928D01*
X51192142Y-76115357D01*
X51135000Y-76058214D01*
X51106428Y-76001071D01*
X51392142Y-75486785D02*
X51392142Y-75286785D01*
X51706428Y-75201071D02*
X51706428Y-75486785D01*
X51106428Y-75486785D01*
X51106428Y-75201071D01*
X51871123Y-92445833D02*
X52471123Y-92445833D01*
X52537789Y-92479166D01*
X52571123Y-92545833D01*
X52571123Y-92579166D01*
X51637789Y-92445833D02*
X51671123Y-92479166D01*
X51704456Y-92445833D01*
X51671123Y-92412500D01*
X51637789Y-92445833D01*
X51704456Y-92445833D01*
X52337789Y-91812500D02*
X51971123Y-91812500D01*
X51904456Y-91845833D01*
X51871123Y-91912500D01*
X51871123Y-92045833D01*
X51904456Y-92112500D01*
X52304456Y-91812500D02*
X52337789Y-91879166D01*
X52337789Y-92045833D01*
X52304456Y-92112500D01*
X52237789Y-92145833D01*
X52171123Y-92145833D01*
X52104456Y-92112500D01*
X52071123Y-92045833D01*
X52071123Y-91879166D01*
X52037789Y-91812500D01*
X52337789Y-91479166D02*
X51871123Y-91479166D01*
X52004456Y-91479166D02*
X51937789Y-91445833D01*
X51904456Y-91412500D01*
X51871123Y-91345833D01*
X51871123Y-91279166D01*
X52304456Y-90779166D02*
X52337789Y-90845833D01*
X52337789Y-90979166D01*
X52304456Y-91045833D01*
X52237789Y-91079166D01*
X51971123Y-91079166D01*
X51904456Y-91045833D01*
X51871123Y-90979166D01*
X51871123Y-90845833D01*
X51904456Y-90779166D01*
X51971123Y-90745833D01*
X52037789Y-90745833D01*
X52104456Y-91079166D01*
X52337789Y-90145833D02*
X51637789Y-90145833D01*
X52304456Y-90145833D02*
X52337789Y-90212500D01*
X52337789Y-90345833D01*
X52304456Y-90412500D01*
X52271123Y-90445833D01*
X52204456Y-90479166D01*
X52004456Y-90479166D01*
X51937789Y-90445833D01*
X51904456Y-90412500D01*
X51871123Y-90345833D01*
X51871123Y-90212500D01*
X51904456Y-90145833D01*
X52271123Y-89812500D02*
X52304456Y-89779166D01*
X52337789Y-89812500D01*
X52304456Y-89845833D01*
X52271123Y-89812500D01*
X52337789Y-89812500D01*
X51871123Y-89179166D02*
X52437789Y-89179166D01*
X52504456Y-89212500D01*
X52537789Y-89245833D01*
X52571123Y-89312500D01*
X52571123Y-89412500D01*
X52537789Y-89479166D01*
X52304456Y-89179166D02*
X52337789Y-89245833D01*
X52337789Y-89379166D01*
X52304456Y-89445833D01*
X52271123Y-89479166D01*
X52204456Y-89512500D01*
X52004456Y-89512500D01*
X51937789Y-89479166D01*
X51904456Y-89445833D01*
X51871123Y-89379166D01*
X51871123Y-89245833D01*
X51904456Y-89179166D01*
X52304456Y-88579166D02*
X52337789Y-88645833D01*
X52337789Y-88779166D01*
X52304456Y-88845833D01*
X52237789Y-88879166D01*
X51971123Y-88879166D01*
X51904456Y-88845833D01*
X51871123Y-88779166D01*
X51871123Y-88645833D01*
X51904456Y-88579166D01*
X51971123Y-88545833D01*
X52037789Y-88545833D01*
X52104456Y-88879166D01*
X52304456Y-87979166D02*
X52337789Y-88045833D01*
X52337789Y-88179166D01*
X52304456Y-88245833D01*
X52237789Y-88279166D01*
X51971123Y-88279166D01*
X51904456Y-88245833D01*
X51871123Y-88179166D01*
X51871123Y-88045833D01*
X51904456Y-87979166D01*
X51971123Y-87945833D01*
X52037789Y-87945833D01*
X52104456Y-88279166D01*
X52337789Y-87645833D02*
X51637789Y-87645833D01*
X52071123Y-87579166D02*
X52337789Y-87379166D01*
X51871123Y-87379166D02*
X52137789Y-87645833D01*
X52271123Y-87079166D02*
X52304456Y-87045833D01*
X52337789Y-87079166D01*
X52304456Y-87112500D01*
X52271123Y-87079166D01*
X52337789Y-87079166D01*
X51871123Y-86745833D02*
X52337789Y-86745833D01*
X51937789Y-86745833D02*
X51904456Y-86712500D01*
X51871123Y-86645833D01*
X51871123Y-86545833D01*
X51904456Y-86479166D01*
X51971123Y-86445833D01*
X52337789Y-86445833D01*
X51871123Y-86179166D02*
X51871123Y-85812500D01*
X52337789Y-86179166D01*
X52337789Y-85812500D01*
X54116785Y-65098571D02*
X53745357Y-65098571D01*
X53945357Y-64870000D01*
X53859642Y-64870000D01*
X53802500Y-64841428D01*
X53773928Y-64812857D01*
X53745357Y-64755714D01*
X53745357Y-64612857D01*
X53773928Y-64555714D01*
X53802500Y-64527142D01*
X53859642Y-64498571D01*
X54031071Y-64498571D01*
X54088214Y-64527142D01*
X54116785Y-64555714D01*
X53488214Y-64555714D02*
X53459642Y-64527142D01*
X53488214Y-64498571D01*
X53516785Y-64527142D01*
X53488214Y-64555714D01*
X53488214Y-64498571D01*
X53259642Y-65098571D02*
X52888214Y-65098571D01*
X53088214Y-64870000D01*
X53002500Y-64870000D01*
X52945357Y-64841428D01*
X52916785Y-64812857D01*
X52888214Y-64755714D01*
X52888214Y-64612857D01*
X52916785Y-64555714D01*
X52945357Y-64527142D01*
X53002500Y-64498571D01*
X53173928Y-64498571D01*
X53231071Y-64527142D01*
X53259642Y-64555714D01*
X52716785Y-65098571D02*
X52516785Y-64498571D01*
X52316785Y-65098571D01*
X53716785Y-41638571D02*
X53916785Y-41924285D01*
X54059642Y-41638571D02*
X54059642Y-42238571D01*
X53831071Y-42238571D01*
X53773928Y-42210000D01*
X53745357Y-42181428D01*
X53716785Y-42124285D01*
X53716785Y-42038571D01*
X53745357Y-41981428D01*
X53773928Y-41952857D01*
X53831071Y-41924285D01*
X54059642Y-41924285D01*
X53516785Y-42238571D02*
X53116785Y-41638571D01*
X53116785Y-42238571D02*
X53516785Y-41638571D01*
X30940357Y-59468571D02*
X30940357Y-60068571D01*
X30540357Y-60068571D02*
X30426071Y-60068571D01*
X30368928Y-60040000D01*
X30311785Y-59982857D01*
X30283214Y-59868571D01*
X30283214Y-59668571D01*
X30311785Y-59554285D01*
X30368928Y-59497142D01*
X30426071Y-59468571D01*
X30540357Y-59468571D01*
X30597500Y-59497142D01*
X30654642Y-59554285D01*
X30683214Y-59668571D01*
X30683214Y-59868571D01*
X30654642Y-59982857D01*
X30597500Y-60040000D01*
X30540357Y-60068571D01*
X30054642Y-60011428D02*
X30026071Y-60040000D01*
X29968928Y-60068571D01*
X29826071Y-60068571D01*
X29768928Y-60040000D01*
X29740357Y-60011428D01*
X29711785Y-59954285D01*
X29711785Y-59897142D01*
X29740357Y-59811428D01*
X30083214Y-59468571D01*
X29711785Y-59468571D01*
X30968928Y-70200000D02*
X31026071Y-70228571D01*
X31111785Y-70228571D01*
X31197500Y-70200000D01*
X31254642Y-70142857D01*
X31283214Y-70085714D01*
X31311785Y-69971428D01*
X31311785Y-69885714D01*
X31283214Y-69771428D01*
X31254642Y-69714285D01*
X31197500Y-69657142D01*
X31111785Y-69628571D01*
X31054642Y-69628571D01*
X30968928Y-69657142D01*
X30940357Y-69685714D01*
X30940357Y-69885714D01*
X31054642Y-69885714D01*
X30683214Y-69628571D02*
X30683214Y-70228571D01*
X30340357Y-69628571D01*
X30340357Y-70228571D01*
X30054642Y-69628571D02*
X30054642Y-70228571D01*
X29911785Y-70228571D01*
X29826071Y-70200000D01*
X29768928Y-70142857D01*
X29740357Y-70085714D01*
X29711785Y-69971428D01*
X29711785Y-69885714D01*
X29740357Y-69771428D01*
X29768928Y-69714285D01*
X29826071Y-69657142D01*
X29911785Y-69628571D01*
X30054642Y-69628571D01*
X53959642Y-71712142D02*
X53502500Y-71712142D01*
X53731071Y-71483571D02*
X53731071Y-71940714D01*
X53302500Y-72083571D02*
X53102500Y-71483571D01*
X52902500Y-72083571D01*
X53959642Y-78057142D02*
X53502500Y-78057142D01*
X53302500Y-78428571D02*
X53102500Y-77828571D01*
X52902500Y-78428571D01*
X34905289Y-93026666D02*
X34671956Y-92693333D01*
X34505289Y-93026666D02*
X34505289Y-92326666D01*
X34771956Y-92326666D01*
X34838623Y-92360000D01*
X34871956Y-92393333D01*
X34905289Y-92460000D01*
X34905289Y-92560000D01*
X34871956Y-92626666D01*
X34838623Y-92660000D01*
X34771956Y-92693333D01*
X34505289Y-92693333D01*
X35471956Y-92993333D02*
X35405289Y-93026666D01*
X35271956Y-93026666D01*
X35205289Y-92993333D01*
X35171956Y-92926666D01*
X35171956Y-92660000D01*
X35205289Y-92593333D01*
X35271956Y-92560000D01*
X35405289Y-92560000D01*
X35471956Y-92593333D01*
X35505289Y-92660000D01*
X35505289Y-92726666D01*
X35171956Y-92793333D01*
X35738623Y-92560000D02*
X35905289Y-93026666D01*
X36071956Y-92560000D01*
X36305289Y-92393333D02*
X36338623Y-92360000D01*
X36405289Y-92326666D01*
X36571956Y-92326666D01*
X36638623Y-92360000D01*
X36671956Y-92393333D01*
X36705289Y-92460000D01*
X36705289Y-92526666D01*
X36671956Y-92626666D01*
X36271956Y-93026666D01*
X36705289Y-93026666D01*
X38165884Y-82111904D02*
X38165884Y-82683333D01*
X38127789Y-82797619D01*
X38051599Y-82873809D01*
X37937313Y-82911904D01*
X37861123Y-82911904D01*
X38927789Y-82911904D02*
X38546837Y-82911904D01*
X38546837Y-82111904D01*
X39651599Y-82835714D02*
X39613503Y-82873809D01*
X39499218Y-82911904D01*
X39423027Y-82911904D01*
X39308742Y-82873809D01*
X39232551Y-82797619D01*
X39194456Y-82721428D01*
X39156361Y-82569047D01*
X39156361Y-82454761D01*
X39194456Y-82302380D01*
X39232551Y-82226190D01*
X39308742Y-82150000D01*
X39423027Y-82111904D01*
X39499218Y-82111904D01*
X39613503Y-82150000D01*
X39651599Y-82188095D01*
X40223027Y-82111904D02*
X40223027Y-82683333D01*
X40184932Y-82797619D01*
X40108742Y-82873809D01*
X39994456Y-82911904D01*
X39918265Y-82911904D01*
X40984932Y-82911904D02*
X40603980Y-82911904D01*
X40603980Y-82111904D01*
X41708742Y-82835714D02*
X41670646Y-82873809D01*
X41556361Y-82911904D01*
X41480170Y-82911904D01*
X41365884Y-82873809D01*
X41289694Y-82797619D01*
X41251599Y-82721428D01*
X41213503Y-82569047D01*
X41213503Y-82454761D01*
X41251599Y-82302380D01*
X41289694Y-82226190D01*
X41365884Y-82150000D01*
X41480170Y-82111904D01*
X41556361Y-82111904D01*
X41670646Y-82150000D01*
X41708742Y-82188095D01*
X42280170Y-82111904D02*
X42280170Y-82683333D01*
X42242075Y-82797619D01*
X42165884Y-82873809D01*
X42051599Y-82911904D01*
X41975408Y-82911904D01*
X43042075Y-82911904D02*
X42661123Y-82911904D01*
X42661123Y-82111904D01*
X43765884Y-82835714D02*
X43727789Y-82873809D01*
X43613503Y-82911904D01*
X43537313Y-82911904D01*
X43423027Y-82873809D01*
X43346837Y-82797619D01*
X43308742Y-82721428D01*
X43270646Y-82569047D01*
X43270646Y-82454761D01*
X43308742Y-82302380D01*
X43346837Y-82226190D01*
X43423027Y-82150000D01*
X43537313Y-82111904D01*
X43613503Y-82111904D01*
X43727789Y-82150000D01*
X43765884Y-82188095D01*
X44337313Y-82111904D02*
X44337313Y-82683333D01*
X44299218Y-82797619D01*
X44223027Y-82873809D01*
X44108742Y-82911904D01*
X44032551Y-82911904D01*
X45099218Y-82911904D02*
X44718265Y-82911904D01*
X44718265Y-82111904D01*
X45823027Y-82835714D02*
X45784932Y-82873809D01*
X45670646Y-82911904D01*
X45594456Y-82911904D01*
X45480170Y-82873809D01*
X45403980Y-82797619D01*
X45365884Y-82721428D01*
X45327789Y-82569047D01*
X45327789Y-82454761D01*
X45365884Y-82302380D01*
X45403980Y-82226190D01*
X45480170Y-82150000D01*
X45594456Y-82111904D01*
X45670646Y-82111904D01*
X45784932Y-82150000D01*
X45823027Y-82188095D01*
X54145357Y-54938571D02*
X53945357Y-54338571D01*
X53745357Y-54938571D01*
X53545357Y-54338571D02*
X53545357Y-54938571D01*
X53202500Y-54338571D01*
X53202500Y-54938571D01*
X53745357Y-69578571D02*
X54088214Y-69578571D01*
X53916785Y-69578571D02*
X53916785Y-70178571D01*
X53973928Y-70092857D01*
X54031071Y-70035714D01*
X54088214Y-70007142D01*
X53516785Y-70121428D02*
X53488214Y-70150000D01*
X53431071Y-70178571D01*
X53288214Y-70178571D01*
X53231071Y-70150000D01*
X53202500Y-70121428D01*
X53173928Y-70064285D01*
X53173928Y-70007142D01*
X53202500Y-69921428D01*
X53545357Y-69578571D01*
X53173928Y-69578571D01*
X53002500Y-70178571D02*
X52802500Y-69578571D01*
X52602500Y-70178571D01*
X30940357Y-56928571D02*
X30940357Y-57528571D01*
X30540357Y-57528571D02*
X30426071Y-57528571D01*
X30368928Y-57500000D01*
X30311785Y-57442857D01*
X30283214Y-57328571D01*
X30283214Y-57128571D01*
X30311785Y-57014285D01*
X30368928Y-56957142D01*
X30426071Y-56928571D01*
X30540357Y-56928571D01*
X30597500Y-56957142D01*
X30654642Y-57014285D01*
X30683214Y-57128571D01*
X30683214Y-57328571D01*
X30654642Y-57442857D01*
X30597500Y-57500000D01*
X30540357Y-57528571D01*
X29768928Y-57328571D02*
X29768928Y-56928571D01*
X29911785Y-57557142D02*
X30054642Y-57128571D01*
X29683214Y-57128571D01*
X30940357Y-64548571D02*
X30940357Y-65148571D01*
X30540357Y-65148571D02*
X30426071Y-65148571D01*
X30368928Y-65120000D01*
X30311785Y-65062857D01*
X30283214Y-64948571D01*
X30283214Y-64748571D01*
X30311785Y-64634285D01*
X30368928Y-64577142D01*
X30426071Y-64548571D01*
X30540357Y-64548571D01*
X30597500Y-64577142D01*
X30654642Y-64634285D01*
X30683214Y-64748571D01*
X30683214Y-64948571D01*
X30654642Y-65062857D01*
X30597500Y-65120000D01*
X30540357Y-65148571D01*
X29740357Y-65148571D02*
X30026071Y-65148571D01*
X30054642Y-64862857D01*
X30026071Y-64891428D01*
X29968928Y-64920000D01*
X29826071Y-64920000D01*
X29768928Y-64891428D01*
X29740357Y-64862857D01*
X29711785Y-64805714D01*
X29711785Y-64662857D01*
X29740357Y-64605714D01*
X29768928Y-64577142D01*
X29826071Y-64548571D01*
X29968928Y-64548571D01*
X30026071Y-64577142D01*
X30054642Y-64605714D01*
X50701123Y-92445833D02*
X50701123Y-92212500D01*
X51067789Y-92112500D02*
X51067789Y-92445833D01*
X50367789Y-92445833D01*
X50367789Y-92112500D01*
X51034456Y-91845833D02*
X51067789Y-91745833D01*
X51067789Y-91579166D01*
X51034456Y-91512500D01*
X51001123Y-91479166D01*
X50934456Y-91445833D01*
X50867789Y-91445833D01*
X50801123Y-91479166D01*
X50767789Y-91512500D01*
X50734456Y-91579166D01*
X50701123Y-91712500D01*
X50667789Y-91779166D01*
X50634456Y-91812500D01*
X50567789Y-91845833D01*
X50501123Y-91845833D01*
X50434456Y-91812500D01*
X50401123Y-91779166D01*
X50367789Y-91712500D01*
X50367789Y-91545833D01*
X50401123Y-91445833D01*
X51067789Y-91145833D02*
X50367789Y-91145833D01*
X50367789Y-90879166D01*
X50401123Y-90812500D01*
X50434456Y-90779166D01*
X50501123Y-90745833D01*
X50601123Y-90745833D01*
X50667789Y-90779166D01*
X50701123Y-90812500D01*
X50734456Y-90879166D01*
X50734456Y-91145833D01*
X50367789Y-90512500D02*
X50367789Y-90079166D01*
X50634456Y-90312500D01*
X50634456Y-90212500D01*
X50667789Y-90145833D01*
X50701123Y-90112500D01*
X50767789Y-90079166D01*
X50934456Y-90079166D01*
X51001123Y-90112500D01*
X51034456Y-90145833D01*
X51067789Y-90212500D01*
X51067789Y-90412500D01*
X51034456Y-90479166D01*
X51001123Y-90512500D01*
X50434456Y-89812500D02*
X50401123Y-89779166D01*
X50367789Y-89712500D01*
X50367789Y-89545833D01*
X50401123Y-89479166D01*
X50434456Y-89445833D01*
X50501123Y-89412500D01*
X50567789Y-89412500D01*
X50667789Y-89445833D01*
X51067789Y-89845833D01*
X51067789Y-89412500D01*
X50701123Y-88579166D02*
X50701123Y-88345833D01*
X51067789Y-88245833D02*
X51067789Y-88579166D01*
X50367789Y-88579166D01*
X50367789Y-88245833D01*
X50367789Y-88045833D02*
X50367789Y-87645833D01*
X51067789Y-87845833D02*
X50367789Y-87845833D01*
X51067789Y-87412500D02*
X50367789Y-87412500D01*
X50701123Y-87412500D02*
X50701123Y-87012500D01*
X51067789Y-87012500D02*
X50367789Y-87012500D01*
X51067789Y-86145833D02*
X50367789Y-86145833D01*
X50367789Y-85879166D01*
X50401123Y-85812500D01*
X50434456Y-85779166D01*
X50501123Y-85745833D01*
X50601123Y-85745833D01*
X50667789Y-85779166D01*
X50701123Y-85812500D01*
X50734456Y-85879166D01*
X50734456Y-86145833D01*
X50367789Y-85312500D02*
X50367789Y-85179166D01*
X50401123Y-85112500D01*
X50467789Y-85045833D01*
X50601123Y-85012500D01*
X50834456Y-85012500D01*
X50967789Y-85045833D01*
X51034456Y-85112500D01*
X51067789Y-85179166D01*
X51067789Y-85312500D01*
X51034456Y-85379166D01*
X50967789Y-85445833D01*
X50834456Y-85479166D01*
X50601123Y-85479166D01*
X50467789Y-85445833D01*
X50401123Y-85379166D01*
X50367789Y-85312500D01*
X50701123Y-84712500D02*
X50701123Y-84479166D01*
X51067789Y-84379166D02*
X51067789Y-84712500D01*
X50367789Y-84712500D01*
X50367789Y-84379166D01*
X54059642Y-49258571D02*
X54059642Y-49858571D01*
X53659642Y-49858571D02*
X53545357Y-49858571D01*
X53488214Y-49830000D01*
X53431071Y-49772857D01*
X53402500Y-49658571D01*
X53402500Y-49458571D01*
X53431071Y-49344285D01*
X53488214Y-49287142D01*
X53545357Y-49258571D01*
X53659642Y-49258571D01*
X53716785Y-49287142D01*
X53773928Y-49344285D01*
X53802500Y-49458571D01*
X53802500Y-49658571D01*
X53773928Y-49772857D01*
X53716785Y-49830000D01*
X53659642Y-49858571D01*
X53202500Y-49858571D02*
X52831071Y-49858571D01*
X53031071Y-49630000D01*
X52945357Y-49630000D01*
X52888214Y-49601428D01*
X52859642Y-49572857D01*
X52831071Y-49515714D01*
X52831071Y-49372857D01*
X52859642Y-49315714D01*
X52888214Y-49287142D01*
X52945357Y-49258571D01*
X53116785Y-49258571D01*
X53173928Y-49287142D01*
X53202500Y-49315714D01*
X52288214Y-49858571D02*
X52573928Y-49858571D01*
X52602500Y-49572857D01*
X52573928Y-49601428D01*
X52516785Y-49630000D01*
X52373928Y-49630000D01*
X52316785Y-49601428D01*
X52288214Y-49572857D01*
X52259642Y-49515714D01*
X52259642Y-49372857D01*
X52288214Y-49315714D01*
X52316785Y-49287142D01*
X52373928Y-49258571D01*
X52516785Y-49258571D01*
X52573928Y-49287142D01*
X52602500Y-49315714D01*
X54059642Y-51798571D02*
X54059642Y-52398571D01*
X53659642Y-52398571D02*
X53545357Y-52398571D01*
X53488214Y-52370000D01*
X53431071Y-52312857D01*
X53402500Y-52198571D01*
X53402500Y-51998571D01*
X53431071Y-51884285D01*
X53488214Y-51827142D01*
X53545357Y-51798571D01*
X53659642Y-51798571D01*
X53716785Y-51827142D01*
X53773928Y-51884285D01*
X53802500Y-51998571D01*
X53802500Y-52198571D01*
X53773928Y-52312857D01*
X53716785Y-52370000D01*
X53659642Y-52398571D01*
X53202500Y-52398571D02*
X52831071Y-52398571D01*
X53031071Y-52170000D01*
X52945357Y-52170000D01*
X52888214Y-52141428D01*
X52859642Y-52112857D01*
X52831071Y-52055714D01*
X52831071Y-51912857D01*
X52859642Y-51855714D01*
X52888214Y-51827142D01*
X52945357Y-51798571D01*
X53116785Y-51798571D01*
X53173928Y-51827142D01*
X53202500Y-51855714D01*
X52316785Y-52198571D02*
X52316785Y-51798571D01*
X52459642Y-52427142D02*
X52602500Y-51998571D01*
X52231071Y-51998571D01*
X31568928Y-44642857D02*
X31483214Y-44614285D01*
X31454642Y-44585714D01*
X31426071Y-44528571D01*
X31426071Y-44442857D01*
X31454642Y-44385714D01*
X31483214Y-44357142D01*
X31540357Y-44328571D01*
X31768928Y-44328571D01*
X31768928Y-44928571D01*
X31568928Y-44928571D01*
X31511785Y-44900000D01*
X31483214Y-44871428D01*
X31454642Y-44814285D01*
X31454642Y-44757142D01*
X31483214Y-44700000D01*
X31511785Y-44671428D01*
X31568928Y-44642857D01*
X31768928Y-44642857D01*
X31054642Y-44928571D02*
X30940357Y-44928571D01*
X30883214Y-44900000D01*
X30826071Y-44842857D01*
X30797500Y-44728571D01*
X30797500Y-44528571D01*
X30826071Y-44414285D01*
X30883214Y-44357142D01*
X30940357Y-44328571D01*
X31054642Y-44328571D01*
X31111785Y-44357142D01*
X31168928Y-44414285D01*
X31197500Y-44528571D01*
X31197500Y-44728571D01*
X31168928Y-44842857D01*
X31111785Y-44900000D01*
X31054642Y-44928571D01*
X30426071Y-44928571D02*
X30311785Y-44928571D01*
X30254642Y-44900000D01*
X30197500Y-44842857D01*
X30168928Y-44728571D01*
X30168928Y-44528571D01*
X30197500Y-44414285D01*
X30254642Y-44357142D01*
X30311785Y-44328571D01*
X30426071Y-44328571D01*
X30483214Y-44357142D01*
X30540357Y-44414285D01*
X30568928Y-44528571D01*
X30568928Y-44728571D01*
X30540357Y-44842857D01*
X30483214Y-44900000D01*
X30426071Y-44928571D01*
X29997500Y-44928571D02*
X29654642Y-44928571D01*
X29826071Y-44328571D02*
X29826071Y-44928571D01*
X30968928Y-67660000D02*
X31026071Y-67688571D01*
X31111785Y-67688571D01*
X31197500Y-67660000D01*
X31254642Y-67602857D01*
X31283214Y-67545714D01*
X31311785Y-67431428D01*
X31311785Y-67345714D01*
X31283214Y-67231428D01*
X31254642Y-67174285D01*
X31197500Y-67117142D01*
X31111785Y-67088571D01*
X31054642Y-67088571D01*
X30968928Y-67117142D01*
X30940357Y-67145714D01*
X30940357Y-67345714D01*
X31054642Y-67345714D01*
X30683214Y-67088571D02*
X30683214Y-67688571D01*
X30340357Y-67088571D01*
X30340357Y-67688571D01*
X30054642Y-67088571D02*
X30054642Y-67688571D01*
X29911785Y-67688571D01*
X29826071Y-67660000D01*
X29768928Y-67602857D01*
X29740357Y-67545714D01*
X29711785Y-67431428D01*
X29711785Y-67345714D01*
X29740357Y-67231428D01*
X29768928Y-67174285D01*
X29826071Y-67117142D01*
X29911785Y-67088571D01*
X30054642Y-67088571D01*
X53745357Y-67610000D02*
X53802500Y-67638571D01*
X53888214Y-67638571D01*
X53973928Y-67610000D01*
X54031071Y-67552857D01*
X54059642Y-67495714D01*
X54088214Y-67381428D01*
X54088214Y-67295714D01*
X54059642Y-67181428D01*
X54031071Y-67124285D01*
X53973928Y-67067142D01*
X53888214Y-67038571D01*
X53831071Y-67038571D01*
X53745357Y-67067142D01*
X53716785Y-67095714D01*
X53716785Y-67295714D01*
X53831071Y-67295714D01*
X53459642Y-67038571D02*
X53459642Y-67638571D01*
X53116785Y-67038571D01*
X53116785Y-67638571D01*
X52831071Y-67038571D02*
X52831071Y-67638571D01*
X52688214Y-67638571D01*
X52602500Y-67610000D01*
X52545357Y-67552857D01*
X52516785Y-67495714D01*
X52488214Y-67381428D01*
X52488214Y-67295714D01*
X52516785Y-67181428D01*
X52545357Y-67124285D01*
X52602500Y-67067142D01*
X52688214Y-67038571D01*
X52831071Y-67038571D01*
X54145357Y-62558571D02*
X53945357Y-61958571D01*
X53745357Y-62558571D01*
X53545357Y-61958571D02*
X53545357Y-62558571D01*
X53316785Y-62558571D01*
X53259642Y-62530000D01*
X53231071Y-62501428D01*
X53202500Y-62444285D01*
X53202500Y-62358571D01*
X53231071Y-62301428D01*
X53259642Y-62272857D01*
X53316785Y-62244285D01*
X53545357Y-62244285D01*
X31511785Y-51848571D02*
X31511785Y-52448571D01*
X31111785Y-52448571D02*
X30997500Y-52448571D01*
X30940357Y-52420000D01*
X30883214Y-52362857D01*
X30854642Y-52248571D01*
X30854642Y-52048571D01*
X30883214Y-51934285D01*
X30940357Y-51877142D01*
X30997500Y-51848571D01*
X31111785Y-51848571D01*
X31168928Y-51877142D01*
X31226071Y-51934285D01*
X31254642Y-52048571D01*
X31254642Y-52248571D01*
X31226071Y-52362857D01*
X31168928Y-52420000D01*
X31111785Y-52448571D01*
X30283214Y-51848571D02*
X30626071Y-51848571D01*
X30454642Y-51848571D02*
X30454642Y-52448571D01*
X30511785Y-52362857D01*
X30568928Y-52305714D01*
X30626071Y-52277142D01*
X29740357Y-52448571D02*
X30026071Y-52448571D01*
X30054642Y-52162857D01*
X30026071Y-52191428D01*
X29968928Y-52220000D01*
X29826071Y-52220000D01*
X29768928Y-52191428D01*
X29740357Y-52162857D01*
X29711785Y-52105714D01*
X29711785Y-51962857D01*
X29740357Y-51905714D01*
X29768928Y-51877142D01*
X29826071Y-51848571D01*
X29968928Y-51848571D01*
X30026071Y-51877142D01*
X30054642Y-51905714D01*
X31511785Y-54388571D02*
X31511785Y-54988571D01*
X31111785Y-54988571D02*
X30997500Y-54988571D01*
X30940357Y-54960000D01*
X30883214Y-54902857D01*
X30854642Y-54788571D01*
X30854642Y-54588571D01*
X30883214Y-54474285D01*
X30940357Y-54417142D01*
X30997500Y-54388571D01*
X31111785Y-54388571D01*
X31168928Y-54417142D01*
X31226071Y-54474285D01*
X31254642Y-54588571D01*
X31254642Y-54788571D01*
X31226071Y-54902857D01*
X31168928Y-54960000D01*
X31111785Y-54988571D01*
X30283214Y-54388571D02*
X30626071Y-54388571D01*
X30454642Y-54388571D02*
X30454642Y-54988571D01*
X30511785Y-54902857D01*
X30568928Y-54845714D01*
X30626071Y-54817142D01*
X30054642Y-54931428D02*
X30026071Y-54960000D01*
X29968928Y-54988571D01*
X29826071Y-54988571D01*
X29768928Y-54960000D01*
X29740357Y-54931428D01*
X29711785Y-54874285D01*
X29711785Y-54817142D01*
X29740357Y-54731428D01*
X30083214Y-54388571D01*
X29711785Y-54388571D01*
X31511785Y-46768571D02*
X31511785Y-47368571D01*
X31111785Y-47368571D02*
X30997500Y-47368571D01*
X30940357Y-47340000D01*
X30883214Y-47282857D01*
X30854642Y-47168571D01*
X30854642Y-46968571D01*
X30883214Y-46854285D01*
X30940357Y-46797142D01*
X30997500Y-46768571D01*
X31111785Y-46768571D01*
X31168928Y-46797142D01*
X31226071Y-46854285D01*
X31254642Y-46968571D01*
X31254642Y-47168571D01*
X31226071Y-47282857D01*
X31168928Y-47340000D01*
X31111785Y-47368571D01*
X30283214Y-46768571D02*
X30626071Y-46768571D01*
X30454642Y-46768571D02*
X30454642Y-47368571D01*
X30511785Y-47282857D01*
X30568928Y-47225714D01*
X30626071Y-47197142D01*
X30083214Y-47368571D02*
X29711785Y-47368571D01*
X29911785Y-47140000D01*
X29826071Y-47140000D01*
X29768928Y-47111428D01*
X29740357Y-47082857D01*
X29711785Y-47025714D01*
X29711785Y-46882857D01*
X29740357Y-46825714D01*
X29768928Y-46797142D01*
X29826071Y-46768571D01*
X29997500Y-46768571D01*
X30054642Y-46797142D01*
X30083214Y-46825714D01*
X54059642Y-56878571D02*
X54059642Y-57478571D01*
X53659642Y-57478571D02*
X53545357Y-57478571D01*
X53488214Y-57450000D01*
X53431071Y-57392857D01*
X53402500Y-57278571D01*
X53402500Y-57078571D01*
X53431071Y-56964285D01*
X53488214Y-56907142D01*
X53545357Y-56878571D01*
X53659642Y-56878571D01*
X53716785Y-56907142D01*
X53773928Y-56964285D01*
X53802500Y-57078571D01*
X53802500Y-57278571D01*
X53773928Y-57392857D01*
X53716785Y-57450000D01*
X53659642Y-57478571D01*
X53202500Y-57478571D02*
X52831071Y-57478571D01*
X53031071Y-57250000D01*
X52945357Y-57250000D01*
X52888214Y-57221428D01*
X52859642Y-57192857D01*
X52831071Y-57135714D01*
X52831071Y-56992857D01*
X52859642Y-56935714D01*
X52888214Y-56907142D01*
X52945357Y-56878571D01*
X53116785Y-56878571D01*
X53173928Y-56907142D01*
X53202500Y-56935714D01*
X52488214Y-57221428D02*
X52545357Y-57250000D01*
X52573928Y-57278571D01*
X52602500Y-57335714D01*
X52602500Y-57364285D01*
X52573928Y-57421428D01*
X52545357Y-57450000D01*
X52488214Y-57478571D01*
X52373928Y-57478571D01*
X52316785Y-57450000D01*
X52288214Y-57421428D01*
X52259642Y-57364285D01*
X52259642Y-57335714D01*
X52288214Y-57278571D01*
X52316785Y-57250000D01*
X52373928Y-57221428D01*
X52488214Y-57221428D01*
X52545357Y-57192857D01*
X52573928Y-57164285D01*
X52602500Y-57107142D01*
X52602500Y-56992857D01*
X52573928Y-56935714D01*
X52545357Y-56907142D01*
X52488214Y-56878571D01*
X52373928Y-56878571D01*
X52316785Y-56907142D01*
X52288214Y-56935714D01*
X52259642Y-56992857D01*
X52259642Y-57107142D01*
X52288214Y-57164285D01*
X52316785Y-57192857D01*
X52373928Y-57221428D01*
X54059642Y-44178571D02*
X54059642Y-44778571D01*
X53659642Y-44778571D02*
X53545357Y-44778571D01*
X53488214Y-44750000D01*
X53431071Y-44692857D01*
X53402500Y-44578571D01*
X53402500Y-44378571D01*
X53431071Y-44264285D01*
X53488214Y-44207142D01*
X53545357Y-44178571D01*
X53659642Y-44178571D01*
X53716785Y-44207142D01*
X53773928Y-44264285D01*
X53802500Y-44378571D01*
X53802500Y-44578571D01*
X53773928Y-44692857D01*
X53716785Y-44750000D01*
X53659642Y-44778571D01*
X53202500Y-44778571D02*
X52831071Y-44778571D01*
X53031071Y-44550000D01*
X52945357Y-44550000D01*
X52888214Y-44521428D01*
X52859642Y-44492857D01*
X52831071Y-44435714D01*
X52831071Y-44292857D01*
X52859642Y-44235714D01*
X52888214Y-44207142D01*
X52945357Y-44178571D01*
X53116785Y-44178571D01*
X53173928Y-44207142D01*
X53202500Y-44235714D01*
X52631071Y-44778571D02*
X52259642Y-44778571D01*
X52459642Y-44550000D01*
X52373928Y-44550000D01*
X52316785Y-44521428D01*
X52288214Y-44492857D01*
X52259642Y-44435714D01*
X52259642Y-44292857D01*
X52288214Y-44235714D01*
X52316785Y-44207142D01*
X52373928Y-44178571D01*
X52545357Y-44178571D01*
X52602500Y-44207142D01*
X52631071Y-44235714D01*
X54059642Y-46718571D02*
X54059642Y-47318571D01*
X53659642Y-47318571D02*
X53545357Y-47318571D01*
X53488214Y-47290000D01*
X53431071Y-47232857D01*
X53402500Y-47118571D01*
X53402500Y-46918571D01*
X53431071Y-46804285D01*
X53488214Y-46747142D01*
X53545357Y-46718571D01*
X53659642Y-46718571D01*
X53716785Y-46747142D01*
X53773928Y-46804285D01*
X53802500Y-46918571D01*
X53802500Y-47118571D01*
X53773928Y-47232857D01*
X53716785Y-47290000D01*
X53659642Y-47318571D01*
X53202500Y-47318571D02*
X52831071Y-47318571D01*
X53031071Y-47090000D01*
X52945357Y-47090000D01*
X52888214Y-47061428D01*
X52859642Y-47032857D01*
X52831071Y-46975714D01*
X52831071Y-46832857D01*
X52859642Y-46775714D01*
X52888214Y-46747142D01*
X52945357Y-46718571D01*
X53116785Y-46718571D01*
X53173928Y-46747142D01*
X53202500Y-46775714D01*
X52602500Y-47261428D02*
X52573928Y-47290000D01*
X52516785Y-47318571D01*
X52373928Y-47318571D01*
X52316785Y-47290000D01*
X52288214Y-47261428D01*
X52259642Y-47204285D01*
X52259642Y-47147142D01*
X52288214Y-47061428D01*
X52631071Y-46718571D01*
X52259642Y-46718571D01*
X54059642Y-59418571D02*
X54059642Y-60018571D01*
X53659642Y-60018571D02*
X53545357Y-60018571D01*
X53488214Y-59990000D01*
X53431071Y-59932857D01*
X53402500Y-59818571D01*
X53402500Y-59618571D01*
X53431071Y-59504285D01*
X53488214Y-59447142D01*
X53545357Y-59418571D01*
X53659642Y-59418571D01*
X53716785Y-59447142D01*
X53773928Y-59504285D01*
X53802500Y-59618571D01*
X53802500Y-59818571D01*
X53773928Y-59932857D01*
X53716785Y-59990000D01*
X53659642Y-60018571D01*
X53202500Y-60018571D02*
X52831071Y-60018571D01*
X53031071Y-59790000D01*
X52945357Y-59790000D01*
X52888214Y-59761428D01*
X52859642Y-59732857D01*
X52831071Y-59675714D01*
X52831071Y-59532857D01*
X52859642Y-59475714D01*
X52888214Y-59447142D01*
X52945357Y-59418571D01*
X53116785Y-59418571D01*
X53173928Y-59447142D01*
X53202500Y-59475714D01*
X52631071Y-60018571D02*
X52231071Y-60018571D01*
X52488214Y-59418571D01*
D12*
G04 #@! TO.C,C4*
X42835000Y-73361252D02*
X42835000Y-72838748D01*
X41365000Y-73361252D02*
X41365000Y-72838748D01*
G04 #@! TO.C,L5*
X44050000Y-70200000D02*
X50350000Y-70200000D01*
X44050000Y-64000000D02*
X50350000Y-64000000D01*
G04 #@! TO.C,L4*
X42200000Y-63100000D02*
X52200000Y-63100000D01*
X42200000Y-71300000D02*
X52200000Y-71300000D01*
G04 #@! TO.C,C29*
X50235000Y-60961252D02*
X50235000Y-60438748D01*
X48765000Y-60961252D02*
X48765000Y-60438748D01*
G04 #@! TO.C,C11*
X50240580Y-39990000D02*
X49959420Y-39990000D01*
X50240580Y-41010000D02*
X49959420Y-41010000D01*
G04 #@! TO.C,C18*
X52035000Y-60961252D02*
X52035000Y-60438748D01*
X50565000Y-60961252D02*
X50565000Y-60438748D01*
G04 #@! TO.C,U2*
X36190000Y-69221233D02*
X36190000Y-68496233D01*
X36190000Y-71991233D02*
X36190000Y-72716233D01*
X36190000Y-68496233D02*
X36915000Y-68496233D01*
X40410000Y-71991233D02*
X40410000Y-72716233D01*
X40410000Y-69221233D02*
X40410000Y-68496233D01*
X36190000Y-72716233D02*
X36915000Y-72716233D01*
X40410000Y-72716233D02*
X39685000Y-72716233D01*
G04 #@! TO.C,R14*
X37744758Y-58427500D02*
X37270242Y-58427500D01*
X37744758Y-59472500D02*
X37270242Y-59472500D01*
G04 #@! TO.C,C2*
X50215580Y-42710000D02*
X49934420Y-42710000D01*
X50215580Y-41690000D02*
X49934420Y-41690000D01*
G04 #@! TO.C,D2*
X47750000Y-56600000D02*
X47750000Y-58600000D01*
X47750000Y-58600000D02*
X51650000Y-58600000D01*
X47750000Y-56600000D02*
X51650000Y-56600000D01*
G04 #@! TO.C,U3*
X46700000Y-62060000D02*
X45900000Y-62060000D01*
X46700000Y-62060000D02*
X47500000Y-62060000D01*
X46700000Y-58940000D02*
X47500000Y-58940000D01*
X46700000Y-58940000D02*
X44900000Y-58940000D01*
G04 #@! TO.C,R8*
X33332742Y-54927500D02*
X33807258Y-54927500D01*
X33332742Y-55972500D02*
X33807258Y-55972500D01*
G04 #@! TO.C,R17*
X40270242Y-58427500D02*
X40744758Y-58427500D01*
X40270242Y-59472500D02*
X40744758Y-59472500D01*
G04 #@! TO.C,C22*
X33807258Y-56427500D02*
X33332742Y-56427500D01*
X33807258Y-57472500D02*
X33332742Y-57472500D01*
G04 #@! TO.C,R20*
X40465000Y-67827064D02*
X40465000Y-67372936D01*
X41935000Y-67827064D02*
X41935000Y-67372936D01*
G04 #@! TO.C,R32*
X37437258Y-40522500D02*
X36962742Y-40522500D01*
X37437258Y-39477500D02*
X36962742Y-39477500D01*
G04 #@! TO.C,C3*
X31610000Y-76340580D02*
X31610000Y-76059420D01*
X30590000Y-76340580D02*
X30590000Y-76059420D01*
G04 #@! TO.C,R2*
X36797500Y-37337742D02*
X36797500Y-37812258D01*
X35752500Y-37337742D02*
X35752500Y-37812258D01*
G04 #@! TO.C,C10*
X38159420Y-33490000D02*
X38440580Y-33490000D01*
X38159420Y-34510000D02*
X38440580Y-34510000D01*
G04 #@! TO.C,R11*
X52077500Y-80637258D02*
X52077500Y-80162742D01*
X53122500Y-80637258D02*
X53122500Y-80162742D01*
G04 #@! TO.C,R10*
X36622500Y-45462742D02*
X36622500Y-45937258D01*
X35577500Y-45462742D02*
X35577500Y-45937258D01*
G04 #@! TO.C,L2*
X48200000Y-52100000D02*
X52200000Y-52100000D01*
X48200000Y-56300000D02*
X52200000Y-56300000D01*
G04 #@! TO.C,C13*
X49110000Y-48259420D02*
X49110000Y-48540580D01*
X48090000Y-48259420D02*
X48090000Y-48540580D01*
G04 #@! TO.C,C21*
X51040580Y-50690000D02*
X50759420Y-50690000D01*
X51040580Y-51710000D02*
X50759420Y-51710000D01*
G04 #@! TO.C,R23*
X42937742Y-61677500D02*
X43412258Y-61677500D01*
X42937742Y-62722500D02*
X43412258Y-62722500D01*
G04 #@! TO.C,R13*
X37807258Y-56927500D02*
X37332742Y-56927500D01*
X37807258Y-57972500D02*
X37332742Y-57972500D01*
G04 #@! TO.C,D1*
X51630000Y-71381233D02*
X46230000Y-71381233D01*
X51630000Y-74681233D02*
X51630000Y-71381233D01*
X51630000Y-74681233D02*
X46230000Y-74681233D01*
G04 #@! TO.C,R6*
X33492500Y-71837258D02*
X33492500Y-71362742D01*
X32447500Y-71837258D02*
X32447500Y-71362742D01*
G04 #@! TO.C,R19*
X34412742Y-74353733D02*
X34887258Y-74353733D01*
X34412742Y-73308733D02*
X34887258Y-73308733D01*
G04 #@! TO.C,R29*
X44977500Y-36337258D02*
X44977500Y-35862742D01*
X46022500Y-36337258D02*
X46022500Y-35862742D01*
G04 #@! TO.C,R18*
X40270242Y-56927500D02*
X40744758Y-56927500D01*
X40270242Y-57972500D02*
X40744758Y-57972500D01*
G04 #@! TO.C,C20*
X33940580Y-69610000D02*
X33659420Y-69610000D01*
X33940580Y-68590000D02*
X33659420Y-68590000D01*
G04 #@! TO.C,C8*
X38447500Y-45962258D02*
X38447500Y-45487742D01*
X37402500Y-45962258D02*
X37402500Y-45487742D01*
G04 #@! TO.C,C24*
X43929420Y-56710000D02*
X44210580Y-56710000D01*
X43929420Y-55690000D02*
X44210580Y-55690000D01*
G04 #@! TO.C,R3*
X50337258Y-44722500D02*
X49862742Y-44722500D01*
X50337258Y-43677500D02*
X49862742Y-43677500D01*
G04 #@! TO.C,R12*
X30677500Y-80637258D02*
X30677500Y-80162742D01*
X31722500Y-80637258D02*
X31722500Y-80162742D01*
G04 #@! TO.C,R26*
X47422500Y-52937258D02*
X47422500Y-52462742D01*
X46377500Y-52937258D02*
X46377500Y-52462742D01*
G04 #@! TO.C,U4*
X41180000Y-54585000D02*
X41180000Y-55060000D01*
X35960000Y-54585000D02*
X35960000Y-55060000D01*
X41180000Y-55060000D02*
X40705000Y-55060000D01*
X41180000Y-49840000D02*
X40705000Y-49840000D01*
X35960000Y-50315000D02*
X35960000Y-49840000D01*
X35960000Y-49840000D02*
X36435000Y-49840000D01*
X41180000Y-50315000D02*
X41180000Y-49840000D01*
G04 #@! TO.C,R5*
X34322500Y-45937258D02*
X34322500Y-45462742D01*
X33277500Y-45937258D02*
X33277500Y-45462742D01*
G04 #@! TO.C,C16*
X47215580Y-44810000D02*
X46934420Y-44810000D01*
X47215580Y-43790000D02*
X46934420Y-43790000D01*
G04 #@! TO.C,SW1*
X31830000Y-32830000D02*
X35970000Y-32830000D01*
X35970000Y-35970000D02*
X31830000Y-35970000D01*
X31830000Y-35970000D02*
X31830000Y-35670000D01*
X31830000Y-33130000D02*
X31830000Y-32830000D01*
X35970000Y-35670000D02*
X35970000Y-35970000D01*
X35970000Y-32830000D02*
X35970000Y-33130000D01*
D10*
G04 #@! TO.C,TP1*
X40690569Y-47600000D02*
G75*
G03*
X40690569Y-47600000I-790569J0D01*
G01*
D12*
G04 #@! TO.C,R4*
X48337258Y-34877500D02*
X47862742Y-34877500D01*
X48337258Y-35922500D02*
X47862742Y-35922500D01*
G04 #@! TO.C,R25*
X30577500Y-72762742D02*
X30577500Y-73237258D01*
X31622500Y-72762742D02*
X31622500Y-73237258D01*
G04 #@! TO.C,C6*
X33310000Y-65640580D02*
X33310000Y-65359420D01*
X32290000Y-65640580D02*
X32290000Y-65359420D01*
G04 #@! TO.C,D3*
X53235000Y-35900000D02*
X53235000Y-33615000D01*
X51765000Y-33615000D02*
X51765000Y-35900000D01*
X53235000Y-33615000D02*
X51765000Y-33615000D01*
G04 #@! TO.C,L3*
X44207258Y-52677500D02*
X43732742Y-52677500D01*
X44207258Y-53722500D02*
X43732742Y-53722500D01*
G04 #@! TO.C,C7*
X37140580Y-63540000D02*
X36859420Y-63540000D01*
X37140580Y-64560000D02*
X36859420Y-64560000D01*
G04 #@! TO.C,C26*
X43829420Y-51090000D02*
X44110580Y-51090000D01*
X43829420Y-52110000D02*
X44110580Y-52110000D01*
G04 #@! TO.C,R27*
X46377500Y-55937258D02*
X46377500Y-55462742D01*
X47422500Y-55937258D02*
X47422500Y-55462742D01*
G04 #@! TO.C,R28*
X51322500Y-35337258D02*
X51322500Y-34862742D01*
X50277500Y-35337258D02*
X50277500Y-34862742D01*
G04 #@! TO.C,C12*
X45359420Y-50365000D02*
X45640580Y-50365000D01*
X45359420Y-49345000D02*
X45640580Y-49345000D01*
G04 #@! TO.C,R21*
X33562742Y-67077500D02*
X34037258Y-67077500D01*
X33562742Y-68122500D02*
X34037258Y-68122500D01*
G04 #@! TO.C,C5*
X50759420Y-49190000D02*
X51040580Y-49190000D01*
X50759420Y-50210000D02*
X51040580Y-50210000D01*
G04 #@! TO.C,R24*
X43412258Y-60327500D02*
X42937742Y-60327500D01*
X43412258Y-61372500D02*
X42937742Y-61372500D01*
G04 #@! TO.C,C15*
X50240580Y-46310000D02*
X49959420Y-46310000D01*
X50240580Y-45290000D02*
X49959420Y-45290000D01*
G04 #@! TO.C,C25*
X33710580Y-53710000D02*
X33429420Y-53710000D01*
X33710580Y-52690000D02*
X33429420Y-52690000D01*
G04 #@! TO.C,C1*
X37940580Y-74341233D02*
X37659420Y-74341233D01*
X37940580Y-73321233D02*
X37659420Y-73321233D01*
G04 #@! TO.C,C28*
X37140580Y-63110000D02*
X36859420Y-63110000D01*
X37140580Y-62090000D02*
X36859420Y-62090000D01*
G04 #@! TO.C,R15*
X31722500Y-83162742D02*
X31722500Y-83637258D01*
X30677500Y-83162742D02*
X30677500Y-83637258D01*
G04 #@! TO.C,C27*
X39408063Y-59990000D02*
X33652500Y-59990000D01*
X33652500Y-66810000D02*
X33652500Y-64460000D01*
X33652500Y-59990000D02*
X33652500Y-62340000D01*
X40472500Y-65745563D02*
X39408063Y-66810000D01*
X39408063Y-66810000D02*
X33652500Y-66810000D01*
X40472500Y-65745563D02*
X40472500Y-64460000D01*
X40472500Y-61054437D02*
X39408063Y-59990000D01*
X40472500Y-61054437D02*
X40472500Y-62340000D01*
G04 #@! TO.C,R1*
X41162742Y-33477500D02*
X41637258Y-33477500D01*
X41162742Y-34522500D02*
X41637258Y-34522500D01*
G04 #@! TO.C,R22*
X48337258Y-33377500D02*
X47862742Y-33377500D01*
X48337258Y-34422500D02*
X47862742Y-34422500D01*
G04 #@! TO.C,C9*
X42985000Y-47915580D02*
X42985000Y-47634420D01*
X41965000Y-47915580D02*
X41965000Y-47634420D01*
G04 #@! TO.C,J1*
X49950000Y-74831233D02*
X33750000Y-74831233D01*
X33750000Y-74831233D02*
X33750000Y-81521233D01*
X49950000Y-97031233D02*
X33750000Y-97031233D01*
X33750000Y-84321233D02*
X33750000Y-97031233D01*
X33550000Y-75721233D02*
X33550000Y-74631233D01*
X49950000Y-81521233D02*
X49950000Y-74831233D01*
X33550000Y-74631233D02*
X34665000Y-74631233D01*
X49950000Y-97031233D02*
X49950000Y-84321233D01*
G04 #@! TO.C,R9*
X44207258Y-55222500D02*
X43732742Y-55222500D01*
X44207258Y-54177500D02*
X43732742Y-54177500D01*
G04 #@! TO.C,C19*
X44759420Y-33190000D02*
X45040580Y-33190000D01*
X44759420Y-34210000D02*
X45040580Y-34210000D01*
G04 #@! TO.C,R16*
X52077500Y-83162742D02*
X52077500Y-83637258D01*
X53122500Y-83162742D02*
X53122500Y-83637258D01*
G04 #@! TO.C,L1*
X46837742Y-42052500D02*
X47312258Y-42052500D01*
X46837742Y-43097500D02*
X47312258Y-43097500D01*
G04 #@! TO.C,C14*
X38185000Y-37434420D02*
X38185000Y-37715580D01*
X37165000Y-37434420D02*
X37165000Y-37715580D01*
G04 #@! TO.C,U1*
X40040000Y-38398333D02*
X39365000Y-38398333D01*
X43910000Y-38398333D02*
X44585000Y-38398333D01*
X40040000Y-43618333D02*
X39365000Y-43618333D01*
G04 #@! TO.C,R7*
X35172500Y-71362742D02*
X35172500Y-71837258D01*
X34127500Y-71362742D02*
X34127500Y-71837258D01*
G04 #@! TO.C,C23*
X33710580Y-51190000D02*
X33429420Y-51190000D01*
X33710580Y-52210000D02*
X33429420Y-52210000D01*
G04 #@! TO.C,R31*
X33332742Y-49677500D02*
X33807258Y-49677500D01*
X33332742Y-50722500D02*
X33807258Y-50722500D01*
G04 #@! TO.C,C17*
X45959420Y-58510000D02*
X46240580Y-58510000D01*
X45959420Y-57490000D02*
X46240580Y-57490000D01*
G04 #@! TO.C,R30*
X44522500Y-36337258D02*
X44522500Y-35862742D01*
X43477500Y-36337258D02*
X43477500Y-35862742D01*
G04 #@! TO.C,Y1*
X43725000Y-49125000D02*
X47725000Y-49125000D01*
X43725000Y-45825000D02*
X43725000Y-49125000D01*
G04 #@! TD*
%LPC*%
G04 #@! TO.C,LOGO1*
G36*
X33795123Y-89623000D02*
G01*
X33922123Y-89684000D01*
X34023123Y-89788000D01*
X34097123Y-89905000D01*
X34146123Y-90024000D01*
X34174123Y-90218000D01*
X34174123Y-90431000D01*
X34145123Y-90647000D01*
X34092123Y-90848000D01*
X34015123Y-91020000D01*
X33894123Y-91191000D01*
X33737123Y-91360000D01*
X33567123Y-91509000D01*
X33404123Y-91618000D01*
X33272123Y-91668000D01*
X33118123Y-91647000D01*
X32970123Y-91551000D01*
X32837123Y-91389000D01*
X32730123Y-91169000D01*
X32666123Y-90950000D01*
X32643123Y-90736000D01*
X32661123Y-90521000D01*
X32720123Y-90300000D01*
X32821123Y-90066000D01*
X32940123Y-89853000D01*
X33056123Y-89736000D01*
X33223123Y-89636000D01*
X33407123Y-89584000D01*
X33600123Y-89579000D01*
X33795123Y-89623000D01*
G37*
D13*
X33795123Y-89623000D02*
X33922123Y-89684000D01*
X34023123Y-89788000D01*
X34097123Y-89905000D01*
X34146123Y-90024000D01*
X34174123Y-90218000D01*
X34174123Y-90431000D01*
X34145123Y-90647000D01*
X34092123Y-90848000D01*
X34015123Y-91020000D01*
X33894123Y-91191000D01*
X33737123Y-91360000D01*
X33567123Y-91509000D01*
X33404123Y-91618000D01*
X33272123Y-91668000D01*
X33118123Y-91647000D01*
X32970123Y-91551000D01*
X32837123Y-91389000D01*
X32730123Y-91169000D01*
X32666123Y-90950000D01*
X32643123Y-90736000D01*
X32661123Y-90521000D01*
X32720123Y-90300000D01*
X32821123Y-90066000D01*
X32940123Y-89853000D01*
X33056123Y-89736000D01*
X33223123Y-89636000D01*
X33407123Y-89584000D01*
X33600123Y-89579000D01*
X33795123Y-89623000D01*
G36*
X31868123Y-87172000D02*
G01*
X32017123Y-87223000D01*
X32182123Y-87308000D01*
X32380123Y-87435000D01*
X32564123Y-87556000D01*
X32724123Y-87647000D01*
X32881123Y-87718000D01*
X33056123Y-87780000D01*
X33270123Y-87842000D01*
X33550123Y-87924000D01*
X33725123Y-87998000D01*
X33855123Y-88090000D01*
X34028123Y-88266000D01*
X34131123Y-88445000D01*
X34173123Y-88642000D01*
X34168123Y-88799000D01*
X34111123Y-88961000D01*
X34014123Y-89124000D01*
X33883123Y-89253000D01*
X33715123Y-89349000D01*
X33507123Y-89414000D01*
X33257123Y-89449000D01*
X33032123Y-89484000D01*
X32862123Y-89560000D01*
X32705123Y-89697000D01*
X32507123Y-89881000D01*
X32334123Y-89969000D01*
X32123123Y-89993000D01*
X31965123Y-89977000D01*
X31793123Y-89913000D01*
X31626123Y-89821000D01*
X31500123Y-89691000D01*
X31399123Y-89537000D01*
X31355123Y-89375000D01*
X31357123Y-89172000D01*
X31369123Y-88957000D01*
X31349123Y-88797000D01*
X31284123Y-88650000D01*
X31164123Y-88476000D01*
X31039123Y-88282000D01*
X30960123Y-88092000D01*
X30926123Y-87905000D01*
X30937123Y-87722000D01*
X30994123Y-87543000D01*
X31077123Y-87394000D01*
X31193123Y-87287000D01*
X31350123Y-87200000D01*
X31529123Y-87152000D01*
X31717123Y-87147000D01*
X31868123Y-87172000D01*
G37*
X31868123Y-87172000D02*
X32017123Y-87223000D01*
X32182123Y-87308000D01*
X32380123Y-87435000D01*
X32564123Y-87556000D01*
X32724123Y-87647000D01*
X32881123Y-87718000D01*
X33056123Y-87780000D01*
X33270123Y-87842000D01*
X33550123Y-87924000D01*
X33725123Y-87998000D01*
X33855123Y-88090000D01*
X34028123Y-88266000D01*
X34131123Y-88445000D01*
X34173123Y-88642000D01*
X34168123Y-88799000D01*
X34111123Y-88961000D01*
X34014123Y-89124000D01*
X33883123Y-89253000D01*
X33715123Y-89349000D01*
X33507123Y-89414000D01*
X33257123Y-89449000D01*
X33032123Y-89484000D01*
X32862123Y-89560000D01*
X32705123Y-89697000D01*
X32507123Y-89881000D01*
X32334123Y-89969000D01*
X32123123Y-89993000D01*
X31965123Y-89977000D01*
X31793123Y-89913000D01*
X31626123Y-89821000D01*
X31500123Y-89691000D01*
X31399123Y-89537000D01*
X31355123Y-89375000D01*
X31357123Y-89172000D01*
X31369123Y-88957000D01*
X31349123Y-88797000D01*
X31284123Y-88650000D01*
X31164123Y-88476000D01*
X31039123Y-88282000D01*
X30960123Y-88092000D01*
X30926123Y-87905000D01*
X30937123Y-87722000D01*
X30994123Y-87543000D01*
X31077123Y-87394000D01*
X31193123Y-87287000D01*
X31350123Y-87200000D01*
X31529123Y-87152000D01*
X31717123Y-87147000D01*
X31868123Y-87172000D01*
G36*
X30667123Y-88191000D02*
G01*
X30764123Y-88250000D01*
X30864123Y-88332000D01*
X30997123Y-88492000D01*
X31075123Y-88668000D01*
X31098123Y-88862000D01*
X31068123Y-89075000D01*
X30983123Y-89310000D01*
X30875123Y-89512000D01*
X30748123Y-89684000D01*
X30601123Y-89826000D01*
X30430123Y-89942000D01*
X30235123Y-90033000D01*
X30007123Y-90096000D01*
X29803123Y-90105000D01*
X29635123Y-90062000D01*
X29513123Y-89968000D01*
X29454123Y-89822000D01*
X29427123Y-89602000D01*
X29431123Y-89346000D01*
X29465123Y-89095000D01*
X29530123Y-88886000D01*
X29616123Y-88735000D01*
X29735123Y-88580000D01*
X29876123Y-88433000D01*
X30025123Y-88307000D01*
X30170123Y-88214000D01*
X30333123Y-88164000D01*
X30513123Y-88155000D01*
X30667123Y-88191000D01*
G37*
X30667123Y-88191000D02*
X30764123Y-88250000D01*
X30864123Y-88332000D01*
X30997123Y-88492000D01*
X31075123Y-88668000D01*
X31098123Y-88862000D01*
X31068123Y-89075000D01*
X30983123Y-89310000D01*
X30875123Y-89512000D01*
X30748123Y-89684000D01*
X30601123Y-89826000D01*
X30430123Y-89942000D01*
X30235123Y-90033000D01*
X30007123Y-90096000D01*
X29803123Y-90105000D01*
X29635123Y-90062000D01*
X29513123Y-89968000D01*
X29454123Y-89822000D01*
X29427123Y-89602000D01*
X29431123Y-89346000D01*
X29465123Y-89095000D01*
X29530123Y-88886000D01*
X29616123Y-88735000D01*
X29735123Y-88580000D01*
X29876123Y-88433000D01*
X30025123Y-88307000D01*
X30170123Y-88214000D01*
X30333123Y-88164000D01*
X30513123Y-88155000D01*
X30667123Y-88191000D01*
G36*
X33042123Y-91783000D02*
G01*
X33255123Y-91838000D01*
X33369123Y-91914000D01*
X33260123Y-92035000D01*
X33075123Y-92173000D01*
X32898123Y-92263000D01*
X32753123Y-92255000D01*
X32776123Y-92109000D01*
X32840123Y-91893000D01*
X32899123Y-91760000D01*
X33042123Y-91783000D01*
G37*
G36*
X32291123Y-90807000D02*
G01*
X32440123Y-90905000D01*
X32553123Y-91055000D01*
X32625123Y-91231000D01*
X32654123Y-91423000D01*
X32638123Y-91622000D01*
X32577123Y-91815000D01*
X32504123Y-91951000D01*
X32408123Y-92068000D01*
X32260123Y-92195000D01*
X32034123Y-92359000D01*
X31773123Y-92528000D01*
X31571123Y-92628000D01*
X31404123Y-92666000D01*
X31250123Y-92652000D01*
X31101123Y-92582000D01*
X31007123Y-92458000D01*
X30969123Y-92281000D01*
X30986123Y-92052000D01*
X31059123Y-91771000D01*
X31141123Y-91557000D01*
X31239123Y-91359000D01*
X31350123Y-91181000D01*
X31471123Y-91029000D01*
X31599123Y-90905000D01*
X31730123Y-90816000D01*
X31908123Y-90759000D01*
X32104123Y-90757000D01*
X32291123Y-90807000D01*
G37*
X32291123Y-90807000D02*
X32440123Y-90905000D01*
X32553123Y-91055000D01*
X32625123Y-91231000D01*
X32654123Y-91423000D01*
X32638123Y-91622000D01*
X32577123Y-91815000D01*
X32504123Y-91951000D01*
X32408123Y-92068000D01*
X32260123Y-92195000D01*
X32034123Y-92359000D01*
X31773123Y-92528000D01*
X31571123Y-92628000D01*
X31404123Y-92666000D01*
X31250123Y-92652000D01*
X31101123Y-92582000D01*
X31007123Y-92458000D01*
X30969123Y-92281000D01*
X30986123Y-92052000D01*
X31059123Y-91771000D01*
X31141123Y-91557000D01*
X31239123Y-91359000D01*
X31350123Y-91181000D01*
X31471123Y-91029000D01*
X31599123Y-90905000D01*
X31730123Y-90816000D01*
X31908123Y-90759000D01*
X32104123Y-90757000D01*
X32291123Y-90807000D01*
G36*
X29390123Y-90079000D02*
G01*
X29565123Y-90198000D01*
X29678123Y-90300000D01*
X29610123Y-90438000D01*
X29483123Y-90631000D01*
X29391123Y-90738000D01*
X29319123Y-90667000D01*
X29260123Y-90462000D01*
X29232123Y-90221000D01*
X29254123Y-90041000D01*
X29390123Y-90079000D01*
G37*
G36*
X30796123Y-90129000D02*
G01*
X30957123Y-90228000D01*
X31098123Y-90396000D01*
X31168123Y-90615000D01*
X31176123Y-90799000D01*
X31149123Y-91008000D01*
X31088123Y-91232000D01*
X30995123Y-91463000D01*
X30873123Y-91694000D01*
X30713123Y-91930000D01*
X30558123Y-92091000D01*
X30407123Y-92177000D01*
X30259123Y-92190000D01*
X30091123Y-92127000D01*
X29964123Y-91996000D01*
X29872123Y-91789000D01*
X29811123Y-91498000D01*
X29776123Y-91188000D01*
X29770123Y-90932000D01*
X29794123Y-90722000D01*
X29851123Y-90548000D01*
X29942123Y-90403000D01*
X30069123Y-90275000D01*
X30249123Y-90157000D01*
X30435123Y-90094000D01*
X30620123Y-90084000D01*
X30796123Y-90129000D01*
G37*
X30796123Y-90129000D02*
X30957123Y-90228000D01*
X31098123Y-90396000D01*
X31168123Y-90615000D01*
X31176123Y-90799000D01*
X31149123Y-91008000D01*
X31088123Y-91232000D01*
X30995123Y-91463000D01*
X30873123Y-91694000D01*
X30713123Y-91930000D01*
X30558123Y-92091000D01*
X30407123Y-92177000D01*
X30259123Y-92190000D01*
X30091123Y-92127000D01*
X29964123Y-91996000D01*
X29872123Y-91789000D01*
X29811123Y-91498000D01*
X29776123Y-91188000D01*
X29770123Y-90932000D01*
X29794123Y-90722000D01*
X29851123Y-90548000D01*
X29942123Y-90403000D01*
X30069123Y-90275000D01*
X30249123Y-90157000D01*
X30435123Y-90094000D01*
X30620123Y-90084000D01*
X30796123Y-90129000D01*
G36*
X29999123Y-92244000D02*
G01*
X30200123Y-92319000D01*
X30370123Y-92401000D01*
X30337123Y-92513000D01*
X30262123Y-92715000D01*
X30166123Y-92938000D01*
X30114123Y-92962000D01*
X30041123Y-92845000D01*
X29963123Y-92621000D01*
X29916123Y-92394000D01*
X29916123Y-92212000D01*
X29999123Y-92244000D01*
G37*
G36*
X31041123Y-92705000D02*
G01*
X31215123Y-92798000D01*
X31296123Y-92841000D01*
X31159123Y-92960000D01*
X30962123Y-93072000D01*
X30741123Y-93162000D01*
X30608123Y-93186000D01*
X30582123Y-93117000D01*
X30696123Y-92886000D01*
X30832123Y-92658000D01*
X30923123Y-92610000D01*
X31041123Y-92705000D01*
G37*
G04 #@! TD*
D14*
G04 #@! TO.C,C4*
X42100000Y-74050000D03*
X42100000Y-72150000D03*
G04 #@! TD*
D15*
G04 #@! TO.C,L5*
X44850000Y-67100000D03*
X49550000Y-67100000D03*
G04 #@! TD*
D16*
G04 #@! TO.C,L4*
X43750000Y-67200000D03*
X50650000Y-67200000D03*
G04 #@! TD*
D14*
G04 #@! TO.C,C29*
X49500000Y-61650000D03*
X49500000Y-59750000D03*
G04 #@! TD*
D17*
G04 #@! TO.C,C11*
X50875000Y-40500000D03*
X49325000Y-40500000D03*
G04 #@! TD*
D14*
G04 #@! TO.C,C18*
X51300000Y-61650000D03*
X51300000Y-59750000D03*
G04 #@! TD*
D18*
G04 #@! TO.C,U2*
X39300000Y-68681233D03*
X38800000Y-68681233D03*
X38300000Y-68681233D03*
X37800000Y-68681233D03*
X37300000Y-68681233D03*
D19*
X36375000Y-69606233D03*
X36375000Y-70106233D03*
X36375000Y-70606233D03*
X36375000Y-71106233D03*
X36375000Y-71606233D03*
D18*
X37300000Y-72531233D03*
X37800000Y-72531233D03*
X38300000Y-72531233D03*
X38800000Y-72531233D03*
X39300000Y-72531233D03*
D19*
X40225000Y-71606233D03*
X40225000Y-71106233D03*
X40225000Y-70606233D03*
X40225000Y-70106233D03*
X40225000Y-69606233D03*
D20*
X38300000Y-70606233D03*
G04 #@! TD*
D21*
G04 #@! TO.C,R14*
X38332500Y-58950000D03*
X36682500Y-58950000D03*
G04 #@! TD*
D22*
G04 #@! TO.C,J20*
X53340000Y-45720000D03*
G04 #@! TD*
D17*
G04 #@! TO.C,C2*
X50850000Y-42200000D03*
X49300000Y-42200000D03*
G04 #@! TD*
D23*
G04 #@! TO.C,D2*
X48350000Y-57600000D03*
X51650000Y-57600000D03*
G04 #@! TD*
D24*
G04 #@! TO.C,U3*
X45562500Y-59550000D03*
X45562500Y-60500000D03*
X45562500Y-61450000D03*
X47837500Y-61450000D03*
X47837500Y-60500000D03*
X47837500Y-59550000D03*
G04 #@! TD*
D22*
G04 #@! TO.C,J10*
X30480000Y-55880000D03*
G04 #@! TD*
G04 #@! TO.C,J23*
X53340000Y-53340000D03*
G04 #@! TD*
D25*
G04 #@! TO.C,R8*
X32745000Y-55450000D03*
X34395000Y-55450000D03*
G04 #@! TD*
G04 #@! TO.C,R17*
X39682500Y-58950000D03*
X41332500Y-58950000D03*
G04 #@! TD*
D21*
G04 #@! TO.C,C22*
X34395000Y-56950000D03*
X32745000Y-56950000D03*
G04 #@! TD*
D26*
G04 #@! TO.C,R20*
X41200000Y-68512500D03*
X41200000Y-66687500D03*
G04 #@! TD*
D21*
G04 #@! TO.C,R32*
X38025000Y-40000000D03*
X36375000Y-40000000D03*
G04 #@! TD*
D27*
G04 #@! TO.C,C3*
X31100000Y-76975000D03*
X31100000Y-75425000D03*
G04 #@! TD*
D28*
G04 #@! TO.C,R2*
X36275000Y-36750000D03*
X36275000Y-38400000D03*
G04 #@! TD*
D29*
G04 #@! TO.C,C10*
X37525000Y-34000000D03*
X39075000Y-34000000D03*
G04 #@! TD*
D30*
G04 #@! TO.C,R11*
X52600000Y-81225000D03*
X52600000Y-79575000D03*
G04 #@! TD*
D28*
G04 #@! TO.C,R10*
X36100000Y-44875000D03*
X36100000Y-46525000D03*
G04 #@! TD*
D31*
G04 #@! TO.C,L2*
X48800000Y-54200000D03*
X51600000Y-54200000D03*
G04 #@! TD*
D22*
G04 #@! TO.C,J4*
X30480000Y-40780000D03*
G04 #@! TD*
D32*
G04 #@! TO.C,C13*
X48600000Y-47625000D03*
X48600000Y-49175000D03*
G04 #@! TD*
D22*
G04 #@! TO.C,J7*
X30480000Y-48400000D03*
G04 #@! TD*
D17*
G04 #@! TO.C,C21*
X51675000Y-51200000D03*
X50125000Y-51200000D03*
G04 #@! TD*
D25*
G04 #@! TO.C,R23*
X42350000Y-62200000D03*
X44000000Y-62200000D03*
G04 #@! TD*
D22*
G04 #@! TO.C,J25*
X53340000Y-58420000D03*
G04 #@! TD*
D21*
G04 #@! TO.C,R13*
X38395000Y-57450000D03*
X36745000Y-57450000D03*
G04 #@! TD*
D33*
G04 #@! TO.C,D1*
X50230000Y-73031233D03*
X46230000Y-73031233D03*
G04 #@! TD*
D22*
G04 #@! TO.C,J27*
X53340000Y-66040000D03*
G04 #@! TD*
D30*
G04 #@! TO.C,R6*
X32970000Y-72425000D03*
X32970000Y-70775000D03*
G04 #@! TD*
D25*
G04 #@! TO.C,R19*
X33825000Y-73831233D03*
X35475000Y-73831233D03*
G04 #@! TD*
D30*
G04 #@! TO.C,R29*
X45500000Y-36925000D03*
X45500000Y-35275000D03*
G04 #@! TD*
D22*
G04 #@! TO.C,J8*
X30480000Y-50800000D03*
G04 #@! TD*
G04 #@! TO.C,J17*
X53340000Y-38100000D03*
G04 #@! TD*
G04 #@! TO.C,J26*
X53340000Y-60960000D03*
G04 #@! TD*
D25*
G04 #@! TO.C,R18*
X39682500Y-57450000D03*
X41332500Y-57450000D03*
G04 #@! TD*
D17*
G04 #@! TO.C,C20*
X34575000Y-69100000D03*
X33025000Y-69100000D03*
G04 #@! TD*
D30*
G04 #@! TO.C,C8*
X37925000Y-46550000D03*
X37925000Y-44900000D03*
G04 #@! TD*
D29*
G04 #@! TO.C,C24*
X43295000Y-56200000D03*
X44845000Y-56200000D03*
G04 #@! TD*
D21*
G04 #@! TO.C,R3*
X50925000Y-44200000D03*
X49275000Y-44200000D03*
G04 #@! TD*
D30*
G04 #@! TO.C,R12*
X31200000Y-81225000D03*
X31200000Y-79575000D03*
G04 #@! TD*
G04 #@! TO.C,R26*
X46900000Y-53525000D03*
X46900000Y-51875000D03*
G04 #@! TD*
D34*
G04 #@! TO.C,U4*
X36820000Y-54887500D03*
X37320000Y-54887500D03*
X37820000Y-54887500D03*
X38320000Y-54887500D03*
X38820000Y-54887500D03*
X39320000Y-54887500D03*
X39820000Y-54887500D03*
X40320000Y-54887500D03*
D35*
X41007500Y-54200000D03*
X41007500Y-53700000D03*
X41007500Y-53200000D03*
X41007500Y-52700000D03*
X41007500Y-52200000D03*
X41007500Y-51700000D03*
X41007500Y-51200000D03*
X41007500Y-50700000D03*
D34*
X40320000Y-50012500D03*
X39820000Y-50012500D03*
X39320000Y-50012500D03*
X38820000Y-50012500D03*
X38320000Y-50012500D03*
X37820000Y-50012500D03*
X37320000Y-50012500D03*
X36820000Y-50012500D03*
D35*
X36132500Y-50700000D03*
X36132500Y-51200000D03*
X36132500Y-51700000D03*
X36132500Y-52200000D03*
X36132500Y-52700000D03*
X36132500Y-53200000D03*
X36132500Y-53700000D03*
X36132500Y-54200000D03*
D36*
X38570000Y-52450000D03*
G04 #@! TD*
D30*
G04 #@! TO.C,R5*
X33800000Y-46525000D03*
X33800000Y-44875000D03*
G04 #@! TD*
D17*
G04 #@! TO.C,C16*
X47850000Y-44300000D03*
X46300000Y-44300000D03*
G04 #@! TD*
D22*
G04 #@! TO.C,J14*
X30480000Y-66040000D03*
G04 #@! TD*
D37*
G04 #@! TO.C,SW1*
X36000000Y-34400000D03*
X31800000Y-34400000D03*
G04 #@! TD*
D38*
G04 #@! TO.C,TP1*
X39900000Y-47600000D03*
G04 #@! TD*
D22*
G04 #@! TO.C,J19*
X53340000Y-43180000D03*
G04 #@! TD*
D21*
G04 #@! TO.C,R4*
X48925000Y-35400000D03*
X47275000Y-35400000D03*
G04 #@! TD*
D22*
G04 #@! TO.C,J12*
X30480000Y-60960000D03*
G04 #@! TD*
G04 #@! TO.C,J22*
X53340000Y-50800000D03*
G04 #@! TD*
D28*
G04 #@! TO.C,R25*
X31100000Y-72175000D03*
X31100000Y-73825000D03*
G04 #@! TD*
D27*
G04 #@! TO.C,C6*
X32800000Y-66275000D03*
X32800000Y-64725000D03*
G04 #@! TD*
D39*
G04 #@! TO.C,D3*
X52500000Y-34312500D03*
X52500000Y-35887500D03*
G04 #@! TD*
D22*
G04 #@! TO.C,J29*
X53340000Y-76260000D03*
G04 #@! TD*
D21*
G04 #@! TO.C,L3*
X44795000Y-53200000D03*
X43145000Y-53200000D03*
G04 #@! TD*
D22*
G04 #@! TO.C,J3*
X30480000Y-38010000D03*
G04 #@! TD*
D17*
G04 #@! TO.C,C7*
X37775000Y-64050000D03*
X36225000Y-64050000D03*
G04 #@! TD*
D29*
G04 #@! TO.C,C26*
X43195000Y-51600000D03*
X44745000Y-51600000D03*
G04 #@! TD*
D30*
G04 #@! TO.C,R27*
X46900000Y-56525000D03*
X46900000Y-54875000D03*
G04 #@! TD*
D22*
G04 #@! TO.C,J16*
X30480000Y-68580000D03*
G04 #@! TD*
D30*
G04 #@! TO.C,R28*
X50800000Y-35925000D03*
X50800000Y-34275000D03*
G04 #@! TD*
D29*
G04 #@! TO.C,C12*
X44725000Y-49855000D03*
X46275000Y-49855000D03*
G04 #@! TD*
D22*
G04 #@! TO.C,J24*
X53340000Y-55880000D03*
G04 #@! TD*
D25*
G04 #@! TO.C,R21*
X32975000Y-67600000D03*
X34625000Y-67600000D03*
G04 #@! TD*
D29*
G04 #@! TO.C,C5*
X50125000Y-49700000D03*
X51675000Y-49700000D03*
G04 #@! TD*
D21*
G04 #@! TO.C,R24*
X44000000Y-60850000D03*
X42350000Y-60850000D03*
G04 #@! TD*
D22*
G04 #@! TO.C,J13*
X30480000Y-63500000D03*
G04 #@! TD*
D17*
G04 #@! TO.C,C15*
X50875000Y-45800000D03*
X49325000Y-45800000D03*
G04 #@! TD*
G04 #@! TO.C,C25*
X34345000Y-53200000D03*
X32795000Y-53200000D03*
G04 #@! TD*
D22*
G04 #@! TO.C,J5*
X30480000Y-43320000D03*
G04 #@! TD*
D17*
G04 #@! TO.C,C1*
X38575000Y-73831233D03*
X37025000Y-73831233D03*
G04 #@! TD*
G04 #@! TO.C,C28*
X37775000Y-62600000D03*
X36225000Y-62600000D03*
G04 #@! TD*
D28*
G04 #@! TO.C,R15*
X31200000Y-82575000D03*
X31200000Y-84225000D03*
G04 #@! TD*
D40*
G04 #@! TO.C,C27*
X39600000Y-63400000D03*
X34525000Y-63400000D03*
G04 #@! TD*
D25*
G04 #@! TO.C,R1*
X40575000Y-34000000D03*
X42225000Y-34000000D03*
G04 #@! TD*
D21*
G04 #@! TO.C,R22*
X48925000Y-33900000D03*
X47275000Y-33900000D03*
G04 #@! TD*
D27*
G04 #@! TO.C,C9*
X42475000Y-48550000D03*
X42475000Y-47000000D03*
G04 #@! TD*
D41*
G04 #@! TO.C,J1*
X36150000Y-85921233D03*
X47580000Y-85921233D03*
D42*
X36150000Y-77031233D03*
D43*
X37420000Y-79571233D03*
X38690000Y-77031233D03*
X39960000Y-79571233D03*
X41230000Y-77031233D03*
X42500000Y-79571233D03*
X43770000Y-77031233D03*
X45040000Y-79571233D03*
X46310000Y-77031233D03*
X47580000Y-79571233D03*
D22*
X35235000Y-90001233D03*
X37775000Y-90001233D03*
X45955000Y-90001233D03*
X48495000Y-90001233D03*
D44*
X34120000Y-82871233D03*
X49610000Y-82871233D03*
G04 #@! TD*
D21*
G04 #@! TO.C,R9*
X44795000Y-54700000D03*
X43145000Y-54700000D03*
G04 #@! TD*
D22*
G04 #@! TO.C,J28*
X53340000Y-68580000D03*
G04 #@! TD*
G04 #@! TO.C,J21*
X53340000Y-48260000D03*
G04 #@! TD*
D29*
G04 #@! TO.C,C19*
X44125000Y-33700000D03*
X45675000Y-33700000D03*
G04 #@! TD*
D22*
G04 #@! TO.C,J15*
X53340000Y-63500000D03*
G04 #@! TD*
D28*
G04 #@! TO.C,R16*
X52600000Y-82575000D03*
X52600000Y-84225000D03*
G04 #@! TD*
D25*
G04 #@! TO.C,L1*
X46250000Y-42575000D03*
X47900000Y-42575000D03*
G04 #@! TD*
D32*
G04 #@! TO.C,C14*
X37675000Y-36800000D03*
X37675000Y-38350000D03*
G04 #@! TD*
D22*
G04 #@! TO.C,J6*
X30480000Y-45860000D03*
G04 #@! TD*
D45*
G04 #@! TO.C,U1*
X44425000Y-43283333D03*
X44425000Y-42933333D03*
X44425000Y-42583333D03*
X44425000Y-42233333D03*
X44425000Y-41883333D03*
X44425000Y-41533333D03*
X44425000Y-41183333D03*
X44425000Y-40833333D03*
X44425000Y-40483333D03*
X44425000Y-40133333D03*
X44425000Y-39783333D03*
X44425000Y-39433333D03*
X44425000Y-39083333D03*
X44425000Y-38733333D03*
D46*
X43550000Y-38558333D03*
X43200000Y-38558333D03*
X42850000Y-38558333D03*
X42500000Y-38558333D03*
X42150000Y-38558333D03*
X41800000Y-38558333D03*
X41450000Y-38558333D03*
X41100000Y-38558333D03*
X40750000Y-38558333D03*
X40400000Y-38558333D03*
D45*
X39525000Y-38733333D03*
X39525000Y-39083333D03*
X39525000Y-39433333D03*
X39525000Y-39783333D03*
X39525000Y-40133333D03*
X39525000Y-40483333D03*
X39525000Y-40833333D03*
X39525000Y-41183333D03*
X39525000Y-41533333D03*
X39525000Y-41883333D03*
X39525000Y-42233333D03*
X39525000Y-42583333D03*
X39525000Y-42933333D03*
X39525000Y-43283333D03*
D46*
X40400000Y-43458333D03*
X40750000Y-43458333D03*
X41100000Y-43458333D03*
X41450000Y-43458333D03*
X41800000Y-43458333D03*
X42150000Y-43458333D03*
X42500000Y-43458333D03*
X42850000Y-43458333D03*
X43200000Y-43458333D03*
X43550000Y-43458333D03*
D47*
X41975000Y-41008333D03*
G04 #@! TD*
D22*
G04 #@! TO.C,J2*
X53340000Y-73660000D03*
G04 #@! TD*
G04 #@! TO.C,J18*
X53340000Y-40640000D03*
G04 #@! TD*
D28*
G04 #@! TO.C,R7*
X34650000Y-70775000D03*
X34650000Y-72425000D03*
G04 #@! TD*
D22*
G04 #@! TO.C,J9*
X30480000Y-53340000D03*
G04 #@! TD*
D17*
G04 #@! TO.C,C23*
X34345000Y-51700000D03*
X32795000Y-51700000D03*
G04 #@! TD*
D25*
G04 #@! TO.C,R31*
X32745000Y-50200000D03*
X34395000Y-50200000D03*
G04 #@! TD*
D29*
G04 #@! TO.C,C17*
X45325000Y-58000000D03*
X46875000Y-58000000D03*
G04 #@! TD*
D22*
G04 #@! TO.C,J11*
X30480000Y-58420000D03*
G04 #@! TD*
D30*
G04 #@! TO.C,R30*
X44000000Y-36925000D03*
X44000000Y-35275000D03*
G04 #@! TD*
D48*
G04 #@! TO.C,Y1*
X44625000Y-48325000D03*
X46825000Y-48325000D03*
X46825000Y-46625000D03*
X44625000Y-46625000D03*
G04 #@! TD*
M02*
